<?xml version="1.0" encoding="UTF-8"?>
<svg xmlns="http://www.w3.org/2000/svg" xmlns:xlink="http://www.w3.org/1999/xlink" width="363pt" height="80pt" viewBox="0 0 363 80" version="1.1">
<g id="surface1">
<path style=" stroke:none;fill-rule:nonzero;fill:rgb(12.156863%,30.588235%,47.45098%);fill-opacity:1;" d="M 0 16.617188 L 0 0.867188 L 4.359375 0.867188 C 5.578125 0.867188 6.675781 1.152344 7.667969 1.730469 C 8.652344 2.308594 9.425781 3.117188 9.984375 4.160156 C 10.546875 5.203125 10.839844 6.371094 10.859375 7.660156 L 10.859375 9.703125 C 10.859375 11.015625 10.582031 12.203125 10.03125 13.253906 C 9.480469 14.308594 8.707031 15.128906 7.714844 15.714844 C 6.730469 16.308594 5.625 16.605469 4.410156 16.617188 Z M 0.582031 1.449219 L 0.582031 16.027344 L 4.359375 16.027344 C 5.460938 16.027344 6.460938 15.761719 7.363281 15.222656 C 8.269531 14.6875 8.980469 13.933594 9.492188 12.972656 C 10.003906 12.015625 10.261719 10.941406 10.273438 9.769531 L 10.273438 7.742188 C 10.273438 6.566406 10.023438 5.5 9.519531 4.542969 C 9.019531 3.582031 8.316406 2.832031 7.421875 2.289062 C 6.523438 1.742188 5.527344 1.460938 4.441406 1.449219 Z M 0.582031 1.449219 "/>
<path style=" stroke:none;fill-rule:nonzero;fill:rgb(12.156863%,30.588235%,47.45098%);fill-opacity:1;" d="M 19.335938 5.332031 L 18.582031 5.269531 C 17.582031 5.269531 16.75 5.589844 16.082031 6.234375 C 15.410156 6.878906 14.96875 7.785156 14.761719 8.949219 L 14.761719 16.617188 L 14.179688 16.617188 L 14.179688 4.910156 L 14.761719 4.910156 L 14.761719 7.347656 C 15.078125 6.527344 15.558594 5.886719 16.191406 5.410156 C 16.828125 4.933594 17.621094 4.691406 18.582031 4.691406 C 18.917969 4.691406 19.195312 4.730469 19.398438 4.8125 Z M 19.335938 5.332031 "/>
<path style=" stroke:none;fill-rule:nonzero;fill:rgb(12.156863%,30.588235%,47.45098%);fill-opacity:1;" d="M 21.308594 16.082031 C 21.308594 15.917969 21.367188 15.773438 21.480469 15.660156 C 21.59375 15.539062 21.738281 15.480469 21.90625 15.480469 C 22.066406 15.480469 22.210938 15.539062 22.328125 15.660156 C 22.441406 15.773438 22.503906 15.917969 22.503906 16.082031 C 22.503906 16.25 22.441406 16.390625 22.328125 16.503906 C 22.210938 16.621094 22.066406 16.679688 21.90625 16.679688 C 21.738281 16.679688 21.59375 16.621094 21.480469 16.503906 C 21.367188 16.390625 21.308594 16.25 21.308594 16.082031 Z M 21.308594 16.082031 "/>
<path style=" stroke:none;fill-rule:nonzero;fill:rgb(12.156863%,30.588235%,47.45098%);fill-opacity:1;" d="M 36.339844 10.101562 L 41.851562 0.867188 L 42.570312 0.867188 L 36.628906 10.636719 L 36.628906 16.617188 L 36.046875 16.617188 L 36.046875 10.636719 L 30.109375 0.867188 L 30.886719 0.867188 Z M 36.339844 10.101562 "/>
<path style=" stroke:none;fill-rule:nonzero;fill:rgb(12.156863%,30.588235%,47.45098%);fill-opacity:1;" d="M 52.675781 16.617188 L 52.675781 14.722656 C 52.332031 15.375 51.824219 15.890625 51.15625 16.269531 C 50.496094 16.644531 49.660156 16.832031 48.640625 16.832031 C 47.367188 16.832031 46.410156 16.457031 45.769531 15.710938 C 45.128906 14.960938 44.808594 13.875 44.792969 12.449219 L 44.792969 4.910156 L 45.378906 4.910156 L 45.378906 12.472656 C 45.390625 13.710938 45.667969 14.652344 46.214844 15.292969 C 46.769531 15.933594 47.570312 16.25 48.621094 16.25 C 49.734375 16.25 50.644531 15.984375 51.34375 15.460938 C 52.046875 14.933594 52.488281 14.160156 52.675781 13.140625 L 52.675781 4.910156 L 53.273438 4.910156 L 53.273438 16.617188 Z M 52.675781 16.617188 "/>
<path style=" stroke:none;fill-rule:nonzero;fill:rgb(12.156863%,30.588235%,47.45098%);fill-opacity:1;" d="M 65.667969 15.640625 L 66.390625 13.042969 L 70.105469 0.867188 L 70.753906 0.867188 L 74.449219 13.042969 L 75.15625 15.640625 L 75.894531 13.042969 L 79.136719 0.867188 L 79.777344 0.867188 L 75.53125 16.617188 L 74.875 16.617188 L 70.972656 3.480469 L 70.417969 1.8125 L 69.890625 3.480469 L 65.953125 16.617188 L 65.292969 16.617188 L 61.046875 0.867188 L 61.6875 0.867188 L 64.957031 13.042969 Z M 65.667969 15.640625 "/>
<path style=" stroke:none;fill-rule:nonzero;fill:rgb(12.156863%,30.588235%,47.45098%);fill-opacity:1;" d="M 89.871094 16.617188 C 89.726562 16.121094 89.65625 15.402344 89.65625 14.472656 C 89.191406 15.222656 88.558594 15.804688 87.757812 16.214844 C 86.957031 16.625 86.054688 16.832031 85.046875 16.832031 C 83.964844 16.832031 83.09375 16.539062 82.429688 15.953125 C 81.773438 15.367188 81.445312 14.597656 81.445312 13.652344 C 81.445312 12.578125 81.929688 11.714844 82.902344 11.066406 C 83.867188 10.421875 85.160156 10.097656 86.769531 10.082031 L 89.65625 10.082031 L 89.65625 8.371094 C 89.65625 7.394531 89.347656 6.628906 88.730469 6.085938 C 88.117188 5.546875 87.230469 5.273438 86.082031 5.273438 C 85.015625 5.273438 84.128906 5.554688 83.410156 6.101562 C 82.699219 6.648438 82.34375 7.328125 82.34375 8.136719 L 81.757812 8.117188 C 81.757812 7.164062 82.175781 6.355469 83.015625 5.691406 C 83.851562 5.023438 84.875 4.691406 86.082031 4.691406 C 87.347656 4.691406 88.351562 5.011719 89.09375 5.640625 C 89.832031 6.273438 90.21875 7.164062 90.234375 8.308594 L 90.234375 13.894531 C 90.234375 15.183594 90.335938 16.058594 90.539062 16.519531 L 90.539062 16.617188 Z M 85.046875 16.253906 C 86.144531 16.253906 87.089844 16.011719 87.871094 15.523438 C 88.664062 15.035156 89.253906 14.339844 89.65625 13.453125 L 89.65625 10.679688 L 86.949219 10.679688 C 85.28125 10.679688 83.996094 11.011719 83.113281 11.671875 C 82.386719 12.210938 82.027344 12.886719 82.027344 13.691406 C 82.027344 14.402344 82.308594 15.015625 82.882812 15.511719 C 83.453125 16.011719 84.175781 16.253906 85.046875 16.253906 Z M 85.046875 16.253906 "/>
<path style=" stroke:none;fill-rule:nonzero;fill:rgb(12.156863%,30.588235%,47.45098%);fill-opacity:1;" d="M 94.585938 7.636719 C 94.972656 6.726562 95.535156 6.011719 96.273438 5.484375 C 97.015625 4.957031 97.839844 4.691406 98.738281 4.691406 C 99.992188 4.691406 100.925781 5.046875 101.535156 5.761719 C 102.148438 6.472656 102.453125 7.542969 102.464844 8.980469 L 102.464844 16.617188 L 101.882812 16.617188 L 101.882812 8.953125 C 101.875 7.703125 101.613281 6.773438 101.113281 6.171875 C 100.609375 5.574219 99.804688 5.269531 98.710938 5.269531 C 97.699219 5.269531 96.828125 5.628906 96.085938 6.347656 C 95.347656 7.0625 94.847656 7.992188 94.585938 9.121094 L 94.585938 16.617188 L 94.003906 16.617188 L 94.003906 4.910156 L 94.585938 4.910156 Z M 94.585938 7.636719 "/>
<path style=" stroke:none;fill-rule:nonzero;fill:rgb(12.156863%,30.588235%,47.45098%);fill-opacity:1;" d="M 105.570312 10.640625 C 105.570312 8.773438 105.964844 7.316406 106.746094 6.269531 C 107.535156 5.214844 108.613281 4.691406 109.988281 4.691406 C 110.855469 4.691406 111.628906 4.894531 112.304688 5.292969 C 112.980469 5.699219 113.53125 6.285156 113.9375 7.046875 L 113.9375 4.910156 L 114.535156 4.910156 L 114.535156 16.410156 C 114.535156 17.953125 114.136719 19.152344 113.34375 20.023438 C 112.554688 20.894531 111.476562 21.332031 110.113281 21.332031 C 109.328125 21.332031 108.605469 21.160156 107.953125 20.816406 C 107.304688 20.480469 106.746094 19.996094 106.285156 19.367188 L 106.699219 18.972656 C 107.152344 19.546875 107.644531 19.992188 108.183594 20.292969 C 108.726562 20.601562 109.363281 20.753906 110.09375 20.753906 C 111.292969 20.753906 112.230469 20.390625 112.898438 19.660156 C 113.574219 18.929688 113.917969 17.894531 113.9375 16.5625 L 113.9375 14.761719 C 113.539062 15.429688 112.992188 15.941406 112.304688 16.296875 C 111.617188 16.652344 110.832031 16.832031 109.957031 16.832031 C 108.601562 16.832031 107.535156 16.296875 106.746094 15.222656 C 105.964844 14.148438 105.570312 12.667969 105.570312 10.792969 Z M 106.164062 10.871094 C 106.164062 12.542969 106.496094 13.855469 107.160156 14.8125 C 107.824219 15.769531 108.757812 16.25 109.953125 16.25 C 110.9375 16.25 111.78125 16.019531 112.472656 15.5625 C 113.164062 15.101562 113.65625 14.457031 113.9375 13.625 L 113.9375 8.316406 C 113.308594 6.289062 111.980469 5.273438 109.972656 5.273438 C 108.765625 5.273438 107.828125 5.75 107.164062 6.699219 C 106.496094 7.644531 106.164062 9.035156 106.164062 10.871094 Z M 106.164062 10.871094 "/>
<path style=" stroke:none;fill-rule:nonzero;fill:rgb(12.156863%,30.588235%,47.45098%);fill-opacity:1;" d="M 117.628906 4.164062 L 117.230469 3.816406 C 117.816406 3.066406 118.132812 2.292969 118.183594 1.492188 L 118.191406 0 L 118.777344 0 L 118.777344 1.261719 C 118.75 2.414062 118.371094 3.378906 117.628906 4.164062 Z M 117.628906 4.164062 "/>
<path style=" stroke:none;fill-rule:nonzero;fill:rgb(12.156863%,30.588235%,47.45098%);fill-opacity:1;" d="M 128.929688 13.75 C 128.929688 12.328125 127.71875 11.359375 125.296875 10.851562 C 123.839844 10.539062 122.824219 10.140625 122.253906 9.652344 C 121.679688 9.167969 121.398438 8.496094 121.398438 7.644531 C 121.398438 6.789062 121.761719 6.082031 122.488281 5.523438 C 123.214844 4.972656 124.15625 4.691406 125.316406 4.691406 C 126.578125 4.691406 127.59375 4.996094 128.351562 5.597656 C 129.117188 6.199219 129.503906 7.015625 129.503906 8.039062 L 128.90625 8.039062 C 128.90625 7.25 128.574219 6.597656 127.910156 6.066406 C 127.246094 5.539062 126.382812 5.273438 125.316406 5.273438 C 124.292969 5.273438 123.480469 5.5 122.878906 5.949219 C 122.28125 6.394531 121.984375 6.957031 121.984375 7.625 C 121.984375 8.152344 122.09375 8.566406 122.316406 8.867188 C 122.542969 9.164062 122.90625 9.4375 123.410156 9.679688 C 123.917969 9.917969 124.652344 10.148438 125.617188 10.375 C 126.585938 10.601562 127.347656 10.859375 127.910156 11.164062 C 128.472656 11.464844 128.882812 11.824219 129.136719 12.234375 C 129.386719 12.648438 129.511719 13.160156 129.511719 13.753906 C 129.511719 14.679688 129.132812 15.421875 128.378906 15.984375 C 127.621094 16.546875 126.632812 16.832031 125.40625 16.832031 C 124.09375 16.832031 123.03125 16.535156 122.226562 15.941406 C 121.421875 15.339844 121.023438 14.578125 121.023438 13.640625 L 121.605469 13.640625 C 121.664062 14.460938 122.027344 15.101562 122.695312 15.5625 C 123.359375 16.019531 124.261719 16.25 125.40625 16.25 C 126.445312 16.25 127.296875 16.003906 127.949219 15.519531 C 128.601562 15.035156 128.929688 14.441406 128.929688 13.75 Z M 128.929688 13.75 "/>
<path style=" stroke:none;fill-rule:nonzero;fill:rgb(0%,43.921569%,75.294118%);fill-opacity:1;" d="M 23.953125 80.289062 C 23.496094 80.289062 23.097656 80.125 22.765625 79.796875 C 22.4375 79.464844 22.273438 79.066406 22.273438 78.609375 L 22.273438 48.324219 C 22.273438 47.835938 22.4375 47.433594 22.765625 47.117188 C 23.097656 46.804688 23.496094 46.644531 23.953125 46.644531 C 24.644531 46.644531 25.144531 46.929688 25.457031 47.5 L 39.972656 76.367188 L 38.511719 76.367188 L 52.773438 47.5 C 53.113281 46.929688 53.613281 46.644531 54.277344 46.644531 C 54.734375 46.644531 55.125 46.804688 55.441406 47.117188 C 55.753906 47.433594 55.910156 47.835938 55.910156 48.324219 L 55.910156 78.609375 C 55.910156 79.066406 55.753906 79.464844 55.441406 79.796875 C 55.125 80.125 54.734375 80.289062 54.277344 80.289062 C 53.792969 80.289062 53.378906 80.125 53.046875 79.796875 C 52.71875 79.464844 52.558594 79.066406 52.558594 78.609375 L 52.558594 52.671875 L 53.289062 52.722656 L 40.582031 78.691406 C 40.265625 79.242188 39.777344 79.515625 39.117188 79.515625 C 38.394531 79.515625 37.882812 79.171875 37.566406 78.480469 L 24.773438 52.886719 L 25.628906 52.671875 L 25.628906 78.609375 C 25.628906 79.066406 25.464844 79.464844 25.140625 79.796875 C 24.808594 80.125 24.414062 80.289062 23.953125 80.289062 Z M 23.953125 80.289062 "/>
<path style=" stroke:none;fill-rule:nonzero;fill:rgb(0%,43.921569%,75.294118%);fill-opacity:1;" d="M 74.484375 80.511719 C 72.269531 80.511719 70.289062 79.984375 68.535156 78.9375 C 66.785156 77.890625 65.394531 76.457031 64.375 74.648438 C 63.355469 72.835938 62.851562 70.796875 62.851562 68.527344 C 62.851562 66.230469 63.371094 64.171875 64.417969 62.367188 C 65.472656 60.5625 66.898438 59.136719 68.707031 58.085938 C 70.515625 57.035156 72.550781 56.511719 74.820312 56.511719 C 77.089844 56.511719 79.125 57.035156 80.917969 58.085938 C 82.710938 59.136719 84.132812 60.5625 85.179688 62.367188 C 86.226562 64.171875 86.769531 66.230469 86.800781 68.527344 L 85.46875 69.558594 C 85.46875 71.628906 84.984375 73.492188 84.019531 75.144531 C 83.058594 76.792969 81.746094 78.101562 80.097656 79.066406 C 78.445312 80.027344 76.574219 80.511719 74.484375 80.511719 Z M 74.820312 77.492188 C 76.488281 77.492188 77.972656 77.101562 79.28125 76.328125 C 80.589844 75.554688 81.621094 74.480469 82.386719 73.117188 C 83.144531 71.753906 83.527344 70.226562 83.527344 68.527344 C 83.527344 66.808594 83.144531 65.269531 82.386719 63.917969 C 81.621094 62.566406 80.589844 61.5 79.28125 60.707031 C 77.972656 59.917969 76.488281 59.519531 74.820312 59.519531 C 73.1875 59.519531 71.707031 59.917969 70.390625 60.707031 C 69.066406 61.5 68.019531 62.566406 67.242188 63.917969 C 66.46875 65.269531 66.082031 66.808594 66.082031 68.527344 C 66.082031 70.226562 66.46875 71.753906 67.242188 73.117188 C 68.019531 74.480469 69.066406 75.554688 70.390625 76.328125 C 71.707031 77.101562 73.1875 77.492188 74.820312 77.492188 Z M 85.121094 80.289062 C 84.632812 80.289062 84.226562 80.140625 83.910156 79.839844 C 83.597656 79.539062 83.445312 79.144531 83.445312 78.652344 L 83.445312 71.285156 L 84.257812 67.878906 L 86.800781 68.527344 L 86.800781 78.652344 C 86.800781 79.144531 86.640625 79.539062 86.328125 79.839844 C 86.011719 80.140625 85.609375 80.289062 85.121094 80.289062 Z M 85.121094 80.289062 "/>
<path style=" stroke:none;fill-rule:nonzero;fill:rgb(0%,43.921569%,75.294118%);fill-opacity:1;" d="M 103.773438 80.511719 C 101.503906 80.511719 99.484375 79.984375 97.714844 78.9375 C 95.953125 77.890625 94.558594 76.457031 93.539062 74.648438 C 92.519531 72.835938 92.015625 70.796875 92.015625 68.527344 C 92.015625 66.230469 92.5 64.171875 93.476562 62.367188 C 94.453125 60.5625 95.789062 59.136719 97.480469 58.085938 C 99.175781 57.035156 101.128906 56.511719 103.34375 56.511719 C 105.09375 56.511719 106.707031 56.855469 108.1875 57.546875 C 109.664062 58.234375 110.96875 59.269531 112.085938 60.644531 C 112.398438 60.992188 112.515625 61.355469 112.433594 61.746094 C 112.347656 62.128906 112.101562 62.464844 111.691406 62.761719 C 111.378906 62.984375 111.03125 63.0625 110.644531 62.996094 C 110.257812 62.921875 109.914062 62.710938 109.632812 62.367188 C 107.964844 60.472656 105.867188 59.519531 103.34375 59.519531 C 101.734375 59.519531 100.316406 59.910156 99.09375 60.6875 C 97.878906 61.460938 96.933594 62.523438 96.253906 63.875 C 95.582031 65.226562 95.246094 66.773438 95.246094 68.527344 C 95.246094 70.25 95.601562 71.789062 96.320312 73.136719 C 97.039062 74.484375 98.042969 75.554688 99.332031 76.328125 C 100.625 77.101562 102.109375 77.492188 103.773438 77.492188 C 104.890625 77.492188 105.914062 77.339844 106.847656 77.039062 C 107.785156 76.734375 108.613281 76.269531 109.328125 75.636719 C 109.667969 75.351562 110.03125 75.191406 110.398438 75.164062 C 110.773438 75.136719 111.121094 75.25 111.4375 75.511719 C 111.785156 75.828125 111.976562 76.183594 112.019531 76.585938 C 112.0625 76.984375 111.929688 77.332031 111.613281 77.617188 C 109.511719 79.542969 106.902344 80.511719 103.773438 80.511719 Z M 103.773438 80.511719 "/>
<path style=" stroke:none;fill-rule:nonzero;fill:rgb(0%,43.921569%,75.294118%);fill-opacity:1;" d="M 120.316406 65.769531 C 120.398438 63.992188 120.863281 62.394531 121.710938 60.992188 C 122.5625 59.582031 123.667969 58.480469 125.03125 57.671875 C 126.390625 56.871094 127.910156 56.460938 129.574219 56.460938 C 130.894531 56.460938 131.914062 56.652344 132.632812 57.027344 C 133.347656 57.398438 133.621094 57.949219 133.453125 58.664062 C 133.335938 59.097656 133.140625 59.386719 132.871094 59.527344 C 132.597656 59.667969 132.265625 59.726562 131.875 59.703125 C 131.492188 59.671875 131.054688 59.640625 130.570312 59.609375 C 128.957031 59.464844 127.527344 59.628906 126.277344 60.105469 C 125.027344 60.578125 124.035156 61.308594 123.304688 62.285156 C 122.574219 63.261719 122.210938 64.421875 122.210938 65.769531 Z M 120.570312 80.289062 C 120.050781 80.289062 119.652344 80.148438 119.363281 79.859375 C 119.082031 79.578125 118.9375 79.171875 118.9375 78.652344 L 118.9375 58.359375 C 118.9375 57.847656 119.082031 57.441406 119.363281 57.152344 C 119.652344 56.871094 120.050781 56.726562 120.570312 56.726562 C 121.085938 56.726562 121.488281 56.871094 121.777344 57.152344 C 122.066406 57.441406 122.210938 57.847656 122.210938 58.359375 L 122.210938 78.652344 C 122.210938 79.171875 122.066406 79.578125 121.777344 79.859375 C 121.488281 80.148438 121.085938 80.289062 120.570312 80.289062 Z M 120.570312 80.289062 "/>
<path style=" stroke:none;fill-rule:nonzero;fill:rgb(0%,43.921569%,75.294118%);fill-opacity:1;" d="M 148.484375 80.511719 C 146.191406 80.511719 144.132812 79.992188 142.328125 78.957031 C 140.519531 77.921875 139.097656 76.5 138.0625 74.691406 C 137.027344 72.886719 136.511719 70.828125 136.511719 68.527344 C 136.511719 66.203125 137.027344 64.136719 138.0625 62.328125 C 139.097656 60.519531 140.519531 59.097656 142.328125 58.058594 C 144.132812 57.023438 146.191406 56.511719 148.484375 56.511719 C 150.78125 56.511719 152.828125 57.023438 154.621094 58.058594 C 156.414062 59.097656 157.832031 60.519531 158.867188 62.328125 C 159.898438 64.136719 160.433594 66.203125 160.460938 68.527344 C 160.460938 70.828125 159.933594 72.886719 158.886719 74.691406 C 157.835938 76.5 156.414062 77.921875 154.621094 78.957031 C 152.828125 79.992188 150.78125 80.511719 148.484375 80.511719 Z M 148.484375 77.492188 C 150.148438 77.492188 151.640625 77.101562 152.964844 76.328125 C 154.285156 75.554688 155.324219 74.484375 156.0625 73.136719 C 156.8125 71.789062 157.1875 70.25 157.1875 68.527344 C 157.1875 66.808594 156.8125 65.265625 156.0625 63.898438 C 155.324219 62.535156 154.285156 61.460938 152.964844 60.6875 C 151.640625 59.910156 150.148438 59.519531 148.484375 59.519531 C 146.820312 59.519531 145.324219 59.910156 144.003906 60.6875 C 142.683594 61.460938 141.644531 62.535156 140.882812 63.898438 C 140.121094 65.265625 139.738281 66.808594 139.738281 68.527344 C 139.738281 70.25 140.121094 71.789062 140.882812 73.136719 C 141.644531 74.484375 142.683594 75.554688 144.003906 76.328125 C 145.324219 77.101562 146.820312 77.492188 148.484375 77.492188 Z M 148.484375 77.492188 "/>
<path style=" stroke:none;fill-rule:nonzero;fill:rgb(0%,43.921569%,75.294118%);fill-opacity:1;" d="M 165.5 80.289062 C 164.839844 80.289062 164.371094 80.019531 164.078125 79.476562 C 163.792969 78.929688 163.765625 78.398438 163.996094 77.878906 L 176.660156 47.804688 C 176.972656 47.027344 177.519531 46.644531 178.292969 46.644531 C 179.039062 46.644531 179.574219 47.027344 179.890625 47.804688 L 192.597656 77.917969 C 192.855469 78.464844 192.816406 79 192.488281 79.515625 C 192.15625 80.035156 191.691406 80.289062 191.085938 80.289062 C 190.742188 80.289062 190.4375 80.207031 190.164062 80.035156 C 189.886719 79.859375 189.667969 79.601562 189.492188 79.261719 L 177.644531 50.519531 L 178.988281 50.519531 L 167.050781 79.261719 C 166.90625 79.601562 166.695312 79.859375 166.421875 80.035156 C 166.152344 80.207031 165.84375 80.289062 165.5 80.289062 Z M 168.34375 72.277344 L 169.632812 69.394531 L 187.125 69.394531 L 188.417969 72.277344 Z M 168.34375 72.277344 "/>
<path style=" stroke:none;fill-rule:nonzero;fill:rgb(0%,43.921569%,75.294118%);fill-opacity:1;" d="M 198.582031 65.769531 C 198.671875 63.992188 199.136719 62.394531 199.980469 60.992188 C 200.828125 59.582031 201.9375 58.480469 203.300781 57.671875 C 204.664062 56.871094 206.179688 56.460938 207.847656 56.460938 C 209.164062 56.460938 210.183594 56.652344 210.902344 57.027344 C 211.621094 57.398438 211.894531 57.949219 211.71875 58.664062 C 211.605469 59.097656 211.414062 59.386719 211.136719 59.527344 C 210.863281 59.667969 210.53125 59.726562 210.144531 59.703125 C 209.757812 59.671875 209.320312 59.640625 208.835938 59.609375 C 207.226562 59.464844 205.792969 59.628906 204.542969 60.105469 C 203.292969 60.578125 202.304688 61.308594 201.578125 62.285156 C 200.847656 63.261719 200.480469 64.421875 200.480469 65.769531 Z M 198.839844 80.289062 C 198.324219 80.289062 197.921875 80.148438 197.636719 79.859375 C 197.347656 79.578125 197.203125 79.171875 197.203125 78.652344 L 197.203125 58.359375 C 197.203125 57.847656 197.347656 57.441406 197.636719 57.152344 C 197.921875 56.871094 198.324219 56.726562 198.839844 56.726562 C 199.355469 56.726562 199.757812 56.871094 200.042969 57.152344 C 200.332031 57.441406 200.480469 57.847656 200.480469 58.359375 L 200.480469 78.652344 C 200.480469 79.171875 200.332031 79.578125 200.042969 79.859375 C 199.757812 80.148438 199.355469 80.289062 198.839844 80.289062 Z M 198.839844 80.289062 "/>
<path style=" stroke:none;fill-rule:nonzero;fill:rgb(0%,43.921569%,75.294118%);fill-opacity:1;" d="M 226.667969 80.511719 C 224.398438 80.511719 222.382812 79.984375 220.613281 78.9375 C 218.847656 77.890625 217.453125 76.457031 216.433594 74.648438 C 215.417969 72.835938 214.90625 70.796875 214.90625 68.527344 C 214.90625 66.230469 215.398438 64.171875 216.367188 62.367188 C 217.347656 60.5625 218.683594 59.136719 220.378906 58.085938 C 222.070312 57.035156 224.023438 56.511719 226.242188 56.511719 C 227.992188 56.511719 229.605469 56.855469 231.085938 57.546875 C 232.5625 58.234375 233.859375 59.269531 234.980469 60.644531 C 235.296875 60.992188 235.414062 61.355469 235.324219 61.746094 C 235.238281 62.128906 234.992188 62.464844 234.589844 62.761719 C 234.277344 62.984375 233.925781 63.0625 233.539062 62.996094 C 233.148438 62.921875 232.8125 62.710938 232.527344 62.367188 C 230.859375 60.472656 228.765625 59.519531 226.242188 59.519531 C 224.625 59.519531 223.214844 59.910156 221.992188 60.6875 C 220.769531 61.460938 219.824219 62.523438 219.152344 63.875 C 218.472656 65.226562 218.136719 66.773438 218.136719 68.527344 C 218.136719 70.25 218.496094 71.789062 219.214844 73.136719 C 219.929688 74.484375 220.933594 75.554688 222.226562 76.328125 C 223.519531 77.101562 225 77.492188 226.667969 77.492188 C 227.789062 77.492188 228.8125 77.339844 229.746094 77.039062 C 230.675781 76.734375 231.507812 76.269531 232.226562 75.636719 C 232.566406 75.351562 232.921875 75.191406 233.296875 75.164062 C 233.671875 75.136719 234.019531 75.25 234.335938 75.511719 C 234.675781 75.828125 234.875 76.183594 234.917969 76.585938 C 234.960938 76.984375 234.820312 77.332031 234.507812 77.617188 C 232.40625 79.542969 229.792969 80.511719 226.667969 80.511719 Z M 226.667969 80.511719 "/>
<path style=" stroke:none;fill-rule:nonzero;fill:rgb(0%,43.921569%,75.294118%);fill-opacity:1;" d="M 262.03125 80.289062 C 261.546875 80.289062 261.140625 80.136719 260.828125 79.816406 C 260.511719 79.5 260.355469 79.117188 260.355469 78.652344 L 260.355469 67.453125 C 260.355469 65.667969 260.019531 64.207031 259.339844 63.058594 C 258.667969 61.910156 257.75 61.046875 256.585938 60.476562 C 255.421875 59.898438 254.109375 59.609375 252.644531 59.609375 C 251.234375 59.609375 249.96875 59.886719 248.832031 60.433594 C 247.699219 60.976562 246.800781 61.722656 246.140625 62.667969 C 245.476562 63.617188 245.144531 64.699219 245.144531 65.898438 L 242.78125 65.898438 C 242.832031 64.089844 243.324219 62.476562 244.242188 61.054688 C 245.160156 59.628906 246.382812 58.511719 247.898438 57.691406 C 249.421875 56.875 251.121094 56.460938 252.992188 56.460938 C 255.027344 56.460938 256.851562 56.890625 258.457031 57.742188 C 260.066406 58.585938 261.339844 59.828125 262.273438 61.460938 C 263.199219 63.101562 263.664062 65.097656 263.664062 67.453125 L 263.664062 78.652344 C 263.664062 79.117188 263.507812 79.5 263.195312 79.816406 C 262.882812 80.136719 262.492188 80.289062 262.03125 80.289062 Z M 243.511719 80.289062 C 242.992188 80.289062 242.582031 80.140625 242.28125 79.839844 C 241.984375 79.539062 241.832031 79.144531 241.832031 78.652344 L 241.832031 58.402344 C 241.832031 57.890625 241.984375 57.480469 242.28125 57.183594 C 242.582031 56.878906 242.992188 56.726562 243.511719 56.726562 C 243.996094 56.726562 244.390625 56.878906 244.6875 57.183594 C 244.992188 57.480469 245.144531 57.890625 245.144531 58.402344 L 245.144531 78.652344 C 245.144531 79.144531 244.992188 79.539062 244.6875 79.839844 C 244.390625 80.140625 243.996094 80.289062 243.511719 80.289062 Z M 243.511719 70.683594 C 242.992188 70.683594 242.582031 70.523438 242.28125 70.207031 C 241.984375 69.890625 241.832031 69.492188 241.832031 69 L 241.832031 48.324219 C 241.832031 47.808594 241.984375 47.398438 242.28125 47.097656 C 242.582031 46.792969 242.992188 46.644531 243.511719 46.644531 C 243.996094 46.644531 244.390625 46.792969 244.6875 47.097656 C 244.992188 47.398438 245.144531 47.808594 245.144531 48.324219 L 245.144531 69 C 245.144531 69.492188 244.992188 69.890625 244.6875 70.207031 C 244.390625 70.523438 243.996094 70.683594 243.511719 70.683594 Z M 243.511719 70.683594 "/>
<path style=" stroke:none;fill-rule:nonzero;fill:rgb(0%,43.921569%,75.294118%);fill-opacity:1;" d="M 273.0625 80.289062 C 272.546875 80.289062 272.136719 80.140625 271.832031 79.839844 C 271.53125 79.539062 271.378906 79.128906 271.378906 78.609375 L 271.378906 58.402344 C 271.378906 57.890625 271.53125 57.480469 271.832031 57.183594 C 272.136719 56.878906 272.546875 56.726562 273.0625 56.726562 C 273.546875 56.726562 273.941406 56.878906 274.246094 57.183594 C 274.546875 57.480469 274.695312 57.890625 274.695312 58.402344 L 274.695312 78.609375 C 274.695312 79.128906 274.546875 79.539062 274.246094 79.839844 C 273.941406 80.140625 273.546875 80.289062 273.0625 80.289062 Z M 273.191406 52.246094 C 272.558594 52.246094 272.011719 52.019531 271.554688 51.558594 C 271.09375 51.101562 270.867188 50.539062 270.867188 49.875 C 270.867188 49.160156 271.101562 48.589844 271.578125 48.171875 C 272.046875 47.753906 272.601562 47.546875 273.230469 47.546875 C 273.835938 47.546875 274.375 47.753906 274.847656 48.171875 C 275.316406 48.589844 275.558594 49.160156 275.558594 49.875 C 275.558594 50.539062 275.328125 51.101562 274.867188 51.558594 C 274.410156 52.019531 273.851562 52.246094 273.191406 52.246094 Z M 273.191406 52.246094 "/>
<path style=" stroke:none;fill-rule:nonzero;fill:rgb(0%,43.921569%,75.294118%);fill-opacity:1;" d="M 284.863281 80.289062 C 284.40625 80.289062 284.007812 80.136719 283.675781 79.816406 C 283.347656 79.5 283.1875 79.097656 283.1875 78.609375 L 283.1875 48.324219 C 283.1875 47.859375 283.347656 47.464844 283.675781 47.136719 C 284.007812 46.808594 284.40625 46.644531 284.863281 46.644531 C 285.324219 46.644531 285.71875 46.808594 286.050781 47.136719 C 286.378906 47.464844 286.539062 47.859375 286.539062 48.324219 L 286.539062 77.105469 L 303.382812 77.105469 C 303.84375 77.105469 304.238281 77.253906 304.570312 77.558594 C 304.898438 77.859375 305.066406 78.234375 305.066406 78.691406 C 305.066406 79.152344 304.898438 79.539062 304.570312 79.839844 C 304.238281 80.140625 303.84375 80.289062 303.382812 80.289062 Z M 284.863281 80.289062 "/>
<path style=" stroke:none;fill-rule:nonzero;fill:rgb(0%,43.921569%,75.294118%);fill-opacity:1;" d="M 320.101562 80.511719 C 317.890625 80.511719 315.90625 79.984375 314.15625 78.9375 C 312.402344 77.890625 311.015625 76.457031 309.996094 74.648438 C 308.976562 72.835938 308.46875 70.796875 308.46875 68.527344 C 308.46875 66.230469 308.992188 64.171875 310.039062 62.367188 C 311.089844 60.5625 312.519531 59.136719 314.328125 58.085938 C 316.136719 57.035156 318.171875 56.511719 320.441406 56.511719 C 322.710938 56.511719 324.746094 57.035156 326.539062 58.085938 C 328.328125 59.136719 329.753906 60.5625 330.800781 62.367188 C 331.847656 64.171875 332.390625 66.230469 332.421875 68.527344 L 331.089844 69.558594 C 331.089844 71.628906 330.605469 73.492188 329.636719 75.144531 C 328.675781 76.792969 327.367188 78.101562 325.714844 79.066406 C 324.066406 80.027344 322.195312 80.511719 320.101562 80.511719 Z M 320.441406 77.492188 C 322.105469 77.492188 323.59375 77.101562 324.902344 76.328125 C 326.210938 75.554688 327.242188 74.480469 328.003906 73.117188 C 328.761719 71.753906 329.148438 70.226562 329.148438 68.527344 C 329.148438 66.808594 328.761719 65.269531 328.003906 63.917969 C 327.242188 62.566406 326.210938 61.5 324.902344 60.707031 C 323.59375 59.917969 322.105469 59.519531 320.441406 59.519531 C 318.804688 59.519531 317.328125 59.917969 316.003906 60.707031 C 314.6875 61.5 313.636719 62.566406 312.863281 63.917969 C 312.089844 65.269531 311.699219 66.808594 311.699219 68.527344 C 311.699219 70.226562 312.089844 71.753906 312.863281 73.117188 C 313.636719 74.480469 314.6875 75.554688 316.003906 76.328125 C 317.328125 77.101562 318.804688 77.492188 320.441406 77.492188 Z M 330.742188 80.289062 C 330.246094 80.289062 329.84375 80.140625 329.53125 79.839844 C 329.21875 79.539062 329.0625 79.144531 329.0625 78.652344 L 329.0625 71.285156 L 329.878906 67.878906 L 332.421875 68.527344 L 332.421875 78.652344 C 332.421875 79.144531 332.261719 79.539062 331.945312 79.839844 C 331.628906 80.140625 331.226562 80.289062 330.742188 80.289062 Z M 330.742188 80.289062 "/>
<path style=" stroke:none;fill-rule:nonzero;fill:rgb(0%,43.921569%,75.294118%);fill-opacity:1;" d="M 350.816406 80.511719 C 348.570312 80.511719 346.550781 79.992188 344.757812 78.957031 C 342.964844 77.921875 341.542969 76.511719 340.496094 74.710938 C 339.449219 72.917969 338.910156 70.898438 338.878906 68.652344 L 338.878906 48.324219 C 338.878906 47.808594 339.03125 47.398438 339.332031 47.097656 C 339.636719 46.792969 340.042969 46.644531 340.5625 46.644531 C 341.046875 46.644531 341.441406 46.792969 341.742188 47.097656 C 342.042969 47.398438 342.199219 47.808594 342.199219 48.324219 L 342.199219 60.992188 C 343.144531 59.640625 344.398438 58.558594 345.964844 57.742188 C 347.53125 56.917969 349.277344 56.511719 351.199219 56.511719 C 353.410156 56.511719 355.394531 57.035156 357.144531 58.085938 C 358.902344 59.136719 360.285156 60.5625 361.300781 62.367188 C 362.324219 64.171875 362.832031 66.214844 362.832031 68.480469 C 362.832031 70.785156 362.304688 72.835938 361.253906 74.648438 C 360.207031 76.457031 358.78125 77.890625 356.96875 78.9375 C 355.160156 79.984375 353.109375 80.511719 350.816406 80.511719 Z M 350.816406 77.492188 C 352.480469 77.492188 353.96875 77.097656 355.289062 76.304688 C 356.613281 75.515625 357.65625 74.441406 358.414062 73.097656 C 359.175781 71.75 359.558594 70.210938 359.558594 68.480469 C 359.558594 66.792969 359.175781 65.265625 358.414062 63.898438 C 357.65625 62.535156 356.613281 61.460938 355.289062 60.6875 C 353.96875 59.910156 352.480469 59.519531 350.816406 59.519531 C 349.175781 59.519531 347.695312 59.910156 346.375 60.6875 C 345.050781 61.460938 344.019531 62.535156 343.273438 63.898438 C 342.527344 65.265625 342.160156 66.792969 342.160156 68.480469 C 342.160156 70.210938 342.527344 71.75 343.273438 73.097656 C 344.019531 74.441406 345.050781 75.515625 346.375 76.304688 C 347.695312 77.097656 349.175781 77.492188 350.816406 77.492188 Z M 350.816406 77.492188 "/>
</g>
</svg>
