<svg width="901" height="247" xmlns="http://www.w3.org/2000/svg" xmlns:xlink="http://www.w3.org/1999/xlink" overflow="hidden"><defs><filter id="fx0" x="-10%" y="-10%" width="120%" height="120%" filterUnits="userSpaceOnUse" primitiveUnits="userSpaceOnUse"><feComponentTransfer color-interpolation-filters="sRGB"><feFuncR type="discrete" tableValues="0 0"/><feFuncG type="discrete" tableValues="0 0"/><feFuncB type="discrete" tableValues="0 0"/><feFuncA type="linear" slope="0.4" intercept="0"/></feComponentTransfer><feGaussianBlur stdDeviation="1.26658 1.26658"/></filter><filter id="fx1" x="-10%" y="-10%" width="120%" height="120%" filterUnits="userSpaceOnUse" primitiveUnits="userSpaceOnUse"><feComponentTransfer color-interpolation-filters="sRGB"><feFuncR type="discrete" tableValues="0 0"/><feFuncG type="discrete" tableValues="0 0"/><feFuncB type="discrete" tableValues="0 0"/><feFuncA type="linear" slope="0.4" intercept="0"/></feComponentTransfer><feGaussianBlur stdDeviation="1.84907 1.84907"/></filter><clipPath id="clip2"><rect x="85" y="56" width="901" height="247"/></clipPath><clipPath id="clip3"><rect x="-1" y="-1" width="395" height="69"/></clipPath><clipPath id="clip4"><rect x="0" y="0" width="393" height="68"/></clipPath><clipPath id="clip5"><rect x="-2" y="-2" width="775" height="99"/></clipPath><clipPath id="clip6"><rect x="0" y="0" width="770" height="95"/></clipPath></defs><g clip-path="url(#clip2)" transform="translate(-85 -56)"><g clip-path="url(#clip3)" filter="url(#fx0)" transform="translate(96 93)"><g clip-path="url(#clip4)"><path d="M68.327 41.5033 73.696 41.5033 73.696 49.0553 68.327 49.0553ZM257.422 33.9513C255.101 33.9513 253.204 34.4528 251.729 35.4558 250.254 36.4588 249.516 37.7863 249.516 39.4383 249.516 40.9723 250.086 42.2604 251.227 43.3028 252.368 44.3451 253.823 44.8663 255.593 44.8663 257.166 44.8663 258.651 44.5811 260.047 44.0108 261.444 43.4404 262.535 42.6439 263.322 41.6213 264.148 40.9133 264.561 40.1659 264.561 39.3793L264.561 35.3083C263.46 34.8756 262.289 34.5413 261.05 34.3053 259.812 34.0693 258.602 33.9513 257.422 33.9513ZM328.487 23.2133C327.071 23.2133 325.802 23.5181 324.682 24.1278 323.56 24.7374 322.607 25.5438 321.82 26.5468 321.033 27.5498 320.424 28.6806 319.991 29.9393 319.558 31.1979 319.342 32.4959 319.342 33.8333 319.342 35.2493 319.588 36.5768 320.08 37.8158 320.571 39.0548 321.25 40.1364 322.115 41.0608 322.98 41.9851 323.993 42.7226 325.154 43.2733 326.314 43.8239 327.582 44.0993 328.959 44.0993 329.942 44.0993 330.886 43.9321 331.791 43.5978 332.696 43.2634 333.531 42.8111 334.299 42.2408 335.065 41.6704 335.724 41.0214 336.275 40.2938 336.826 39.5661 337.219 38.7893 337.455 37.9633L337.455 29.8803C337.062 28.8969 336.55 28.0021 335.921 27.1958 335.292 26.3894 334.574 25.6913 333.768 25.1013 332.961 24.5113 332.106 24.0491 331.201 23.7148 330.296 23.3804 329.392 23.2133 328.487 23.2133ZM134.327 18.1983 140.817 18.1983 140.817 35.7803C140.817 41.3263 142.784 44.0993 146.717 44.0993 148.566 44.0993 150.316 43.5289 151.968 42.3883 153.62 41.2476 154.898 39.5956 155.803 37.4323L155.803 18.1983 162.293 18.1983 162.293 41.3853C162.293 42.1326 162.421 42.6636 162.677 42.9783 162.932 43.2929 163.394 43.4699 164.063 43.5093L164.063 49.0553C163.394 49.1733 162.844 49.2519 162.411 49.2913 161.978 49.3306 161.565 49.3503 161.172 49.3503 159.992 49.3503 158.989 49.0258 158.163 48.3768 157.337 47.7278 156.904 46.8919 156.865 45.8693L156.747 42.8013C155.37 45.0433 153.581 46.7444 151.378 47.9048 149.175 49.0651 146.756 49.6453 144.121 49.6453 140.896 49.6453 138.457 48.5931 136.805 46.4888 135.153 44.3844 134.327 41.2476 134.327 37.0783ZM62.316 17.9033C62.7093 17.9033 63.0338 17.9033 63.2895 17.9033 63.5452 17.9033 63.7713 17.9229 63.968 17.9623L63.968 23.8033C61.4507 23.8819 59.2185 24.4621 57.2715 25.5438 55.3245 26.6254 53.938 28.1693 53.112 30.1753L53.112 49.0553 46.622 49.0553 46.622 18.1983 52.64 18.1983 52.64 25.1013C53.702 22.9773 55.0885 21.2761 56.7995 19.9978 58.5105 18.7194 60.3494 18.0213 62.316 17.9033ZM374.36 17.6673C376.681 17.6673 378.844 18.0213 380.85 18.7293 382.856 19.4373 384.646 20.4599 386.219 21.7973L383.446 25.6913C380.575 23.4099 377.526 22.2693 374.301 22.2693 372.649 22.2693 371.263 22.6134 370.141 23.3018 369.021 23.9901 368.46 25.0816 368.46 26.5763 368.46 27.2056 368.578 27.7366 368.814 28.1693 369.05 28.6019 369.434 28.9756 369.964 29.2903 370.495 29.6049 371.184 29.8901 372.029 30.1458 372.875 30.4014 373.927 30.6866 375.186 31.0013 377.271 31.5126 379.07 32.0239 380.584 32.5353 382.099 33.0466 383.348 33.6464 384.331 34.3348 385.314 35.0231 386.042 35.8294 386.514 36.7538 386.986 37.6781 387.222 38.7893 387.222 40.0873 387.222 43.0373 386.111 45.3678 383.888 47.0788 381.666 48.7898 378.647 49.6453 374.832 49.6453 372.354 49.6453 369.886 49.2421 367.427 48.4358 364.969 47.6294 362.855 46.4789 361.085 44.9843L363.681 40.8543C365.53 42.1916 367.359 43.2044 369.168 43.8928 370.977 44.5811 372.826 44.9253 374.714 44.9253 376.641 44.9253 378.166 44.5516 379.286 43.8043 380.408 43.0569 380.968 41.9949 380.968 40.6183 380.968 39.3203 380.339 38.3763 379.08 37.7863 377.821 37.1963 375.855 36.5473 373.18 35.8393 371.253 35.3279 369.601 34.8363 368.224 34.3643 366.847 33.8923 365.726 33.3416 364.861 32.7123 363.996 32.0829 363.366 31.3553 362.973 30.5293 362.58 29.7033 362.383 28.7003 362.383 27.5203 362.383 25.9469 362.688 24.5506 363.297 23.3313 363.907 22.1119 364.753 21.0794 365.834 20.2338 366.916 19.3881 368.185 18.7489 369.64 18.3163 371.095 17.8836 372.669 17.6673 374.36 17.6673ZM327.071 17.6673C329.549 17.6673 331.722 18.2573 333.591 19.4373 335.459 20.6173 337.003 22.1513 338.222 24.0393L338.222 18.1983 343.945 18.1983 343.945 48.1703C343.945 50.4123 343.532 52.3986 342.706 54.1293 341.88 55.8599 340.729 57.3251 339.255 58.5248 337.78 59.7244 336.039 60.6389 334.033 61.2683 332.027 61.8976 329.864 62.2123 327.543 62.2123 324.121 62.2123 321.279 61.6321 319.018 60.4718 316.756 59.3114 314.858 57.6889 313.324 55.6043L316.982 52.1823C318.162 53.8343 319.686 55.0929 321.555 55.9583 323.423 56.8236 325.419 57.2563 327.543 57.2563 328.88 57.2563 330.149 57.0793 331.349 56.7253 332.548 56.3713 333.6 55.8206 334.505 55.0733 335.41 54.3259 336.128 53.3819 336.659 52.2413 337.19 51.1006 337.455 49.7436 337.455 48.1703L337.455 43.4503C336.354 45.3383 334.839 46.7936 332.912 47.8163 330.985 48.8389 328.959 49.3503 326.835 49.3503 324.75 49.3503 322.843 48.9274 321.112 48.0818 319.381 47.2361 317.896 46.0856 316.658 44.6303 315.419 43.1749 314.455 41.5033 313.767 39.6153 313.078 37.7273 312.734 35.7409 312.734 33.6563 312.734 31.4536 313.088 29.3788 313.796 27.4318 314.504 25.4848 315.487 23.7934 316.746 22.3578 318.005 20.9221 319.509 19.7814 321.26 18.9358 323.01 18.0901 324.947 17.6673 327.071 17.6673ZM298.089 17.6673C299.938 17.6673 301.452 18.0016 302.632 18.6703 303.812 19.3389 304.746 20.2534 305.435 21.4138 306.123 22.5741 306.605 23.9114 306.88 25.4258 307.155 26.9401 307.293 28.5429 307.293 30.2343L307.293 49.0553 300.803 49.0553 300.803 31.7683C300.803 28.8576 300.341 26.7434 299.417 25.4258 298.492 24.1081 297.125 23.4493 295.316 23.4493 294.372 23.4493 293.428 23.6263 292.484 23.9803 291.54 24.3343 290.655 24.8358 289.829 25.4848 289.003 26.1338 288.266 26.9008 287.617 27.7858 286.968 28.6708 286.466 29.6443 286.112 30.7063L286.112 49.0553 279.622 49.0553 279.622 18.1983 285.522 18.1983 285.522 24.3933C286.702 22.3086 288.413 20.6664 290.655 19.4668 292.897 18.2671 295.375 17.6673 298.089 17.6673ZM257.599 17.6673C261.847 17.6673 265.151 18.7489 267.511 20.9123 269.871 23.0756 271.051 26.1829 271.051 30.2343L271.051 41.3853C271.051 42.7619 271.621 43.4699 272.762 43.5093L272.762 49.0553C272.133 49.1733 271.592 49.2519 271.14 49.2913 270.687 49.3306 270.245 49.3503 269.812 49.3503 268.553 49.3503 267.58 49.0356 266.891 48.4063 266.203 47.7769 265.78 46.9706 265.623 45.9873L265.446 44.0403C264.069 45.8496 262.368 47.2361 260.343 48.1998 258.317 49.1634 256.144 49.6453 253.823 49.6453 252.328 49.6453 250.942 49.3994 249.663 48.9078 248.385 48.4161 247.284 47.7376 246.359 46.8723 245.435 46.0069 244.708 44.9843 244.176 43.8043 243.646 42.6243 243.38 41.3459 243.38 39.9693 243.38 38.5139 243.695 37.1963 244.324 36.0163 244.953 34.8363 245.848 33.8136 247.008 32.9483 248.169 32.0829 249.546 31.4143 251.139 30.9423 252.732 30.4703 254.492 30.2343 256.419 30.2343 257.874 30.2343 259.31 30.3621 260.726 30.6178 262.142 30.8734 263.42 31.2176 264.561 31.6503L264.561 29.5263C264.561 27.2449 263.912 25.4651 262.614 24.1868 261.316 22.9084 259.448 22.2693 257.009 22.2693 255.357 22.2693 253.734 22.5741 252.142 23.1838 250.549 23.7934 248.906 24.6686 247.215 25.8093L245.209 21.6793C249.182 19.0046 253.312 17.6673 257.599 17.6673ZM12.056 13.0063 12.056 43.2143 20.316 43.2143C22.5187 43.2143 24.4755 42.8308 26.1865 42.0638 27.8975 41.2968 29.3332 40.2348 30.4935 38.8778 31.6539 37.5208 32.529 35.9179 33.119 34.0693 33.709 32.2206 34.004 30.2146 34.004 28.0513 34.004 25.8486 33.6992 23.8229 33.0895 21.9743 32.4799 20.1256 31.585 18.5424 30.405 17.2248 29.225 15.9071 27.7894 14.8746 26.098 14.1273 24.4067 13.3799 22.4793 13.0063 20.316 13.0063ZM180.964 7.16527 188.162 7.16527 201.26 41.3853 207.514 25.9863 200.316 7.34227 206.57 7.34227 211.703 21.5613 216.895 7.34227 223.09 7.34227 215.951 25.9863 222.205 41.3853 235.244 7.16527 242.501 7.16527 225.214 49.0553 219.55 49.0553 211.762 30.2933 203.915 49.0553 198.251 49.0553ZM92.259 7.16527 99.516 7.16527 111.08 28.1693 122.762 7.16527 130.019 7.16527 114.384 34.0693 114.384 49.0553 107.776 49.0553 107.776 33.9513ZM5.44802 7.16527 20.316 7.16527C23.6987 7.16527 26.6585 7.71593 29.1955 8.81727 31.7325 9.9186 33.8565 11.4133 35.5675 13.3013 37.2785 15.1893 38.5667 17.4018 39.432 19.9388 40.2974 22.4758 40.73 25.1799 40.73 28.0513 40.73 31.2373 40.2482 34.1184 39.2845 36.6948 38.3209 39.2711 36.954 41.4738 35.184 43.3028 33.414 45.1318 31.2704 46.5478 28.753 47.5508 26.2357 48.5538 23.4233 49.0553 20.316 49.0553L5.44802 49.0553ZM350.091 5.80827 356.463 5.80827 356.463 13.1833 354.516 20.0863 350.917 20.0863 352.156 13.1243 350.091 13.1243Z" stroke="#F2F2F2" stroke-linejoin="round" stroke-miterlimit="10" fill="#FFFFFF" fill-rule="evenodd"/></g></g><path d="M162.29 132.466 167.659 132.466 167.659 140.018 162.29 140.018ZM351.385 124.914C349.064 124.914 347.166 125.416 345.691 126.419 344.216 127.422 343.479 128.749 343.479 130.401 343.479 131.935 344.049 133.223 345.19 134.266 346.331 135.308 347.786 135.829 349.556 135.829 351.129 135.829 352.614 135.544 354.01 134.974 355.407 134.403 356.498 133.607 357.285 132.584 358.111 131.876 358.524 131.129 358.524 130.342L358.524 126.271C357.423 125.838 356.252 125.504 355.013 125.268 353.774 125.032 352.565 124.914 351.385 124.914ZM422.45 114.176C421.034 114.176 419.765 114.481 418.644 115.091 417.523 115.7 416.57 116.507 415.783 117.51 414.996 118.513 414.387 119.643 413.954 120.902 413.521 122.161 413.305 123.459 413.305 124.796 413.305 126.212 413.551 127.54 414.042 128.779 414.534 130.018 415.213 131.099 416.078 132.024 416.943 132.948 417.956 133.685 419.116 134.236 420.277 134.787 421.545 135.062 422.922 135.062 423.905 135.062 424.849 134.895 425.754 134.561 426.659 134.226 427.494 133.774 428.261 133.204 429.028 132.633 429.687 131.984 430.238 131.257 430.789 130.529 431.182 129.752 431.418 128.926L431.418 120.843C431.025 119.86 430.513 118.965 429.884 118.159 429.255 117.352 428.537 116.654 427.73 116.064 426.924 115.474 426.069 115.012 425.164 114.678 424.259 114.343 423.355 114.176 422.45 114.176ZM228.29 109.161 234.78 109.161 234.78 126.743C234.78 132.289 236.747 135.062 240.68 135.062 242.529 135.062 244.279 134.492 245.931 133.351 247.583 132.21 248.861 130.558 249.766 128.395L249.766 109.161 256.256 109.161 256.256 132.348C256.256 133.095 256.384 133.626 256.639 133.941 256.895 134.256 257.357 134.433 258.026 134.472L258.026 140.018C257.357 140.136 256.807 140.215 256.374 140.254 255.941 140.293 255.528 140.313 255.135 140.313 253.955 140.313 252.952 139.989 252.126 139.34 251.3 138.691 250.867 137.855 250.828 136.832L250.71 133.764C249.333 136.006 247.544 137.707 245.341 138.868 243.138 140.028 240.719 140.608 238.084 140.608 234.859 140.608 232.42 139.556 230.768 137.452 229.116 135.347 228.29 132.21 228.29 128.041ZM156.279 108.866C156.672 108.866 156.997 108.866 157.252 108.866 157.508 108.866 157.734 108.886 157.931 108.925L157.931 114.766C155.414 114.845 153.181 115.425 151.234 116.507 149.287 117.588 147.901 119.132 147.075 121.138L147.075 140.018 140.585 140.018 140.585 109.161 146.603 109.161 146.603 116.064C147.665 113.94 149.051 112.239 150.762 110.961 152.473 109.682 154.312 108.984 156.279 108.866ZM468.323 108.63C470.644 108.63 472.807 108.984 474.813 109.692 476.819 110.4 478.609 111.423 480.182 112.76L477.409 116.654C474.538 114.373 471.489 113.232 468.264 113.232 466.612 113.232 465.225 113.576 464.104 114.265 462.983 114.953 462.423 116.044 462.423 117.539 462.423 118.168 462.541 118.699 462.777 119.132 463.013 119.565 463.396 119.938 463.927 120.253 464.458 120.568 465.147 120.853 465.992 121.109 466.838 121.364 467.89 121.649 469.149 121.964 471.234 122.475 473.033 122.987 474.547 123.498 476.062 124.009 477.311 124.609 478.294 125.298 479.277 125.986 480.005 126.792 480.477 127.717 480.949 128.641 481.185 129.752 481.185 131.05 481.185 134 480.074 136.331 477.851 138.042 475.629 139.753 472.61 140.608 468.795 140.608 466.317 140.608 463.849 140.205 461.39 139.399 458.932 138.592 456.818 137.442 455.048 135.947L457.644 131.817C459.493 133.154 461.322 134.167 463.131 134.856 464.94 135.544 466.789 135.888 468.677 135.888 470.604 135.888 472.128 135.514 473.249 134.767 474.37 134.02 474.931 132.958 474.931 131.581 474.931 130.283 474.302 129.339 473.043 128.749 471.784 128.159 469.818 127.51 467.143 126.802 465.216 126.291 463.564 125.799 462.187 125.327 460.81 124.855 459.689 124.304 458.824 123.675 457.959 123.046 457.329 122.318 456.936 121.492 456.543 120.666 456.346 119.663 456.346 118.483 456.346 116.91 456.651 115.513 457.26 114.294 457.87 113.075 458.716 112.042 459.797 111.197 460.879 110.351 462.148 109.712 463.603 109.279 465.058 108.846 466.632 108.63 468.323 108.63ZM421.034 108.63C423.512 108.63 425.685 109.22 427.553 110.4 429.422 111.58 430.966 113.114 432.185 115.002L432.185 109.161 437.908 109.161 437.908 139.133C437.908 141.375 437.495 143.361 436.669 145.092 435.843 146.823 434.692 148.288 433.217 149.488 431.742 150.687 430.002 151.602 427.996 152.231 425.99 152.86 423.827 153.175 421.506 153.175 418.084 153.175 415.242 152.595 412.98 151.435 410.719 150.274 408.821 148.652 407.287 146.567L410.945 143.145C412.125 144.797 413.649 146.056 415.517 146.921 417.386 147.786 419.382 148.219 421.506 148.219 422.843 148.219 424.112 148.042 425.311 147.688 426.511 147.334 427.563 146.783 428.468 146.036 429.373 145.289 430.09 144.345 430.621 143.204 431.152 142.063 431.418 140.706 431.418 139.133L431.418 134.413C430.317 136.301 428.802 137.756 426.875 138.779 424.948 139.802 422.922 140.313 420.798 140.313 418.713 140.313 416.806 139.89 415.075 139.045 413.344 138.199 411.859 137.048 410.62 135.593 409.381 134.138 408.418 132.466 407.729 130.578 407.041 128.69 406.697 126.704 406.697 124.619 406.697 122.416 407.051 120.342 407.759 118.395 408.467 116.448 409.45 114.756 410.709 113.321 411.968 111.885 413.472 110.744 415.222 109.899 416.973 109.053 418.91 108.63 421.034 108.63ZM392.052 108.63C393.901 108.63 395.415 108.964 396.595 109.633 397.775 110.302 398.709 111.216 399.397 112.377 400.086 113.537 400.568 114.874 400.843 116.389 401.118 117.903 401.256 119.506 401.256 121.197L401.256 140.018 394.766 140.018 394.766 122.731C394.766 119.82 394.304 117.706 393.379 116.389 392.455 115.071 391.088 114.412 389.279 114.412 388.335 114.412 387.391 114.589 386.447 114.943 385.503 115.297 384.618 115.799 383.792 116.448 382.966 117.097 382.228 117.864 381.579 118.749 380.93 119.634 380.429 120.607 380.075 121.669L380.075 140.018 373.585 140.018 373.585 109.161 379.485 109.161 379.485 115.356C380.665 113.271 382.376 111.629 384.618 110.43 386.86 109.23 389.338 108.63 392.052 108.63ZM351.562 108.63C355.81 108.63 359.114 109.712 361.474 111.875 363.834 114.038 365.014 117.146 365.014 121.197L365.014 132.348C365.014 133.725 365.584 134.433 366.725 134.472L366.725 140.018C366.096 140.136 365.555 140.215 365.102 140.254 364.65 140.293 364.208 140.313 363.775 140.313 362.516 140.313 361.543 139.998 360.854 139.369 360.166 138.74 359.743 137.933 359.586 136.95L359.409 135.003C358.032 136.812 356.331 138.199 354.305 139.163 352.28 140.126 350.107 140.608 347.786 140.608 346.291 140.608 344.905 140.362 343.626 139.871 342.348 139.379 341.247 138.7 340.322 137.835 339.398 136.97 338.67 135.947 338.139 134.767 337.608 133.587 337.343 132.309 337.343 130.932 337.343 129.477 337.658 128.159 338.287 126.979 338.916 125.799 339.811 124.776 340.971 123.911 342.132 123.046 343.508 122.377 345.101 121.905 346.694 121.433 348.455 121.197 350.382 121.197 351.837 121.197 353.273 121.325 354.689 121.581 356.105 121.836 357.383 122.18 358.524 122.613L358.524 120.489C358.524 118.208 357.875 116.428 356.577 115.15 355.279 113.871 353.411 113.232 350.972 113.232 349.32 113.232 347.697 113.537 346.104 114.147 344.511 114.756 342.869 115.631 341.178 116.772L339.172 112.642C343.145 109.967 347.275 108.63 351.562 108.63ZM106.019 103.969 106.019 134.177 114.279 134.177C116.482 134.177 118.438 133.794 120.149 133.027 121.86 132.26 123.296 131.198 124.456 129.841 125.617 128.484 126.492 126.881 127.082 125.032 127.672 123.183 127.967 121.177 127.967 119.014 127.967 116.811 127.662 114.786 127.052 112.937 126.443 111.088 125.548 109.505 124.368 108.188 123.188 106.87 121.752 105.837 120.061 105.09 118.37 104.343 116.442 103.969 114.279 103.969ZM274.927 98.1282 282.125 98.1282 295.223 132.348 301.477 116.949 294.279 98.3052 300.533 98.3052 305.666 112.524 310.858 98.3052 317.053 98.3052 309.914 116.949 316.168 132.348 329.207 98.1282 336.464 98.1282 319.177 140.018 313.513 140.018 305.725 121.256 297.878 140.018 292.214 140.018ZM186.222 98.1282 193.479 98.1282 205.043 119.132 216.725 98.1282 223.982 98.1282 208.347 125.032 208.347 140.018 201.739 140.018 201.739 124.914ZM99.4109 98.1282 114.279 98.1282C117.662 98.1282 120.621 98.6788 123.158 99.7802 125.695 100.881 127.819 102.376 129.53 104.264 131.241 106.152 132.53 108.365 133.395 110.902 134.26 113.439 134.693 116.143 134.693 119.014 134.693 122.2 134.211 125.081 133.247 127.658 132.284 130.234 130.917 132.437 129.147 134.266 127.377 136.095 125.233 137.511 122.716 138.514 120.199 139.517 117.386 140.018 114.279 140.018L99.4109 140.018ZM444.054 96.7712 450.426 96.7712 450.426 104.146 448.479 111.049 444.88 111.049 446.119 104.087 444.054 104.087Z" stroke="#F2F2F2" stroke-linejoin="round" stroke-miterlimit="10" fill="#FFFFFF" fill-rule="evenodd"/><text fill="#000000" fill-opacity="0" font-family="Arial,Arial_MSFontService,sans-serif" font-size="56.404" x="99.4109" y="146.125">Dr. Yu Wang’s</text><g clip-path="url(#clip5)" filter="url(#fx1)" transform="translate(204 186)"><g clip-path="url(#clip6)"><path d="M667.425 58.5649C663.216 58.5649 659.775 59.4744 657.1 61.2934 654.425 63.1124 653.087 65.5199 653.087 68.5159 653.087 71.2979 654.121 73.6341 656.19 75.5244 658.259 77.4148 660.898 78.3599 664.108 78.3599 666.961 78.3599 669.654 77.8428 672.187 76.8084 674.719 75.7741 676.698 74.3296 678.125 72.4749 679.623 71.1909 680.372 69.8356 680.372 68.4089L680.372 61.0259C678.375 60.2413 676.253 59.6349 674.006 59.2069 671.759 58.7789 669.565 58.5649 667.425 58.5649ZM120.425 58.5649C116.216 58.5649 112.775 59.4744 110.1 61.2934 107.425 63.1124 106.087 65.5199 106.087 68.5159 106.087 71.2979 107.121 73.6341 109.19 75.5244 111.259 77.4148 113.898 78.3599 117.108 78.3599 119.961 78.3599 122.654 77.8428 125.187 76.8084 127.719 75.7741 129.698 74.3296 131.125 72.4749 132.623 71.1909 133.372 69.8356 133.372 68.4089L133.372 61.0259C131.375 60.2413 129.253 59.6349 127.006 59.2069 124.759 58.7789 122.565 58.5649 120.425 58.5649ZM733.952 39.0909C730.314 39.0909 727.086 40.2679 724.268 42.6219 721.451 44.9759 719.293 47.8293 717.795 51.1819L717.795 65.9479C718.223 67.5886 718.972 69.0688 720.042 70.3884 721.112 71.7081 722.36 72.8673 723.787 73.8659 725.214 74.8646 726.747 75.6314 728.388 76.1664 730.029 76.7014 731.598 76.9689 733.096 76.9689 735.664 76.9689 738.018 76.4518 740.158 75.4174 742.298 74.3831 744.135 73.0099 745.669 71.2979 747.202 69.5859 748.397 67.6064 749.253 65.3594 750.109 63.1124 750.537 60.7406 750.537 58.2439 750.537 55.7473 750.127 53.3398 749.307 51.0214 748.486 48.7031 747.345 46.6701 745.883 44.9224 744.42 43.1748 742.673 41.7659 740.64 40.6959 738.607 39.6259 736.377 39.0909 733.952 39.0909ZM284.17 39.0909C281.887 39.0909 279.73 39.5903 277.697 40.5889 275.664 41.5876 273.898 42.9429 272.4 44.6549 270.902 46.3669 269.707 48.3821 268.816 50.7004 267.924 53.0188 267.478 55.4976 267.478 58.1369 267.478 60.8476 267.906 63.3443 268.762 65.6269 269.618 67.9096 270.795 69.8891 272.293 71.5654 273.791 73.2418 275.557 74.5614 277.59 75.5244 279.623 76.4874 281.816 76.9689 284.17 76.9689 286.524 76.9689 288.718 76.4874 290.751 75.5244 292.784 74.5614 294.549 73.2239 296.047 71.5119 297.545 69.7999 298.722 67.8026 299.578 65.5199 300.434 63.2373 300.862 60.7406 300.862 58.0299 300.862 55.3906 300.434 52.9118 299.578 50.5934 298.722 48.2751 297.545 46.2599 296.047 44.5479 294.549 42.8359 292.784 41.4984 290.751 40.5354 288.718 39.5724 286.524 39.0909 284.17 39.0909ZM558.025 29.9959 569.795 29.9959 569.795 85.9569 558.025 85.9569ZM423.487 29.4609C424.2 29.4609 424.789 29.4609 425.253 29.4609 425.716 29.4609 426.126 29.4966 426.483 29.5679L426.483 40.1609C421.918 40.3036 417.87 41.3558 414.339 43.3174 410.807 45.2791 408.293 48.0789 406.795 51.7169L406.795 85.9569 395.025 85.9569 395.025 29.9959 405.939 29.9959 405.939 42.5149C407.865 38.6629 410.38 35.5778 413.483 33.2594 416.586 30.9411 419.92 29.6749 423.487 29.4609ZM247.487 29.4609C248.2 29.4609 248.789 29.4609 249.253 29.4609 249.716 29.4609 250.126 29.4966 250.483 29.5679L250.483 40.1609C245.918 40.3036 241.87 41.3558 238.339 43.3174 234.808 45.2791 232.293 48.0789 230.795 51.7169L230.795 85.9569 219.025 85.9569 219.025 29.9959 229.939 29.9959 229.939 42.5149C231.865 38.6629 234.38 35.5778 237.483 33.2594 240.586 30.9411 243.92 29.6749 247.487 29.4609ZM667.746 29.0329C675.45 29.0329 681.442 30.9946 685.722 34.9179 690.002 38.8413 692.142 44.4766 692.142 51.8239L692.142 72.0469C692.142 74.5436 693.176 75.8276 695.245 75.8989L695.245 85.9569C694.104 86.1709 693.123 86.3136 692.303 86.3849 691.482 86.4563 690.68 86.4919 689.895 86.4919 687.612 86.4919 685.847 85.9213 684.599 84.7799 683.35 83.6386 682.583 82.1763 682.298 80.3929L681.977 76.8619C679.48 80.1433 676.395 82.6578 672.722 84.4054 669.048 86.1531 665.107 87.0269 660.898 87.0269 658.187 87.0269 655.673 86.5811 653.355 85.6894 651.036 84.7978 649.039 83.5673 647.363 81.9979 645.686 80.4286 644.367 78.5739 643.404 76.4339 642.441 74.2939 641.959 71.9756 641.959 69.4789 641.959 66.8396 642.53 64.4499 643.671 62.3099 644.812 60.1699 646.435 58.3153 648.54 56.7459 650.644 55.1766 653.141 53.9639 656.03 53.1079 658.919 52.2519 662.111 51.8239 665.606 51.8239 668.245 51.8239 670.849 52.0558 673.417 52.5194 675.985 52.9831 678.303 53.6073 680.372 54.3919L680.372 50.5399C680.372 46.4026 679.195 43.1748 676.841 40.8564 674.487 38.5381 671.099 37.3789 666.676 37.3789 663.68 37.3789 660.738 37.9318 657.849 39.0374 654.96 40.1431 651.981 41.7303 648.914 43.7989L645.276 36.3089C652.481 31.4583 659.971 29.0329 667.746 29.0329ZM460.384 29.0329C466.162 29.0329 471.138 30.2991 475.311 32.8314 479.484 35.3638 482.604 38.7343 484.673 42.9429L473.224 46.5809C471.869 44.2269 470.05 42.3901 467.767 41.0704 465.484 39.7508 462.952 39.0909 460.17 39.0909 457.816 39.0909 455.622 39.5546 453.59 40.4819 451.557 41.4093 449.791 42.7111 448.293 44.3874 446.795 46.0638 445.618 48.0433 444.762 50.3259 443.906 52.6086 443.478 55.1409 443.478 57.9229 443.478 60.6336 443.924 63.1481 444.815 65.4664 445.707 67.7848 446.92 69.7999 448.453 71.5119 449.987 73.2239 451.771 74.5614 453.804 75.5244 455.837 76.4874 457.994 76.9689 460.277 76.9689 461.704 76.9689 463.13 76.7728 464.557 76.3804 465.984 75.9881 467.286 75.4353 468.463 74.7219 469.64 74.0086 470.674 73.1883 471.565 72.2609 472.457 71.3336 473.117 70.3349 473.545 69.2649L485.101 72.6889C483.246 76.8976 480.143 80.3394 475.792 83.0144 471.441 85.6894 466.305 87.0269 460.384 87.0269 456.033 87.0269 452.074 86.2423 448.507 84.6729 444.94 83.1036 441.891 80.9814 439.359 78.3064 436.826 75.6314 434.865 72.5463 433.474 69.0509 432.083 65.5556 431.387 61.8463 431.387 57.9229 431.387 53.9996 432.065 50.2903 433.42 46.7949 434.775 43.2996 436.719 40.2323 439.252 37.5929 441.784 34.9536 444.833 32.8671 448.4 31.3334 451.967 29.7998 455.961 29.0329 460.384 29.0329ZM284.17 29.0329C288.521 29.0329 292.463 29.8176 295.994 31.3869 299.525 32.9563 302.556 35.0606 305.089 37.6999 307.621 40.3393 309.565 43.4244 310.92 46.9554 312.275 50.4864 312.953 54.1779 312.953 58.0299 312.953 61.8819 312.275 65.5734 310.92 69.1044 309.565 72.6354 307.621 75.7206 305.089 78.3599 302.556 80.9993 299.525 83.1036 295.994 84.6729 292.463 86.2423 288.521 87.0269 284.17 87.0269 279.747 87.0269 275.771 86.2423 272.24 84.6729 268.709 83.1036 265.695 80.9993 263.198 78.3599 260.701 75.7206 258.775 72.6354 257.42 69.1044 256.065 65.5734 255.387 61.8819 255.387 58.0299 255.387 54.1779 256.065 50.4864 257.42 46.9554 258.775 43.4244 260.719 40.3393 263.252 37.6999 265.784 35.0606 268.816 32.9563 272.347 31.3869 275.878 29.8176 279.819 29.0329 284.17 29.0329ZM184.384 29.0329C190.162 29.0329 195.138 30.2991 199.311 32.8314 203.484 35.3638 206.604 38.7343 208.673 42.9429L197.224 46.5809C195.869 44.2269 194.05 42.3901 191.767 41.0704 189.484 39.7508 186.952 39.0909 184.17 39.0909 181.816 39.0909 179.623 39.5546 177.59 40.4819 175.557 41.4093 173.791 42.7111 172.293 44.3874 170.795 46.0638 169.618 48.0433 168.762 50.3259 167.906 52.6086 167.478 55.1409 167.478 57.9229 167.478 60.6336 167.924 63.1481 168.816 65.4664 169.707 67.7848 170.92 69.7999 172.454 71.5119 173.987 73.2239 175.771 74.5614 177.804 75.5244 179.837 76.4874 181.994 76.9689 184.277 76.9689 185.704 76.9689 187.13 76.7728 188.557 76.3804 189.984 75.9881 191.286 75.4353 192.463 74.7219 193.64 74.0086 194.674 73.1883 195.566 72.2609 196.457 71.3336 197.117 70.3349 197.545 69.2649L209.101 72.6889C207.246 76.8976 204.143 80.3394 199.792 83.0144 195.441 85.6894 190.305 87.0269 184.384 87.0269 180.033 87.0269 176.074 86.2423 172.507 84.6729 168.94 83.1036 165.891 80.9814 163.359 78.3064 160.826 75.6314 158.865 72.5463 157.474 69.0509 156.083 65.5556 155.387 61.8463 155.387 57.9229 155.387 53.9996 156.065 50.2903 157.42 46.7949 158.775 43.2996 160.719 40.2323 163.252 37.5929 165.784 34.9536 168.833 32.8671 172.4 31.3334 175.967 29.7998 179.961 29.0329 184.384 29.0329ZM120.746 29.0329C128.45 29.0329 134.442 30.9946 138.722 34.9179 143.002 38.8413 145.142 44.4766 145.142 51.8239L145.142 72.0469C145.142 74.5436 146.176 75.8276 148.245 75.8989L148.245 85.9569C147.104 86.1709 146.123 86.3136 145.303 86.3849 144.482 86.4563 143.68 86.4919 142.895 86.4919 140.612 86.4919 138.847 85.9213 137.599 84.7799 136.35 83.6386 135.583 82.1763 135.298 80.3929L134.977 76.8619C132.48 80.1433 129.395 82.6578 125.722 84.4054 122.048 86.1531 118.107 87.0269 113.898 87.0269 111.187 87.0269 108.673 86.5811 106.355 85.6894 104.036 84.7978 102.039 83.5673 100.363 81.9979 98.6862 80.4286 97.3665 78.5739 96.4035 76.4339 95.4405 74.2939 94.959 71.9756 94.959 69.4789 94.959 66.8396 95.5297 64.4499 96.671 62.3099 97.8124 60.1699 99.4352 58.3153 101.54 56.7459 103.644 55.1766 106.141 53.9639 109.03 53.1079 111.919 52.2519 115.111 51.8239 118.606 51.8239 121.245 51.8239 123.849 52.0558 126.417 52.5194 128.985 52.9831 131.303 53.6073 133.372 54.3919L133.372 50.5399C133.372 46.4026 132.195 43.1748 129.841 40.8564 127.487 38.5381 124.099 37.3789 119.676 37.3789 116.68 37.3789 113.738 37.9318 110.849 39.0374 107.96 40.1431 104.981 41.7303 101.914 43.7989L98.276 36.3089C105.481 31.4583 112.971 29.0329 120.746 29.0329ZM352.129 23.7899 339.503 56.4249 364.327 56.4249ZM585.523 9.98694 597.507 9.98694 597.507 75.3639 638.274 75.3639 638.274 85.9569 585.523 85.9569ZM346.886 9.98694 357.372 9.98694 387.332 85.9569 374.706 85.9569 366.681 65.3059 337.363 65.3059 329.445 85.9569 316.712 85.9569ZM7.52304 9.98694 20.363 9.98694 45.508 56.4249 70.653 9.98694 83.493 9.98694 83.493 85.9569 71.402 85.9569 71.402 31.2799 48.825 72.6889 42.191 72.6889 19.507 31.2799 19.507 85.9569 7.52304 85.9569ZM706.025 7.84694 717.795 7.84694 717.795 40.5889C720.006 37.0223 722.771 34.2046 726.088 32.1359 729.405 30.0673 733.31 29.0329 737.804 29.0329 741.513 29.0329 744.902 29.8354 747.969 31.4404 751.036 33.0454 753.658 35.1854 755.833 37.8604 758.009 40.5354 759.686 43.6384 760.863 47.1694 762.04 50.7004 762.628 54.3919 762.628 58.2439 762.628 62.2386 761.95 65.9836 760.595 69.4789 759.24 72.9743 757.385 76.0238 755.031 78.6274 752.677 81.2311 749.877 83.2819 746.632 84.7799 743.386 86.2779 739.908 87.0269 736.199 87.0269 731.919 87.0269 728.049 86.0104 724.59 83.9774 721.13 81.9444 718.401 79.2159 716.404 75.7919L716.404 85.9569 706.025 85.9569ZM558.025 7.84694 569.795 7.84694 569.795 20.7939 558.025 20.7939ZM494.025 7.84694 505.795 7.84694 505.795 41.2309C507.935 37.3789 510.842 34.3829 514.516 32.2429 518.189 30.1029 522.202 29.0329 526.553 29.0329 530.048 29.0329 532.919 29.6571 535.167 30.9054 537.414 32.1538 539.215 33.8123 540.57 35.8809 541.925 37.9496 542.87 40.3571 543.406 43.1034 543.94 45.8498 544.208 48.7566 544.208 51.8239L544.208 85.9569 532.438 85.9569 532.438 54.6059C532.438 49.4699 531.529 45.6714 529.709 43.2104 527.891 40.7494 525.269 39.5189 521.845 39.5189 520.204 39.5189 518.564 39.8399 516.923 40.4819 515.282 41.1239 513.731 42.0334 512.268 43.2104 510.806 44.3874 509.504 45.7784 508.363 47.3834 507.222 48.9884 506.366 50.7539 505.795 52.6799L505.795 85.9569 494.025 85.9569Z" stroke="#F2F2F2" stroke-linejoin="round" stroke-miterlimit="10" fill="#FFFFFF" fill-rule="evenodd"/></g></g><path d="M868.486 241.626C864.278 241.626 860.836 242.536 858.161 244.355 855.486 246.174 854.148 248.581 854.148 251.577 854.148 254.359 855.183 256.695 857.251 258.586 859.32 260.476 861.959 261.421 865.169 261.421 868.023 261.421 870.715 260.904 873.248 259.87 875.78 258.835 877.76 257.391 879.186 255.536 880.684 254.252 881.433 252.897 881.433 251.47L881.433 244.087C879.436 243.302 877.314 242.696 875.067 242.268 872.82 241.84 870.626 241.626 868.486 241.626ZM321.486 241.626C317.278 241.626 313.836 242.536 311.161 244.355 308.486 246.174 307.148 248.581 307.148 251.577 307.148 254.359 308.183 256.695 310.251 258.586 312.32 260.476 314.959 261.421 318.169 261.421 321.023 261.421 323.715 260.904 326.248 259.87 328.78 258.835 330.76 257.391 332.186 255.536 333.684 254.252 334.433 252.897 334.433 251.47L334.433 244.087C332.436 243.302 330.314 242.696 328.067 242.268 325.82 241.84 323.626 241.626 321.486 241.626ZM935.013 222.152C931.375 222.152 928.147 223.329 925.33 225.683 922.512 228.037 920.354 230.89 918.856 234.243L918.856 249.009C919.284 250.65 920.033 252.13 921.103 253.45 922.173 254.769 923.422 255.928 924.848 256.927 926.275 257.926 927.809 258.693 929.449 259.228 931.09 259.763 932.659 260.03 934.157 260.03 936.725 260.03 939.079 259.513 941.219 258.479 943.359 257.444 945.196 256.071 946.73 254.359 948.263 252.647 949.458 250.668 950.314 248.421 951.17 246.174 951.598 243.802 951.598 241.305 951.598 238.808 951.188 236.401 950.368 234.083 949.547 231.764 948.406 229.731 946.944 227.984 945.481 226.236 943.734 224.827 941.701 223.757 939.668 222.687 937.439 222.152 935.013 222.152ZM485.231 222.152C482.949 222.152 480.791 222.651 478.758 223.65 476.725 224.649 474.959 226.004 473.461 227.716 471.963 229.428 470.768 231.443 469.877 233.762 468.985 236.08 468.539 238.559 468.539 241.198 468.539 243.909 468.967 246.405 469.823 248.688 470.679 250.971 471.856 252.95 473.354 254.627 474.852 256.303 476.618 257.623 478.651 258.586 480.684 259.549 482.877 260.03 485.231 260.03 487.585 260.03 489.779 259.549 491.812 258.586 493.845 257.623 495.61 256.285 497.108 254.573 498.606 252.861 499.783 250.864 500.639 248.581 501.495 246.298 501.923 243.802 501.923 241.091 501.923 238.452 501.495 235.973 500.639 233.655 499.783 231.336 498.606 229.321 497.108 227.609 495.61 225.897 493.845 224.56 491.812 223.597 489.779 222.634 487.585 222.152 485.231 222.152ZM759.086 213.057 770.856 213.057 770.856 269.018 759.086 269.018ZM624.548 212.522C625.262 212.522 625.85 212.522 626.314 212.522 626.777 212.522 627.188 212.558 627.544 212.629L627.544 223.222C622.979 223.365 618.931 224.417 615.4 226.379 611.869 228.34 609.354 231.14 607.856 234.778L607.856 269.018 596.086 269.018 596.086 213.057 607 213.057 607 225.576C608.926 221.724 611.441 218.639 614.544 216.321 617.647 214.002 620.982 212.736 624.548 212.522ZM448.548 212.522C449.262 212.522 449.85 212.522 450.314 212.522 450.777 212.522 451.188 212.558 451.544 212.629L451.544 223.222C446.979 223.365 442.931 224.417 439.4 226.379 435.869 228.34 433.354 231.14 431.856 234.778L431.856 269.018 420.086 269.018 420.086 213.057 431 213.057 431 225.576C432.926 221.724 435.441 218.639 438.544 216.321 441.647 214.002 444.982 212.736 448.548 212.522ZM868.807 212.094C876.511 212.094 882.503 214.056 886.783 217.979 891.063 221.902 893.203 227.538 893.203 234.885L893.203 255.108C893.203 257.605 894.238 258.889 896.306 258.96L896.306 269.018C895.165 269.232 894.184 269.375 893.364 269.446 892.543 269.517 891.741 269.553 890.956 269.553 888.674 269.553 886.908 268.982 885.66 267.841 884.411 266.7 883.645 265.237 883.359 263.454L883.038 259.923C880.542 263.204 877.456 265.719 873.783 267.467 870.109 269.214 866.168 270.088 861.959 270.088 859.249 270.088 856.734 269.642 854.416 268.751 852.097 267.859 850.1 266.628 848.424 265.059 846.747 263.49 845.428 261.635 844.465 259.495 843.502 257.355 843.02 255.037 843.02 252.54 843.02 249.901 843.591 247.511 844.732 245.371 845.874 243.231 847.496 241.376 849.601 239.807 851.705 238.238 854.202 237.025 857.091 236.169 859.98 235.313 863.172 234.885 866.667 234.885 869.307 234.885 871.91 235.117 874.478 235.581 877.046 236.044 879.365 236.668 881.433 237.453L881.433 233.601C881.433 229.464 880.256 226.236 877.902 223.918 875.548 221.599 872.16 220.44 867.737 220.44 864.741 220.44 861.799 220.993 858.91 222.099 856.021 223.204 853.043 224.791 849.975 226.86L846.337 219.37C853.542 214.519 861.032 212.094 868.807 212.094ZM661.445 212.094C667.223 212.094 672.199 213.36 676.372 215.893 680.545 218.425 683.666 221.795 685.734 226.004L674.285 229.642C672.93 227.288 671.111 225.451 668.828 224.132 666.546 222.812 664.013 222.152 661.231 222.152 658.877 222.152 656.684 222.616 654.651 223.543 652.618 224.47 650.852 225.772 649.354 227.449 647.856 229.125 646.679 231.104 645.823 233.387 644.967 235.67 644.539 238.202 644.539 240.984 644.539 243.695 644.985 246.209 645.877 248.528 646.768 250.846 647.981 252.861 649.515 254.573 651.048 256.285 652.832 257.623 654.865 258.586 656.898 259.549 659.056 260.03 661.338 260.03 662.765 260.03 664.192 259.834 665.618 259.442 667.045 259.049 668.347 258.496 669.524 257.783 670.701 257.07 671.735 256.249 672.627 255.322 673.518 254.395 674.178 253.396 674.606 252.326L686.162 255.75C684.308 259.959 681.205 263.401 676.853 266.076 672.502 268.751 667.366 270.088 661.445 270.088 657.094 270.088 653.135 269.303 649.568 267.734 646.002 266.165 642.952 264.043 640.42 261.368 637.887 258.693 635.926 255.607 634.535 252.112 633.144 248.617 632.448 244.907 632.448 240.984 632.448 237.061 633.126 233.351 634.481 229.856 635.837 226.361 637.78 223.293 640.313 220.654 642.845 218.015 645.895 215.928 649.461 214.395 653.028 212.861 657.023 212.094 661.445 212.094ZM485.231 212.094C489.583 212.094 493.524 212.879 497.055 214.448 500.586 216.017 503.617 218.122 506.15 220.761 508.682 223.4 510.626 226.486 511.981 230.017 513.337 233.548 514.014 237.239 514.014 241.091 514.014 244.943 513.337 248.635 511.981 252.166 510.626 255.697 508.682 258.782 506.15 261.421 503.617 264.06 500.586 266.165 497.055 267.734 493.524 269.303 489.583 270.088 485.231 270.088 480.809 270.088 476.832 269.303 473.301 267.734 469.77 266.165 466.756 264.06 464.259 261.421 461.763 258.782 459.837 255.697 458.481 252.166 457.126 248.635 456.448 244.943 456.448 241.091 456.448 237.239 457.126 233.548 458.481 230.017 459.837 226.486 461.78 223.4 464.313 220.761 466.845 218.122 469.877 216.017 473.408 214.448 476.939 212.879 480.88 212.094 485.231 212.094ZM385.445 212.094C391.223 212.094 396.199 213.36 400.372 215.893 404.545 218.425 407.666 221.795 409.734 226.004L398.285 229.642C396.93 227.288 395.111 225.451 392.828 224.132 390.546 222.812 388.013 222.152 385.231 222.152 382.877 222.152 380.684 222.616 378.651 223.543 376.618 224.47 374.852 225.772 373.354 227.449 371.856 229.125 370.679 231.104 369.823 233.387 368.967 235.67 368.539 238.202 368.539 240.984 368.539 243.695 368.985 246.209 369.877 248.528 370.768 250.846 371.981 252.861 373.515 254.573 375.048 256.285 376.832 257.623 378.865 258.586 380.898 259.549 383.056 260.03 385.338 260.03 386.765 260.03 388.192 259.834 389.618 259.442 391.045 259.049 392.347 258.496 393.524 257.783 394.701 257.07 395.735 256.249 396.627 255.322 397.518 254.395 398.178 253.396 398.606 252.326L410.162 255.75C408.308 259.959 405.205 263.401 400.853 266.076 396.502 268.751 391.366 270.088 385.445 270.088 381.094 270.088 377.135 269.303 373.568 267.734 370.002 266.165 366.952 264.043 364.42 261.368 361.887 258.693 359.926 255.607 358.535 252.112 357.144 248.617 356.448 244.907 356.448 240.984 356.448 237.061 357.126 233.351 358.481 229.856 359.837 226.361 361.78 223.293 364.313 220.654 366.845 218.015 369.895 215.928 373.461 214.395 377.028 212.861 381.023 212.094 385.445 212.094ZM321.807 212.094C329.511 212.094 335.503 214.056 339.783 217.979 344.063 221.902 346.203 227.538 346.203 234.885L346.203 255.108C346.203 257.605 347.238 258.889 349.306 258.96L349.306 269.018C348.165 269.232 347.184 269.375 346.364 269.446 345.543 269.517 344.741 269.553 343.956 269.553 341.674 269.553 339.908 268.982 338.66 267.841 337.411 266.7 336.645 265.237 336.359 263.454L336.038 259.923C333.542 263.204 330.456 265.719 326.783 267.467 323.109 269.214 319.168 270.088 314.959 270.088 312.249 270.088 309.734 269.642 307.416 268.751 305.097 267.859 303.1 266.628 301.424 265.059 299.747 263.49 298.428 261.635 297.465 259.495 296.502 257.355 296.02 255.037 296.02 252.54 296.02 249.901 296.591 247.511 297.732 245.371 298.874 243.231 300.496 241.376 302.601 239.807 304.705 238.238 307.202 237.025 310.091 236.169 312.98 235.313 316.172 234.885 319.667 234.885 322.307 234.885 324.91 235.117 327.478 235.581 330.046 236.044 332.365 236.668 334.433 237.453L334.433 233.601C334.433 229.464 333.256 226.236 330.902 223.918 328.548 221.599 325.16 220.44 320.737 220.44 317.741 220.44 314.799 220.993 311.91 222.099 309.021 223.204 306.043 224.791 302.975 226.86L299.337 219.37C306.542 214.519 314.032 212.094 321.807 212.094ZM553.19 206.851 540.564 239.486 565.388 239.486ZM786.584 193.048 798.568 193.048 798.568 258.425 839.335 258.425 839.335 269.018 786.584 269.018ZM547.947 193.048 558.433 193.048 588.393 269.018 575.767 269.018 567.742 248.367 538.424 248.367 530.506 269.018 517.773 269.018ZM208.584 193.048 221.424 193.048 246.569 239.486 271.714 193.048 284.554 193.048 284.554 269.018 272.463 269.018 272.463 214.341 249.886 255.75 243.252 255.75 220.568 214.341 220.568 269.018 208.584 269.018ZM907.086 190.908 918.856 190.908 918.856 223.65C921.068 220.083 923.832 217.266 927.149 215.197 930.466 213.128 934.371 212.094 938.865 212.094 942.575 212.094 945.963 212.897 949.03 214.502 952.098 216.107 954.719 218.247 956.895 220.922 959.07 223.597 960.747 226.7 961.924 230.231 963.101 233.762 963.689 237.453 963.689 241.305 963.689 245.3 963.012 249.045 961.656 252.54 960.301 256.035 958.446 259.085 956.092 261.689 953.738 264.292 950.938 266.343 947.693 267.841 944.447 269.339 940.97 270.088 937.26 270.088 932.98 270.088 929.11 269.072 925.651 267.039 922.191 265.006 919.463 262.277 917.465 258.853L917.465 269.018 907.086 269.018ZM759.086 190.908 770.856 190.908 770.856 203.855 759.086 203.855ZM695.086 190.908 706.856 190.908 706.856 224.292C708.996 220.44 711.903 217.444 715.577 215.304 719.25 213.164 723.263 212.094 727.614 212.094 731.11 212.094 733.981 212.718 736.228 213.967 738.475 215.215 740.276 216.873 741.631 218.942 742.987 221.011 743.932 223.418 744.467 226.165 745.002 228.911 745.269 231.818 745.269 234.885L745.269 269.018 733.499 269.018 733.499 237.667C733.499 232.531 732.59 228.733 730.771 226.272 728.952 223.811 726.33 222.58 722.906 222.58 721.266 222.58 719.625 222.901 717.984 223.543 716.344 224.185 714.792 225.095 713.33 226.272 711.867 227.449 710.566 228.84 709.424 230.445 708.283 232.05 707.427 233.815 706.856 235.741L706.856 269.018 695.086 269.018Z" stroke="#F2F2F2" stroke-linejoin="round" stroke-miterlimit="10" fill="#FFFFFF" fill-rule="evenodd"/><text fill="#000000" fill-opacity="0" font-family="Arial,Arial_MSFontService,sans-serif" font-size="79.18" x="208.584" y="260.191">MacroArchiLab</text></g></svg>