<?xml version="1.0" encoding="UTF-8"?>
<svg xmlns="http://www.w3.org/2000/svg" xmlns:xlink="http://www.w3.org/1999/xlink" width="320pt" height="120pt" viewBox="0 0 320 120" version="1.1">
<g id="surface1">
<path style=" stroke:none;fill-rule:nonzero;fill:rgb(12.156863%,30.588235%,47.45098%);fill-opacity:1;" d="M 4.160156 18.328125 L 4.160156 5.53125 L 7.703125 5.53125 C 8.691406 5.53125 9.585938 5.765625 10.390625 6.234375 C 11.191406 6.703125 11.820312 7.359375 12.273438 8.207031 C 12.730469 9.054688 12.96875 10.003906 12.984375 11.050781 L 12.984375 12.710938 C 12.984375 13.777344 12.757812 14.742188 12.3125 15.597656 C 11.863281 16.453125 11.234375 17.121094 10.429688 17.597656 C 9.628906 18.078125 8.730469 18.320312 7.742188 18.328125 Z M 4.632812 6.003906 L 4.632812 17.851562 L 7.703125 17.851562 C 8.597656 17.851562 9.410156 17.632812 10.144531 17.195312 C 10.878906 16.761719 11.457031 16.148438 11.875 15.367188 C 12.289062 14.589844 12.5 13.71875 12.507812 12.765625 L 12.507812 11.117188 C 12.507812 10.164062 12.304688 9.296875 11.894531 8.519531 C 11.488281 7.738281 10.917969 7.128906 10.191406 6.6875 C 9.460938 6.242188 8.652344 6.015625 7.769531 6.003906 Z M 4.632812 6.003906 "/>
<path style=" stroke:none;fill-rule:nonzero;fill:rgb(12.156863%,30.588235%,47.45098%);fill-opacity:1;" d="M 19.875 9.160156 L 19.261719 9.109375 C 18.449219 9.109375 17.773438 9.371094 17.230469 9.894531 C 16.683594 10.417969 16.324219 11.152344 16.15625 12.097656 L 16.15625 18.328125 L 15.683594 18.328125 L 15.683594 8.816406 L 16.15625 8.816406 L 16.15625 10.796875 C 16.414062 10.132812 16.804688 9.609375 17.316406 9.222656 C 17.835938 8.835938 18.480469 8.640625 19.261719 8.640625 C 19.535156 8.640625 19.757812 8.671875 19.925781 8.738281 Z M 19.875 9.160156 "/>
<path style=" stroke:none;fill-rule:nonzero;fill:rgb(12.156863%,30.588235%,47.45098%);fill-opacity:1;" d="M 21.476562 17.894531 C 21.476562 17.761719 21.523438 17.644531 21.617188 17.550781 C 21.707031 17.453125 21.824219 17.40625 21.960938 17.40625 C 22.09375 17.40625 22.210938 17.453125 22.304688 17.550781 C 22.398438 17.644531 22.449219 17.761719 22.449219 17.894531 C 22.449219 18.03125 22.398438 18.144531 22.304688 18.238281 C 22.210938 18.332031 22.09375 18.378906 21.960938 18.378906 C 21.824219 18.378906 21.707031 18.332031 21.617188 18.238281 C 21.523438 18.144531 21.476562 18.03125 21.476562 17.894531 Z M 21.476562 17.894531 "/>
<path style=" stroke:none;fill-rule:nonzero;fill:rgb(12.156863%,30.588235%,47.45098%);fill-opacity:1;" d="M 33.691406 13.035156 L 38.171875 5.53125 L 38.753906 5.53125 L 33.925781 13.46875 L 33.925781 18.328125 L 33.453125 18.328125 L 33.453125 13.46875 L 28.628906 5.53125 L 29.261719 5.53125 Z M 33.691406 13.035156 "/>
<path style=" stroke:none;fill-rule:nonzero;fill:rgb(12.156863%,30.588235%,47.45098%);fill-opacity:1;" d="M 46.96875 18.328125 L 46.96875 16.789062 C 46.6875 17.320312 46.277344 17.738281 45.734375 18.046875 C 45.195312 18.351562 44.515625 18.503906 43.6875 18.503906 C 42.652344 18.503906 41.875 18.199219 41.355469 17.59375 C 40.835938 16.984375 40.574219 16.101562 40.5625 14.941406 L 40.5625 8.816406 L 41.039062 8.816406 L 41.039062 14.960938 C 41.046875 15.96875 41.273438 16.734375 41.71875 17.253906 C 42.167969 17.773438 42.820312 18.03125 43.671875 18.03125 C 44.578125 18.03125 45.316406 17.816406 45.886719 17.390625 C 46.457031 16.960938 46.816406 16.332031 46.96875 15.503906 L 46.96875 8.816406 L 47.453125 8.816406 L 47.453125 18.328125 Z M 46.96875 18.328125 "/>
<path style=" stroke:none;fill-rule:nonzero;fill:rgb(12.156863%,30.588235%,47.45098%);fill-opacity:1;" d="M 57.527344 17.535156 L 58.113281 15.425781 L 61.132812 5.53125 L 61.660156 5.53125 L 64.664062 15.425781 L 65.238281 17.535156 L 65.835938 15.425781 L 68.472656 5.53125 L 68.992188 5.53125 L 65.542969 18.328125 L 65.007812 18.328125 L 61.835938 7.65625 L 61.386719 6.300781 L 60.957031 7.65625 L 57.757812 18.328125 L 57.222656 18.328125 L 53.769531 5.53125 L 54.292969 5.53125 L 56.949219 15.425781 Z M 57.527344 17.535156 "/>
<path style=" stroke:none;fill-rule:nonzero;fill:rgb(12.156863%,30.588235%,47.45098%);fill-opacity:1;" d="M 77.195312 18.328125 C 77.078125 17.925781 77.019531 17.34375 77.019531 16.585938 C 76.644531 17.195312 76.128906 17.667969 75.476562 18.003906 C 74.828125 18.335938 74.09375 18.503906 73.273438 18.503906 C 72.394531 18.503906 71.6875 18.265625 71.148438 17.789062 C 70.613281 17.3125 70.347656 16.6875 70.347656 15.921875 C 70.347656 15.046875 70.742188 14.347656 71.53125 13.820312 C 72.316406 13.296875 73.367188 13.03125 74.675781 13.019531 L 77.019531 13.019531 L 77.019531 11.628906 C 77.019531 10.835938 76.769531 10.214844 76.269531 9.773438 C 75.769531 9.335938 75.050781 9.113281 74.117188 9.113281 C 73.25 9.113281 72.527344 9.339844 71.945312 9.785156 C 71.367188 10.230469 71.078125 10.78125 71.078125 11.4375 L 70.601562 11.421875 C 70.601562 10.648438 70.941406 9.992188 71.625 9.453125 C 72.304688 8.910156 73.136719 8.640625 74.117188 8.640625 C 75.144531 8.640625 75.960938 8.898438 76.5625 9.410156 C 77.164062 9.925781 77.476562 10.648438 77.492188 11.578125 L 77.492188 16.117188 C 77.492188 17.164062 77.574219 17.875 77.738281 18.25 L 77.738281 18.328125 Z M 73.273438 18.035156 C 74.167969 18.035156 74.933594 17.835938 75.570312 17.441406 C 76.214844 17.042969 76.695312 16.480469 77.019531 15.757812 L 77.019531 13.503906 L 74.820312 13.503906 C 73.464844 13.503906 72.421875 13.773438 71.703125 14.3125 C 71.113281 14.75 70.820312 15.296875 70.820312 15.953125 C 70.820312 16.53125 71.050781 17.027344 71.515625 17.429688 C 71.980469 17.835938 72.566406 18.035156 73.273438 18.035156 Z M 73.273438 18.035156 "/>
<path style=" stroke:none;fill-rule:nonzero;fill:rgb(12.156863%,30.588235%,47.45098%);fill-opacity:1;" d="M 81.027344 11.03125 C 81.339844 10.292969 81.796875 9.710938 82.398438 9.285156 C 83 8.855469 83.671875 8.640625 84.402344 8.640625 C 85.421875 8.640625 86.179688 8.929688 86.675781 9.507812 C 87.171875 10.085938 87.421875 10.957031 87.429688 12.125 L 87.429688 18.328125 L 86.957031 18.328125 L 86.957031 12.101562 C 86.949219 11.085938 86.738281 10.332031 86.332031 9.84375 C 85.921875 9.355469 85.269531 9.109375 84.378906 9.109375 C 83.558594 9.109375 82.847656 9.402344 82.246094 9.984375 C 81.644531 10.566406 81.238281 11.320312 81.027344 12.238281 L 81.027344 18.328125 L 80.554688 18.328125 L 80.554688 8.816406 L 81.027344 8.816406 Z M 81.027344 11.03125 "/>
<path style=" stroke:none;fill-rule:nonzero;fill:rgb(12.156863%,30.588235%,47.45098%);fill-opacity:1;" d="M 89.953125 13.472656 C 89.953125 11.957031 90.273438 10.773438 90.910156 9.921875 C 91.550781 9.066406 92.425781 8.640625 93.542969 8.640625 C 94.25 8.640625 94.878906 8.804688 95.425781 9.128906 C 95.976562 9.457031 96.421875 9.933594 96.753906 10.554688 L 96.753906 8.816406 L 97.238281 8.816406 L 97.238281 18.160156 C 97.238281 19.414062 96.914062 20.390625 96.269531 21.097656 C 95.628906 21.804688 94.753906 22.160156 93.644531 22.160156 C 93.007812 22.160156 92.421875 22.019531 91.890625 21.742188 C 91.363281 21.46875 90.910156 21.074219 90.535156 20.5625 L 90.871094 20.242188 C 91.238281 20.710938 91.640625 21.070312 92.078125 21.316406 C 92.519531 21.566406 93.035156 21.691406 93.628906 21.691406 C 94.605469 21.691406 95.367188 21.394531 95.910156 20.800781 C 96.457031 20.207031 96.738281 19.367188 96.753906 18.285156 L 96.753906 16.820312 C 96.429688 17.363281 95.984375 17.78125 95.425781 18.070312 C 94.867188 18.359375 94.230469 18.503906 93.519531 18.503906 C 92.417969 18.503906 91.550781 18.070312 90.910156 17.195312 C 90.273438 16.324219 89.953125 15.121094 89.953125 13.597656 Z M 90.4375 13.660156 C 90.4375 15.019531 90.707031 16.085938 91.246094 16.863281 C 91.785156 17.640625 92.542969 18.03125 93.515625 18.03125 C 94.316406 18.03125 95 17.84375 95.5625 17.472656 C 96.125 17.097656 96.523438 16.574219 96.753906 15.898438 L 96.753906 11.585938 C 96.242188 9.9375 95.164062 9.113281 93.53125 9.113281 C 92.550781 9.113281 91.789062 9.5 91.25 10.269531 C 90.707031 11.039062 90.4375 12.167969 90.4375 13.660156 Z M 90.4375 13.660156 "/>
<path style=" stroke:none;fill-rule:nonzero;fill:rgb(12.156863%,30.588235%,47.45098%);fill-opacity:1;" d="M 99.753906 8.210938 L 99.429688 7.929688 C 99.90625 7.320312 100.164062 6.691406 100.203125 6.039062 L 100.210938 4.828125 L 100.6875 4.828125 L 100.6875 5.851562 C 100.664062 6.789062 100.355469 7.574219 99.753906 8.210938 Z M 99.753906 8.210938 "/>
<path style=" stroke:none;fill-rule:nonzero;fill:rgb(12.156863%,30.588235%,47.45098%);fill-opacity:1;" d="M 108.9375 16 C 108.9375 14.84375 107.953125 14.058594 105.984375 13.644531 C 104.800781 13.390625 103.976562 13.066406 103.511719 12.671875 C 103.046875 12.277344 102.816406 11.730469 102.816406 11.039062 C 102.816406 10.34375 103.113281 9.769531 103.703125 9.316406 C 104.292969 8.867188 105.058594 8.640625 106 8.640625 C 107.027344 8.640625 107.851562 8.886719 108.46875 9.375 C 109.089844 9.863281 109.402344 10.527344 109.402344 11.359375 L 108.917969 11.359375 C 108.917969 10.71875 108.648438 10.1875 108.109375 9.757812 C 107.570312 9.328125 106.867188 9.113281 106 9.113281 C 105.167969 9.113281 104.507812 9.296875 104.019531 9.660156 C 103.535156 10.023438 103.292969 10.480469 103.292969 11.023438 C 103.292969 11.453125 103.382812 11.789062 103.5625 12.03125 C 103.746094 12.273438 104.042969 12.496094 104.453125 12.691406 C 104.863281 12.886719 105.460938 13.074219 106.246094 13.257812 C 107.03125 13.441406 107.652344 13.652344 108.109375 13.898438 C 108.566406 14.144531 108.898438 14.433594 109.105469 14.769531 C 109.308594 15.105469 109.410156 15.519531 109.410156 16.003906 C 109.410156 16.753906 109.101562 17.359375 108.488281 17.816406 C 107.875 18.273438 107.070312 18.503906 106.074219 18.503906 C 105.007812 18.503906 104.144531 18.261719 103.488281 17.78125 C 102.835938 17.292969 102.511719 16.671875 102.511719 15.910156 L 102.984375 15.910156 C 103.03125 16.578125 103.328125 17.097656 103.871094 17.472656 C 104.410156 17.84375 105.144531 18.03125 106.074219 18.03125 C 106.917969 18.03125 107.609375 17.832031 108.140625 17.4375 C 108.671875 17.042969 108.9375 16.5625 108.9375 16 Z M 108.9375 16 "/>
<path style=" stroke:none;fill-rule:nonzero;fill:rgb(0%,43.921569%,75.294118%);fill-opacity:1;" d="M 23.625 70.0625 C 23.253906 70.0625 22.929688 69.929688 22.660156 69.664062 C 22.394531 69.394531 22.261719 69.070312 22.261719 68.699219 L 22.261719 44.089844 C 22.261719 43.695312 22.394531 43.367188 22.660156 43.109375 C 22.929688 42.855469 23.253906 42.726562 23.625 42.726562 C 24.1875 42.726562 24.59375 42.957031 24.847656 43.421875 L 36.644531 66.875 L 35.457031 66.875 L 47.046875 43.421875 C 47.324219 42.957031 47.730469 42.726562 48.269531 42.726562 C 48.640625 42.726562 48.957031 42.855469 49.214844 43.109375 C 49.46875 43.367188 49.597656 43.695312 49.597656 44.089844 L 49.597656 68.699219 C 49.597656 69.070312 49.46875 69.394531 49.214844 69.664062 C 48.957031 69.929688 48.640625 70.0625 48.269531 70.0625 C 47.875 70.0625 47.539062 69.929688 47.269531 69.664062 C 47.003906 69.394531 46.871094 69.070312 46.871094 68.699219 L 46.871094 47.625 L 47.464844 47.664062 L 37.140625 68.765625 C 36.882812 69.210938 36.484375 69.433594 35.949219 69.433594 C 35.363281 69.433594 34.945312 69.15625 34.6875 68.59375 L 24.292969 47.796875 L 24.988281 47.625 L 24.988281 68.699219 C 24.988281 69.070312 24.855469 69.394531 24.589844 69.664062 C 24.320312 69.929688 24 70.0625 23.625 70.0625 Z M 23.625 70.0625 "/>
<path style=" stroke:none;fill-rule:nonzero;fill:rgb(0%,43.921569%,75.294118%);fill-opacity:1;" d="M 64.691406 70.242188 C 62.890625 70.242188 61.28125 69.816406 59.855469 68.964844 C 58.433594 68.113281 57.304688 66.949219 56.476562 65.480469 C 55.648438 64.007812 55.238281 62.351562 55.238281 60.507812 C 55.238281 58.640625 55.660156 56.96875 56.511719 55.5 C 57.367188 54.035156 58.527344 52.875 59.996094 52.023438 C 61.464844 51.167969 63.121094 50.742188 64.964844 50.742188 C 66.808594 50.742188 68.460938 51.167969 69.917969 52.023438 C 71.375 52.875 72.53125 54.035156 73.382812 55.5 C 74.234375 56.96875 74.675781 58.640625 74.699219 60.507812 L 73.617188 61.34375 C 73.617188 63.027344 73.222656 64.539062 72.441406 65.882812 C 71.660156 67.222656 70.59375 68.285156 69.253906 69.070312 C 67.910156 69.851562 66.390625 70.242188 64.691406 70.242188 Z M 64.964844 67.789062 C 66.320312 67.789062 67.527344 67.472656 68.589844 66.84375 C 69.652344 66.214844 70.492188 65.34375 71.113281 64.234375 C 71.730469 63.128906 72.039062 61.886719 72.039062 60.507812 C 72.039062 59.109375 71.730469 57.859375 71.113281 56.761719 C 70.492188 55.664062 69.652344 54.796875 68.589844 54.152344 C 67.527344 53.511719 66.320312 53.1875 64.964844 53.1875 C 63.636719 53.1875 62.433594 53.511719 61.363281 54.152344 C 60.289062 54.796875 59.4375 55.664062 58.804688 56.761719 C 58.175781 57.859375 57.863281 59.109375 57.863281 60.507812 C 57.863281 61.886719 58.175781 63.128906 58.804688 64.234375 C 59.4375 65.34375 60.289062 66.214844 61.363281 66.84375 C 62.433594 67.472656 63.636719 67.789062 64.964844 67.789062 Z M 73.335938 70.0625 C 72.9375 70.0625 72.609375 69.941406 72.351562 69.699219 C 72.097656 69.453125 71.972656 69.132812 71.972656 68.734375 L 71.972656 62.746094 L 72.632812 59.980469 L 74.699219 60.507812 L 74.699219 68.734375 C 74.699219 69.132812 74.570312 69.453125 74.316406 69.699219 C 74.058594 69.941406 73.730469 70.0625 73.335938 70.0625 Z M 73.335938 70.0625 "/>
<path style=" stroke:none;fill-rule:nonzero;fill:rgb(0%,43.921569%,75.294118%);fill-opacity:1;" d="M 88.492188 70.242188 C 86.648438 70.242188 85.007812 69.816406 83.570312 68.964844 C 82.136719 68.113281 81.003906 66.949219 80.175781 65.480469 C 79.347656 64.007812 78.9375 62.351562 78.9375 60.507812 C 78.9375 58.640625 79.332031 56.96875 80.125 55.5 C 80.917969 54.035156 82.003906 52.875 83.378906 52.023438 C 84.757812 51.167969 86.34375 50.742188 88.144531 50.742188 C 89.566406 50.742188 90.878906 51.023438 92.082031 51.585938 C 93.28125 52.144531 94.339844 52.984375 95.25 54.101562 C 95.503906 54.382812 95.597656 54.679688 95.53125 54.996094 C 95.460938 55.308594 95.261719 55.582031 94.929688 55.820312 C 94.675781 56.003906 94.390625 56.066406 94.078125 56.011719 C 93.761719 55.953125 93.484375 55.78125 93.253906 55.5 C 91.898438 53.960938 90.195312 53.1875 88.144531 53.1875 C 86.835938 53.1875 85.683594 53.503906 84.691406 54.136719 C 83.703125 54.765625 82.933594 55.628906 82.382812 56.726562 C 81.835938 57.824219 81.5625 59.082031 81.5625 60.507812 C 81.5625 61.90625 81.851562 63.15625 82.4375 64.25 C 83.019531 65.347656 83.835938 66.214844 84.882812 66.84375 C 85.933594 67.472656 87.140625 67.789062 88.492188 67.789062 C 89.402344 67.789062 90.234375 67.667969 90.992188 67.421875 C 91.753906 67.175781 92.425781 66.796875 93.007812 66.28125 C 93.285156 66.050781 93.578125 65.921875 93.878906 65.898438 C 94.183594 65.875 94.464844 65.96875 94.722656 66.179688 C 95.003906 66.4375 95.160156 66.726562 95.195312 67.054688 C 95.230469 67.378906 95.121094 67.660156 94.863281 67.890625 C 93.15625 69.457031 91.035156 70.242188 88.492188 70.242188 Z M 88.492188 70.242188 "/>
<path style=" stroke:none;fill-rule:nonzero;fill:rgb(0%,43.921569%,75.294118%);fill-opacity:1;" d="M 101.9375 58.265625 C 102.003906 56.820312 102.382812 55.523438 103.070312 54.382812 C 103.761719 53.238281 104.660156 52.34375 105.769531 51.6875 C 106.875 51.035156 108.109375 50.703125 109.460938 50.703125 C 110.535156 50.703125 111.363281 50.859375 111.945312 51.164062 C 112.527344 51.464844 112.75 51.910156 112.613281 52.492188 C 112.519531 52.84375 112.359375 53.078125 112.140625 53.195312 C 111.917969 53.308594 111.648438 53.355469 111.332031 53.335938 C 111.019531 53.3125 110.664062 53.285156 110.269531 53.261719 C 108.960938 53.144531 107.796875 53.277344 106.78125 53.664062 C 105.765625 54.046875 104.960938 54.640625 104.367188 55.433594 C 103.773438 56.226562 103.476562 57.171875 103.476562 58.265625 Z M 102.144531 70.0625 C 101.722656 70.0625 101.398438 69.949219 101.164062 69.714844 C 100.933594 69.484375 100.816406 69.15625 100.816406 68.734375 L 100.816406 52.246094 C 100.816406 51.828125 100.933594 51.5 101.164062 51.265625 C 101.398438 51.035156 101.722656 50.917969 102.144531 50.917969 C 102.5625 50.917969 102.890625 51.035156 103.125 51.265625 C 103.359375 51.5 103.476562 51.828125 103.476562 52.246094 L 103.476562 68.734375 C 103.476562 69.15625 103.359375 69.484375 103.125 69.714844 C 102.890625 69.949219 102.5625 70.0625 102.144531 70.0625 Z M 102.144531 70.0625 "/>
<path style=" stroke:none;fill-rule:nonzero;fill:rgb(0%,43.921569%,75.294118%);fill-opacity:1;" d="M 124.828125 70.242188 C 122.964844 70.242188 121.292969 69.820312 119.824219 68.980469 C 118.355469 68.140625 117.199219 66.984375 116.359375 65.515625 C 115.519531 64.046875 115.097656 62.375 115.097656 60.507812 C 115.097656 58.617188 115.519531 56.9375 116.359375 55.46875 C 117.199219 54 118.355469 52.84375 119.824219 52 C 121.292969 51.160156 122.964844 50.742188 124.828125 50.742188 C 126.695312 50.742188 128.359375 51.160156 129.816406 52 C 131.273438 52.84375 132.425781 54 133.265625 55.46875 C 134.105469 56.9375 134.539062 58.617188 134.5625 60.507812 C 134.5625 62.375 134.132812 64.046875 133.28125 65.515625 C 132.429688 66.984375 131.273438 68.140625 129.816406 68.980469 C 128.359375 69.820312 126.695312 70.242188 124.828125 70.242188 Z M 124.828125 67.789062 C 126.179688 67.789062 127.394531 67.472656 128.46875 66.84375 C 129.542969 66.214844 130.386719 65.347656 130.988281 64.25 C 131.597656 63.15625 131.902344 61.90625 131.902344 60.507812 C 131.902344 59.109375 131.597656 57.855469 130.988281 56.746094 C 130.386719 55.636719 129.542969 54.765625 128.46875 54.136719 C 127.394531 53.503906 126.179688 53.1875 124.828125 53.1875 C 123.476562 53.1875 122.261719 53.503906 121.1875 54.136719 C 120.113281 54.765625 119.269531 55.636719 118.652344 56.746094 C 118.03125 57.855469 117.722656 59.109375 117.722656 60.507812 C 117.722656 61.90625 118.03125 63.15625 118.652344 64.25 C 119.269531 65.347656 120.113281 66.214844 121.1875 66.84375 C 122.261719 67.472656 123.476562 67.789062 124.828125 67.789062 Z M 124.828125 67.789062 "/>
<path style=" stroke:none;fill-rule:nonzero;fill:rgb(0%,43.921569%,75.294118%);fill-opacity:1;" d="M 138.65625 70.0625 C 138.121094 70.0625 137.738281 69.84375 137.5 69.402344 C 137.269531 68.957031 137.246094 68.527344 137.433594 68.105469 L 147.726562 43.667969 C 147.980469 43.039062 148.425781 42.726562 149.054688 42.726562 C 149.660156 42.726562 150.09375 43.039062 150.351562 43.667969 L 160.679688 68.136719 C 160.886719 68.582031 160.855469 69.015625 160.589844 69.433594 C 160.320312 69.855469 159.941406 70.0625 159.449219 70.0625 C 159.171875 70.0625 158.921875 69.996094 158.699219 69.855469 C 158.476562 69.714844 158.296875 69.503906 158.15625 69.226562 L 148.527344 45.875 L 149.617188 45.875 L 139.917969 69.226562 C 139.800781 69.503906 139.628906 69.714844 139.40625 69.855469 C 139.1875 69.996094 138.9375 70.0625 138.65625 70.0625 Z M 140.96875 63.554688 L 142.015625 61.210938 L 156.230469 61.210938 L 157.28125 63.554688 Z M 140.96875 63.554688 "/>
<path style=" stroke:none;fill-rule:nonzero;fill:rgb(0%,43.921569%,75.294118%);fill-opacity:1;" d="M 165.542969 58.265625 C 165.613281 56.820312 165.992188 55.523438 166.679688 54.382812 C 167.367188 53.238281 168.269531 52.34375 169.375 51.6875 C 170.484375 51.035156 171.714844 50.703125 173.070312 50.703125 C 174.140625 50.703125 174.96875 50.859375 175.554688 51.164062 C 176.136719 51.464844 176.359375 51.910156 176.21875 52.492188 C 176.125 52.84375 175.96875 53.078125 175.746094 53.195312 C 175.523438 53.308594 175.253906 53.355469 174.9375 53.335938 C 174.625 53.3125 174.269531 53.285156 173.875 53.261719 C 172.566406 53.144531 171.402344 53.277344 170.386719 53.664062 C 169.371094 54.046875 168.566406 54.640625 167.976562 55.433594 C 167.382812 56.226562 167.085938 57.171875 167.085938 58.265625 Z M 165.75 70.0625 C 165.332031 70.0625 165.003906 69.949219 164.773438 69.714844 C 164.539062 69.484375 164.421875 69.15625 164.421875 68.734375 L 164.421875 52.246094 C 164.421875 51.828125 164.539062 51.5 164.773438 51.265625 C 165.003906 51.035156 165.332031 50.917969 165.75 50.917969 C 166.171875 50.917969 166.496094 51.035156 166.730469 51.265625 C 166.964844 51.5 167.085938 51.828125 167.085938 52.246094 L 167.085938 68.734375 C 167.085938 69.15625 166.964844 69.484375 166.730469 69.714844 C 166.496094 69.949219 166.171875 70.0625 165.75 70.0625 Z M 165.75 70.0625 "/>
<path style=" stroke:none;fill-rule:nonzero;fill:rgb(0%,43.921569%,75.294118%);fill-opacity:1;" d="M 188.367188 70.242188 C 186.523438 70.242188 184.882812 69.816406 183.445312 68.964844 C 182.011719 68.113281 180.878906 66.949219 180.050781 65.480469 C 179.222656 64.007812 178.808594 62.351562 178.808594 60.507812 C 178.808594 58.640625 179.207031 56.96875 179.996094 55.5 C 180.792969 54.035156 181.878906 52.875 183.253906 52.023438 C 184.628906 51.167969 186.21875 50.742188 188.019531 50.742188 C 189.441406 50.742188 190.753906 51.023438 191.957031 51.585938 C 193.15625 52.144531 194.210938 52.984375 195.121094 54.101562 C 195.378906 54.382812 195.472656 54.679688 195.402344 54.996094 C 195.332031 55.308594 195.132812 55.582031 194.804688 55.820312 C 194.550781 56.003906 194.265625 56.066406 193.949219 56.011719 C 193.632812 55.953125 193.359375 55.78125 193.128906 55.5 C 191.773438 53.960938 190.070312 53.1875 188.019531 53.1875 C 186.707031 53.1875 185.558594 53.503906 184.566406 54.136719 C 183.574219 54.765625 182.804688 55.628906 182.257812 56.726562 C 181.707031 57.824219 181.433594 59.082031 181.433594 60.507812 C 181.433594 61.90625 181.726562 63.15625 182.308594 64.25 C 182.890625 65.347656 183.707031 66.214844 184.757812 66.84375 C 185.808594 67.472656 187.011719 67.789062 188.367188 67.789062 C 189.277344 67.789062 190.109375 67.667969 190.867188 67.421875 C 191.625 67.175781 192.300781 66.796875 192.882812 66.28125 C 193.160156 66.050781 193.449219 65.921875 193.753906 65.898438 C 194.058594 65.875 194.339844 65.96875 194.597656 66.179688 C 194.875 66.4375 195.035156 66.726562 195.070312 67.054688 C 195.105469 67.378906 194.992188 67.660156 194.738281 67.890625 C 193.03125 69.457031 190.90625 70.242188 188.367188 70.242188 Z M 188.367188 70.242188 "/>
<path style=" stroke:none;fill-rule:nonzero;fill:rgb(0%,43.921569%,75.294118%);fill-opacity:1;" d="M 217.105469 70.0625 C 216.710938 70.0625 216.382812 69.9375 216.128906 69.679688 C 215.871094 69.421875 215.742188 69.109375 215.742188 68.734375 L 215.742188 59.632812 C 215.742188 58.183594 215.46875 56.996094 214.917969 56.0625 C 214.371094 55.128906 213.625 54.429688 212.679688 53.964844 C 211.734375 53.496094 210.667969 53.261719 209.476562 53.261719 C 208.332031 53.261719 207.300781 53.484375 206.378906 53.929688 C 205.457031 54.371094 204.726562 54.976562 204.191406 55.746094 C 203.652344 56.515625 203.382812 57.394531 203.382812 58.371094 L 201.460938 58.371094 C 201.503906 56.902344 201.902344 55.589844 202.648438 54.433594 C 203.394531 53.277344 204.386719 52.367188 205.621094 51.703125 C 206.859375 51.039062 208.238281 50.703125 209.757812 50.703125 C 211.414062 50.703125 212.894531 51.050781 214.199219 51.742188 C 215.507812 52.429688 216.542969 53.4375 217.300781 54.765625 C 218.054688 56.097656 218.433594 57.71875 218.433594 59.632812 L 218.433594 68.734375 C 218.433594 69.109375 218.304688 69.421875 218.050781 69.679688 C 217.796875 69.9375 217.480469 70.0625 217.105469 70.0625 Z M 202.054688 70.0625 C 201.632812 70.0625 201.300781 69.941406 201.054688 69.699219 C 200.8125 69.453125 200.691406 69.132812 200.691406 68.734375 L 200.691406 52.28125 C 200.691406 51.863281 200.8125 51.53125 201.054688 51.289062 C 201.300781 51.042969 201.632812 50.917969 202.054688 50.917969 C 202.449219 50.917969 202.769531 51.042969 203.011719 51.289062 C 203.257812 51.53125 203.382812 51.863281 203.382812 52.28125 L 203.382812 68.734375 C 203.382812 69.132812 203.257812 69.453125 203.011719 69.699219 C 202.769531 69.941406 202.449219 70.0625 202.054688 70.0625 Z M 202.054688 62.257812 C 201.632812 62.257812 201.300781 62.128906 201.054688 61.871094 C 200.8125 61.613281 200.691406 61.289062 200.691406 60.890625 L 200.691406 44.089844 C 200.691406 43.671875 200.8125 43.339844 201.054688 43.09375 C 201.300781 42.847656 201.632812 42.726562 202.054688 42.726562 C 202.449219 42.726562 202.769531 42.847656 203.011719 43.09375 C 203.257812 43.339844 203.382812 43.671875 203.382812 44.089844 L 203.382812 60.890625 C 203.382812 61.289062 203.257812 61.613281 203.011719 61.871094 C 202.769531 62.128906 202.449219 62.257812 202.054688 62.257812 Z M 202.054688 62.257812 "/>
<path style=" stroke:none;fill-rule:nonzero;fill:rgb(0%,43.921569%,75.294118%);fill-opacity:1;" d="M 226.070312 70.0625 C 225.652344 70.0625 225.316406 69.941406 225.070312 69.699219 C 224.824219 69.453125 224.703125 69.121094 224.703125 68.699219 L 224.703125 52.28125 C 224.703125 51.863281 224.824219 51.53125 225.070312 51.289062 C 225.316406 51.042969 225.652344 50.917969 226.070312 50.917969 C 226.464844 50.917969 226.785156 51.042969 227.03125 51.289062 C 227.277344 51.53125 227.398438 51.863281 227.398438 52.28125 L 227.398438 68.699219 C 227.398438 69.121094 227.277344 69.453125 227.03125 69.699219 C 226.785156 69.941406 226.464844 70.0625 226.070312 70.0625 Z M 226.175781 47.277344 C 225.660156 47.277344 225.214844 47.09375 224.84375 46.71875 C 224.46875 46.347656 224.285156 45.890625 224.285156 45.351562 C 224.285156 44.769531 224.476562 44.308594 224.863281 43.96875 C 225.246094 43.628906 225.695312 43.460938 226.207031 43.460938 C 226.699219 43.460938 227.136719 43.628906 227.519531 43.96875 C 227.902344 44.308594 228.097656 44.769531 228.097656 45.351562 C 228.097656 45.890625 227.910156 46.347656 227.535156 46.71875 C 227.164062 47.09375 226.710938 47.277344 226.175781 47.277344 Z M 226.175781 47.277344 "/>
<path style=" stroke:none;fill-rule:nonzero;fill:rgb(0%,43.921569%,75.294118%);fill-opacity:1;" d="M 235.660156 70.0625 C 235.289062 70.0625 234.964844 69.9375 234.695312 69.679688 C 234.429688 69.421875 234.296875 69.09375 234.296875 68.699219 L 234.296875 44.089844 C 234.296875 43.714844 234.429688 43.394531 234.695312 43.125 C 234.964844 42.859375 235.289062 42.726562 235.660156 42.726562 C 236.035156 42.726562 236.355469 42.859375 236.625 43.125 C 236.890625 43.394531 237.023438 43.714844 237.023438 44.089844 L 237.023438 67.476562 L 250.710938 67.476562 C 251.085938 67.476562 251.40625 67.597656 251.675781 67.84375 C 251.941406 68.089844 252.078125 68.394531 252.078125 68.765625 C 252.078125 69.140625 251.941406 69.453125 251.675781 69.699219 C 251.40625 69.941406 251.085938 70.0625 250.710938 70.0625 Z M 235.660156 70.0625 "/>
<path style=" stroke:none;fill-rule:nonzero;fill:rgb(0%,43.921569%,75.294118%);fill-opacity:1;" d="M 264.296875 70.242188 C 262.5 70.242188 260.886719 69.816406 259.464844 68.964844 C 258.039062 68.113281 256.914062 66.949219 256.085938 65.480469 C 255.257812 64.007812 254.84375 62.351562 254.84375 60.507812 C 254.84375 58.640625 255.269531 56.96875 256.121094 55.5 C 256.972656 54.035156 258.136719 52.875 259.605469 52.023438 C 261.074219 51.167969 262.730469 50.742188 264.574219 50.742188 C 266.417969 50.742188 268.070312 51.167969 269.527344 52.023438 C 270.984375 52.875 272.140625 54.035156 272.992188 55.5 C 273.84375 56.96875 274.285156 58.640625 274.308594 60.507812 L 273.226562 61.34375 C 273.226562 63.027344 272.832031 64.539062 272.046875 65.882812 C 271.265625 67.222656 270.203125 68.285156 268.859375 69.070312 C 267.519531 69.851562 266 70.242188 264.296875 70.242188 Z M 264.574219 67.789062 C 265.925781 67.789062 267.136719 67.472656 268.199219 66.84375 C 269.261719 66.214844 270.101562 65.34375 270.71875 64.234375 C 271.335938 63.128906 271.648438 61.886719 271.648438 60.507812 C 271.648438 59.109375 271.335938 57.859375 270.71875 56.761719 C 270.101562 55.664062 269.261719 54.796875 268.199219 54.152344 C 267.136719 53.511719 265.925781 53.1875 264.574219 53.1875 C 263.242188 53.1875 262.042969 53.511719 260.96875 54.152344 C 259.898438 54.796875 259.042969 55.664062 258.414062 56.761719 C 257.785156 57.859375 257.46875 59.109375 257.46875 60.507812 C 257.46875 61.886719 257.785156 63.128906 258.414062 64.234375 C 259.042969 65.34375 259.898438 66.214844 260.96875 66.84375 C 262.042969 67.472656 263.242188 67.789062 264.574219 67.789062 Z M 272.945312 70.0625 C 272.542969 70.0625 272.214844 69.941406 271.960938 69.699219 C 271.707031 69.453125 271.578125 69.132812 271.578125 68.734375 L 271.578125 62.746094 L 272.242188 59.980469 L 274.308594 60.507812 L 274.308594 68.734375 C 274.308594 69.132812 274.179688 69.453125 273.921875 69.699219 C 273.664062 69.941406 273.339844 70.0625 272.945312 70.0625 Z M 272.945312 70.0625 "/>
<path style=" stroke:none;fill-rule:nonzero;fill:rgb(0%,43.921569%,75.294118%);fill-opacity:1;" d="M 289.257812 70.242188 C 287.433594 70.242188 285.792969 69.820312 284.335938 68.980469 C 282.878906 68.140625 281.722656 66.992188 280.871094 65.53125 C 280.019531 64.074219 279.582031 62.433594 279.558594 60.609375 L 279.558594 44.089844 C 279.558594 43.671875 279.679688 43.339844 279.925781 43.09375 C 280.171875 42.847656 280.503906 42.726562 280.925781 42.726562 C 281.320312 42.726562 281.640625 42.847656 281.882812 43.09375 C 282.128906 43.339844 282.253906 43.671875 282.253906 44.089844 L 282.253906 54.382812 C 283.023438 53.285156 284.042969 52.40625 285.316406 51.742188 C 286.589844 51.074219 288.007812 50.742188 289.570312 50.742188 C 291.367188 50.742188 292.980469 51.167969 294.402344 52.023438 C 295.828125 52.875 296.953125 54.035156 297.777344 55.5 C 298.609375 56.96875 299.023438 58.628906 299.023438 60.46875 C 299.023438 62.339844 298.59375 64.007812 297.742188 65.480469 C 296.890625 66.949219 295.730469 68.113281 294.257812 68.964844 C 292.789062 69.816406 291.121094 70.242188 289.257812 70.242188 Z M 289.257812 67.789062 C 290.609375 67.789062 291.820312 67.46875 292.894531 66.824219 C 293.96875 66.183594 294.816406 65.3125 295.433594 64.21875 C 296.050781 63.125 296.363281 61.875 296.363281 60.46875 C 296.363281 59.097656 296.050781 57.855469 295.433594 56.746094 C 294.816406 55.636719 293.96875 54.765625 292.894531 54.136719 C 291.820312 53.503906 290.609375 53.1875 289.257812 53.1875 C 287.925781 53.1875 286.722656 53.503906 285.648438 54.136719 C 284.574219 54.765625 283.734375 55.636719 283.128906 56.746094 C 282.523438 57.855469 282.222656 59.097656 282.222656 60.46875 C 282.222656 61.875 282.523438 63.125 283.128906 64.21875 C 283.734375 65.3125 284.574219 66.183594 285.648438 66.824219 C 286.722656 67.46875 287.925781 67.789062 289.257812 67.789062 Z M 289.257812 67.789062 "/>
<path style=" stroke:none;fill-rule:nonzero;fill:rgb(3.921569%,0.784314%,1.176471%);fill-opacity:1;" d="M 243.550781 89.574219 C 243.550781 89.574219 240.070312 92.660156 238.964844 100.519531 C 238.964844 100.519531 237.285156 98.890625 234.699219 98.890625 C 231.414062 98.890625 229.738281 101.855469 229.738281 104.128906 C 229.738281 107.289062 233.292969 108.910156 233.292969 108.910156 C 233.292969 108.910156 233.121094 108.210938 233.121094 107.570312 C 233.121094 106.757812 233.410156 104.785156 235.820312 104.785156 C 238.769531 104.785156 239.082031 107.007812 239.082031 107.007812 C 239.082031 107.007812 237.753906 107.6875 238.972656 108.554688 C 238.972656 108.554688 238.519531 109.515625 237.28125 109.515625 C 236.046875 109.515625 235.753906 108.050781 236.09375 107.605469 C 236.09375 107.605469 233.949219 108.359375 233.949219 110.847656 C 233.949219 113.339844 235.65625 114.355469 237.386719 114.355469 C 238.765625 114.355469 239.691406 113.671875 239.691406 113.671875 C 240.902344 117.898438 243.550781 119.691406 243.550781 119.691406 C 243.550781 119.691406 246.203125 117.898438 247.414062 113.671875 C 247.414062 113.671875 248.339844 114.355469 249.714844 114.355469 C 251.445312 114.355469 253.15625 113.339844 253.15625 110.847656 C 253.15625 108.359375 251.007812 107.605469 251.007812 107.605469 C 251.347656 108.050781 251.058594 109.515625 249.824219 109.515625 C 248.585938 109.515625 248.128906 108.554688 248.128906 108.554688 C 249.347656 107.6875 248.023438 107.007812 248.023438 107.007812 C 248.023438 107.007812 248.332031 104.785156 251.28125 104.785156 C 253.695312 104.785156 253.980469 106.757812 253.980469 107.570312 C 253.980469 108.210938 253.808594 108.910156 253.808594 108.910156 C 253.808594 108.910156 257.363281 107.289062 257.363281 104.128906 C 257.363281 101.855469 255.6875 98.890625 252.40625 98.890625 C 249.820312 98.890625 248.140625 100.519531 248.140625 100.519531 C 247.03125 92.660156 243.550781 89.574219 243.550781 89.574219 Z M 295.019531 98.496094 C 294.992188 98.601562 294.929688 98.679688 294.871094 98.730469 C 294.714844 98.617188 294.542969 98.519531 294.242188 98.519531 C 293.738281 98.519531 293.382812 98.863281 293.382812 99.289062 C 293.382812 99.683594 293.65625 99.984375 293.953125 100.140625 L 294.453125 100.394531 C 294.804688 100.582031 295.046875 100.78125 295.046875 101.019531 C 295.046875 101.347656 294.765625 101.585938 294.398438 101.585938 C 293.453125 101.585938 293.445312 100.65625 293.445312 100.65625 L 293.34375 100.65625 L 293.34375 101.792969 L 293.445312 101.792969 C 293.46875 101.679688 293.53125 101.601562 293.59375 101.550781 C 293.757812 101.585938 294.007812 101.792969 294.398438 101.792969 C 294.929688 101.792969 295.378906 101.425781 295.378906 100.863281 C 295.378906 100.582031 295.242188 100.28125 294.84375 100.078125 L 294.347656 99.828125 C 293.902344 99.59375 293.722656 99.453125 293.722656 99.1875 C 293.722656 98.929688 293.933594 98.726562 294.222656 98.726562 C 294.824219 98.726562 294.980469 99.21875 295.015625 99.628906 L 295.121094 99.628906 L 295.121094 98.496094 Z M 261.929688 98.609375 L 261.929688 98.714844 C 262.359375 98.714844 262.421875 98.800781 262.421875 99.316406 L 262.421875 100.554688 C 262.421875 101.363281 262.976562 101.792969 263.660156 101.792969 C 264.347656 101.792969 264.90625 101.363281 264.90625 100.554688 L 264.90625 99.316406 C 264.90625 98.800781 264.972656 98.714844 265.402344 98.714844 L 265.402344 98.609375 L 264.191406 98.609375 L 264.191406 98.714844 C 264.621094 98.714844 264.6875 98.800781 264.6875 99.316406 L 264.6875 100.582031 C 264.6875 101.25 264.28125 101.5625 263.738281 101.5625 C 263.222656 101.5625 262.832031 101.25 262.832031 100.582031 L 262.832031 99.316406 C 262.832031 98.800781 262.898438 98.714844 263.324219 98.714844 L 263.324219 98.609375 Z M 267.734375 98.609375 L 267.734375 98.714844 C 268.164062 98.714844 268.226562 98.800781 268.226562 99.316406 L 268.226562 100.992188 C 268.226562 101.507812 268.164062 101.597656 267.734375 101.597656 L 267.734375 101.707031 L 268.914062 101.707031 L 268.914062 101.597656 C 268.484375 101.597656 268.417969 101.507812 268.417969 100.992188 L 268.417969 99.199219 L 270.515625 101.792969 L 270.636719 101.792969 L 270.636719 99.316406 C 270.636719 98.800781 270.703125 98.714844 271.132812 98.714844 L 271.132812 98.609375 L 269.953125 98.609375 L 269.953125 98.714844 C 270.382812 98.714844 270.445312 98.800781 270.445312 99.316406 L 270.445312 101.066406 L 268.460938 98.609375 Z M 273.59375 98.609375 L 273.59375 98.714844 C 274.023438 98.714844 274.082031 98.800781 274.082031 99.316406 L 274.082031 100.992188 C 274.082031 101.507812 274.023438 101.597656 273.59375 101.597656 L 273.59375 101.707031 L 274.988281 101.707031 L 274.988281 101.597656 C 274.558594 101.597656 274.496094 101.507812 274.496094 100.992188 L 274.496094 99.316406 C 274.496094 98.800781 274.558594 98.714844 274.988281 98.714844 L 274.988281 98.609375 Z M 282.792969 98.609375 L 282.792969 98.714844 C 283.222656 98.714844 283.289062 98.800781 283.289062 99.316406 L 283.289062 100.992188 C 283.289062 101.507812 283.222656 101.597656 282.792969 101.597656 L 282.792969 101.703125 L 285.324219 101.703125 L 285.367188 101.019531 L 285.257812 101.019531 L 285.234375 101.121094 C 285.167969 101.394531 285.109375 101.515625 284.632812 101.515625 L 284.191406 101.515625 C 283.761719 101.515625 283.699219 101.433594 283.699219 100.914062 L 283.699219 100.160156 L 283.957031 100.160156 C 284.472656 100.160156 284.554688 100.222656 284.554688 100.65625 L 284.664062 100.65625 L 284.664062 99.476562 L 284.554688 99.476562 C 284.554688 99.910156 284.472656 99.972656 283.957031 99.972656 L 283.699219 99.972656 L 283.699219 98.800781 L 284.460938 98.800781 C 284.9375 98.800781 284.988281 98.917969 285.0625 99.1875 L 285.089844 99.289062 L 285.195312 99.289062 L 285.148438 98.609375 Z M 287.921875 98.609375 L 287.921875 98.714844 C 288.347656 98.714844 288.414062 98.800781 288.414062 99.316406 L 288.414062 100.992188 C 288.414062 101.507812 288.347656 101.597656 287.921875 101.597656 L 287.921875 101.707031 L 289.316406 101.707031 L 289.316406 101.597656 C 288.886719 101.597656 288.824219 101.507812 288.824219 100.992188 L 288.824219 100.347656 L 289.066406 100.347656 L 290.089844 101.707031 L 290.941406 101.707031 L 290.941406 101.597656 C 290.632812 101.5625 290.285156 101.300781 289.980469 100.941406 L 289.472656 100.347656 C 290.058594 100.285156 290.394531 99.929688 290.394531 99.480469 C 290.394531 99 290.003906 98.609375 289.285156 98.609375 Z M 297.925781 98.609375 L 297.925781 98.714844 C 298.351562 98.714844 298.414062 98.800781 298.414062 99.316406 L 298.414062 100.992188 C 298.414062 101.507812 298.351562 101.597656 297.925781 101.597656 L 297.925781 101.707031 L 299.320312 101.707031 L 299.320312 101.597656 C 298.890625 101.597656 298.828125 101.507812 298.828125 100.992188 L 298.828125 99.316406 C 298.828125 98.800781 298.890625 98.714844 299.320312 98.714844 L 299.320312 98.609375 Z M 306.902344 98.609375 L 306.902344 98.714844 C 307.269531 98.714844 307.425781 98.824219 307.648438 99.167969 L 308.507812 100.492188 L 308.507812 100.992188 C 308.507812 101.507812 308.445312 101.597656 308.019531 101.597656 L 308.019531 101.703125 L 309.410156 101.703125 L 309.410156 101.597656 C 308.980469 101.597656 308.921875 101.507812 308.921875 100.992188 L 308.921875 100.457031 L 309.773438 99.167969 C 309.976562 98.863281 310.085938 98.714844 310.519531 98.714844 L 310.519531 98.609375 L 309.3125 98.609375 L 309.3125 98.714844 C 309.746094 98.714844 309.773438 98.832031 309.589844 99.109375 L 308.835938 100.242188 L 308.09375 99.109375 C 307.9375 98.871094 307.9375 98.714844 308.375 98.714844 L 308.375 98.609375 Z M 277.101562 98.609375 L 277.101562 98.714844 C 277.53125 98.714844 277.558594 98.800781 277.714844 99.167969 L 278.859375 101.792969 L 278.925781 101.792969 L 280.058594 99.167969 C 280.21875 98.800781 280.246094 98.714844 280.671875 98.714844 L 280.671875 98.609375 L 279.472656 98.609375 L 279.472656 98.714844 C 279.902344 98.714844 280 98.828125 279.875 99.109375 L 279.007812 101.117188 L 278.128906 99.109375 C 278.003906 98.824219 278.101562 98.714844 278.53125 98.714844 L 278.53125 98.609375 Z M 301.714844 98.609375 L 301.671875 99.304688 L 301.78125 99.304688 L 301.804688 99.203125 C 301.878906 98.929688 301.929688 98.808594 302.402344 98.808594 L 303.082031 98.808594 L 303.082031 100.992188 C 303.082031 101.507812 303.011719 101.597656 302.585938 101.597656 L 302.585938 101.707031 L 303.984375 101.707031 L 303.984375 101.597656 C 303.554688 101.597656 303.488281 101.507812 303.488281 100.992188 L 303.488281 98.808594 L 304.164062 98.808594 C 304.640625 98.808594 304.691406 98.929688 304.761719 99.203125 L 304.789062 99.304688 L 304.894531 99.304688 L 304.851562 98.609375 Z M 316.300781 98.734375 C 316.089844 98.746094 315.777344 98.988281 315.617188 99.398438 L 315.484375 99.742188 L 315.4375 99.863281 L 315.40625 99.933594 L 315.152344 99.933594 L 315.097656 100.054688 L 315.363281 100.054688 L 314.886719 101.269531 C 314.757812 101.601562 314.671875 101.726562 314.570312 101.730469 C 314.386719 101.738281 314.582031 101.492188 314.433594 101.5 C 314.367188 101.5 314.324219 101.542969 314.300781 101.601562 C 314.257812 101.699219 314.3125 101.839844 314.511719 101.832031 C 314.714844 101.820312 314.921875 101.671875 315.082031 101.261719 L 315.550781 100.054688 L 315.785156 100.054688 L 315.835938 99.933594 L 315.59375 99.933594 L 315.625 99.851562 L 315.675781 99.730469 L 315.808594 99.386719 C 315.960938 99 316.140625 98.839844 316.25 98.835938 C 316.441406 98.828125 316.265625 99.074219 316.410156 99.066406 C 316.46875 99.0625 316.515625 99.027344 316.535156 98.976562 C 316.578125 98.871094 316.511719 98.726562 316.300781 98.734375 Z M 288.824219 98.800781 L 289.277344 98.800781 C 289.726562 98.800781 289.9375 99.109375 289.9375 99.480469 C 289.9375 99.859375 289.726562 100.164062 289.277344 100.164062 L 288.824219 100.164062 Z M 314.324219 99.410156 C 314.058594 99.4375 313.792969 99.671875 313.691406 99.980469 C 313.582031 100.335938 313.726562 100.660156 314.023438 100.699219 C 314.316406 100.742188 314.648438 100.480469 314.757812 100.128906 C 314.875 99.773438 314.726562 99.453125 314.433594 99.414062 C 314.398438 99.40625 314.359375 99.40625 314.324219 99.410156 Z M 314.402344 99.519531 C 314.609375 99.550781 314.628906 99.800781 314.535156 100.097656 C 314.441406 100.390625 314.269531 100.621094 314.058594 100.589844 C 313.847656 100.5625 313.828125 100.308594 313.921875 100.011719 C 314.015625 99.71875 314.191406 99.492188 314.402344 99.519531 Z M 269.6875 103.675781 C 269.058594 103.675781 268.503906 103.769531 268.019531 103.960938 C 267.53125 104.152344 267.097656 104.433594 266.710938 104.808594 C 266.328125 105.179688 266.054688 105.601562 265.886719 106.070312 C 265.71875 106.539062 265.636719 107.046875 265.636719 107.601562 C 265.636719 108.089844 265.722656 108.585938 265.894531 109.085938 C 266.066406 109.589844 266.316406 110.015625 266.644531 110.367188 C 266.972656 110.71875 267.375 110.980469 267.851562 111.160156 C 268.324219 111.335938 268.839844 111.425781 269.386719 111.425781 C 270.59375 111.425781 271.589844 111.035156 272.382812 110.253906 C 273.175781 109.46875 273.570312 108.488281 273.570312 107.3125 C 273.570312 106.945312 273.53125 106.601562 273.453125 106.28125 C 273.375 105.957031 273.265625 105.679688 273.132812 105.441406 C 272.960938 105.121094 272.722656 104.828125 272.417969 104.5625 C 272.117188 104.296875 271.730469 104.082031 271.257812 103.917969 C 270.785156 103.753906 270.261719 103.675781 269.6875 103.675781 Z M 288.519531 103.675781 C 288.027344 103.675781 287.570312 103.777344 287.148438 103.976562 C 286.726562 104.179688 286.410156 104.464844 286.195312 104.828125 C 285.976562 105.191406 285.871094 105.582031 285.871094 105.992188 C 285.871094 106.273438 285.925781 106.539062 286.03125 106.78125 C 286.136719 107.027344 286.277344 107.222656 286.449219 107.375 C 286.617188 107.523438 286.886719 107.65625 287.25 107.765625 C 287.523438 107.824219 287.851562 107.878906 288.242188 107.933594 C 288.628906 107.980469 288.886719 108.019531 289.019531 108.039062 C 289.222656 108.078125 289.394531 108.152344 289.539062 108.257812 C 289.675781 108.359375 289.78125 108.492188 289.847656 108.660156 C 289.914062 108.828125 289.949219 109.027344 289.949219 109.257812 C 289.949219 109.558594 289.878906 109.84375 289.746094 110.109375 C 289.609375 110.371094 289.390625 110.585938 289.09375 110.75 C 288.796875 110.910156 288.472656 110.992188 288.117188 110.992188 C 287.875 110.992188 287.628906 110.949219 287.367188 110.871094 C 287.109375 110.785156 286.898438 110.691406 286.746094 110.589844 C 286.59375 110.484375 286.496094 110.386719 286.457031 110.292969 C 286.414062 110.199219 286.386719 109.898438 286.371094 109.386719 L 286.015625 109.386719 C 286.007812 110.140625 285.972656 110.683594 285.917969 111.015625 C 286.480469 111.289062 287.109375 111.425781 287.800781 111.425781 C 288.71875 111.425781 289.460938 111.167969 290.039062 110.652344 C 290.617188 110.132812 290.90625 109.527344 290.90625 108.832031 C 290.90625 108.535156 290.851562 108.28125 290.753906 108.0625 C 290.652344 107.84375 290.519531 107.667969 290.367188 107.53125 C 290.207031 107.398438 289.964844 107.28125 289.636719 107.183594 C 289.285156 107.117188 288.894531 107.054688 288.457031 106.996094 C 288.019531 106.9375 287.707031 106.875 287.511719 106.808594 C 287.230469 106.710938 287.039062 106.582031 286.929688 106.417969 C 286.820312 106.257812 286.765625 106.027344 286.765625 105.730469 C 286.765625 105.238281 286.917969 104.839844 287.21875 104.53125 C 287.523438 104.222656 287.929688 104.066406 288.4375 104.066406 C 288.832031 104.066406 289.207031 104.167969 289.566406 104.371094 C 289.714844 104.472656 289.835938 104.585938 289.925781 104.710938 C 289.945312 104.761719 289.960938 105.054688 289.96875 105.59375 L 290.324219 105.59375 C 290.332031 105.222656 290.347656 104.941406 290.367188 104.753906 C 290.390625 104.5625 290.425781 104.355469 290.476562 104.136719 C 290.167969 103.984375 289.84375 103.871094 289.492188 103.792969 C 289.140625 103.714844 288.816406 103.675781 288.519531 103.675781 Z M 298.878906 103.753906 C 298.410156 104.875 298.105469 105.597656 297.960938 105.921875 L 296.648438 108.878906 C 296.257812 109.734375 296.027344 110.222656 295.964844 110.355469 C 295.855469 110.578125 295.777344 110.71875 295.714844 110.773438 C 295.65625 110.828125 295.597656 110.867188 295.527344 110.886719 C 295.460938 110.90625 295.289062 110.914062 295.011719 110.917969 L 295.011719 111.273438 C 295.410156 111.242188 295.785156 111.226562 296.125 111.226562 C 296.417969 111.226562 296.859375 111.242188 297.453125 111.273438 L 297.453125 110.917969 C 297.128906 110.914062 296.898438 110.898438 296.769531 110.871094 C 296.691406 110.855469 296.628906 110.824219 296.59375 110.777344 C 296.5625 110.746094 296.550781 110.707031 296.550781 110.65625 C 296.550781 110.546875 296.601562 110.371094 296.703125 110.128906 L 297.273438 108.78125 L 300.308594 108.78125 L 300.953125 110.382812 C 301 110.507812 301.023438 110.605469 301.023438 110.683594 C 301.023438 110.734375 301.011719 110.773438 300.980469 110.804688 C 300.953125 110.839844 300.894531 110.863281 300.8125 110.882812 C 300.726562 110.898438 300.492188 110.914062 300.097656 110.917969 L 300.097656 111.273438 L 301.789062 111.222656 C 302.003906 111.222656 302.386719 111.242188 302.933594 111.273438 L 302.933594 110.917969 C 302.65625 110.914062 302.476562 110.894531 302.402344 110.855469 C 302.320312 110.816406 302.246094 110.738281 302.179688 110.613281 C 302.0625 110.398438 301.820312 109.863281 301.457031 109.011719 L 299.214844 103.753906 Z M 315.511719 103.753906 C 315.042969 104.875 314.734375 105.597656 314.59375 105.921875 L 313.277344 108.878906 C 312.890625 109.734375 312.660156 110.222656 312.597656 110.355469 C 312.492188 110.578125 312.40625 110.71875 312.347656 110.773438 C 312.292969 110.828125 312.226562 110.867188 312.160156 110.886719 C 312.09375 110.90625 311.917969 110.914062 311.640625 110.917969 L 311.640625 111.273438 C 312.046875 111.242188 312.414062 111.226562 312.757812 111.226562 C 313.050781 111.226562 313.492188 111.242188 314.082031 111.273438 L 314.082031 110.917969 C 313.761719 110.914062 313.53125 110.898438 313.402344 110.871094 C 313.320312 110.855469 313.265625 110.824219 313.222656 110.777344 C 313.199219 110.746094 313.183594 110.707031 313.183594 110.65625 C 313.183594 110.546875 313.230469 110.371094 313.332031 110.128906 L 313.90625 108.78125 L 316.941406 108.78125 L 317.582031 110.382812 C 317.632812 110.507812 317.660156 110.605469 317.660156 110.683594 C 317.660156 110.734375 317.644531 110.773438 317.613281 110.804688 C 317.582031 110.839844 317.527344 110.863281 317.441406 110.882812 C 317.359375 110.898438 317.121094 110.914062 316.730469 110.917969 L 316.730469 111.273438 L 318.417969 111.222656 C 318.636719 111.222656 319.015625 111.242188 319.5625 111.273438 L 319.5625 110.917969 C 319.289062 110.914062 319.109375 110.894531 319.03125 110.855469 C 318.953125 110.816406 318.878906 110.738281 318.8125 110.613281 C 318.695312 110.398438 318.453125 109.863281 318.089844 109.011719 L 315.847656 103.753906 Z M 259.015625 103.832031 L 259.015625 104.167969 C 259.429688 104.175781 259.683594 104.191406 259.773438 104.222656 C 259.863281 104.25 259.929688 104.296875 259.964844 104.359375 C 260.003906 104.417969 260.03125 104.617188 260.042969 104.949219 C 260.050781 105.402344 260.058594 105.867188 260.058594 106.339844 L 260.058594 109.160156 C 260.058594 109.25 260.050781 109.535156 260.03125 110.011719 C 260.023438 110.332031 260 110.542969 259.972656 110.640625 C 259.957031 110.691406 259.929688 110.730469 259.898438 110.761719 C 259.839844 110.820312 259.699219 110.902344 259.488281 111.003906 L 259.488281 111.273438 C 259.832031 111.25 260.171875 111.238281 260.511719 111.238281 L 263.613281 111.273438 C 263.992188 111.273438 264.269531 111.269531 264.453125 111.257812 C 264.535156 111.253906 264.652344 111.234375 264.792969 111.207031 C 264.867188 110.503906 264.941406 109.894531 265.019531 109.375 L 264.667969 109.375 L 264.457031 110.242188 C 264.421875 110.378906 264.382812 110.5 264.335938 110.605469 C 263.941406 110.730469 263.25 110.792969 262.265625 110.792969 C 261.875 110.792969 261.480469 110.78125 261.082031 110.757812 C 261.066406 110.527344 261.054688 110.226562 261.054688 109.859375 L 261.054688 106.339844 C 261.066406 105.417969 261.078125 104.921875 261.082031 104.851562 C 261.089844 104.585938 261.121094 104.414062 261.160156 104.34375 C 261.195312 104.292969 261.253906 104.25 261.34375 104.222656 C 261.433594 104.191406 261.6875 104.175781 262.101562 104.167969 L 262.101562 103.832031 C 261.324219 103.855469 260.824219 103.867188 260.597656 103.867188 C 260.394531 103.867188 259.867188 103.855469 259.015625 103.832031 Z M 282.207031 103.832031 L 282.207031 104.167969 C 282.621094 104.175781 282.875 104.191406 282.964844 104.222656 C 283.054688 104.25 283.117188 104.296875 283.15625 104.359375 C 283.199219 104.421875 283.222656 104.617188 283.234375 104.949219 C 283.246094 105.402344 283.25 105.867188 283.25 106.339844 L 283.25 108.765625 C 283.234375 109.683594 283.226562 110.179688 283.222656 110.253906 C 283.210938 110.523438 283.1875 110.691406 283.144531 110.761719 C 283.109375 110.8125 283.046875 110.855469 282.957031 110.886719 C 282.867188 110.914062 282.617188 110.933594 282.207031 110.941406 L 282.207031 111.273438 L 283.824219 111.238281 C 284.058594 111.238281 284.546875 111.25 285.289062 111.273438 L 285.289062 110.941406 C 284.871094 110.933594 284.621094 110.914062 284.53125 110.886719 C 284.441406 110.855469 284.375 110.808594 284.339844 110.746094 C 284.292969 110.683594 284.273438 110.484375 284.261719 110.152344 C 284.25 109.703125 284.246094 109.242188 284.246094 108.765625 L 284.246094 106.339844 C 284.261719 105.417969 284.265625 104.921875 284.273438 104.851562 C 284.285156 104.585938 284.308594 104.414062 284.351562 104.34375 C 284.382812 104.292969 284.449219 104.25 284.539062 104.222656 C 284.625 104.191406 284.875 104.175781 285.289062 104.167969 L 285.289062 103.832031 C 284.613281 103.855469 284.101562 103.867188 283.75 103.867188 C 283.386719 103.867188 282.871094 103.855469 282.207031 103.832031 Z M 291.460938 103.832031 L 291.460938 104.167969 C 291.875 104.175781 292.128906 104.191406 292.21875 104.222656 C 292.308594 104.25 292.371094 104.296875 292.410156 104.359375 C 292.453125 104.421875 292.476562 104.617188 292.488281 104.949219 C 292.496094 105.402344 292.503906 105.867188 292.503906 106.339844 L 292.503906 108.765625 C 292.492188 109.683594 292.480469 110.179688 292.476562 110.253906 C 292.464844 110.523438 292.441406 110.691406 292.398438 110.761719 C 292.363281 110.8125 292.300781 110.855469 292.210938 110.886719 C 292.121094 110.914062 291.867188 110.933594 291.460938 110.941406 L 291.460938 111.273438 L 293.078125 111.238281 C 293.3125 111.238281 293.800781 111.25 294.542969 111.273438 L 294.542969 110.941406 C 294.128906 110.933594 293.875 110.914062 293.785156 110.886719 C 293.695312 110.855469 293.632812 110.808594 293.589844 110.746094 C 293.550781 110.683594 293.523438 110.484375 293.515625 110.152344 C 293.503906 109.703125 293.5 109.242188 293.5 108.765625 L 293.5 106.339844 C 293.511719 105.417969 293.523438 104.921875 293.523438 104.851562 C 293.535156 104.585938 293.5625 104.414062 293.605469 104.34375 C 293.636719 104.292969 293.699219 104.25 293.789062 104.222656 C 293.878906 104.191406 294.132812 104.175781 294.542969 104.167969 L 294.542969 103.832031 C 293.867188 103.855469 293.351562 103.867188 293.003906 103.867188 C 292.640625 103.867188 292.128906 103.855469 291.460938 103.832031 Z M 303.441406 103.832031 L 303.441406 104.167969 C 303.726562 104.171875 303.90625 104.179688 303.988281 104.195312 C 304.070312 104.210938 304.144531 104.246094 304.207031 104.304688 C 304.304688 104.390625 304.367188 104.464844 304.394531 104.527344 C 304.410156 104.5625 304.417969 104.636719 304.417969 104.753906 L 304.417969 109.015625 C 304.417969 109.351562 304.40625 109.746094 304.390625 110.207031 C 304.375 110.503906 304.351562 110.6875 304.316406 110.757812 C 304.292969 110.800781 304.257812 110.835938 304.210938 110.855469 C 304.09375 110.910156 303.851562 110.9375 303.484375 110.941406 L 303.484375 111.273438 C 303.957031 111.25 304.398438 111.238281 304.804688 111.238281 C 305.175781 111.238281 305.515625 111.25 305.820312 111.273438 L 305.820312 110.941406 C 305.457031 110.9375 305.21875 110.910156 305.105469 110.859375 C 305.054688 110.839844 305.015625 110.804688 304.992188 110.753906 C 304.960938 110.6875 304.941406 110.507812 304.925781 110.214844 C 304.898438 109.746094 304.886719 109.335938 304.886719 108.992188 L 304.886719 104.929688 L 308.605469 109.414062 L 309.28125 110.28125 C 309.417969 110.449219 309.632812 110.699219 309.917969 111.03125 C 310.03125 111.15625 310.09375 111.226562 310.121094 111.242188 C 310.136719 111.257812 310.15625 111.269531 310.179688 111.273438 L 310.304688 111.300781 L 310.84375 111.460938 C 310.824219 110.066406 310.816406 109.117188 310.816406 108.605469 L 310.816406 106.089844 C 310.816406 105.757812 310.824219 105.359375 310.84375 104.898438 C 310.859375 104.597656 310.878906 104.417969 310.917969 104.351562 C 310.9375 104.300781 310.972656 104.265625 311.023438 104.246094 C 311.140625 104.195312 311.378906 104.171875 311.746094 104.167969 L 311.746094 103.832031 C 311.421875 103.84375 311.058594 103.851562 310.660156 103.851562 C 310.238281 103.851562 309.820312 103.84375 309.40625 103.832031 L 309.40625 104.167969 C 309.773438 104.171875 310.007812 104.195312 310.125 104.246094 C 310.171875 104.265625 310.210938 104.300781 310.234375 104.34375 C 310.269531 104.414062 310.292969 104.59375 310.304688 104.882812 C 310.328125 105.34375 310.339844 105.742188 310.339844 106.082031 L 310.339844 109.902344 C 310.207031 109.769531 310.046875 109.585938 309.851562 109.359375 C 309.550781 109.007812 309.148438 108.53125 308.648438 107.925781 L 307.085938 106.023438 L 306.011719 104.6875 C 305.875 104.503906 305.660156 104.21875 305.367188 103.832031 C 305.105469 103.84375 304.84375 103.851562 304.578125 103.851562 C 304.425781 103.851562 304.046875 103.84375 303.441406 103.832031 Z M 273.761719 103.832031 L 273.761719 104.167969 C 274.179688 104.175781 274.433594 104.191406 274.523438 104.222656 C 274.613281 104.253906 274.675781 104.296875 274.714844 104.359375 C 274.753906 104.417969 274.78125 104.617188 274.792969 104.949219 C 274.800781 105.402344 274.808594 105.867188 274.808594 106.339844 L 274.808594 108.65625 C 274.808594 109.332031 274.855469 109.808594 274.953125 110.097656 C 275.03125 110.3125 275.175781 110.527344 275.378906 110.734375 C 275.585938 110.941406 275.886719 111.109375 276.28125 111.238281 C 276.675781 111.363281 277.140625 111.425781 277.679688 111.425781 C 278.144531 111.425781 278.566406 111.371094 278.941406 111.265625 C 279.320312 111.15625 279.632812 111.007812 279.871094 110.808594 C 280.195312 110.546875 280.414062 110.246094 280.535156 109.902344 C 280.65625 109.5625 280.71875 108.957031 280.71875 108.09375 L 280.71875 106.339844 C 280.726562 105.417969 280.734375 104.921875 280.738281 104.851562 C 280.75 104.585938 280.773438 104.414062 280.816406 104.347656 C 280.851562 104.292969 280.914062 104.253906 281 104.222656 C 281.089844 104.191406 281.339844 104.171875 281.753906 104.167969 L 281.753906 103.832031 C 281.125 103.855469 280.695312 103.867188 280.453125 103.867188 C 280.1875 103.867188 279.765625 103.855469 279.191406 103.832031 L 279.191406 104.167969 C 279.601562 104.171875 279.851562 104.191406 279.941406 104.222656 C 280.03125 104.253906 280.097656 104.296875 280.136719 104.359375 C 280.175781 104.417969 280.199219 104.613281 280.210938 104.949219 C 280.226562 105.402344 280.230469 105.867188 280.230469 106.339844 L 280.230469 107.953125 C 280.230469 108.410156 280.21875 108.789062 280.183594 109.089844 C 280.152344 109.386719 280.097656 109.621094 280.023438 109.792969 C 279.945312 109.964844 279.832031 110.117188 279.679688 110.253906 C 279.527344 110.394531 279.300781 110.511719 278.996094 110.605469 C 278.695312 110.703125 278.34375 110.75 277.953125 110.75 C 277.617188 110.75 277.316406 110.714844 277.039062 110.644531 C 276.769531 110.570312 276.554688 110.476562 276.390625 110.355469 C 276.179688 110.199219 276.027344 110.003906 275.933594 109.765625 C 275.835938 109.523438 275.789062 109.03125 275.789062 108.277344 L 275.789062 106.339844 C 275.804688 105.417969 275.808594 104.921875 275.816406 104.851562 C 275.828125 104.585938 275.851562 104.414062 275.898438 104.347656 C 275.929688 104.292969 275.992188 104.25 276.082031 104.222656 C 276.167969 104.191406 276.421875 104.171875 276.832031 104.167969 L 276.832031 103.832031 C 276.34375 103.855469 275.847656 103.867188 275.351562 103.867188 C 274.863281 103.867188 274.335938 103.855469 273.761719 103.832031 Z M 269.453125 104.121094 C 269.839844 104.121094 270.195312 104.179688 270.527344 104.296875 C 270.859375 104.417969 271.132812 104.5625 271.339844 104.734375 C 271.546875 104.910156 271.726562 105.109375 271.875 105.34375 C 272.027344 105.574219 272.148438 105.835938 272.238281 106.121094 C 272.382812 106.589844 272.460938 107.101562 272.460938 107.660156 C 272.460938 108.308594 272.355469 108.882812 272.152344 109.382812 C 271.949219 109.878906 271.636719 110.265625 271.222656 110.539062 C 270.804688 110.8125 270.316406 110.949219 269.753906 110.949219 C 269.347656 110.949219 268.976562 110.882812 268.644531 110.75 C 268.308594 110.613281 268.007812 110.40625 267.734375 110.121094 C 267.464844 109.835938 267.25 109.484375 267.078125 109.0625 C 266.976562 108.816406 266.894531 108.519531 266.828125 108.175781 C 266.761719 107.835938 266.730469 107.496094 266.730469 107.164062 C 266.730469 106.570312 266.832031 106.039062 267.046875 105.570312 C 267.257812 105.097656 267.570312 104.742188 267.988281 104.492188 C 268.410156 104.246094 268.898438 104.121094 269.453125 104.121094 Z M 298.789062 105.179688 L 300.09375 108.335938 L 297.453125 108.335938 Z M 315.421875 105.179688 L 316.726562 108.335938 L 314.082031 108.335938 Z M 270.804688 113.402344 L 270.019531 115.496094 C 269.902344 115.796875 269.851562 115.851562 269.628906 115.851562 L 269.621094 115.941406 L 270.382812 115.941406 L 270.386719 115.851562 C 270.128906 115.851562 270.074219 115.765625 270.160156 115.539062 L 270.332031 115.085938 L 271.0625 115.085938 L 271.183594 115.539062 C 271.246094 115.761719 271.179688 115.851562 270.925781 115.851562 L 270.917969 115.941406 L 271.796875 115.941406 L 271.796875 115.851562 C 271.566406 115.851562 271.535156 115.789062 271.453125 115.496094 L 270.882812 113.402344 Z M 282.449219 113.402344 L 281.660156 115.496094 C 281.546875 115.796875 281.496094 115.851562 281.273438 115.851562 L 281.269531 115.941406 L 282.027344 115.941406 L 282.03125 115.851562 C 281.769531 115.851562 281.71875 115.765625 281.800781 115.539062 L 281.976562 115.085938 L 282.703125 115.085938 L 282.824219 115.539062 C 282.890625 115.761719 282.824219 115.851562 282.570312 115.851562 L 282.5625 115.941406 L 283.4375 115.941406 L 283.441406 115.851562 C 283.210938 115.851562 283.179688 115.789062 283.097656 115.496094 L 282.527344 113.402344 Z M 287.695312 113.429688 C 287.605469 113.429688 287.484375 113.472656 287.398438 113.574219 L 287.40625 113.671875 C 287.445312 113.632812 287.535156 113.574219 287.597656 113.574219 C 287.828125 113.574219 288.113281 113.996094 288.054688 115.167969 L 288.042969 115.371094 C 288.015625 115.785156 287.972656 115.851562 287.714844 115.851562 L 287.707031 115.941406 L 288.582031 115.941406 L 288.585938 115.851562 C 288.328125 115.851562 288.292969 115.785156 288.3125 115.371094 L 288.328125 115.152344 C 288.355469 114.585938 288.671875 113.601562 288.921875 113.601562 C 289.074219 113.601562 289 113.796875 289.152344 113.796875 C 289.222656 113.796875 289.257812 113.742188 289.261719 113.683594 C 289.269531 113.574219 289.175781 113.433594 288.996094 113.433594 C 288.65625 113.433594 288.449219 113.9375 288.28125 114.644531 C 288.203125 113.734375 288.011719 113.429688 287.695312 113.429688 Z M 299.117188 113.449219 L 299.011719 113.921875 L 299.101562 113.921875 C 299.167969 113.699219 299.21875 113.609375 299.59375 113.609375 L 299.835938 113.609375 L 299.738281 115.351562 C 299.71875 115.761719 299.667969 115.832031 299.410156 115.832031 L 299.410156 115.917969 L 300.269531 115.917969 L 300.273438 115.832031 C 300.019531 115.832031 299.980469 115.761719 300.003906 115.351562 L 300.097656 113.609375 L 300.324219 113.609375 C 300.699219 113.609375 300.75 113.699219 300.816406 113.921875 L 300.910156 113.921875 L 300.800781 113.449219 Z M 264.417969 113.472656 L 264.414062 113.558594 C 264.671875 113.558594 264.710938 113.625 264.6875 114.035156 L 264.617188 115.371094 C 264.59375 115.785156 264.542969 115.851562 264.289062 115.851562 L 264.285156 115.941406 L 265.921875 115.941406 L 265.976562 115.394531 L 265.914062 115.394531 L 265.890625 115.476562 C 265.839844 115.691406 265.800781 115.789062 265.519531 115.789062 L 265.152344 115.789062 C 264.898438 115.789062 264.863281 115.722656 264.886719 115.308594 L 264.953125 114.035156 C 264.972656 113.625 265.019531 113.558594 265.277344 113.558594 L 265.28125 113.472656 Z M 293.628906 113.472656 L 293.625 113.558594 C 293.882812 113.558594 293.921875 113.625 293.898438 114.035156 L 293.828125 115.371094 C 293.804688 115.785156 293.757812 115.851562 293.503906 115.851562 L 293.496094 115.941406 L 295.03125 115.941406 L 295.085938 115.394531 L 295.019531 115.394531 L 295.003906 115.476562 C 294.949219 115.691406 294.914062 115.789062 294.628906 115.789062 L 294.363281 115.789062 C 294.109375 115.789062 294.074219 115.722656 294.097656 115.308594 L 294.125 114.710938 L 294.277344 114.710938 C 294.585938 114.710938 294.640625 114.757812 294.617188 115.105469 L 294.683594 115.105469 L 294.734375 114.164062 L 294.667969 114.164062 C 294.652344 114.507812 294.59375 114.558594 294.285156 114.558594 L 294.136719 114.558594 L 294.1875 113.625 L 294.640625 113.625 C 294.921875 113.625 294.949219 113.71875 294.980469 113.933594 L 294.992188 114.015625 L 295.058594 114.015625 L 295.058594 113.472656 Z M 304.941406 113.472656 L 304.835938 113.941406 L 304.925781 113.941406 C 304.992188 113.71875 305.042969 113.628906 305.414062 113.628906 L 305.65625 113.628906 L 305.566406 115.371094 C 305.542969 115.785156 305.492188 115.851562 305.234375 115.851562 L 305.230469 115.941406 L 306.097656 115.941406 L 306.097656 115.851562 C 305.84375 115.851562 305.804688 115.785156 305.828125 115.371094 L 305.921875 113.628906 L 306.148438 113.628906 C 306.523438 113.628906 306.574219 113.71875 306.640625 113.9375 L 306.730469 113.9375 L 306.625 113.472656 Z M 310.820312 113.472656 L 310.816406 113.558594 C 311.074219 113.558594 311.113281 113.625 311.089844 114.035156 L 311.019531 115.371094 C 310.996094 115.785156 310.945312 115.851562 310.691406 115.851562 L 310.6875 115.941406 L 312.21875 115.941406 L 312.277344 115.394531 L 312.210938 115.394531 L 312.195312 115.476562 C 312.140625 115.691406 312.105469 115.789062 311.820312 115.789062 L 311.554688 115.789062 C 311.300781 115.789062 311.265625 115.722656 311.289062 115.308594 L 311.316406 114.710938 L 311.46875 114.710938 C 311.777344 114.710938 311.828125 114.757812 311.808594 115.105469 L 311.875 115.105469 L 311.925781 114.164062 L 311.859375 114.164062 C 311.84375 114.507812 311.789062 114.558594 311.480469 114.558594 L 311.328125 114.558594 L 311.375 113.625 L 311.828125 113.625 C 312.117188 113.625 312.140625 113.71875 312.171875 113.933594 L 312.183594 114.015625 L 312.25 114.015625 L 312.25 113.472656 Z M 276.140625 113.472656 L 276.136719 113.558594 C 276.394531 113.558594 276.433594 113.625 276.410156 114.035156 L 276.339844 115.371094 C 276.316406 115.785156 276.269531 115.855469 276.015625 115.855469 L 276.007812 115.941406 L 276.871094 115.941406 L 276.875 115.855469 C 276.617188 115.855469 276.585938 115.785156 276.601562 115.371094 L 276.636719 114.710938 L 276.789062 114.710938 C 277.097656 114.710938 277.152344 114.757812 277.128906 115.105469 L 277.195312 115.105469 L 277.246094 114.164062 L 277.179688 114.164062 C 277.164062 114.507812 277.105469 114.558594 276.800781 114.558594 L 276.648438 114.558594 L 276.699219 113.625 L 277.207031 113.625 C 277.488281 113.625 277.515625 113.71875 277.546875 113.933594 L 277.558594 114.015625 L 277.621094 114.015625 L 277.621094 113.472656 Z M 270.761719 113.960938 L 271.023438 114.933594 L 270.394531 114.933594 Z M 282.40625 113.960938 L 282.671875 114.933594 L 282.039062 114.933594 Z M 282.40625 113.960938 "/>
<path style=" stroke:none;fill-rule:nonzero;fill:rgb(80.784314%,9.411765%,11.764706%);fill-opacity:1;" d="M 254.601562 107.910156 C 256.433594 105.671875 255.210938 101.871094 252.097656 101.871094 C 248.65625 101.871094 246.941406 106.554688 246.941406 106.554688 C 246.941406 106.554688 246.722656 106.496094 246.414062 106.429688 C 246.308594 106.414062 246.226562 106.390625 246.113281 106.367188 C 245.929688 106.332031 245.734375 106.296875 245.542969 106.269531 C 245.980469 104.488281 248.515625 99.652344 252.238281 99.652344 C 255.058594 99.652344 256.628906 101.589844 256.628906 104.316406 C 256.628906 106.675781 254.601562 107.910156 254.601562 107.910156 M 249.703125 112.28125 C 250.984375 112.28125 251.929688 110.847656 251.929688 109.949219 C 251.929688 109.328125 251.574219 108.730469 251.574219 108.730469 C 251.703125 109.425781 250.855469 110.289062 250.074219 110.289062 C 249.390625 110.289062 249.03125 109.835938 249.03125 109.835938 L 249.109375 109.753906 C 249.109375 109.753906 249.464844 110.074219 249.992188 110.074219 C 251.167969 110.074219 251.609375 108.828125 251.507812 108.5 C 251.875 108.808594 252.582031 109.40625 252.582031 110.996094 C 252.582031 112.230469 251.707031 113.773438 249.738281 113.773438 C 246.265625 113.773438 245.300781 109.378906 245.300781 109.378906 C 245.910156 109.320312 246.867188 109.097656 246.867188 109.097656 C 246.867188 109.097656 246.933594 112.28125 249.703125 112.28125 M 243.550781 118.300781 C 243.550781 118.300781 241.554688 117.152344 240.402344 113.050781 C 240.402344 113.050781 241.683594 111.464844 242.34375 109.433594 L 243.222656 109.433594 L 241.273438 113.601562 C 242.007812 116.222656 243.550781 117.414062 243.550781 117.414062 L 243.550781 109.433594 L 243.925781 109.433594 C 244.101562 109.429688 244.183594 109.429688 244.367188 109.433594 L 244.757812 109.433594 C 245.414062 111.464844 246.695312 113.050781 246.695312 113.050781 C 245.542969 117.152344 243.550781 118.300781 243.550781 118.300781 M 237.359375 113.773438 C 235.390625 113.773438 234.519531 112.230469 234.519531 110.996094 C 234.519531 109.40625 235.222656 108.808594 235.585938 108.5 C 235.488281 108.828125 235.929688 110.074219 237.105469 110.074219 C 237.632812 110.074219 237.988281 109.753906 237.988281 109.753906 L 238.070312 109.835938 C 238.070312 109.835938 237.707031 110.289062 237.023438 110.289062 C 236.242188 110.289062 235.398438 109.425781 235.523438 108.730469 C 235.523438 108.730469 235.171875 109.328125 235.171875 109.949219 C 235.171875 110.847656 236.113281 112.28125 237.398438 112.28125 C 239.957031 112.28125 240.558594 109.167969 240.558594 109.167969 C 240.558594 109.167969 241.1875 109.320312 241.800781 109.378906 C 241.800781 109.378906 240.835938 113.773438 237.359375 113.773438 M 235 101.871094 C 231.886719 101.871094 230.664062 105.671875 232.5 107.910156 C 232.5 107.910156 230.46875 106.675781 230.46875 104.316406 C 230.46875 101.589844 232.042969 99.652344 234.859375 99.652344 C 238.582031 99.652344 241.121094 104.488281 241.554688 106.269531 C 240.882812 106.363281 240.15625 106.554688 240.15625 106.554688 C 240.15625 106.554688 238.441406 101.871094 235 101.871094 M 241.375 108.808594 C 241.375 108.808594 239.25 108.625 239.25 107.789062 C 239.25 107.148438 240.882812 106.597656 243.550781 106.597656 C 244.902344 106.597656 247 106.722656 247 107.535156 C 247 108.347656 243.550781 108.257812 243.550781 108.257812 C 239.210938 108.257812 240.472656 107.804688 239.527344 107.804688 C 240.035156 108.617188 241.375 108.808594 241.375 108.808594 M 243.550781 90.734375 C 243.550781 90.734375 246.609375 94.273438 247.316406 101.484375 C 247.316406 101.484375 245.484375 103.886719 245.136719 106.214844 C 245.136719 106.214844 244.914062 106.195312 244.632812 106.175781 C 245.109375 103.4375 246.644531 101.273438 246.644531 101.273438 C 245.722656 95.21875 243.550781 91.570312 243.550781 91.570312 L 243.550781 106.117188 C 243.367188 106.117188 243.078125 106.132812 242.796875 106.148438 C 242.703125 106.152344 242.574219 106.167969 242.464844 106.175781 C 242.179688 106.195312 241.960938 106.214844 241.960938 106.214844 C 241.613281 103.886719 239.78125 101.484375 239.78125 101.484375 C 240.492188 94.273438 243.550781 90.734375 243.550781 90.734375 "/>
<path style=" stroke:none;fill-rule:nonzero;fill:rgb(100%,100%,100%);fill-opacity:1;" d="M 243.550781 91.574219 C 243.550781 91.574219 241.375 95.222656 240.457031 101.277344 C 240.457031 101.277344 241.992188 103.4375 242.46875 106.175781 C 242.574219 106.167969 242.6875 106.160156 242.796875 106.152344 C 242.460938 103.074219 241.171875 101.292969 241.171875 101.292969 C 241.488281 96.855469 243.550781 91.574219 243.550781 91.574219 Z M 234.621094 99.941406 C 232.613281 99.941406 230.855469 101.828125 230.855469 103.953125 C 230.855469 106.078125 231.699219 106.929688 231.699219 106.929688 C 231.699219 106.929688 231.15625 106.035156 231.15625 104.449219 C 231.15625 102.863281 232.40625 100.425781 235.015625 100.425781 C 237.347656 100.425781 238.53125 102.269531 238.53125 102.269531 C 238.53125 102.269531 237.363281 99.941406 234.621094 99.941406 Z M 252.273438 100.148438 C 248.761719 100.148438 246.679688 104.511719 246.117188 106.371094 C 246.222656 106.390625 246.324219 106.410156 246.417969 106.429688 C 247.015625 104.964844 249.179688 100.453125 252.519531 100.453125 C 254.144531 100.453125 255.183594 101.472656 255.183594 101.472656 C 255.183594 101.472656 254.148438 100.148438 252.273438 100.148438 Z M 243.382812 106.964844 C 241.820312 106.988281 240.648438 107.21875 240.648438 107.21875 L 240.0625 107.582031 C 240.0625 107.582031 242.625 107.136719 246.445312 107.246094 C 245.394531 107.015625 244.320312 106.953125 243.382812 106.964844 Z M 243.929688 109.433594 C 244.125 110.605469 245.085938 114.246094 245.085938 114.246094 C 244.757812 115.964844 243.945312 117.195312 243.945312 117.195312 C 243.945312 117.195312 245.03125 116.421875 245.84375 114.035156 C 245.84375 114.035156 245.050781 111.847656 244.367188 109.433594 Z M 243.929688 109.433594 "/>
</g>
</svg>
