<?xml version="1.0" encoding="utf-8"?>
<svg width="363pt" height="80pt" viewBox="0 0 363 80" version="1.1" xmlns="http://www.w3.org/2000/svg">
  <g id="surface1">
    <path style="fill-rule: nonzero; fill-opacity: 1; fill: rgb(255, 255, 255); stroke: rgb(232, 232, 232);" d="M 0 16.617188 L 0 0.867188 L 4.355469 0.867188 C 5.574219 0.867188 6.671875 1.152344 7.664062 1.730469 C 8.648438 2.308594 9.421875 3.117188 9.980469 4.160156 C 10.542969 5.203125 10.832031 6.371094 10.851562 7.660156 L 10.851562 9.703125 C 10.851562 11.015625 10.578125 12.203125 10.027344 13.253906 C 9.476562 14.308594 8.703125 15.128906 7.710938 15.714844 C 6.726562 16.308594 5.621094 16.605469 4.40625 16.617188 Z M 0.582031 1.449219 L 0.582031 16.027344 L 4.355469 16.027344 C 5.457031 16.027344 6.457031 15.761719 7.359375 15.222656 C 8.265625 14.6875 8.976562 13.933594 9.488281 12.972656 C 10 12.015625 10.257812 10.941406 10.269531 9.769531 L 10.269531 7.742188 C 10.269531 6.566406 10.019531 5.5 9.515625 4.542969 C 9.015625 3.582031 8.3125 2.832031 7.417969 2.289062 C 6.519531 1.742188 5.523438 1.460938 4.4375 1.449219 Z M 0.582031 1.449219 "/>
    <path style="fill-rule: nonzero; fill-opacity: 1; fill: rgb(255, 255, 255); stroke: rgb(232, 232, 232);" d="M 19.324219 5.332031 L 18.570312 5.269531 C 17.574219 5.269531 16.742188 5.589844 16.074219 6.234375 C 15.402344 6.878906 14.960938 7.785156 14.753906 8.949219 L 14.753906 16.617188 L 14.171875 16.617188 L 14.171875 4.910156 L 14.753906 4.910156 L 14.753906 7.347656 C 15.070312 6.527344 15.550781 5.886719 16.183594 5.410156 C 16.820312 4.933594 17.613281 4.691406 18.570312 4.691406 C 18.90625 4.691406 19.183594 4.730469 19.386719 4.8125 Z M 19.324219 5.332031 "/>
    <path style="fill-rule: nonzero; fill-opacity: 1; fill: rgb(255, 255, 255); stroke: rgb(232, 232, 232);" d="M 21.296875 16.082031 C 21.296875 15.917969 21.355469 15.773438 21.46875 15.660156 C 21.582031 15.539062 21.726562 15.480469 21.894531 15.480469 C 22.054688 15.480469 22.199219 15.539062 22.316406 15.660156 C 22.429688 15.773438 22.492188 15.917969 22.492188 16.082031 C 22.492188 16.25 22.429688 16.390625 22.316406 16.503906 C 22.199219 16.621094 22.054688 16.679688 21.894531 16.679688 C 21.726562 16.679688 21.582031 16.621094 21.46875 16.503906 C 21.355469 16.390625 21.296875 16.25 21.296875 16.082031 Z M 21.296875 16.082031 "/>
    <path style="fill-rule: nonzero; fill-opacity: 1; fill: rgb(255, 255, 255); stroke: rgb(232, 232, 232);" d="M 36.320312 10.101562 L 41.828125 0.867188 L 42.546875 0.867188 L 36.609375 10.636719 L 36.609375 16.617188 L 36.027344 16.617188 L 36.027344 10.636719 L 30.09375 0.867188 L 30.871094 0.867188 Z M 36.320312 10.101562 "/>
    <path style="fill-rule: nonzero; fill-opacity: 1; fill: rgb(255, 255, 255); stroke: rgb(232, 232, 232);" d="M 52.648438 16.617188 L 52.648438 14.722656 C 52.304688 15.375 51.796875 15.890625 51.128906 16.269531 C 50.46875 16.644531 49.632812 16.832031 48.613281 16.832031 C 47.339844 16.832031 46.382812 16.457031 45.746094 15.710938 C 45.105469 14.960938 44.785156 13.875 44.769531 12.449219 L 44.769531 4.910156 L 45.355469 4.910156 L 45.355469 12.472656 C 45.367188 13.710938 45.644531 14.652344 46.1875 15.292969 C 46.742188 15.933594 47.542969 16.25 48.59375 16.25 C 49.707031 16.25 50.617188 15.984375 51.316406 15.460938 C 52.019531 14.933594 52.460938 14.160156 52.648438 13.140625 L 52.648438 4.910156 L 53.242188 4.910156 L 53.242188 16.617188 Z M 52.648438 16.617188 "/>
    <path style="fill-rule: nonzero; fill-opacity: 1; fill: rgb(255, 255, 255); stroke: rgb(232, 232, 232);" d="M 65.632812 15.640625 L 66.355469 13.042969 L 70.066406 0.867188 L 70.714844 0.867188 L 74.410156 13.042969 L 75.113281 15.640625 L 75.851562 13.042969 L 79.09375 0.867188 L 79.734375 0.867188 L 75.488281 16.617188 L 74.832031 16.617188 L 70.933594 3.480469 L 70.378906 1.8125 L 69.851562 3.480469 L 65.917969 16.617188 L 65.257812 16.617188 L 61.011719 0.867188 L 61.652344 0.867188 L 64.921875 13.042969 Z M 65.632812 15.640625 "/>
    <path style="fill-rule: nonzero; fill-opacity: 1; fill: rgb(255, 255, 255); stroke: rgb(232, 232, 232);" d="M 89.820312 16.617188 C 89.675781 16.121094 89.605469 15.402344 89.605469 14.472656 C 89.140625 15.222656 88.511719 15.804688 87.710938 16.214844 C 86.910156 16.625 86.007812 16.832031 85 16.832031 C 83.917969 16.832031 83.046875 16.539062 82.382812 15.953125 C 81.726562 15.367188 81.402344 14.597656 81.402344 13.652344 C 81.402344 12.578125 81.882812 11.714844 82.855469 11.066406 C 83.820312 10.421875 85.113281 10.097656 86.722656 10.082031 L 89.605469 10.082031 L 89.605469 8.371094 C 89.605469 7.394531 89.296875 6.628906 88.679688 6.085938 C 88.070312 5.546875 87.183594 5.273438 86.035156 5.273438 C 84.96875 5.273438 84.082031 5.554688 83.363281 6.101562 C 82.652344 6.648438 82.296875 7.328125 82.296875 8.136719 L 81.710938 8.117188 C 81.710938 7.164062 82.128906 6.355469 82.96875 5.691406 C 83.804688 5.023438 84.828125 4.691406 86.035156 4.691406 C 87.300781 4.691406 88.304688 5.011719 89.042969 5.640625 C 89.78125 6.273438 90.167969 7.164062 90.183594 8.308594 L 90.183594 13.894531 C 90.183594 15.183594 90.285156 16.058594 90.488281 16.519531 L 90.488281 16.617188 Z M 85 16.253906 C 86.097656 16.253906 87.042969 16.011719 87.824219 15.523438 C 88.617188 15.035156 89.203125 14.339844 89.605469 13.453125 L 89.605469 10.679688 L 86.902344 10.679688 C 85.234375 10.679688 83.949219 11.011719 83.066406 11.671875 C 82.339844 12.210938 81.980469 12.886719 81.980469 13.691406 C 81.980469 14.402344 82.261719 15.015625 82.835938 15.511719 C 83.40625 16.011719 84.128906 16.253906 85 16.253906 Z M 85 16.253906 "/>
    <path style="fill-rule: nonzero; fill-opacity: 1; fill: rgb(255, 255, 255); stroke: rgb(232, 232, 232);" d="M 94.535156 7.636719 C 94.921875 6.726562 95.484375 6.011719 96.21875 5.484375 C 96.960938 4.957031 97.785156 4.691406 98.683594 4.691406 C 99.9375 4.691406 100.871094 5.046875 101.480469 5.761719 C 102.09375 6.472656 102.398438 7.542969 102.410156 8.980469 L 102.410156 16.617188 L 101.828125 16.617188 L 101.828125 8.953125 C 101.820312 7.703125 101.558594 6.773438 101.058594 6.171875 C 100.554688 5.574219 99.75 5.269531 98.65625 5.269531 C 97.644531 5.269531 96.773438 5.628906 96.03125 6.347656 C 95.296875 7.0625 94.796875 7.992188 94.535156 9.121094 L 94.535156 16.617188 L 93.953125 16.617188 L 93.953125 4.910156 L 94.535156 4.910156 Z M 94.535156 7.636719 "/>
    <path style="fill-rule: nonzero; fill-opacity: 1; fill: rgb(255, 255, 255); stroke: rgb(232, 232, 232);" d="M 105.511719 10.640625 C 105.511719 8.773438 105.90625 7.316406 106.6875 6.269531 C 107.476562 5.214844 108.554688 4.691406 109.925781 4.691406 C 110.792969 4.691406 111.566406 4.894531 112.242188 5.292969 C 112.917969 5.699219 113.46875 6.285156 113.875 7.046875 L 113.875 4.910156 L 114.472656 4.910156 L 114.472656 16.410156 C 114.472656 17.953125 114.074219 19.152344 113.28125 20.023438 C 112.492188 20.894531 111.414062 21.332031 110.050781 21.332031 C 109.269531 21.332031 108.546875 21.160156 107.894531 20.816406 C 107.246094 20.480469 106.6875 19.996094 106.226562 19.367188 L 106.640625 18.972656 C 107.09375 19.546875 107.585938 19.992188 108.125 20.292969 C 108.667969 20.601562 109.304688 20.753906 110.03125 20.753906 C 111.230469 20.753906 112.167969 20.390625 112.835938 19.660156 C 113.511719 18.929688 113.855469 17.894531 113.875 16.5625 L 113.875 14.761719 C 113.476562 15.429688 112.929688 15.941406 112.242188 16.296875 C 111.554688 16.652344 110.769531 16.832031 109.894531 16.832031 C 108.542969 16.832031 107.476562 16.296875 106.6875 15.222656 C 105.90625 14.148438 105.511719 12.667969 105.511719 10.792969 Z M 106.105469 10.871094 C 106.105469 12.542969 106.4375 13.855469 107.101562 14.8125 C 107.765625 15.769531 108.699219 16.25 109.894531 16.25 C 110.875 16.25 111.71875 16.019531 112.410156 15.5625 C 113.101562 15.101562 113.59375 14.457031 113.875 13.625 L 113.875 8.316406 C 113.246094 6.289062 111.917969 5.273438 109.910156 5.273438 C 108.707031 5.273438 107.769531 5.75 107.105469 6.699219 C 106.4375 7.644531 106.105469 9.035156 106.105469 10.871094 Z M 106.105469 10.871094 "/>
    <path style="fill-rule: nonzero; fill-opacity: 1; fill: rgb(255, 255, 255); stroke: rgb(232, 232, 232);" d="M 117.5625 4.164062 L 117.164062 3.816406 C 117.75 3.066406 118.066406 2.292969 118.117188 1.492188 L 118.125 0 L 118.710938 0 L 118.710938 1.261719 C 118.683594 2.414062 118.304688 3.378906 117.5625 4.164062 Z M 117.5625 4.164062 "/>
    <path style="fill-rule: nonzero; fill-opacity: 1; fill: rgb(255, 255, 255); stroke: rgb(232, 232, 232);" d="M 128.859375 13.75 C 128.859375 12.328125 127.648438 11.359375 125.226562 10.851562 C 123.773438 10.539062 122.757812 10.140625 122.1875 9.652344 C 121.613281 9.167969 121.332031 8.496094 121.332031 7.644531 C 121.332031 6.789062 121.695312 6.082031 122.421875 5.523438 C 123.148438 4.972656 124.085938 4.691406 125.246094 4.691406 C 126.507812 4.691406 127.523438 4.996094 128.28125 5.597656 C 129.046875 6.199219 129.433594 7.015625 129.433594 8.039062 L 128.835938 8.039062 C 128.835938 7.25 128.503906 6.597656 127.839844 6.066406 C 127.175781 5.539062 126.3125 5.273438 125.246094 5.273438 C 124.222656 5.273438 123.414062 5.5 122.8125 5.949219 C 122.214844 6.394531 121.917969 6.957031 121.917969 7.625 C 121.917969 8.152344 122.027344 8.566406 122.25 8.867188 C 122.476562 9.164062 122.839844 9.4375 123.34375 9.679688 C 123.851562 9.917969 124.582031 10.148438 125.546875 10.375 C 126.515625 10.601562 127.277344 10.859375 127.839844 11.164062 C 128.402344 11.464844 128.8125 11.824219 129.066406 12.234375 C 129.316406 12.648438 129.441406 13.160156 129.441406 13.753906 C 129.441406 14.679688 129.0625 15.421875 128.308594 15.984375 C 127.550781 16.546875 126.5625 16.832031 125.335938 16.832031 C 124.027344 16.832031 122.964844 16.535156 122.160156 15.941406 C 121.355469 15.339844 120.957031 14.578125 120.957031 13.640625 L 121.539062 13.640625 C 121.597656 14.460938 121.960938 15.101562 122.628906 15.5625 C 123.292969 16.019531 124.191406 16.25 125.335938 16.25 C 126.375 16.25 127.226562 16.003906 127.878906 15.519531 C 128.53125 15.035156 128.859375 14.441406 128.859375 13.75 Z M 128.859375 13.75 "/>
    <path style="fill-rule: nonzero; fill-opacity: 1; fill: rgb(255, 255, 255); stroke: rgb(232, 232, 232);" d="M 23.941406 80.289062 C 23.484375 80.289062 23.085938 80.125 22.753906 79.796875 C 22.425781 79.464844 22.261719 79.066406 22.261719 78.609375 L 22.261719 48.324219 C 22.261719 47.835938 22.425781 47.433594 22.753906 47.117188 C 23.085938 46.804688 23.484375 46.644531 23.941406 46.644531 C 24.632812 46.644531 25.128906 46.929688 25.441406 47.5 L 39.949219 76.367188 L 38.492188 76.367188 L 52.746094 47.5 C 53.085938 46.929688 53.582031 46.644531 54.246094 46.644531 C 54.703125 46.644531 55.09375 46.804688 55.410156 47.117188 C 55.722656 47.433594 55.878906 47.835938 55.878906 48.324219 L 55.878906 78.609375 C 55.878906 79.066406 55.722656 79.464844 55.410156 79.796875 C 55.09375 80.125 54.703125 80.289062 54.246094 80.289062 C 53.761719 80.289062 53.347656 80.125 53.019531 79.796875 C 52.691406 79.464844 52.53125 79.066406 52.53125 78.609375 L 52.53125 52.671875 L 53.257812 52.722656 L 40.558594 78.691406 C 40.242188 79.242188 39.753906 79.515625 39.09375 79.515625 C 38.375 79.515625 37.863281 79.171875 37.546875 78.480469 L 24.761719 52.886719 L 25.613281 52.671875 L 25.613281 78.609375 C 25.613281 79.066406 25.449219 79.464844 25.125 79.796875 C 24.796875 80.125 24.402344 80.289062 23.941406 80.289062 Z M 23.941406 80.289062 "/>
    <path style="fill-rule: nonzero; fill-opacity: 1; fill: rgb(255, 255, 255); stroke: rgb(232, 232, 232);" d="M 74.445312 80.511719 C 72.230469 80.511719 70.25 79.984375 68.496094 78.9375 C 66.75 77.890625 65.359375 76.457031 64.339844 74.648438 C 63.320312 72.835938 62.816406 70.796875 62.816406 68.527344 C 62.816406 66.230469 63.335938 64.171875 64.382812 62.367188 C 65.4375 60.5625 66.863281 59.136719 68.667969 58.085938 C 70.476562 57.035156 72.511719 56.511719 74.777344 56.511719 C 77.046875 56.511719 79.082031 57.035156 80.875 58.085938 C 82.664062 59.136719 84.085938 60.5625 85.132812 62.367188 C 86.179688 64.171875 86.722656 66.230469 86.753906 68.527344 L 85.421875 69.558594 C 85.421875 71.628906 84.9375 73.492188 83.972656 75.144531 C 83.011719 76.792969 81.699219 78.101562 80.054688 79.066406 C 78.402344 80.027344 76.53125 80.511719 74.445312 80.511719 Z M 74.777344 77.492188 C 76.445312 77.492188 77.929688 77.101562 79.238281 76.328125 C 80.546875 75.554688 81.574219 74.480469 82.339844 73.117188 C 83.097656 71.753906 83.480469 70.226562 83.480469 68.527344 C 83.480469 66.808594 83.097656 65.269531 82.339844 63.917969 C 81.574219 62.566406 80.546875 61.5 79.238281 60.707031 C 77.929688 59.917969 76.445312 59.519531 74.777344 59.519531 C 73.148438 59.519531 71.667969 59.917969 70.351562 60.707031 C 69.027344 61.5 67.980469 62.566406 67.207031 63.917969 C 66.433594 65.269531 66.046875 66.808594 66.046875 68.527344 C 66.046875 70.226562 66.433594 71.753906 67.207031 73.117188 C 67.980469 74.480469 69.027344 75.554688 70.351562 76.328125 C 71.667969 77.101562 73.148438 77.492188 74.777344 77.492188 Z M 85.074219 80.289062 C 84.585938 80.289062 84.179688 80.140625 83.863281 79.839844 C 83.550781 79.539062 83.398438 79.144531 83.398438 78.652344 L 83.398438 71.285156 L 84.210938 67.878906 L 86.753906 68.527344 L 86.753906 78.652344 C 86.753906 79.144531 86.59375 79.539062 86.28125 79.839844 C 85.964844 80.140625 85.5625 80.289062 85.074219 80.289062 Z M 85.074219 80.289062 "/>
    <path style="fill-rule: nonzero; fill-opacity: 1; fill: rgb(255, 255, 255); stroke: rgb(232, 232, 232);" d="M 103.714844 80.511719 C 101.449219 80.511719 99.429688 79.984375 97.660156 78.9375 C 95.898438 77.890625 94.507812 76.457031 93.488281 74.648438 C 92.46875 72.835938 91.964844 70.796875 91.964844 68.527344 C 91.964844 66.230469 92.449219 64.171875 93.425781 62.367188 C 94.402344 60.5625 95.734375 59.136719 97.425781 58.085938 C 99.121094 57.035156 101.074219 56.511719 103.285156 56.511719 C 105.035156 56.511719 106.648438 56.855469 108.128906 57.546875 C 109.605469 58.234375 110.90625 59.269531 112.023438 60.644531 C 112.335938 60.992188 112.453125 61.355469 112.371094 61.746094 C 112.285156 62.128906 112.039062 62.464844 111.628906 62.761719 C 111.316406 62.984375 110.96875 63.0625 110.582031 62.996094 C 110.195312 62.921875 109.855469 62.710938 109.574219 62.367188 C 107.90625 60.472656 105.808594 59.519531 103.285156 59.519531 C 101.679688 59.519531 100.261719 59.910156 99.039062 60.6875 C 97.824219 61.460938 96.878906 62.523438 96.199219 63.875 C 95.53125 65.226562 95.195312 66.773438 95.195312 68.527344 C 95.195312 70.25 95.550781 71.789062 96.265625 73.136719 C 96.984375 74.484375 97.988281 75.554688 99.277344 76.328125 C 100.570312 77.101562 102.054688 77.492188 103.714844 77.492188 C 104.832031 77.492188 105.855469 77.339844 106.789062 77.039062 C 107.726562 76.734375 108.554688 76.269531 109.269531 75.636719 C 109.609375 75.351562 109.96875 75.191406 110.335938 75.164062 C 110.710938 75.136719 111.058594 75.25 111.375 75.511719 C 111.722656 75.828125 111.914062 76.183594 111.957031 76.585938 C 112 76.984375 111.867188 77.332031 111.550781 77.617188 C 109.453125 79.542969 106.84375 80.511719 103.714844 80.511719 Z M 103.714844 80.511719 "/>
    <path style="fill-rule: nonzero; fill-opacity: 1; fill: rgb(255, 255, 255); stroke: rgb(232, 232, 232);" d="M 120.25 65.769531 C 120.332031 63.992188 120.796875 62.394531 121.644531 60.992188 C 122.496094 59.582031 123.601562 58.480469 124.960938 57.671875 C 126.320312 56.871094 127.839844 56.460938 129.503906 56.460938 C 130.824219 56.460938 131.839844 56.652344 132.558594 57.027344 C 133.273438 57.398438 133.546875 57.949219 133.378906 58.664062 C 133.261719 59.097656 133.066406 59.386719 132.796875 59.527344 C 132.523438 59.667969 132.191406 59.726562 131.800781 59.703125 C 131.417969 59.671875 130.984375 59.640625 130.5 59.609375 C 128.886719 59.464844 127.457031 59.628906 126.207031 60.105469 C 124.957031 60.578125 123.96875 61.308594 123.238281 62.285156 C 122.507812 63.261719 122.144531 64.421875 122.144531 65.769531 Z M 120.503906 80.289062 C 119.984375 80.289062 119.585938 80.148438 119.296875 79.859375 C 119.015625 79.578125 118.871094 79.171875 118.871094 78.652344 L 118.871094 58.359375 C 118.871094 57.847656 119.015625 57.441406 119.296875 57.152344 C 119.585938 56.871094 119.984375 56.726562 120.503906 56.726562 C 121.019531 56.726562 121.421875 56.871094 121.710938 57.152344 C 122 57.441406 122.144531 57.847656 122.144531 58.359375 L 122.144531 78.652344 C 122.144531 79.171875 122 79.578125 121.710938 79.859375 C 121.421875 80.148438 121.019531 80.289062 120.503906 80.289062 Z M 120.503906 80.289062 "/>
    <path style="fill-rule: nonzero; fill-opacity: 1; fill: rgb(255, 255, 255); stroke: rgb(232, 232, 232);" d="M 148.402344 80.511719 C 146.109375 80.511719 144.054688 79.992188 142.25 78.957031 C 140.441406 77.921875 139.019531 76.5 137.988281 74.691406 C 136.953125 72.886719 136.4375 70.828125 136.4375 68.527344 C 136.4375 66.203125 136.953125 64.136719 137.988281 62.328125 C 139.019531 60.519531 140.441406 59.097656 142.25 58.058594 C 144.054688 57.023438 146.109375 56.511719 148.402344 56.511719 C 150.699219 56.511719 152.742188 57.023438 154.535156 58.058594 C 156.328125 59.097656 157.746094 60.519531 158.78125 62.328125 C 159.808594 64.136719 160.34375 66.203125 160.371094 68.527344 C 160.371094 70.828125 159.84375 72.886719 158.800781 74.691406 C 157.75 76.5 156.328125 77.921875 154.535156 78.957031 C 152.742188 79.992188 150.699219 80.511719 148.402344 80.511719 Z M 148.402344 77.492188 C 150.066406 77.492188 151.558594 77.101562 152.878906 76.328125 C 154.199219 75.554688 155.238281 74.484375 155.976562 73.136719 C 156.726562 71.789062 157.101562 70.25 157.101562 68.527344 C 157.101562 66.808594 156.726562 65.265625 155.976562 63.898438 C 155.238281 62.535156 154.199219 61.460938 152.878906 60.6875 C 151.558594 59.910156 150.066406 59.519531 148.402344 59.519531 C 146.738281 59.519531 145.246094 59.910156 143.925781 60.6875 C 142.605469 61.460938 141.566406 62.535156 140.804688 63.898438 C 140.042969 65.265625 139.660156 66.808594 139.660156 68.527344 C 139.660156 70.25 140.042969 71.789062 140.804688 73.136719 C 141.566406 74.484375 142.605469 75.554688 143.925781 76.328125 C 145.246094 77.101562 146.738281 77.492188 148.402344 77.492188 Z M 148.402344 77.492188 "/>
    <path style="fill-rule: nonzero; fill-opacity: 1; fill: rgb(255, 255, 255); stroke: rgb(232, 232, 232);" d="M 165.410156 80.289062 C 164.75 80.289062 164.28125 80.019531 163.988281 79.476562 C 163.703125 78.929688 163.675781 78.398438 163.90625 77.878906 L 176.5625 47.804688 C 176.875 47.027344 177.421875 46.644531 178.195312 46.644531 C 178.941406 46.644531 179.476562 47.027344 179.792969 47.804688 L 192.492188 77.917969 C 192.75 78.464844 192.710938 79 192.382812 79.515625 C 192.050781 80.035156 191.585938 80.289062 190.980469 80.289062 C 190.636719 80.289062 190.332031 80.207031 190.058594 80.035156 C 189.78125 79.859375 189.5625 79.601562 189.386719 79.261719 L 177.546875 50.519531 L 178.890625 50.519531 L 166.957031 79.261719 C 166.8125 79.601562 166.605469 79.859375 166.332031 80.035156 C 166.0625 80.207031 165.753906 80.289062 165.410156 80.289062 Z M 168.25 72.277344 L 169.539062 69.394531 L 187.023438 69.394531 L 188.3125 72.277344 Z M 168.25 72.277344 "/>
    <path style="fill-rule: nonzero; fill-opacity: 1; fill: rgb(255, 255, 255); stroke: rgb(232, 232, 232);" d="M 198.472656 65.769531 C 198.5625 63.992188 199.027344 62.394531 199.871094 60.992188 C 200.71875 59.582031 201.828125 58.480469 203.1875 57.671875 C 204.550781 56.871094 206.066406 56.460938 207.734375 56.460938 C 209.050781 56.460938 210.066406 56.652344 210.785156 57.027344 C 211.503906 57.398438 211.777344 57.949219 211.601562 58.664062 C 211.488281 59.097656 211.296875 59.386719 211.019531 59.527344 C 210.746094 59.667969 210.414062 59.726562 210.027344 59.703125 C 209.640625 59.671875 209.203125 59.640625 208.722656 59.609375 C 207.113281 59.464844 205.679688 59.628906 204.429688 60.105469 C 203.179688 60.578125 202.191406 61.308594 201.46875 62.285156 C 200.738281 63.261719 200.371094 64.421875 200.371094 65.769531 Z M 198.730469 80.289062 C 198.214844 80.289062 197.8125 80.148438 197.527344 79.859375 C 197.238281 79.578125 197.09375 79.171875 197.09375 78.652344 L 197.09375 58.359375 C 197.09375 57.847656 197.238281 57.441406 197.527344 57.152344 C 197.8125 56.871094 198.214844 56.726562 198.730469 56.726562 C 199.246094 56.726562 199.648438 56.871094 199.933594 57.152344 C 200.222656 57.441406 200.371094 57.847656 200.371094 58.359375 L 200.371094 78.652344 C 200.371094 79.171875 200.222656 79.578125 199.933594 79.859375 C 199.648438 80.148438 199.246094 80.289062 198.730469 80.289062 Z M 198.730469 80.289062 "/>
    <path style="fill-rule: nonzero; fill-opacity: 1; fill: rgb(255, 255, 255); stroke: rgb(232, 232, 232);" d="M 226.542969 80.511719 C 224.273438 80.511719 222.261719 79.984375 220.492188 78.9375 C 218.726562 77.890625 217.332031 76.457031 216.3125 74.648438 C 215.300781 72.835938 214.789062 70.796875 214.789062 68.527344 C 214.789062 66.230469 215.28125 64.171875 216.246094 62.367188 C 217.226562 60.5625 218.5625 59.136719 220.257812 58.085938 C 221.949219 57.035156 223.898438 56.511719 226.117188 56.511719 C 227.867188 56.511719 229.480469 56.855469 230.957031 57.546875 C 232.433594 58.234375 233.730469 59.269531 234.851562 60.644531 C 235.167969 60.992188 235.285156 61.355469 235.195312 61.746094 C 235.109375 62.128906 234.863281 62.464844 234.460938 62.761719 C 234.148438 62.984375 233.796875 63.0625 233.410156 62.996094 C 233.019531 62.921875 232.683594 62.710938 232.398438 62.367188 C 230.730469 60.472656 228.640625 59.519531 226.117188 59.519531 C 224.5 59.519531 223.09375 59.910156 221.871094 60.6875 C 220.648438 61.460938 219.703125 62.523438 219.03125 63.875 C 218.351562 65.226562 218.015625 66.773438 218.015625 68.527344 C 218.015625 70.25 218.375 71.789062 219.09375 73.136719 C 219.808594 74.484375 220.8125 75.554688 222.105469 76.328125 C 223.394531 77.101562 224.875 77.492188 226.542969 77.492188 C 227.664062 77.492188 228.6875 77.339844 229.621094 77.039062 C 230.546875 76.734375 231.378906 76.269531 232.097656 75.636719 C 232.4375 75.351562 232.792969 75.191406 233.167969 75.164062 C 233.542969 75.136719 233.890625 75.25 234.207031 75.511719 C 234.546875 75.828125 234.746094 76.183594 234.789062 76.585938 C 234.832031 76.984375 234.691406 77.332031 234.378906 77.617188 C 232.277344 79.542969 229.667969 80.511719 226.542969 80.511719 Z M 226.542969 80.511719 "/>
    <path style="fill-rule: nonzero; fill-opacity: 1; fill: rgb(255, 255, 255); stroke: rgb(232, 232, 232);" d="M 261.886719 80.289062 C 261.402344 80.289062 260.996094 80.136719 260.683594 79.816406 C 260.367188 79.5 260.210938 79.117188 260.210938 78.652344 L 260.210938 67.453125 C 260.210938 65.667969 259.875 64.207031 259.195312 63.058594 C 258.527344 61.910156 257.609375 61.046875 256.445312 60.476562 C 255.28125 59.898438 253.96875 59.609375 252.503906 59.609375 C 251.097656 59.609375 249.832031 59.886719 248.695312 60.433594 C 247.5625 60.976562 246.664062 61.722656 246.003906 62.667969 C 245.339844 63.617188 245.007812 64.699219 245.007812 65.898438 L 242.648438 65.898438 C 242.699219 64.089844 243.191406 62.476562 244.109375 61.054688 C 245.023438 59.628906 246.246094 58.511719 247.761719 57.691406 C 249.285156 56.875 250.984375 56.460938 252.851562 56.460938 C 254.886719 56.460938 256.710938 56.890625 258.316406 57.742188 C 259.921875 58.585938 261.195312 59.828125 262.128906 61.460938 C 263.054688 63.101562 263.519531 65.097656 263.519531 67.453125 L 263.519531 78.652344 C 263.519531 79.117188 263.363281 79.5 263.050781 79.816406 C 262.738281 80.136719 262.347656 80.289062 261.886719 80.289062 Z M 243.378906 80.289062 C 242.859375 80.289062 242.449219 80.140625 242.148438 79.839844 C 241.851562 79.539062 241.699219 79.144531 241.699219 78.652344 L 241.699219 58.402344 C 241.699219 57.890625 241.851562 57.480469 242.148438 57.183594 C 242.449219 56.878906 242.859375 56.726562 243.378906 56.726562 C 243.863281 56.726562 244.257812 56.878906 244.554688 57.183594 C 244.855469 57.480469 245.007812 57.890625 245.007812 58.402344 L 245.007812 78.652344 C 245.007812 79.144531 244.855469 79.539062 244.554688 79.839844 C 244.257812 80.140625 243.863281 80.289062 243.378906 80.289062 Z M 243.378906 70.683594 C 242.859375 70.683594 242.449219 70.523438 242.148438 70.207031 C 241.851562 69.890625 241.699219 69.492188 241.699219 69 L 241.699219 48.324219 C 241.699219 47.808594 241.851562 47.398438 242.148438 47.097656 C 242.449219 46.792969 242.859375 46.644531 243.378906 46.644531 C 243.863281 46.644531 244.257812 46.792969 244.554688 47.097656 C 244.855469 47.398438 245.007812 47.808594 245.007812 48.324219 L 245.007812 69 C 245.007812 69.492188 244.855469 69.890625 244.554688 70.207031 C 244.257812 70.523438 243.863281 70.683594 243.378906 70.683594 Z M 243.378906 70.683594 "/>
    <path style="fill-rule: nonzero; fill-opacity: 1; fill: rgb(255, 255, 255); stroke: rgb(232, 232, 232);" d="M 272.914062 80.289062 C 272.398438 80.289062 271.988281 80.140625 271.683594 79.839844 C 271.382812 79.539062 271.230469 79.128906 271.230469 78.609375 L 271.230469 58.402344 C 271.230469 57.890625 271.382812 57.480469 271.683594 57.183594 C 271.988281 56.878906 272.398438 56.726562 272.914062 56.726562 C 273.394531 56.726562 273.789062 56.878906 274.09375 57.183594 C 274.394531 57.480469 274.542969 57.890625 274.542969 58.402344 L 274.542969 78.609375 C 274.542969 79.128906 274.394531 79.539062 274.09375 79.839844 C 273.789062 80.140625 273.394531 80.289062 272.914062 80.289062 Z M 273.039062 52.246094 C 272.410156 52.246094 271.863281 52.019531 271.40625 51.558594 C 270.945312 51.101562 270.71875 50.539062 270.71875 49.875 C 270.71875 49.160156 270.953125 48.589844 271.429688 48.171875 C 271.898438 47.753906 272.453125 47.546875 273.078125 47.546875 C 273.683594 47.546875 274.222656 47.753906 274.695312 48.171875 C 275.164062 48.589844 275.40625 49.160156 275.40625 49.875 C 275.40625 50.539062 275.175781 51.101562 274.714844 51.558594 C 274.257812 52.019531 273.699219 52.246094 273.039062 52.246094 Z M 273.039062 52.246094 "/>
    <path style="fill-rule: nonzero; fill-opacity: 1; fill: rgb(255, 255, 255); stroke: rgb(232, 232, 232);" d="M 284.707031 80.289062 C 284.25 80.289062 283.851562 80.136719 283.519531 79.816406 C 283.191406 79.5 283.03125 79.097656 283.03125 78.609375 L 283.03125 48.324219 C 283.03125 47.859375 283.191406 47.464844 283.519531 47.136719 C 283.851562 46.808594 284.25 46.644531 284.707031 46.644531 C 285.167969 46.644531 285.5625 46.808594 285.894531 47.136719 C 286.222656 47.464844 286.382812 47.859375 286.382812 48.324219 L 286.382812 77.105469 L 303.214844 77.105469 C 303.675781 77.105469 304.070312 77.253906 304.402344 77.558594 C 304.730469 77.859375 304.898438 78.234375 304.898438 78.691406 C 304.898438 79.152344 304.730469 79.539062 304.402344 79.839844 C 304.070312 80.140625 303.675781 80.289062 303.214844 80.289062 Z M 284.707031 80.289062 "/>
    <path style="fill-rule: nonzero; fill-opacity: 1; fill: rgb(255, 255, 255); stroke: rgb(232, 232, 232);" d="M 319.925781 80.511719 C 317.714844 80.511719 315.730469 79.984375 313.984375 78.9375 C 312.230469 77.890625 310.84375 76.457031 309.824219 74.648438 C 308.804688 72.835938 308.300781 70.796875 308.300781 68.527344 C 308.300781 66.230469 308.820312 64.171875 309.867188 62.367188 C 310.917969 60.5625 312.347656 59.136719 314.15625 58.085938 C 315.960938 57.035156 317.996094 56.511719 320.265625 56.511719 C 322.535156 56.511719 324.566406 57.035156 326.359375 58.085938 C 328.148438 59.136719 329.574219 60.5625 330.617188 62.367188 C 331.664062 64.171875 332.207031 66.230469 332.238281 68.527344 L 330.90625 69.558594 C 330.90625 71.628906 330.421875 73.492188 329.457031 75.144531 C 328.496094 76.792969 327.1875 78.101562 325.535156 79.066406 C 323.886719 80.027344 322.019531 80.511719 319.925781 80.511719 Z M 320.265625 77.492188 C 321.929688 77.492188 323.414062 77.101562 324.722656 76.328125 C 326.03125 75.554688 327.0625 74.480469 327.824219 73.117188 C 328.582031 71.753906 328.96875 70.226562 328.96875 68.527344 C 328.96875 66.808594 328.582031 65.269531 327.824219 63.917969 C 327.0625 62.566406 326.03125 61.5 324.722656 60.707031 C 323.414062 59.917969 321.929688 59.519531 320.265625 59.519531 C 318.628906 59.519531 317.152344 59.917969 315.828125 60.707031 C 314.515625 61.5 313.464844 62.566406 312.691406 63.917969 C 311.917969 65.269531 311.527344 66.808594 311.527344 68.527344 C 311.527344 70.226562 311.917969 71.753906 312.691406 73.117188 C 313.464844 74.480469 314.515625 75.554688 315.828125 76.328125 C 317.152344 77.101562 318.628906 77.492188 320.265625 77.492188 Z M 330.558594 80.289062 C 330.0625 80.289062 329.664062 80.140625 329.351562 79.839844 C 329.039062 79.539062 328.882812 79.144531 328.882812 78.652344 L 328.882812 71.285156 L 329.695312 67.878906 L 332.238281 68.527344 L 332.238281 78.652344 C 332.238281 79.144531 332.078125 79.539062 331.761719 79.839844 C 331.445312 80.140625 331.042969 80.289062 330.558594 80.289062 Z M 330.558594 80.289062 "/>
    <path style="fill-rule: nonzero; fill-opacity: 1; fill: rgb(255, 255, 255); stroke: rgb(232, 232, 232);" d="M 350.625 80.511719 C 348.378906 80.511719 346.359375 79.992188 344.566406 78.957031 C 342.777344 77.921875 341.355469 76.511719 340.308594 74.710938 C 339.261719 72.917969 338.722656 70.898438 338.691406 68.652344 L 338.691406 48.324219 C 338.691406 47.808594 338.84375 47.398438 339.144531 47.097656 C 339.449219 46.792969 339.855469 46.644531 340.375 46.644531 C 340.859375 46.644531 341.253906 46.792969 341.554688 47.097656 C 341.855469 47.398438 342.011719 47.808594 342.011719 48.324219 L 342.011719 60.992188 C 342.957031 59.640625 344.207031 58.558594 345.773438 57.742188 C 347.339844 56.917969 349.085938 56.511719 351.003906 56.511719 C 353.214844 56.511719 355.199219 57.035156 356.949219 58.085938 C 358.703125 59.136719 360.085938 60.5625 361.101562 62.367188 C 362.125 64.171875 362.632812 66.214844 362.632812 68.480469 C 362.632812 70.785156 362.105469 72.835938 361.054688 74.648438 C 360.007812 76.457031 358.582031 77.890625 356.773438 78.9375 C 354.964844 79.984375 352.914062 80.511719 350.625 80.511719 Z M 350.625 77.492188 C 352.285156 77.492188 353.773438 77.097656 355.09375 76.304688 C 356.417969 75.515625 357.460938 74.441406 358.214844 73.097656 C 358.976562 71.75 359.359375 70.210938 359.359375 68.480469 C 359.359375 66.792969 358.976562 65.265625 358.214844 63.898438 C 357.460938 62.535156 356.417969 61.460938 355.09375 60.6875 C 353.773438 59.910156 352.285156 59.519531 350.625 59.519531 C 348.984375 59.519531 347.503906 59.910156 346.183594 60.6875 C 344.859375 61.460938 343.832031 62.535156 343.085938 63.898438 C 342.339844 65.265625 341.972656 66.792969 341.972656 68.480469 C 341.972656 70.210938 342.339844 71.75 343.085938 73.097656 C 343.832031 74.441406 344.859375 75.515625 346.183594 76.304688 C 347.503906 77.097656 348.984375 77.492188 350.625 77.492188 Z M 350.625 77.492188 "/>
  </g>
</svg>