<svg width="708" height="208" xmlns="http://www.w3.org/2000/svg" xmlns:xlink="http://www.w3.org/1999/xlink" overflow="hidden"><defs><filter id="fx0" x="-10%" y="-10%" width="120%" height="120%" filterUnits="userSpaceOnUse" primitiveUnits="userSpaceOnUse"><feComponentTransfer color-interpolation-filters="sRGB"><feFuncR type="discrete" tableValues="0 0"/><feFuncG type="discrete" tableValues="0 0"/><feFuncB type="discrete" tableValues="0 0"/><feFuncA type="linear" slope="0.4" intercept="0"/></feComponentTransfer><feGaussianBlur stdDeviation="0.95775 0.95775"/></filter><filter id="fx1" x="-10%" y="-10%" width="120%" height="120%" filterUnits="userSpaceOnUse" primitiveUnits="userSpaceOnUse"><feComponentTransfer color-interpolation-filters="sRGB"><feFuncR type="discrete" tableValues="0 0"/><feFuncG type="discrete" tableValues="0 0"/><feFuncB type="discrete" tableValues="0 0"/><feFuncA type="linear" slope="0.4" intercept="0"/></feComponentTransfer><feGaussianBlur stdDeviation="1.84907 1.84907"/></filter><clipPath id="clip2"><rect x="61" y="20" width="708" height="208"/></clipPath><clipPath id="clip3"><rect x="0" y="0" width="250" height="44"/></clipPath><clipPath id="clip4"><rect x="0" y="0" width="251" height="44"/></clipPath><clipPath id="clip5"><rect x="-2" y="-2" width="585" height="78"/></clipPath><clipPath id="clip6"><rect x="0" y="0" width="581" height="74"/></clipPath></defs><g clip-path="url(#clip2)" transform="translate(-61 -20)"><g clip-path="url(#clip3)" filter="url(#fx0)" transform="translate(71 45)"><g clip-path="url(#clip4)"><path d="M44.507 26.8412 47.8739 26.8412 47.8739 31.5772 44.507 31.5772ZM164.092 22.1052C162.637 22.1052 161.446 22.4197 160.521 23.0487 159.596 23.6777 159.134 24.5102 159.134 25.5462 159.134 26.5082 159.492 27.316 160.207 27.9697 160.922 28.6234 161.835 28.9502 162.945 28.9502 163.932 28.9502 164.863 28.7714 165.738 28.4137 166.614 28.056 167.299 27.5565 167.792 26.9152 168.31 26.4712 168.569 26.0025 168.569 25.5092L168.569 22.9562C167.878 22.6849 167.144 22.4752 166.367 22.3272 165.59 22.1792 164.832 22.1052 164.092 22.1052ZM209.387 15.3712C208.499 15.3712 207.703 15.5624 207 15.9447 206.297 16.327 205.699 16.8327 205.206 17.4617 204.713 18.0907 204.33 18.7999 204.059 19.5892 203.788 20.3785 203.652 21.1925 203.652 22.0312 203.652 22.9192 203.806 23.7517 204.114 24.5287 204.423 25.3057 204.848 25.984 205.391 26.5637 205.934 27.1434 206.569 27.6059 207.296 27.9512 208.024 28.2965 208.82 28.4692 209.683 28.4692 210.3 28.4692 210.892 28.3644 211.459 28.1547 212.026 27.945 212.55 27.6614 213.031 27.3037 213.512 26.946 213.926 26.539 214.271 26.0827 214.616 25.6264 214.863 25.1392 215.011 24.6212L215.011 19.5522C214.764 18.9355 214.444 18.3744 214.049 17.8687 213.654 17.363 213.204 16.9252 212.698 16.5552 212.193 16.1852 211.656 15.8954 211.089 15.6857 210.522 15.476 209.954 15.3712 209.387 15.3712ZM85.507 12.2262 89.577 12.2262 89.577 23.2522C89.577 26.7302 90.8103 28.4692 93.2769 28.4692 94.4363 28.4692 95.534 28.1115 96.57 27.3962 97.606 26.6809 98.4076 25.6449 98.975 24.2882L98.975 12.2262 103.045 12.2262 103.045 26.7672C103.045 27.2359 103.125 27.5689 103.285 27.7662 103.446 27.9635 103.736 28.0745 104.155 28.0992L104.155 31.5772C103.736 31.6512 103.39 31.7005 103.119 31.7252 102.848 31.7499 102.589 31.7622 102.342 31.7622 101.602 31.7622 100.973 31.5587 100.455 31.1517 99.937 30.7447 99.6656 30.2205 99.641 29.5792L99.5669 27.6552C98.7036 29.0612 97.5813 30.128 96.2 30.8557 94.8186 31.5834 93.3016 31.9472 91.649 31.9472 89.6263 31.9472 88.097 31.2874 87.061 29.9677 86.025 28.648 85.507 26.6809 85.507 24.0662ZM40.534 12.0412C40.7806 12.0412 40.9841 12.0412 41.1445 12.0412 41.3048 12.0412 41.4466 12.0535 41.57 12.0782L41.57 15.7412C39.9913 15.7905 38.5914 16.1544 37.3704 16.8327 36.1495 17.511 35.2799 18.4792 34.762 19.7372L34.762 31.5772 30.6919 31.5772 30.6919 12.2262 34.466 12.2262 34.466 16.5552C35.132 15.2232 36.0014 14.1564 37.0745 13.3547 38.1474 12.553 39.3006 12.1152 40.534 12.0412ZM238.426 11.8932C239.881 11.8932 241.238 12.1152 242.496 12.5592 243.754 13.0032 244.876 13.6445 245.863 14.4832L244.124 16.9252C242.323 15.4945 240.412 14.7792 238.389 14.7792 237.353 14.7792 236.483 14.995 235.78 15.4267 235.077 15.8584 234.726 16.5429 234.726 17.4802 234.726 17.8749 234.8 18.2079 234.948 18.4792 235.096 18.7505 235.336 18.9849 235.669 19.1822 236.002 19.3795 236.434 19.5584 236.964 19.7187 237.495 19.879 238.155 20.0579 238.944 20.2552 240.251 20.5759 241.38 20.8965 242.329 21.2172 243.279 21.5379 244.062 21.914 244.679 22.3457 245.296 22.7774 245.752 23.283 246.048 23.8627 246.344 24.4424 246.492 25.1392 246.492 25.9532 246.492 27.8032 245.795 29.2647 244.401 30.3377 243.008 31.4107 241.115 31.9472 238.722 31.9472 237.168 31.9472 235.62 31.6944 234.078 31.1887 232.537 30.683 231.211 29.9615 230.101 29.0242L231.729 26.4342C232.888 27.2729 234.035 27.908 235.17 28.3397 236.305 28.7714 237.464 28.9872 238.648 28.9872 239.857 28.9872 240.812 28.7529 241.515 28.2842 242.218 27.8155 242.57 27.1495 242.57 26.2862 242.57 25.4722 242.175 24.8802 241.386 24.5102 240.597 24.1402 239.363 23.7332 237.686 23.2892 236.477 22.9685 235.441 22.6602 234.578 22.3642 233.715 22.0682 233.012 21.7229 232.469 21.3282 231.926 20.9335 231.532 20.4772 231.285 19.9592 231.038 19.4412 230.915 18.8122 230.915 18.0722 230.915 17.0855 231.106 16.2099 231.488 15.4452 231.871 14.6805 232.401 14.033 233.079 13.5027 233.758 12.9724 234.553 12.5715 235.466 12.3002 236.379 12.0289 237.365 11.8932 238.426 11.8932ZM208.499 11.8932C210.053 11.8932 211.416 12.2632 212.587 13.0032 213.759 13.7432 214.727 14.7052 215.492 15.8892L215.492 12.2262 219.081 12.2262 219.081 31.0222C219.081 32.4282 218.822 33.6739 218.304 34.7592 217.786 35.8445 217.064 36.7634 216.139 37.5157 215.214 38.268 214.123 38.8415 212.865 39.2362 211.607 39.6309 210.25 39.8282 208.795 39.8282 206.649 39.8282 204.867 39.4644 203.448 38.7367 202.03 38.009 200.84 36.9915 199.878 35.6842L202.172 33.5382C202.912 34.5742 203.868 35.3635 205.039 35.9062 206.211 36.4489 207.463 36.7202 208.795 36.7202 209.634 36.7202 210.429 36.6092 211.181 36.3872 211.934 36.1652 212.594 35.8199 213.161 35.3512 213.728 34.8825 214.178 34.2905 214.511 33.5752 214.844 32.8599 215.011 32.0089 215.011 31.0222L215.011 28.0622C214.32 29.2462 213.371 30.1589 212.162 30.8002 210.953 31.4415 209.683 31.7622 208.351 31.7622 207.044 31.7622 205.847 31.497 204.762 30.9667 203.677 30.4364 202.745 29.7149 201.968 28.8022 201.191 27.8895 200.587 26.8412 200.155 25.6572 199.724 24.4732 199.508 23.2275 199.508 21.9202 199.508 20.5389 199.73 19.2377 200.174 18.0167 200.618 16.7957 201.235 15.735 202.024 14.8347 202.813 13.9344 203.757 13.219 204.854 12.6887 205.952 12.1584 207.167 11.8932 208.499 11.8932ZM189.273 11.8932C190.432 11.8932 191.382 12.1029 192.122 12.5222 192.862 12.9415 193.448 13.515 193.879 14.2427 194.311 14.9704 194.613 15.809 194.786 16.7587 194.959 17.7084 195.045 18.7135 195.045 19.7742L195.045 31.5772 190.975 31.5772 190.975 20.7362C190.975 18.9109 190.685 17.585 190.105 16.7587 189.526 15.9324 188.669 15.5192 187.534 15.5192 186.942 15.5192 186.35 15.6302 185.758 15.8522 185.166 16.0742 184.611 16.3887 184.093 16.7957 183.575 17.2027 183.112 17.6837 182.705 18.2387 182.298 18.7937 181.984 19.4042 181.762 20.0702L181.762 31.5772 177.692 31.5772 177.692 12.2262 181.392 12.2262 181.392 16.1112C182.132 14.8039 183.205 13.774 184.611 13.0217 186.017 12.2694 187.571 11.8932 189.273 11.8932ZM164.203 11.8932C166.867 11.8932 168.939 12.5715 170.419 13.9282 171.899 15.2849 172.639 17.2335 172.639 19.7742L172.639 26.7672C172.639 27.6305 172.997 28.0745 173.712 28.0992L173.712 31.5772C173.317 31.6512 172.978 31.7005 172.694 31.7252 172.411 31.7499 172.133 31.7622 171.862 31.7622 171.073 31.7622 170.462 31.5649 170.03 31.1702 169.599 30.7755 169.334 30.2699 169.235 29.6532L169.124 28.4322C168.261 29.5669 167.194 30.4364 165.923 31.0407 164.653 31.645 163.29 31.9472 161.835 31.9472 160.898 31.9472 160.028 31.793 159.226 31.4847 158.425 31.1764 157.734 30.7509 157.154 30.2082 156.575 29.6655 156.118 29.0242 155.785 28.2842 155.452 27.5442 155.286 26.7425 155.286 25.8792 155.286 24.9665 155.483 24.1402 155.878 23.4002 156.273 22.6602 156.834 22.0189 157.561 21.4762 158.289 20.9335 159.152 20.5142 160.151 20.2182 161.15 19.9222 162.254 19.7742 163.463 19.7742 164.376 19.7742 165.276 19.8544 166.164 20.0147 167.052 20.175 167.854 20.3909 168.569 20.6622L168.569 19.3302C168.569 17.8995 168.162 16.7834 167.348 15.9817 166.534 15.18 165.362 14.7792 163.833 14.7792 162.797 14.7792 161.779 14.9704 160.78 15.3527 159.781 15.735 158.752 16.2839 157.691 16.9992L156.433 14.4092C158.924 12.7319 161.514 11.8932 164.203 11.8932ZM8.35395 8.97019 8.35395 27.9142 13.5339 27.9142C14.9153 27.9142 16.1425 27.6737 17.2155 27.1927 18.2885 26.7117 19.1888 26.0457 19.9165 25.1947 20.6441 24.3437 21.193 23.3385 21.5629 22.1792 21.933 21.0199 22.118 19.7619 22.118 18.4052 22.118 17.0239 21.9268 15.7535 21.5444 14.5942 21.1621 13.4349 20.6009 12.442 19.8609 11.6157 19.1209 10.7894 18.2206 10.1419 17.1599 9.67319 16.0993 9.20453 14.8906 8.97019 13.5339 8.97019ZM115.398 5.30719 119.912 5.30719 128.126 26.7672 132.048 17.1102 127.534 5.41819 131.456 5.41819 134.675 14.3352 137.931 5.41819 141.816 5.41819 137.339 17.1102 141.261 26.7672 149.438 5.30719 153.989 5.30719 143.148 31.5772 139.596 31.5772 134.712 19.8112 129.791 31.5772 126.239 31.5772ZM59.583 5.30719 64.134 5.30719 71.3859 18.4792 78.712 5.30719 83.263 5.30719 73.4579 22.1792 73.4579 31.5772 69.3139 31.5772 69.3139 22.1052ZM4.20995 5.30719 13.5339 5.30719C15.6553 5.30719 17.5114 5.65253 19.1025 6.34319 20.6935 7.03386 22.0255 7.97119 23.0984 9.15519 24.1714 10.3392 24.9793 11.7267 25.5219 13.3177 26.0646 14.9087 26.3359 16.6045 26.3359 18.4052 26.3359 20.4032 26.0338 22.21 25.4295 23.8257 24.8251 25.4414 23.9679 26.8227 22.858 27.9697 21.7479 29.1167 20.4036 30.0047 18.8249 30.6337 17.2463 31.2627 15.4826 31.5772 13.5339 31.5772L4.20995 31.5772ZM223.359 4.45619 227.355 4.45619 227.355 9.08119 226.134 13.4102 223.877 13.4102 224.654 9.04419 223.359 9.04419Z" stroke="#F2F2F2" stroke-linejoin="round" stroke-miterlimit="10" fill="#FFFFFF" fill-rule="evenodd"/></g></g><path d="M113.948 70.2822 117.315 70.2822 117.315 75.0182 113.948 75.0182ZM233.533 65.5462C232.078 65.5462 230.887 65.8607 229.962 66.4897 229.037 67.1187 228.575 67.9512 228.575 68.9872 228.575 69.9492 228.933 70.757 229.648 71.4107 230.363 72.0643 231.276 72.3912 232.386 72.3912 233.373 72.3912 234.304 72.2123 235.179 71.8547 236.055 71.497 236.74 70.9975 237.233 70.3562 237.751 69.9122 238.01 69.4435 238.01 68.9502L238.01 66.3972C237.319 66.1258 236.585 65.9162 235.808 65.7682 235.031 65.6202 234.273 65.5462 233.533 65.5462ZM278.828 58.8122C277.94 58.8122 277.144 59.0033 276.441 59.3857 275.738 59.768 275.14 60.2737 274.647 60.9027 274.154 61.5317 273.771 62.2408 273.5 63.0302 273.229 63.8195 273.093 64.6335 273.093 65.4722 273.093 66.3602 273.247 67.1927 273.555 67.9697 273.864 68.7467 274.289 69.425 274.832 70.0047 275.375 70.5843 276.01 71.0468 276.737 71.3922 277.465 71.7375 278.261 71.9102 279.124 71.9102 279.741 71.9102 280.333 71.8053 280.9 71.5957 281.467 71.386 281.991 71.1023 282.472 70.7447 282.953 70.387 283.367 69.98 283.712 69.5237 284.057 69.0673 284.304 68.5802 284.452 68.0622L284.452 62.9932C284.205 62.3765 283.885 61.8153 283.49 61.3097 283.095 60.804 282.645 60.3662 282.139 59.9962 281.634 59.6262 281.097 59.3363 280.53 59.1267 279.963 58.917 279.395 58.8122 278.828 58.8122ZM154.948 55.6672 159.018 55.6672 159.018 66.6932C159.018 70.1712 160.251 71.9102 162.718 71.9102 163.877 71.9102 164.975 71.5525 166.011 70.8372 167.047 70.1218 167.849 69.0858 168.416 67.7292L168.416 55.6672 172.486 55.6672 172.486 70.2082C172.486 70.6768 172.566 71.0098 172.726 71.2072 172.887 71.4045 173.177 71.5155 173.596 71.5402L173.596 75.0182C173.177 75.0922 172.831 75.1415 172.56 75.1662 172.289 75.1908 172.03 75.2032 171.783 75.2032 171.043 75.2032 170.414 74.9997 169.896 74.5927 169.378 74.1857 169.107 73.6615 169.082 73.0202L169.008 71.0962C168.145 72.5022 167.022 73.569 165.641 74.2967 164.26 75.0243 162.743 75.3882 161.09 75.3882 159.067 75.3882 157.538 74.7283 156.502 73.4087 155.466 72.089 154.948 70.1218 154.948 67.5072ZM109.975 55.4822C110.222 55.4822 110.425 55.4822 110.585 55.4822 110.746 55.4822 110.888 55.4945 111.011 55.5192L111.011 59.1822C109.432 59.2315 108.032 59.5953 106.811 60.2737 105.59 60.952 104.721 61.9202 104.203 63.1782L104.203 75.0182 100.133 75.0182 100.133 55.6672 103.907 55.6672 103.907 59.9962C104.573 58.6642 105.442 57.5973 106.515 56.7957 107.588 55.994 108.742 55.5562 109.975 55.4822ZM307.867 55.3342C309.322 55.3342 310.679 55.5562 311.937 56.0002 313.195 56.4442 314.317 57.0855 315.304 57.9242L313.565 60.3662C311.764 58.9355 309.853 58.2202 307.83 58.2202 306.794 58.2202 305.924 58.436 305.221 58.8677 304.518 59.2993 304.167 59.9838 304.167 60.9212 304.167 61.3158 304.241 61.6488 304.389 61.9202 304.537 62.1915 304.777 62.4258 305.11 62.6232 305.443 62.8205 305.875 62.9993 306.405 63.1597 306.936 63.32 307.596 63.4988 308.385 63.6962 309.692 64.0168 310.821 64.3375 311.77 64.6582 312.72 64.9788 313.503 65.355 314.12 65.7867 314.737 66.2183 315.193 66.724 315.489 67.3037 315.785 67.8833 315.933 68.5802 315.933 69.3942 315.933 71.2442 315.236 72.7057 313.842 73.7787 312.449 74.8517 310.556 75.3882 308.163 75.3882 306.609 75.3882 305.061 75.1353 303.519 74.6297 301.978 74.124 300.652 73.4025 299.542 72.4652L301.17 69.8752C302.329 70.7138 303.476 71.349 304.611 71.7807 305.746 72.2123 306.905 72.4282 308.089 72.4282 309.298 72.4282 310.253 72.1938 310.956 71.7252 311.659 71.2565 312.011 70.5905 312.011 69.7272 312.011 68.9132 311.616 68.3212 310.827 67.9512 310.038 67.5812 308.804 67.1742 307.127 66.7302 305.918 66.4095 304.882 66.1012 304.019 65.8052 303.156 65.5092 302.453 65.1638 301.91 64.7692 301.367 64.3745 300.973 63.9182 300.726 63.4002 300.479 62.8822 300.356 62.2532 300.356 61.5132 300.356 60.5265 300.547 59.6508 300.929 58.8862 301.312 58.1215 301.842 57.474 302.52 56.9437 303.199 56.4133 303.994 56.0125 304.907 55.7412 305.82 55.4698 306.806 55.3342 307.867 55.3342ZM277.94 55.3342C279.494 55.3342 280.857 55.7042 282.028 56.4442 283.2 57.1842 284.168 58.1462 284.933 59.3302L284.933 55.6672 288.522 55.6672 288.522 74.4632C288.522 75.8692 288.263 77.1148 287.745 78.2002 287.227 79.2855 286.505 80.2043 285.58 80.9567 284.655 81.709 283.564 82.2825 282.306 82.6772 281.048 83.0718 279.691 83.2692 278.236 83.2692 276.09 83.2692 274.308 82.9053 272.889 82.1777 271.471 81.45 270.281 80.4325 269.319 79.1252L271.613 76.9792C272.353 78.0152 273.309 78.8045 274.48 79.3472 275.652 79.8898 276.904 80.1612 278.236 80.1612 279.075 80.1612 279.87 80.0502 280.622 79.8282 281.375 79.6062 282.035 79.2608 282.602 78.7922 283.169 78.3235 283.619 77.7315 283.952 77.0162 284.285 76.3008 284.452 75.4498 284.452 74.4632L284.452 71.5032C283.761 72.6872 282.812 73.5998 281.603 74.2412 280.394 74.8825 279.124 75.2032 277.792 75.2032 276.485 75.2032 275.288 74.938 274.203 74.4077 273.118 73.8773 272.186 73.1558 271.409 72.2432 270.632 71.3305 270.028 70.2822 269.596 69.0982 269.165 67.9142 268.949 66.6685 268.949 65.3612 268.949 63.9798 269.171 62.6787 269.615 61.4577 270.059 60.2367 270.676 59.176 271.465 58.2757 272.254 57.3753 273.198 56.66 274.295 56.1297 275.393 55.5993 276.608 55.3342 277.94 55.3342ZM258.714 55.3342C259.873 55.3342 260.823 55.5438 261.563 55.9632 262.303 56.3825 262.889 56.956 263.32 57.6837 263.752 58.4113 264.054 59.25 264.227 60.1997 264.4 61.1493 264.486 62.1545 264.486 63.2152L264.486 75.0182 260.416 75.0182 260.416 64.1772C260.416 62.3518 260.126 61.026 259.546 60.1997 258.967 59.3733 258.11 58.9602 256.975 58.9602 256.383 58.9602 255.791 59.0712 255.199 59.2932 254.607 59.5152 254.052 59.8297 253.534 60.2367 253.016 60.6437 252.553 61.1247 252.146 61.6797 251.739 62.2347 251.425 62.8452 251.203 63.5112L251.203 75.0182 247.133 75.0182 247.133 55.6672 250.833 55.6672 250.833 59.5522C251.573 58.2448 252.646 57.215 254.052 56.4627 255.458 55.7103 257.012 55.3342 258.714 55.3342ZM233.644 55.3342C236.308 55.3342 238.38 56.0125 239.86 57.3692 241.34 58.7258 242.08 60.6745 242.08 63.2152L242.08 70.2082C242.08 71.0715 242.438 71.5155 243.153 71.5402L243.153 75.0182C242.758 75.0922 242.419 75.1415 242.135 75.1662 241.852 75.1908 241.574 75.2032 241.303 75.2032 240.514 75.2032 239.903 75.0058 239.471 74.6112 239.04 74.2165 238.775 73.7108 238.676 73.0942L238.565 71.8732C237.702 73.0078 236.635 73.8773 235.364 74.4817 234.094 75.086 232.731 75.3882 231.276 75.3882 230.339 75.3882 229.469 75.234 228.667 74.9257 227.866 74.6173 227.175 74.1918 226.595 73.6492 226.016 73.1065 225.559 72.4652 225.226 71.7252 224.893 70.9852 224.727 70.1835 224.727 69.3202 224.727 68.4075 224.924 67.5812 225.319 66.8412 225.714 66.1012 226.275 65.4598 227.002 64.9172 227.73 64.3745 228.593 63.9552 229.592 63.6592 230.591 63.3632 231.695 63.2152 232.904 63.2152 233.817 63.2152 234.717 63.2953 235.605 63.4557 236.493 63.616 237.295 63.8318 238.01 64.1032L238.01 62.7712C238.01 61.3405 237.603 60.2243 236.789 59.4227 235.975 58.621 234.803 58.2202 233.274 58.2202 232.238 58.2202 231.22 58.4113 230.221 58.7937 229.222 59.176 228.193 59.7248 227.132 60.4402L225.874 57.8502C228.365 56.1728 230.955 55.3342 233.644 55.3342ZM77.7949 52.4112 77.7949 71.3552 82.9749 71.3552C84.3563 71.3552 85.5834 71.1147 86.6564 70.6337 87.7294 70.1527 88.6298 69.4867 89.3574 68.6357 90.0851 67.7847 90.6339 66.7795 91.0039 65.6202 91.3739 64.4608 91.5589 63.2028 91.5589 61.8462 91.5589 60.4648 91.3678 59.1945 90.9854 58.0352 90.6031 56.8758 90.0419 55.883 89.3019 55.0567 88.5619 54.2303 87.6616 53.5828 86.6009 53.1142 85.5403 52.6455 84.3316 52.4112 82.9749 52.4112ZM184.839 48.7482 189.353 48.7482 197.567 70.2082 201.489 60.5512 196.975 48.8592 200.897 48.8592 204.116 57.7762 207.372 48.8592 211.257 48.8592 206.78 60.5512 210.702 70.2082 218.879 48.7482 223.43 48.7482 212.589 75.0182 209.037 75.0182 204.153 63.2522 199.232 75.0182 195.68 75.0182ZM129.024 48.7482 133.575 48.7482 140.827 61.9202 148.153 48.7482 152.704 48.7482 142.899 65.6202 142.899 75.0182 138.755 75.0182 138.755 65.5462ZM73.6509 48.7482 82.9749 48.7482C85.0963 48.7482 86.9524 49.0935 88.5434 49.7842 90.1344 50.4748 91.4664 51.4122 92.5394 52.5962 93.6124 53.7802 94.4203 55.1677 94.9629 56.7587 95.5056 58.3497 95.7769 60.0455 95.7769 61.8462 95.7769 63.8442 95.4748 65.651 94.8704 67.2667 94.2661 68.8823 93.4089 70.2637 92.2989 71.4107 91.1889 72.5577 89.8446 73.4457 88.2659 74.0747 86.6873 74.7037 84.9236 75.0182 82.9749 75.0182L73.6509 75.0182ZM292.8 47.8972 296.796 47.8972 296.796 52.5222 295.575 56.8512 293.318 56.8512 294.095 52.4852 292.8 52.4852Z" stroke="#F2F2F2" stroke-linejoin="round" stroke-miterlimit="10" fill="#FFFFFF" fill-rule="evenodd"/><text fill="#000000" fill-opacity="0" font-family="Arial,Arial_MSFontService,sans-serif" font-size="35.372" x="73.6509" y="78.8477">Dr. Yu Wang’s</text><g clip-path="url(#clip5)" filter="url(#fx1)" transform="translate(178 132)"><g clip-path="url(#clip6)"><path d="M502.243 45.4769C499.096 45.4769 496.523 46.1569 494.523 47.5169 492.523 48.8769 491.523 50.6769 491.523 52.9169 491.523 54.9969 492.296 56.7436 493.843 58.1569 495.39 59.5703 497.363 60.2769 499.763 60.2769 501.896 60.2769 503.91 59.8903 505.803 59.1169 507.696 58.3436 509.176 57.2636 510.243 55.8769 511.363 54.9169 511.923 53.9036 511.923 52.8369L511.923 47.3169C510.43 46.7303 508.843 46.2769 507.163 45.9569 505.483 45.6369 503.843 45.4769 502.243 45.4769ZM92.243 45.4769C89.0964 45.4769 86.523 46.1569 84.523 47.5169 82.523 48.8769 81.523 50.6769 81.523 52.9169 81.523 54.9969 82.2964 56.7436 83.843 58.1569 85.3897 59.5703 87.363 60.2769 89.763 60.2769 91.8964 60.2769 93.9097 59.8903 95.803 59.1169 97.6964 58.3436 99.1764 57.2636 100.243 55.8769 101.363 54.9169 101.923 53.9036 101.923 52.8369L101.923 47.3169C100.43 46.7303 98.843 46.2769 97.163 45.9569 95.483 45.6369 93.843 45.4769 92.243 45.4769ZM552.123 30.9169C549.403 30.9169 546.99 31.7969 544.883 33.5569 542.776 35.3169 541.163 37.4503 540.043 39.9569L540.043 50.9969C540.363 52.2236 540.923 53.3303 541.723 54.3169 542.523 55.3036 543.456 56.1703 544.523 56.9169 545.59 57.6636 546.736 58.2369 547.963 58.6369 549.19 59.0369 550.363 59.2369 551.483 59.2369 553.403 59.2369 555.163 58.8503 556.763 58.0769 558.363 57.3036 559.736 56.2769 560.883 54.9969 562.03 53.7169 562.923 52.2369 563.563 50.5569 564.203 48.8769 564.523 47.1036 564.523 45.2369 564.523 43.3703 564.216 41.5703 563.603 39.8369 562.99 38.1036 562.136 36.5836 561.043 35.2769 559.95 33.9703 558.643 32.9169 557.123 32.1169 555.603 31.3169 553.936 30.9169 552.123 30.9169ZM215.043 30.9169C213.336 30.9169 211.723 31.2903 210.203 32.0369 208.683 32.7836 207.363 33.7969 206.243 35.0769 205.123 36.3569 204.23 37.8636 203.563 39.5969 202.896 41.3303 202.563 43.1836 202.563 45.1569 202.563 47.1836 202.883 49.0503 203.523 50.7569 204.163 52.4636 205.043 53.9436 206.163 55.1969 207.283 56.4503 208.603 57.4369 210.123 58.1569 211.643 58.8769 213.283 59.2369 215.043 59.2369 216.803 59.2369 218.443 58.8769 219.963 58.1569 221.483 57.4369 222.803 56.4369 223.923 55.1569 225.043 53.8769 225.923 52.3836 226.563 50.6769 227.203 48.9703 227.523 47.1036 227.523 45.0769 227.523 43.1036 227.203 41.2503 226.563 39.5169 225.923 37.7836 225.043 36.2769 223.923 34.9969 222.803 33.7169 221.483 32.7169 219.963 31.9969 218.443 31.2769 216.803 30.9169 215.043 30.9169ZM420.243 24.1169 429.043 24.1169 429.043 65.9569 420.243 65.9569ZM319.523 23.7169C320.056 23.7169 320.496 23.7169 320.843 23.7169 321.19 23.7169 321.496 23.7436 321.763 23.7969L321.763 31.7169C318.35 31.8236 315.323 32.6103 312.683 34.0769 310.043 35.5436 308.163 37.6369 307.043 40.3569L307.043 65.9569 298.243 65.9569 298.243 24.1169 306.403 24.1169 306.403 33.4769C307.843 30.5969 309.723 28.2903 312.043 26.5569 314.363 24.8236 316.856 23.8769 319.523 23.7169ZM187.523 23.7169C188.056 23.7169 188.496 23.7169 188.843 23.7169 189.19 23.7169 189.496 23.7436 189.763 23.7969L189.763 31.7169C186.35 31.8236 183.323 32.6103 180.683 34.0769 178.043 35.5436 176.163 37.6369 175.043 40.3569L175.043 65.9569 166.243 65.9569 166.243 24.1169 174.403 24.1169 174.403 33.4769C175.843 30.5969 177.723 28.2903 180.043 26.5569 182.363 24.8236 184.856 23.8769 187.523 23.7169ZM502.483 23.3969C508.243 23.3969 512.723 24.8636 515.923 27.7969 519.123 30.7303 520.723 34.9436 520.723 40.4369L520.723 55.5569C520.723 57.4236 521.496 58.3836 523.043 58.4369L523.043 65.9569C522.19 66.1169 521.456 66.2236 520.843 66.2769 520.23 66.3303 519.63 66.3569 519.043 66.3569 517.336 66.3569 516.016 65.9303 515.083 65.0769 514.15 64.2236 513.576 63.1303 513.363 61.7969L513.123 59.1569C511.256 61.6103 508.95 63.4903 506.203 64.7969 503.456 66.1036 500.51 66.7569 497.363 66.7569 495.336 66.7569 493.456 66.4236 491.723 65.7569 489.99 65.0903 488.496 64.1703 487.243 62.9969 485.99 61.8236 485.003 60.4369 484.283 58.8369 483.563 57.2369 483.203 55.5036 483.203 53.6369 483.203 51.6636 483.63 49.8769 484.483 48.2769 485.336 46.6769 486.55 45.2903 488.123 44.1169 489.696 42.9436 491.563 42.0369 493.723 41.3969 495.883 40.7569 498.27 40.4369 500.883 40.4369 502.856 40.4369 504.803 40.6103 506.723 40.9569 508.643 41.3036 510.376 41.7703 511.923 42.3569L511.923 39.4769C511.923 36.3836 511.043 33.9703 509.283 32.2369 507.523 30.5036 504.99 29.6369 501.683 29.6369 499.443 29.6369 497.243 30.0503 495.083 30.8769 492.923 31.7036 490.696 32.8903 488.403 34.4369L485.683 28.8369C491.07 25.2103 496.67 23.3969 502.483 23.3969ZM347.203 23.3969C351.523 23.3969 355.243 24.3436 358.363 26.2369 361.483 28.1303 363.816 30.6503 365.363 33.7969L356.803 36.5169C355.79 34.7569 354.43 33.3836 352.723 32.3969 351.016 31.4103 349.123 30.9169 347.043 30.9169 345.283 30.9169 343.643 31.2636 342.123 31.9569 340.603 32.6503 339.283 33.6236 338.163 34.8769 337.043 36.1303 336.163 37.6103 335.523 39.3169 334.883 41.0236 334.563 42.9169 334.563 44.9969 334.563 47.0236 334.896 48.9036 335.563 50.6369 336.23 52.3703 337.136 53.8769 338.283 55.1569 339.43 56.4369 340.763 57.4369 342.283 58.1569 343.803 58.8769 345.416 59.2369 347.123 59.2369 348.19 59.2369 349.256 59.0903 350.323 58.7969 351.39 58.5036 352.363 58.0903 353.243 57.5569 354.123 57.0236 354.896 56.4103 355.563 55.7169 356.23 55.0236 356.723 54.2769 357.043 53.4769L365.683 56.0369C364.296 59.1836 361.976 61.7569 358.723 63.7569 355.47 65.7569 351.63 66.7569 347.203 66.7569 343.95 66.7569 340.99 66.1703 338.323 64.9969 335.656 63.8236 333.376 62.2369 331.483 60.2369 329.59 58.2369 328.123 55.9303 327.083 53.3169 326.043 50.7036 325.523 47.9303 325.523 44.9969 325.523 42.0636 326.03 39.2903 327.043 36.6769 328.056 34.0636 329.51 31.7703 331.403 29.7969 333.296 27.8236 335.576 26.2636 338.243 25.1169 340.91 23.9703 343.896 23.3969 347.203 23.3969ZM215.043 23.3969C218.296 23.3969 221.243 23.9836 223.883 25.1569 226.523 26.3303 228.79 27.9036 230.683 29.8769 232.576 31.8503 234.03 34.1569 235.043 36.7969 236.056 39.4369 236.563 42.1969 236.563 45.0769 236.563 47.9569 236.056 50.7169 235.043 53.3569 234.03 55.9969 232.576 58.3036 230.683 60.2769 228.79 62.2503 226.523 63.8236 223.883 64.9969 221.243 66.1703 218.296 66.7569 215.043 66.7569 211.736 66.7569 208.763 66.1703 206.123 64.9969 203.483 63.8236 201.23 62.2503 199.363 60.2769 197.496 58.3036 196.056 55.9969 195.043 53.3569 194.03 50.7169 193.523 47.9569 193.523 45.0769 193.523 42.1969 194.03 39.4369 195.043 36.7969 196.056 34.1569 197.51 31.8503 199.403 29.8769 201.296 27.9036 203.563 26.3303 206.203 25.1569 208.843 23.9836 211.79 23.3969 215.043 23.3969ZM140.203 23.3969C144.523 23.3969 148.243 24.3436 151.363 26.2369 154.483 28.1303 156.816 30.6503 158.363 33.7969L149.803 36.5169C148.79 34.7569 147.43 33.3836 145.723 32.3969 144.016 31.4103 142.123 30.9169 140.043 30.9169 138.283 30.9169 136.643 31.2636 135.123 31.9569 133.603 32.6503 132.283 33.6236 131.163 34.8769 130.043 36.1303 129.163 37.6103 128.523 39.3169 127.883 41.0236 127.563 42.9169 127.563 44.9969 127.563 47.0236 127.896 48.9036 128.563 50.6369 129.23 52.3703 130.136 53.8769 131.283 55.1569 132.43 56.4369 133.763 57.4369 135.283 58.1569 136.803 58.8769 138.416 59.2369 140.123 59.2369 141.19 59.2369 142.256 59.0903 143.323 58.7969 144.39 58.5036 145.363 58.0903 146.243 57.5569 147.123 57.0236 147.896 56.4103 148.563 55.7169 149.23 55.0236 149.723 54.2769 150.043 53.4769L158.683 56.0369C157.296 59.1836 154.976 61.7569 151.723 63.7569 148.47 65.7569 144.63 66.7569 140.203 66.7569 136.95 66.7569 133.99 66.1703 131.323 64.9969 128.656 63.8236 126.376 62.2369 124.483 60.2369 122.59 58.2369 121.123 55.9303 120.083 53.3169 119.043 50.7036 118.523 47.9303 118.523 44.9969 118.523 42.0636 119.03 39.2903 120.043 36.6769 121.056 34.0636 122.51 31.7703 124.403 29.7969 126.296 27.8236 128.576 26.2636 131.243 25.1169 133.91 23.9703 136.896 23.3969 140.203 23.3969ZM92.483 23.3969C98.243 23.3969 102.723 24.8636 105.923 27.7969 109.123 30.7303 110.723 34.9436 110.723 40.4369L110.723 55.5569C110.723 57.4236 111.496 58.3836 113.043 58.4369L113.043 65.9569C112.19 66.1169 111.456 66.2236 110.843 66.2769 110.23 66.3303 109.63 66.3569 109.043 66.3569 107.336 66.3569 106.016 65.9303 105.083 65.0769 104.15 64.2236 103.576 63.1303 103.363 61.7969L103.123 59.1569C101.256 61.6103 98.9497 63.4903 96.203 64.7969 93.4564 66.1036 90.5097 66.7569 87.363 66.7569 85.3364 66.7569 83.4564 66.4236 81.723 65.7569 79.9897 65.0903 78.4964 64.1703 77.243 62.9969 75.9897 61.8236 75.003 60.4369 74.283 58.8369 73.563 57.2369 73.203 55.5036 73.203 53.6369 73.203 51.6636 73.6297 49.8769 74.483 48.2769 75.3364 46.6769 76.5497 45.2903 78.123 44.1169 79.6964 42.9436 81.563 42.0369 83.723 41.3969 85.883 40.7569 88.2697 40.4369 90.883 40.4369 92.8564 40.4369 94.803 40.6103 96.723 40.9569 98.643 41.3036 100.376 41.7703 101.923 42.3569L101.923 39.4769C101.923 36.3836 101.043 33.9703 99.283 32.2369 97.523 30.5036 94.9897 29.6369 91.683 29.6369 89.443 29.6369 87.243 30.0503 85.083 30.8769 82.923 31.7036 80.6964 32.8903 78.403 34.4369L75.683 28.8369C81.0697 25.2103 86.6697 23.3969 92.483 23.3969ZM266.003 19.4769 256.563 43.8769 275.123 43.8769ZM441.363 9.15694 450.323 9.15694 450.323 58.0369 480.803 58.0369 480.803 65.9569 441.363 65.9569ZM262.083 9.15694 269.923 9.15694 292.323 65.9569 282.883 65.9569 276.883 50.5169 254.963 50.5169 249.043 65.9569 239.523 65.9569ZM7.36304 9.15694 16.963 9.15694 35.763 43.8769 54.563 9.15694 64.163 9.15694 64.163 65.9569 55.123 65.9569 55.123 25.0769 38.243 56.0369 33.283 56.0369 16.323 25.0769 16.323 65.9569 7.36304 65.9569ZM531.243 7.55694 540.043 7.55694 540.043 32.0369C541.696 29.3703 543.763 27.2636 546.243 25.7169 548.723 24.1703 551.643 23.3969 555.003 23.3969 557.776 23.3969 560.31 23.9969 562.603 25.1969 564.896 26.3969 566.856 27.9969 568.483 29.9969 570.11 31.9969 571.363 34.3169 572.243 36.9569 573.123 39.5969 573.563 42.3569 573.563 45.2369 573.563 48.2236 573.056 51.0236 572.043 53.6369 571.03 56.2503 569.643 58.5303 567.883 60.4769 566.123 62.4236 564.03 63.9569 561.603 65.0769 559.176 66.1969 556.576 66.7569 553.803 66.7569 550.603 66.7569 547.71 65.9969 545.123 64.4769 542.536 62.9569 540.496 60.9169 539.003 58.3569L539.003 65.9569 531.243 65.9569ZM420.243 7.55694 429.043 7.55694 429.043 17.2369 420.243 17.2369ZM372.243 7.55694 381.043 7.55694 381.043 32.5169C382.643 29.6369 384.816 27.3969 387.563 25.7969 390.31 24.1969 393.31 23.3969 396.563 23.3969 399.176 23.3969 401.323 23.8636 403.003 24.7969 404.683 25.7303 406.03 26.9703 407.043 28.5169 408.056 30.0636 408.763 31.8636 409.163 33.9169 409.563 35.9703 409.763 38.1436 409.763 40.4369L409.763 65.9569 400.963 65.9569 400.963 42.5169C400.963 38.6769 400.283 35.8369 398.923 33.9969 397.563 32.1569 395.603 31.2369 393.043 31.2369 391.816 31.2369 390.59 31.4769 389.363 31.9569 388.136 32.4369 386.976 33.1169 385.883 33.9969 384.79 34.8769 383.816 35.9169 382.963 37.1169 382.11 38.3169 381.47 39.6369 381.043 41.0769L381.043 65.9569 372.243 65.9569Z" stroke="#F2F2F2" stroke-linejoin="round" stroke-miterlimit="10" fill="#FFFFFF" fill-rule="evenodd"/></g></g><path d="M677.304 174.538C674.158 174.538 671.584 175.218 669.584 176.578 667.584 177.938 666.584 179.738 666.584 181.978 666.584 184.058 667.358 185.805 668.904 187.218 670.451 188.631 672.424 189.338 674.824 189.338 676.958 189.338 678.971 188.951 680.864 188.178 682.758 187.405 684.238 186.325 685.304 184.938 686.424 183.978 686.984 182.965 686.984 181.898L686.984 176.378C685.491 175.791 683.904 175.338 682.224 175.018 680.544 174.698 678.904 174.538 677.304 174.538ZM267.304 174.538C264.158 174.538 261.584 175.218 259.584 176.578 257.584 177.938 256.584 179.738 256.584 181.978 256.584 184.058 257.358 185.805 258.904 187.218 260.451 188.631 262.424 189.338 264.824 189.338 266.958 189.338 268.971 188.951 270.864 188.178 272.758 187.405 274.238 186.325 275.304 184.938 276.424 183.978 276.984 182.965 276.984 181.898L276.984 176.378C275.491 175.791 273.904 175.338 272.224 175.018 270.544 174.698 268.904 174.538 267.304 174.538ZM727.184 159.978C724.464 159.978 722.051 160.858 719.944 162.618 717.838 164.378 716.224 166.511 715.104 169.018L715.104 180.058C715.424 181.285 715.984 182.391 716.784 183.378 717.584 184.365 718.518 185.231 719.584 185.978 720.651 186.725 721.798 187.298 723.024 187.698 724.251 188.098 725.424 188.298 726.544 188.298 728.464 188.298 730.224 187.911 731.824 187.138 733.424 186.365 734.798 185.338 735.944 184.058 737.091 182.778 737.984 181.298 738.624 179.618 739.264 177.938 739.584 176.165 739.584 174.298 739.584 172.431 739.278 170.631 738.664 168.898 738.051 167.165 737.198 165.645 736.104 164.338 735.011 163.031 733.704 161.978 732.184 161.178 730.664 160.378 728.998 159.978 727.184 159.978ZM390.104 159.978C388.398 159.978 386.784 160.351 385.264 161.098 383.744 161.845 382.424 162.858 381.304 164.138 380.184 165.418 379.291 166.925 378.624 168.658 377.958 170.391 377.624 172.245 377.624 174.218 377.624 176.245 377.944 178.111 378.584 179.818 379.224 181.525 380.104 183.005 381.224 184.258 382.344 185.511 383.664 186.498 385.184 187.218 386.704 187.938 388.344 188.298 390.104 188.298 391.864 188.298 393.504 187.938 395.024 187.218 396.544 186.498 397.864 185.498 398.984 184.218 400.104 182.938 400.984 181.445 401.624 179.738 402.264 178.031 402.584 176.165 402.584 174.138 402.584 172.165 402.264 170.311 401.624 168.578 400.984 166.845 400.104 165.338 398.984 164.058 397.864 162.778 396.544 161.778 395.024 161.058 393.504 160.338 391.864 159.978 390.104 159.978ZM595.304 153.178 604.104 153.178 604.104 195.018 595.304 195.018ZM494.584 152.778C495.118 152.778 495.558 152.778 495.904 152.778 496.251 152.778 496.558 152.805 496.824 152.858L496.824 160.778C493.411 160.885 490.384 161.671 487.744 163.138 485.104 164.605 483.224 166.698 482.104 169.418L482.104 195.018 473.304 195.018 473.304 153.178 481.464 153.178 481.464 162.538C482.904 159.658 484.784 157.351 487.104 155.618 489.424 153.885 491.918 152.938 494.584 152.778ZM362.584 152.778C363.118 152.778 363.558 152.778 363.904 152.778 364.251 152.778 364.558 152.805 364.824 152.858L364.824 160.778C361.411 160.885 358.384 161.671 355.744 163.138 353.104 164.605 351.224 166.698 350.104 169.418L350.104 195.018 341.304 195.018 341.304 153.178 349.464 153.178 349.464 162.538C350.904 159.658 352.784 157.351 355.104 155.618 357.424 153.885 359.918 152.938 362.584 152.778ZM677.544 152.458C683.304 152.458 687.784 153.925 690.984 156.858 694.184 159.791 695.784 164.005 695.784 169.498L695.784 184.618C695.784 186.485 696.558 187.445 698.104 187.498L698.104 195.018C697.251 195.178 696.518 195.285 695.904 195.338 695.291 195.391 694.691 195.418 694.104 195.418 692.398 195.418 691.078 194.991 690.144 194.138 689.211 193.285 688.638 192.191 688.424 190.858L688.184 188.218C686.318 190.671 684.011 192.551 681.264 193.858 678.518 195.165 675.571 195.818 672.424 195.818 670.398 195.818 668.518 195.485 666.784 194.818 665.051 194.151 663.558 193.231 662.304 192.058 661.051 190.885 660.064 189.498 659.344 187.898 658.624 186.298 658.264 184.565 658.264 182.698 658.264 180.725 658.691 178.938 659.544 177.338 660.398 175.738 661.611 174.351 663.184 173.178 664.758 172.005 666.624 171.098 668.784 170.458 670.944 169.818 673.331 169.498 675.944 169.498 677.918 169.498 679.864 169.671 681.784 170.018 683.704 170.365 685.438 170.831 686.984 171.418L686.984 168.538C686.984 165.445 686.104 163.031 684.344 161.298 682.584 159.565 680.051 158.698 676.744 158.698 674.504 158.698 672.304 159.111 670.144 159.938 667.984 160.765 665.758 161.951 663.464 163.498L660.744 157.898C666.131 154.271 671.731 152.458 677.544 152.458ZM522.264 152.458C526.584 152.458 530.304 153.405 533.424 155.298 536.544 157.191 538.878 159.711 540.424 162.858L531.864 165.578C530.851 163.818 529.491 162.445 527.784 161.458 526.078 160.471 524.184 159.978 522.104 159.978 520.344 159.978 518.704 160.325 517.184 161.018 515.664 161.711 514.344 162.685 513.224 163.938 512.104 165.191 511.224 166.671 510.584 168.378 509.944 170.085 509.624 171.978 509.624 174.058 509.624 176.085 509.958 177.965 510.624 179.698 511.291 181.431 512.198 182.938 513.344 184.218 514.491 185.498 515.824 186.498 517.344 187.218 518.864 187.938 520.478 188.298 522.184 188.298 523.251 188.298 524.318 188.151 525.384 187.858 526.451 187.565 527.424 187.151 528.304 186.618 529.184 186.085 529.958 185.471 530.624 184.778 531.291 184.085 531.784 183.338 532.104 182.538L540.744 185.098C539.358 188.245 537.038 190.818 533.784 192.818 530.531 194.818 526.691 195.818 522.264 195.818 519.011 195.818 516.051 195.231 513.384 194.058 510.718 192.885 508.438 191.298 506.544 189.298 504.651 187.298 503.184 184.991 502.144 182.378 501.104 179.765 500.584 176.991 500.584 174.058 500.584 171.125 501.091 168.351 502.104 165.738 503.118 163.125 504.571 160.831 506.464 158.858 508.358 156.885 510.638 155.325 513.304 154.178 515.971 153.031 518.958 152.458 522.264 152.458ZM390.104 152.458C393.358 152.458 396.304 153.045 398.944 154.218 401.584 155.391 403.851 156.965 405.744 158.938 407.638 160.911 409.091 163.218 410.104 165.858 411.118 168.498 411.624 171.258 411.624 174.138 411.624 177.018 411.118 179.778 410.104 182.418 409.091 185.058 407.638 187.365 405.744 189.338 403.851 191.311 401.584 192.885 398.944 194.058 396.304 195.231 393.358 195.818 390.104 195.818 386.798 195.818 383.824 195.231 381.184 194.058 378.544 192.885 376.291 191.311 374.424 189.338 372.558 187.365 371.118 185.058 370.104 182.418 369.091 179.778 368.584 177.018 368.584 174.138 368.584 171.258 369.091 168.498 370.104 165.858 371.118 163.218 372.571 160.911 374.464 158.938 376.358 156.965 378.624 155.391 381.264 154.218 383.904 153.045 386.851 152.458 390.104 152.458ZM315.264 152.458C319.584 152.458 323.304 153.405 326.424 155.298 329.544 157.191 331.878 159.711 333.424 162.858L324.864 165.578C323.851 163.818 322.491 162.445 320.784 161.458 319.078 160.471 317.184 159.978 315.104 159.978 313.344 159.978 311.704 160.325 310.184 161.018 308.664 161.711 307.344 162.685 306.224 163.938 305.104 165.191 304.224 166.671 303.584 168.378 302.944 170.085 302.624 171.978 302.624 174.058 302.624 176.085 302.958 177.965 303.624 179.698 304.291 181.431 305.198 182.938 306.344 184.218 307.491 185.498 308.824 186.498 310.344 187.218 311.864 187.938 313.478 188.298 315.184 188.298 316.251 188.298 317.318 188.151 318.384 187.858 319.451 187.565 320.424 187.151 321.304 186.618 322.184 186.085 322.958 185.471 323.624 184.778 324.291 184.085 324.784 183.338 325.104 182.538L333.744 185.098C332.358 188.245 330.038 190.818 326.784 192.818 323.531 194.818 319.691 195.818 315.264 195.818 312.011 195.818 309.051 195.231 306.384 194.058 303.718 192.885 301.438 191.298 299.544 189.298 297.651 187.298 296.184 184.991 295.144 182.378 294.104 179.765 293.584 176.991 293.584 174.058 293.584 171.125 294.091 168.351 295.104 165.738 296.118 163.125 297.571 160.831 299.464 158.858 301.358 156.885 303.638 155.325 306.304 154.178 308.971 153.031 311.958 152.458 315.264 152.458ZM267.544 152.458C273.304 152.458 277.784 153.925 280.984 156.858 284.184 159.791 285.784 164.005 285.784 169.498L285.784 184.618C285.784 186.485 286.558 187.445 288.104 187.498L288.104 195.018C287.251 195.178 286.518 195.285 285.904 195.338 285.291 195.391 284.691 195.418 284.104 195.418 282.398 195.418 281.078 194.991 280.144 194.138 279.211 193.285 278.638 192.191 278.424 190.858L278.184 188.218C276.318 190.671 274.011 192.551 271.264 193.858 268.518 195.165 265.571 195.818 262.424 195.818 260.398 195.818 258.518 195.485 256.784 194.818 255.051 194.151 253.558 193.231 252.304 192.058 251.051 190.885 250.064 189.498 249.344 187.898 248.624 186.298 248.264 184.565 248.264 182.698 248.264 180.725 248.691 178.938 249.544 177.338 250.398 175.738 251.611 174.351 253.184 173.178 254.758 172.005 256.624 171.098 258.784 170.458 260.944 169.818 263.331 169.498 265.944 169.498 267.918 169.498 269.864 169.671 271.784 170.018 273.704 170.365 275.438 170.831 276.984 171.418L276.984 168.538C276.984 165.445 276.104 163.031 274.344 161.298 272.584 159.565 270.051 158.698 266.744 158.698 264.504 158.698 262.304 159.111 260.144 159.938 257.984 160.765 255.758 161.951 253.464 163.498L250.744 157.898C256.131 154.271 261.731 152.458 267.544 152.458ZM441.064 148.538 431.624 172.938 450.184 172.938ZM616.424 138.218 625.384 138.218 625.384 187.098 655.864 187.098 655.864 195.018 616.424 195.018ZM437.144 138.218 444.984 138.218 467.384 195.018 457.944 195.018 451.944 179.578 430.024 179.578 424.104 195.018 414.584 195.018ZM182.424 138.218 192.024 138.218 210.824 172.938 229.624 138.218 239.224 138.218 239.224 195.018 230.184 195.018 230.184 154.138 213.304 185.098 208.344 185.098 191.384 154.138 191.384 195.018 182.424 195.018ZM706.304 136.618 715.104 136.618 715.104 161.098C716.758 158.431 718.824 156.325 721.304 154.778 723.784 153.231 726.704 152.458 730.064 152.458 732.838 152.458 735.371 153.058 737.664 154.258 739.958 155.458 741.918 157.058 743.544 159.058 745.171 161.058 746.424 163.378 747.304 166.018 748.184 168.658 748.624 171.418 748.624 174.298 748.624 177.285 748.118 180.085 747.104 182.698 746.091 185.311 744.704 187.591 742.944 189.538 741.184 191.485 739.091 193.018 736.664 194.138 734.238 195.258 731.638 195.818 728.864 195.818 725.664 195.818 722.771 195.058 720.184 193.538 717.598 192.018 715.558 189.978 714.064 187.418L714.064 195.018 706.304 195.018ZM595.304 136.618 604.104 136.618 604.104 146.298 595.304 146.298ZM547.304 136.618 556.104 136.618 556.104 161.578C557.704 158.698 559.878 156.458 562.624 154.858 565.371 153.258 568.371 152.458 571.624 152.458 574.238 152.458 576.384 152.925 578.064 153.858 579.744 154.791 581.091 156.031 582.104 157.578 583.118 159.125 583.824 160.925 584.224 162.978 584.624 165.031 584.824 167.205 584.824 169.498L584.824 195.018 576.024 195.018 576.024 171.578C576.024 167.738 575.344 164.898 573.984 163.058 572.624 161.218 570.664 160.298 568.104 160.298 566.878 160.298 565.651 160.538 564.424 161.018 563.198 161.498 562.038 162.178 560.944 163.058 559.851 163.938 558.878 164.978 558.024 166.178 557.171 167.378 556.531 168.698 556.104 170.138L556.104 195.018 547.304 195.018Z" stroke="#F2F2F2" stroke-linejoin="round" stroke-miterlimit="10" fill="#FFFFFF" fill-rule="evenodd"/><text fill="#000000" fill-opacity="0" font-family="Arial,Arial_MSFontService,sans-serif" font-size="59.2" x="182.424" y="188.418">MacroArchiLab</text></g></svg>