<svg width="1181" height="185" xmlns="http://www.w3.org/2000/svg" xmlns:xlink="http://www.w3.org/1999/xlink" overflow="hidden"><defs><filter id="fx0" x="-10%" y="-10%" width="120%" height="120%" filterUnits="userSpaceOnUse" primitiveUnits="userSpaceOnUse"><feComponentTransfer color-interpolation-filters="sRGB"><feFuncR type="discrete" tableValues="0 0"/><feFuncG type="discrete" tableValues="0 0"/><feFuncB type="discrete" tableValues="0 0"/><feFuncA type="linear" slope="0.4" intercept="0"/></feComponentTransfer><feGaussianBlur stdDeviation="0.957751 0.957751"/></filter><filter id="fx1" x="-10%" y="-10%" width="120%" height="120%" filterUnits="userSpaceOnUse" primitiveUnits="userSpaceOnUse"><feComponentTransfer color-interpolation-filters="sRGB"><feFuncR type="discrete" tableValues="0 0"/><feFuncG type="discrete" tableValues="0 0"/><feFuncB type="discrete" tableValues="0 0"/><feFuncA type="linear" slope="0.4" intercept="0"/></feComponentTransfer><feGaussianBlur stdDeviation="1.84907 1.84907"/></filter><clipPath id="clip2"><rect x="61" y="20" width="1181" height="185"/></clipPath><clipPath id="clip3"><rect x="0" y="0" width="250" height="44"/></clipPath><clipPath id="clip4"><rect x="0" y="0" width="251" height="44"/></clipPath><clipPath id="clip5"><rect x="-2" y="-2" width="585" height="78"/></clipPath><clipPath id="clip6"><rect x="0" y="0" width="581" height="74"/></clipPath></defs><g clip-path="url(#clip2)" transform="translate(-61 -20)"><g clip-path="url(#clip3)" filter="url(#fx0)" transform="translate(71 31)"><g clip-path="url(#clip4)"><path d="M44.507 26.8412 47.874 26.8412 47.874 31.5772 44.507 31.5772ZM164.092 22.1052C162.637 22.1052 161.446 22.4197 160.521 23.0487 159.596 23.6777 159.134 24.5102 159.134 25.5462 159.134 26.5082 159.492 27.316 160.207 27.9697 160.922 28.6234 161.835 28.9502 162.945 28.9502 163.932 28.9502 164.863 28.7714 165.738 28.4137 166.614 28.056 167.299 27.5565 167.792 26.9152 168.31 26.4712 168.569 26.0025 168.569 25.5092L168.569 22.9562C167.878 22.6849 167.144 22.4752 166.367 22.3272 165.59 22.1792 164.832 22.1052 164.092 22.1052ZM209.387 15.3712C208.499 15.3712 207.703 15.5624 207 15.9447 206.297 16.327 205.699 16.8327 205.206 17.4617 204.713 18.0907 204.33 18.7999 204.059 19.5892 203.788 20.3785 203.652 21.1925 203.652 22.0312 203.652 22.9192 203.806 23.7517 204.114 24.5287 204.423 25.3057 204.848 25.984 205.391 26.5637 205.934 27.1434 206.569 27.6059 207.296 27.9512 208.024 28.2965 208.82 28.4692 209.683 28.4692 210.3 28.4692 210.892 28.3644 211.459 28.1547 212.026 27.945 212.55 27.6614 213.031 27.3037 213.512 26.946 213.926 26.539 214.271 26.0827 214.616 25.6264 214.863 25.1392 215.011 24.6212L215.011 19.5522C214.764 18.9355 214.444 18.3744 214.049 17.8687 213.654 17.363 213.204 16.9252 212.698 16.5552 212.193 16.1852 211.656 15.8954 211.089 15.6857 210.522 15.476 209.954 15.3712 209.387 15.3712ZM85.507 12.2262 89.577 12.2262 89.577 23.2522C89.577 26.7302 90.8103 28.4692 93.277 28.4692 94.4363 28.4692 95.534 28.1115 96.57 27.3962 97.606 26.6809 98.4076 25.6449 98.975 24.2882L98.975 12.2262 103.045 12.2262 103.045 26.7672C103.045 27.2359 103.125 27.5689 103.285 27.7662 103.446 27.9635 103.736 28.0745 104.155 28.0992L104.155 31.5772C103.736 31.6512 103.39 31.7005 103.119 31.7252 102.848 31.7499 102.589 31.7622 102.342 31.7622 101.602 31.7622 100.973 31.5587 100.455 31.1517 99.937 30.7447 99.6656 30.2205 99.641 29.5792L99.567 27.6552C98.7036 29.0612 97.5813 30.128 96.2 30.8557 94.8186 31.5834 93.3016 31.9472 91.649 31.9472 89.6263 31.9472 88.097 31.2874 87.061 29.9677 86.025 28.648 85.507 26.6809 85.507 24.0662ZM40.534 12.0412C40.7806 12.0412 40.9841 12.0412 41.1445 12.0412 41.3048 12.0412 41.4466 12.0535 41.57 12.0782L41.57 15.7412C39.9913 15.7905 38.5915 16.1544 37.3705 16.8327 36.1495 17.511 35.28 18.4792 34.762 19.7372L34.762 31.5772 30.692 31.5772 30.692 12.2262 34.466 12.2262 34.466 16.5552C35.132 15.2232 36.0015 14.1564 37.0745 13.3547 38.1475 12.553 39.3006 12.1152 40.534 12.0412ZM238.426 11.8932C239.881 11.8932 241.238 12.1152 242.496 12.5592 243.754 13.0032 244.876 13.6445 245.863 14.4832L244.124 16.9252C242.323 15.4945 240.412 14.7792 238.389 14.7792 237.353 14.7792 236.483 14.995 235.78 15.4267 235.077 15.8584 234.726 16.5429 234.726 17.4802 234.726 17.8749 234.8 18.2079 234.948 18.4792 235.096 18.7505 235.336 18.9849 235.669 19.1822 236.002 19.3795 236.434 19.5584 236.964 19.7187 237.495 19.879 238.155 20.0579 238.944 20.2552 240.251 20.5759 241.38 20.8965 242.329 21.2172 243.279 21.5379 244.062 21.914 244.679 22.3457 245.296 22.7774 245.752 23.283 246.048 23.8627 246.344 24.4424 246.492 25.1392 246.492 25.9532 246.492 27.8032 245.795 29.2647 244.401 30.3377 243.008 31.4107 241.115 31.9472 238.722 31.9472 237.168 31.9472 235.62 31.6944 234.078 31.1887 232.537 30.683 231.211 29.9615 230.101 29.0242L231.729 26.4342C232.888 27.2729 234.035 27.908 235.17 28.3397 236.305 28.7714 237.464 28.9872 238.648 28.9872 239.857 28.9872 240.812 28.7529 241.515 28.2842 242.218 27.8155 242.57 27.1495 242.57 26.2862 242.57 25.4722 242.175 24.8802 241.386 24.5102 240.597 24.1402 239.363 23.7332 237.686 23.2892 236.477 22.9685 235.441 22.6602 234.578 22.3642 233.715 22.0682 233.012 21.7229 232.469 21.3282 231.926 20.9335 231.532 20.4772 231.285 19.9592 231.038 19.4412 230.915 18.8122 230.915 18.0722 230.915 17.0855 231.106 16.2099 231.488 15.4452 231.871 14.6805 232.401 14.033 233.079 13.5027 233.758 12.9724 234.553 12.5715 235.466 12.3002 236.379 12.0289 237.365 11.8932 238.426 11.8932ZM208.499 11.8932C210.053 11.8932 211.416 12.2632 212.587 13.0032 213.759 13.7432 214.727 14.7052 215.492 15.8892L215.492 12.2262 219.081 12.2262 219.081 31.0222C219.081 32.4282 218.822 33.6739 218.304 34.7592 217.786 35.8445 217.064 36.7634 216.139 37.5157 215.214 38.268 214.123 38.8415 212.865 39.2362 211.607 39.6309 210.25 39.8282 208.795 39.8282 206.649 39.8282 204.867 39.4644 203.448 38.7367 202.03 38.009 200.84 36.9915 199.878 35.6842L202.172 33.5382C202.912 34.5742 203.868 35.3635 205.039 35.9062 206.211 36.4489 207.463 36.7202 208.795 36.7202 209.634 36.7202 210.429 36.6092 211.181 36.3872 211.934 36.1652 212.594 35.8199 213.161 35.3512 213.728 34.8825 214.178 34.2905 214.511 33.5752 214.844 32.8599 215.011 32.0089 215.011 31.0222L215.011 28.0622C214.32 29.2462 213.371 30.1589 212.162 30.8002 210.953 31.4415 209.683 31.7622 208.351 31.7622 207.044 31.7622 205.847 31.497 204.762 30.9667 203.677 30.4364 202.745 29.7149 201.968 28.8022 201.191 27.8895 200.587 26.8412 200.155 25.6572 199.724 24.4732 199.508 23.2275 199.508 21.9202 199.508 20.5389 199.73 19.2377 200.174 18.0167 200.618 16.7957 201.235 15.735 202.024 14.8347 202.813 13.9344 203.757 13.219 204.854 12.6887 205.952 12.1584 207.167 11.8932 208.499 11.8932ZM189.273 11.8932C190.432 11.8932 191.382 12.1029 192.122 12.5222 192.862 12.9415 193.448 13.515 193.879 14.2427 194.311 14.9704 194.613 15.809 194.786 16.7587 194.959 17.7084 195.045 18.7135 195.045 19.7742L195.045 31.5772 190.975 31.5772 190.975 20.7362C190.975 18.9109 190.685 17.585 190.105 16.7587 189.526 15.9324 188.669 15.5192 187.534 15.5192 186.942 15.5192 186.35 15.6302 185.758 15.8522 185.166 16.0742 184.611 16.3887 184.093 16.7957 183.575 17.2027 183.112 17.6837 182.705 18.2387 182.298 18.7937 181.984 19.4042 181.762 20.0702L181.762 31.5772 177.692 31.5772 177.692 12.2262 181.392 12.2262 181.392 16.1112C182.132 14.8039 183.205 13.774 184.611 13.0217 186.017 12.2694 187.571 11.8932 189.273 11.8932ZM164.203 11.8932C166.867 11.8932 168.939 12.5715 170.419 13.9282 171.899 15.2849 172.639 17.2335 172.639 19.7742L172.639 26.7672C172.639 27.6305 172.997 28.0745 173.712 28.0992L173.712 31.5772C173.317 31.6512 172.978 31.7005 172.694 31.7252 172.411 31.7499 172.133 31.7622 171.862 31.7622 171.073 31.7622 170.462 31.5649 170.03 31.1702 169.599 30.7755 169.334 30.2699 169.235 29.6532L169.124 28.4322C168.261 29.5669 167.194 30.4364 165.923 31.0407 164.653 31.645 163.29 31.9472 161.835 31.9472 160.898 31.9472 160.028 31.793 159.226 31.4847 158.425 31.1764 157.734 30.7509 157.154 30.2082 156.575 29.6655 156.118 29.0242 155.785 28.2842 155.452 27.5442 155.286 26.7425 155.286 25.8792 155.286 24.9665 155.483 24.1402 155.878 23.4002 156.273 22.6602 156.834 22.0189 157.561 21.4762 158.289 20.9335 159.152 20.5142 160.151 20.2182 161.15 19.9222 162.254 19.7742 163.463 19.7742 164.376 19.7742 165.276 19.8544 166.164 20.0147 167.052 20.175 167.854 20.3909 168.569 20.6622L168.569 19.3302C168.569 17.8995 168.162 16.7834 167.348 15.9817 166.534 15.18 165.362 14.7792 163.833 14.7792 162.797 14.7792 161.779 14.9704 160.78 15.3527 159.781 15.735 158.752 16.2839 157.691 16.9992L156.433 14.4092C158.924 12.7319 161.514 11.8932 164.203 11.8932ZM8.35396 8.9702 8.35396 27.9142 13.534 27.9142C14.9153 27.9142 16.1425 27.6737 17.2155 27.1927 18.2885 26.7117 19.1888 26.0457 19.9165 25.1947 20.6441 24.3437 21.193 23.3385 21.563 22.1792 21.933 21.0199 22.118 19.7619 22.118 18.4052 22.118 17.0239 21.9268 15.7535 21.5445 14.5942 21.1621 13.4349 20.601 12.442 19.861 11.6157 19.121 10.7894 18.2206 10.1419 17.16 9.6732 16.0993 9.20453 14.8906 8.9702 13.534 8.9702ZM115.398 5.3072 119.912 5.3072 128.126 26.7672 132.048 17.1102 127.534 5.4182 131.456 5.4182 134.675 14.3352 137.931 5.4182 141.816 5.4182 137.339 17.1102 141.261 26.7672 149.438 5.3072 153.989 5.3072 143.148 31.5772 139.596 31.5772 134.712 19.8112 129.791 31.5772 126.239 31.5772ZM59.583 5.3072 64.134 5.3072 71.386 18.4792 78.712 5.3072 83.263 5.3072 73.458 22.1792 73.458 31.5772 69.314 31.5772 69.314 22.1052ZM4.20996 5.3072 13.534 5.3072C15.6553 5.3072 17.5115 5.65253 19.1025 6.3432 20.6935 7.03386 22.0255 7.9712 23.0985 9.1552 24.1715 10.3392 24.9793 11.7267 25.522 13.3177 26.0646 14.9087 26.336 16.6045 26.336 18.4052 26.336 20.4032 26.0338 22.21 25.4295 23.8257 24.8251 25.4414 23.968 26.8227 22.858 27.9697 21.748 29.1167 20.4036 30.0047 18.825 30.6337 17.2463 31.2627 15.4826 31.5772 13.534 31.5772L4.20996 31.5772ZM223.359 4.4562 227.355 4.4562 227.355 9.0812 226.134 13.4102 223.877 13.4102 224.654 9.0442 223.359 9.0442Z" stroke="#F2F2F2" stroke-linejoin="round" stroke-miterlimit="10" fill="#FFFFFF" fill-rule="evenodd"/></g></g><path d="M113.948 56.2822 117.315 56.2822 117.315 61.0182 113.948 61.0182ZM233.533 51.5462C232.078 51.5462 230.887 51.8607 229.962 52.4897 229.037 53.1187 228.575 53.9512 228.575 54.9872 228.575 55.9492 228.933 56.757 229.648 57.4107 230.363 58.0643 231.276 58.3912 232.386 58.3912 233.373 58.3912 234.304 58.2123 235.179 57.8547 236.055 57.497 236.74 56.9975 237.233 56.3562 237.751 55.9122 238.01 55.4435 238.01 54.9502L238.01 52.3972C237.319 52.1258 236.585 51.9162 235.808 51.7682 235.031 51.6202 234.273 51.5462 233.533 51.5462ZM278.828 44.8122C277.94 44.8122 277.144 45.0033 276.441 45.3857 275.738 45.768 275.14 46.2737 274.647 46.9027 274.154 47.5317 273.771 48.2408 273.5 49.0302 273.229 49.8195 273.093 50.6335 273.093 51.4722 273.093 52.3602 273.247 53.1927 273.555 53.9697 273.864 54.7467 274.289 55.425 274.832 56.0047 275.375 56.5843 276.01 57.0468 276.737 57.3922 277.465 57.7375 278.261 57.9102 279.124 57.9102 279.741 57.9102 280.333 57.8053 280.9 57.5957 281.467 57.386 281.991 57.1023 282.472 56.7447 282.953 56.387 283.367 55.98 283.712 55.5237 284.057 55.0673 284.304 54.5802 284.452 54.0622L284.452 48.9932C284.205 48.3765 283.885 47.8153 283.49 47.3097 283.095 46.804 282.645 46.3662 282.139 45.9962 281.634 45.6262 281.097 45.3363 280.53 45.1267 279.963 44.917 279.395 44.8122 278.828 44.8122ZM154.948 41.6672 159.018 41.6672 159.018 52.6932C159.018 56.1712 160.251 57.9102 162.718 57.9102 163.877 57.9102 164.975 57.5525 166.011 56.8372 167.047 56.1218 167.849 55.0858 168.416 53.7292L168.416 41.6672 172.486 41.6672 172.486 56.2082C172.486 56.6768 172.566 57.0098 172.726 57.2072 172.887 57.4045 173.177 57.5155 173.596 57.5402L173.596 61.0182C173.177 61.0922 172.831 61.1415 172.56 61.1662 172.289 61.1908 172.03 61.2032 171.783 61.2032 171.043 61.2032 170.414 60.9997 169.896 60.5927 169.378 60.1857 169.107 59.6615 169.082 59.0202L169.008 57.0962C168.145 58.5022 167.022 59.569 165.641 60.2967 164.26 61.0243 162.743 61.3882 161.09 61.3882 159.067 61.3882 157.538 60.7283 156.502 59.4087 155.466 58.089 154.948 56.1218 154.948 53.5072ZM109.975 41.4822C110.222 41.4822 110.425 41.4822 110.585 41.4822 110.746 41.4822 110.888 41.4945 111.011 41.5192L111.011 45.1822C109.432 45.2315 108.032 45.5953 106.811 46.2737 105.59 46.952 104.721 47.9202 104.203 49.1782L104.203 61.0182 100.133 61.0182 100.133 41.6672 103.907 41.6672 103.907 45.9962C104.573 44.6642 105.442 43.5973 106.515 42.7957 107.588 41.994 108.742 41.5562 109.975 41.4822ZM307.867 41.3342C309.322 41.3342 310.679 41.5562 311.937 42.0002 313.195 42.4442 314.317 43.0855 315.304 43.9242L313.565 46.3662C311.764 44.9355 309.853 44.2202 307.83 44.2202 306.794 44.2202 305.924 44.436 305.221 44.8677 304.518 45.2993 304.167 45.9838 304.167 46.9212 304.167 47.3158 304.241 47.6488 304.389 47.9202 304.537 48.1915 304.777 48.4258 305.11 48.6232 305.443 48.8205 305.875 48.9993 306.405 49.1597 306.936 49.32 307.596 49.4988 308.385 49.6962 309.692 50.0168 310.821 50.3375 311.77 50.6582 312.72 50.9788 313.503 51.355 314.12 51.7867 314.737 52.2183 315.193 52.724 315.489 53.3037 315.785 53.8833 315.933 54.5802 315.933 55.3942 315.933 57.2442 315.236 58.7057 313.842 59.7787 312.449 60.8517 310.556 61.3882 308.163 61.3882 306.609 61.3882 305.061 61.1353 303.519 60.6297 301.978 60.124 300.652 59.4025 299.542 58.4652L301.17 55.8752C302.329 56.7138 303.476 57.349 304.611 57.7807 305.746 58.2123 306.905 58.4282 308.089 58.4282 309.298 58.4282 310.253 58.1938 310.956 57.7252 311.659 57.2565 312.011 56.5905 312.011 55.7272 312.011 54.9132 311.616 54.3212 310.827 53.9512 310.038 53.5812 308.804 53.1742 307.127 52.7302 305.918 52.4095 304.882 52.1012 304.019 51.8052 303.156 51.5092 302.453 51.1638 301.91 50.7692 301.367 50.3745 300.973 49.9182 300.726 49.4002 300.479 48.8822 300.356 48.2532 300.356 47.5132 300.356 46.5265 300.547 45.6508 300.929 44.8862 301.312 44.1215 301.842 43.474 302.52 42.9437 303.199 42.4133 303.994 42.0125 304.907 41.7412 305.82 41.4698 306.806 41.3342 307.867 41.3342ZM277.94 41.3342C279.494 41.3342 280.857 41.7042 282.028 42.4442 283.2 43.1842 284.168 44.1462 284.933 45.3302L284.933 41.6672 288.522 41.6672 288.522 60.4632C288.522 61.8692 288.263 63.1148 287.745 64.2002 287.227 65.2855 286.505 66.2043 285.58 66.9567 284.655 67.709 283.564 68.2825 282.306 68.6772 281.048 69.0718 279.691 69.2692 278.236 69.2692 276.09 69.2692 274.308 68.9053 272.889 68.1777 271.471 67.45 270.281 66.4325 269.319 65.1252L271.613 62.9792C272.353 64.0152 273.309 64.8045 274.48 65.3472 275.652 65.8898 276.904 66.1612 278.236 66.1612 279.075 66.1612 279.87 66.0502 280.622 65.8282 281.375 65.6062 282.035 65.2608 282.602 64.7922 283.169 64.3235 283.619 63.7315 283.952 63.0162 284.285 62.3008 284.452 61.4498 284.452 60.4632L284.452 57.5032C283.761 58.6872 282.812 59.5998 281.603 60.2412 280.394 60.8825 279.124 61.2032 277.792 61.2032 276.485 61.2032 275.288 60.938 274.203 60.4077 273.118 59.8773 272.186 59.1558 271.409 58.2432 270.632 57.3305 270.028 56.2822 269.596 55.0982 269.165 53.9142 268.949 52.6685 268.949 51.3612 268.949 49.9798 269.171 48.6787 269.615 47.4577 270.059 46.2367 270.676 45.176 271.465 44.2757 272.254 43.3753 273.198 42.66 274.295 42.1297 275.393 41.5993 276.608 41.3342 277.94 41.3342ZM258.714 41.3342C259.873 41.3342 260.823 41.5438 261.563 41.9632 262.303 42.3825 262.889 42.956 263.32 43.6837 263.752 44.4113 264.054 45.25 264.227 46.1997 264.4 47.1493 264.486 48.1545 264.486 49.2152L264.486 61.0182 260.416 61.0182 260.416 50.1772C260.416 48.3518 260.126 47.026 259.546 46.1997 258.967 45.3733 258.11 44.9602 256.975 44.9602 256.383 44.9602 255.791 45.0712 255.199 45.2932 254.607 45.5152 254.052 45.8297 253.534 46.2367 253.016 46.6437 252.553 47.1247 252.146 47.6797 251.739 48.2347 251.425 48.8452 251.203 49.5112L251.203 61.0182 247.133 61.0182 247.133 41.6672 250.833 41.6672 250.833 45.5522C251.573 44.2448 252.646 43.215 254.052 42.4627 255.458 41.7103 257.012 41.3342 258.714 41.3342ZM233.644 41.3342C236.308 41.3342 238.38 42.0125 239.86 43.3692 241.34 44.7258 242.08 46.6745 242.08 49.2152L242.08 56.2082C242.08 57.0715 242.438 57.5155 243.153 57.5402L243.153 61.0182C242.758 61.0922 242.419 61.1415 242.135 61.1662 241.852 61.1908 241.574 61.2032 241.303 61.2032 240.514 61.2032 239.903 61.0058 239.471 60.6112 239.04 60.2165 238.775 59.7108 238.676 59.0942L238.565 57.8732C237.702 59.0078 236.635 59.8773 235.364 60.4817 234.094 61.086 232.731 61.3882 231.276 61.3882 230.339 61.3882 229.469 61.234 228.667 60.9257 227.866 60.6173 227.175 60.1918 226.595 59.6492 226.016 59.1065 225.559 58.4652 225.226 57.7252 224.893 56.9852 224.727 56.1835 224.727 55.3202 224.727 54.4075 224.924 53.5812 225.319 52.8412 225.714 52.1012 226.275 51.4598 227.002 50.9172 227.73 50.3745 228.593 49.9552 229.592 49.6592 230.591 49.3632 231.695 49.2152 232.904 49.2152 233.817 49.2152 234.717 49.2953 235.605 49.4557 236.493 49.616 237.295 49.8318 238.01 50.1032L238.01 48.7712C238.01 47.3405 237.603 46.2243 236.789 45.4227 235.975 44.621 234.803 44.2202 233.274 44.2202 232.238 44.2202 231.22 44.4113 230.221 44.7937 229.222 45.176 228.193 45.7248 227.132 46.4402L225.874 43.8502C228.365 42.1728 230.955 41.3342 233.644 41.3342ZM77.7949 38.4112 77.7949 57.3552 82.9749 57.3552C84.3563 57.3552 85.5834 57.1147 86.6564 56.6337 87.7294 56.1527 88.6298 55.4867 89.3574 54.6357 90.0851 53.7847 90.6339 52.7795 91.0039 51.6202 91.3739 50.4608 91.5589 49.2028 91.5589 47.8462 91.5589 46.4648 91.3678 45.1945 90.9854 44.0352 90.6031 42.8758 90.0419 41.883 89.3019 41.0567 88.5619 40.2303 87.6616 39.5828 86.6009 39.1142 85.5403 38.6455 84.3316 38.4112 82.9749 38.4112ZM184.839 34.7482 189.353 34.7482 197.567 56.2082 201.489 46.5512 196.975 34.8592 200.897 34.8592 204.116 43.7762 207.372 34.8592 211.257 34.8592 206.78 46.5512 210.702 56.2082 218.879 34.7482 223.43 34.7482 212.589 61.0182 209.037 61.0182 204.153 49.2522 199.232 61.0182 195.68 61.0182ZM129.024 34.7482 133.575 34.7482 140.827 47.9202 148.153 34.7482 152.704 34.7482 142.899 51.6202 142.899 61.0182 138.755 61.0182 138.755 51.5462ZM73.6509 34.7482 82.9749 34.7482C85.0963 34.7482 86.9524 35.0935 88.5434 35.7842 90.1344 36.4748 91.4664 37.4122 92.5394 38.5962 93.6124 39.7802 94.4203 41.1677 94.9629 42.7587 95.5056 44.3497 95.7769 46.0455 95.7769 47.8462 95.7769 49.8442 95.4748 51.651 94.8704 53.2667 94.2661 54.8823 93.4089 56.2637 92.2989 57.4107 91.1889 58.5577 89.8446 59.4457 88.2659 60.0747 86.6873 60.7037 84.9236 61.0182 82.9749 61.0182L73.6509 61.0182ZM292.8 33.8972 296.796 33.8972 296.796 38.5222 295.575 42.8512 293.318 42.8512 294.095 38.4852 292.8 38.4852Z" stroke="#F2F2F2" stroke-linejoin="round" stroke-miterlimit="10" fill="#FFFFFF" fill-rule="evenodd"/><text fill="#000000" fill-opacity="0" font-family="Arial,Arial_MSFontService,sans-serif" font-size="35.372" x="73.6509" y="64.8477">Dr. Yu Wang’s</text><g clip-path="url(#clip5)" filter="url(#fx1)" transform="translate(178 109)"><g clip-path="url(#clip6)"><path d="M502.243 45.4769C499.096 45.4769 496.523 46.1569 494.523 47.5169 492.523 48.8769 491.523 50.6769 491.523 52.9169 491.523 54.9969 492.296 56.7436 493.843 58.1569 495.39 59.5703 497.363 60.2769 499.763 60.2769 501.896 60.2769 503.91 59.8903 505.803 59.1169 507.696 58.3436 509.176 57.2636 510.243 55.8769 511.363 54.9169 511.923 53.9036 511.923 52.8369L511.923 47.3169C510.43 46.7303 508.843 46.2769 507.163 45.9569 505.483 45.6369 503.843 45.4769 502.243 45.4769ZM92.243 45.4769C89.0964 45.4769 86.523 46.1569 84.523 47.5169 82.523 48.8769 81.523 50.6769 81.523 52.9169 81.523 54.9969 82.2964 56.7436 83.843 58.1569 85.3897 59.5703 87.363 60.2769 89.763 60.2769 91.8964 60.2769 93.9097 59.8903 95.803 59.1169 97.6964 58.3436 99.1764 57.2636 100.243 55.8769 101.363 54.9169 101.923 53.9036 101.923 52.8369L101.923 47.3169C100.43 46.7303 98.843 46.2769 97.163 45.9569 95.483 45.6369 93.843 45.4769 92.243 45.4769ZM552.123 30.9169C549.403 30.9169 546.99 31.7969 544.883 33.5569 542.776 35.3169 541.163 37.4503 540.043 39.9569L540.043 50.9969C540.363 52.2236 540.923 53.3303 541.723 54.3169 542.523 55.3036 543.456 56.1703 544.523 56.9169 545.59 57.6636 546.736 58.2369 547.963 58.6369 549.19 59.0369 550.363 59.2369 551.483 59.2369 553.403 59.2369 555.163 58.8503 556.763 58.0769 558.363 57.3036 559.736 56.2769 560.883 54.9969 562.03 53.7169 562.923 52.2369 563.563 50.5569 564.203 48.8769 564.523 47.1036 564.523 45.2369 564.523 43.3703 564.216 41.5703 563.603 39.8369 562.99 38.1036 562.136 36.5836 561.043 35.2769 559.95 33.9703 558.643 32.9169 557.123 32.1169 555.603 31.3169 553.936 30.9169 552.123 30.9169ZM215.043 30.9169C213.336 30.9169 211.723 31.2903 210.203 32.0369 208.683 32.7836 207.363 33.7969 206.243 35.0769 205.123 36.3569 204.23 37.8636 203.563 39.5969 202.896 41.3303 202.563 43.1836 202.563 45.1569 202.563 47.1836 202.883 49.0503 203.523 50.7569 204.163 52.4636 205.043 53.9436 206.163 55.1969 207.283 56.4503 208.603 57.4369 210.123 58.1569 211.643 58.8769 213.283 59.2369 215.043 59.2369 216.803 59.2369 218.443 58.8769 219.963 58.1569 221.483 57.4369 222.803 56.4369 223.923 55.1569 225.043 53.8769 225.923 52.3836 226.563 50.6769 227.203 48.9703 227.523 47.1036 227.523 45.0769 227.523 43.1036 227.203 41.2503 226.563 39.5169 225.923 37.7836 225.043 36.2769 223.923 34.9969 222.803 33.7169 221.483 32.7169 219.963 31.9969 218.443 31.2769 216.803 30.9169 215.043 30.9169ZM420.243 24.1169 429.043 24.1169 429.043 65.9569 420.243 65.9569ZM319.523 23.7169C320.056 23.7169 320.496 23.7169 320.843 23.7169 321.19 23.7169 321.496 23.7436 321.763 23.7969L321.763 31.7169C318.35 31.8236 315.323 32.6103 312.683 34.0769 310.043 35.5436 308.163 37.6369 307.043 40.3569L307.043 65.9569 298.243 65.9569 298.243 24.1169 306.403 24.1169 306.403 33.4769C307.843 30.5969 309.723 28.2903 312.043 26.5569 314.363 24.8236 316.856 23.8769 319.523 23.7169ZM187.523 23.7169C188.056 23.7169 188.496 23.7169 188.843 23.7169 189.19 23.7169 189.496 23.7436 189.763 23.7969L189.763 31.7169C186.35 31.8236 183.323 32.6103 180.683 34.0769 178.043 35.5436 176.163 37.6369 175.043 40.3569L175.043 65.9569 166.243 65.9569 166.243 24.1169 174.403 24.1169 174.403 33.4769C175.843 30.5969 177.723 28.2903 180.043 26.5569 182.363 24.8236 184.856 23.8769 187.523 23.7169ZM502.483 23.3969C508.243 23.3969 512.723 24.8636 515.923 27.7969 519.123 30.7303 520.723 34.9436 520.723 40.4369L520.723 55.5569C520.723 57.4236 521.496 58.3836 523.043 58.4369L523.043 65.9569C522.19 66.1169 521.456 66.2236 520.843 66.2769 520.23 66.3303 519.63 66.3569 519.043 66.3569 517.336 66.3569 516.016 65.9303 515.083 65.0769 514.15 64.2236 513.576 63.1303 513.363 61.7969L513.123 59.1569C511.256 61.6103 508.95 63.4903 506.203 64.7969 503.456 66.1036 500.51 66.7569 497.363 66.7569 495.336 66.7569 493.456 66.4236 491.723 65.7569 489.99 65.0903 488.496 64.1703 487.243 62.9969 485.99 61.8236 485.003 60.4369 484.283 58.8369 483.563 57.2369 483.203 55.5036 483.203 53.6369 483.203 51.6636 483.63 49.8769 484.483 48.2769 485.336 46.6769 486.55 45.2903 488.123 44.1169 489.696 42.9436 491.563 42.0369 493.723 41.3969 495.883 40.7569 498.27 40.4369 500.883 40.4369 502.856 40.4369 504.803 40.6103 506.723 40.9569 508.643 41.3036 510.376 41.7703 511.923 42.3569L511.923 39.4769C511.923 36.3836 511.043 33.9703 509.283 32.2369 507.523 30.5036 504.99 29.6369 501.683 29.6369 499.443 29.6369 497.243 30.0503 495.083 30.8769 492.923 31.7036 490.696 32.8903 488.403 34.4369L485.683 28.8369C491.07 25.2103 496.67 23.3969 502.483 23.3969ZM347.203 23.3969C351.523 23.3969 355.243 24.3436 358.363 26.2369 361.483 28.1303 363.816 30.6503 365.363 33.7969L356.803 36.5169C355.79 34.7569 354.43 33.3836 352.723 32.3969 351.016 31.4103 349.123 30.9169 347.043 30.9169 345.283 30.9169 343.643 31.2636 342.123 31.9569 340.603 32.6503 339.283 33.6236 338.163 34.8769 337.043 36.1303 336.163 37.6103 335.523 39.3169 334.883 41.0236 334.563 42.9169 334.563 44.9969 334.563 47.0236 334.896 48.9036 335.563 50.6369 336.23 52.3703 337.136 53.8769 338.283 55.1569 339.43 56.4369 340.763 57.4369 342.283 58.1569 343.803 58.8769 345.416 59.2369 347.123 59.2369 348.19 59.2369 349.256 59.0903 350.323 58.7969 351.39 58.5036 352.363 58.0903 353.243 57.5569 354.123 57.0236 354.896 56.4103 355.563 55.7169 356.23 55.0236 356.723 54.2769 357.043 53.4769L365.683 56.0369C364.296 59.1836 361.976 61.7569 358.723 63.7569 355.47 65.7569 351.63 66.7569 347.203 66.7569 343.95 66.7569 340.99 66.1703 338.323 64.9969 335.656 63.8236 333.376 62.2369 331.483 60.2369 329.59 58.2369 328.123 55.9303 327.083 53.3169 326.043 50.7036 325.523 47.9303 325.523 44.9969 325.523 42.0636 326.03 39.2903 327.043 36.6769 328.056 34.0636 329.51 31.7703 331.403 29.7969 333.296 27.8236 335.576 26.2636 338.243 25.1169 340.91 23.9703 343.896 23.3969 347.203 23.3969ZM215.043 23.3969C218.296 23.3969 221.243 23.9836 223.883 25.1569 226.523 26.3303 228.79 27.9036 230.683 29.8769 232.576 31.8503 234.03 34.1569 235.043 36.7969 236.056 39.4369 236.563 42.1969 236.563 45.0769 236.563 47.9569 236.056 50.7169 235.043 53.3569 234.03 55.9969 232.576 58.3036 230.683 60.2769 228.79 62.2503 226.523 63.8236 223.883 64.9969 221.243 66.1703 218.296 66.7569 215.043 66.7569 211.736 66.7569 208.763 66.1703 206.123 64.9969 203.483 63.8236 201.23 62.2503 199.363 60.2769 197.496 58.3036 196.056 55.9969 195.043 53.3569 194.03 50.7169 193.523 47.9569 193.523 45.0769 193.523 42.1969 194.03 39.4369 195.043 36.7969 196.056 34.1569 197.51 31.8503 199.403 29.8769 201.296 27.9036 203.563 26.3303 206.203 25.1569 208.843 23.9836 211.79 23.3969 215.043 23.3969ZM140.203 23.3969C144.523 23.3969 148.243 24.3436 151.363 26.2369 154.483 28.1303 156.816 30.6503 158.363 33.7969L149.803 36.5169C148.79 34.7569 147.43 33.3836 145.723 32.3969 144.016 31.4103 142.123 30.9169 140.043 30.9169 138.283 30.9169 136.643 31.2636 135.123 31.9569 133.603 32.6503 132.283 33.6236 131.163 34.8769 130.043 36.1303 129.163 37.6103 128.523 39.3169 127.883 41.0236 127.563 42.9169 127.563 44.9969 127.563 47.0236 127.896 48.9036 128.563 50.6369 129.23 52.3703 130.136 53.8769 131.283 55.1569 132.43 56.4369 133.763 57.4369 135.283 58.1569 136.803 58.8769 138.416 59.2369 140.123 59.2369 141.19 59.2369 142.256 59.0903 143.323 58.7969 144.39 58.5036 145.363 58.0903 146.243 57.5569 147.123 57.0236 147.896 56.4103 148.563 55.7169 149.23 55.0236 149.723 54.2769 150.043 53.4769L158.683 56.0369C157.296 59.1836 154.976 61.7569 151.723 63.7569 148.47 65.7569 144.63 66.7569 140.203 66.7569 136.95 66.7569 133.99 66.1703 131.323 64.9969 128.656 63.8236 126.376 62.2369 124.483 60.2369 122.59 58.2369 121.123 55.9303 120.083 53.3169 119.043 50.7036 118.523 47.9303 118.523 44.9969 118.523 42.0636 119.03 39.2903 120.043 36.6769 121.056 34.0636 122.51 31.7703 124.403 29.7969 126.296 27.8236 128.576 26.2636 131.243 25.1169 133.91 23.9703 136.896 23.3969 140.203 23.3969ZM92.483 23.3969C98.243 23.3969 102.723 24.8636 105.923 27.7969 109.123 30.7303 110.723 34.9436 110.723 40.4369L110.723 55.5569C110.723 57.4236 111.496 58.3836 113.043 58.4369L113.043 65.9569C112.19 66.1169 111.456 66.2236 110.843 66.2769 110.23 66.3303 109.63 66.3569 109.043 66.3569 107.336 66.3569 106.016 65.9303 105.083 65.0769 104.15 64.2236 103.576 63.1303 103.363 61.7969L103.123 59.1569C101.256 61.6103 98.9497 63.4903 96.203 64.7969 93.4564 66.1036 90.5097 66.7569 87.363 66.7569 85.3364 66.7569 83.4564 66.4236 81.723 65.7569 79.9897 65.0903 78.4964 64.1703 77.243 62.9969 75.9897 61.8236 75.003 60.4369 74.283 58.8369 73.563 57.2369 73.203 55.5036 73.203 53.6369 73.203 51.6636 73.6297 49.8769 74.483 48.2769 75.3364 46.6769 76.5497 45.2903 78.123 44.1169 79.6964 42.9436 81.563 42.0369 83.723 41.3969 85.883 40.7569 88.2697 40.4369 90.883 40.4369 92.8564 40.4369 94.803 40.6103 96.723 40.9569 98.643 41.3036 100.376 41.7703 101.923 42.3569L101.923 39.4769C101.923 36.3836 101.043 33.9703 99.283 32.2369 97.523 30.5036 94.9897 29.6369 91.683 29.6369 89.443 29.6369 87.243 30.0503 85.083 30.8769 82.923 31.7036 80.6964 32.8903 78.403 34.4369L75.683 28.8369C81.0697 25.2103 86.6697 23.3969 92.483 23.3969ZM266.003 19.4769 256.563 43.8769 275.123 43.8769ZM441.363 9.15694 450.323 9.15694 450.323 58.0369 480.803 58.0369 480.803 65.9569 441.363 65.9569ZM262.083 9.15694 269.923 9.15694 292.323 65.9569 282.883 65.9569 276.883 50.5169 254.963 50.5169 249.043 65.9569 239.523 65.9569ZM7.36304 9.15694 16.963 9.15694 35.763 43.8769 54.563 9.15694 64.163 9.15694 64.163 65.9569 55.123 65.9569 55.123 25.0769 38.243 56.0369 33.283 56.0369 16.323 25.0769 16.323 65.9569 7.36304 65.9569ZM531.243 7.55694 540.043 7.55694 540.043 32.0369C541.696 29.3703 543.763 27.2636 546.243 25.7169 548.723 24.1703 551.643 23.3969 555.003 23.3969 557.776 23.3969 560.31 23.9969 562.603 25.1969 564.896 26.3969 566.856 27.9969 568.483 29.9969 570.11 31.9969 571.363 34.3169 572.243 36.9569 573.123 39.5969 573.563 42.3569 573.563 45.2369 573.563 48.2236 573.056 51.0236 572.043 53.6369 571.03 56.2503 569.643 58.5303 567.883 60.4769 566.123 62.4236 564.03 63.9569 561.603 65.0769 559.176 66.1969 556.576 66.7569 553.803 66.7569 550.603 66.7569 547.71 65.9969 545.123 64.4769 542.536 62.9569 540.496 60.9169 539.003 58.3569L539.003 65.9569 531.243 65.9569ZM420.243 7.55694 429.043 7.55694 429.043 17.2369 420.243 17.2369ZM372.243 7.55694 381.043 7.55694 381.043 32.5169C382.643 29.6369 384.816 27.3969 387.563 25.7969 390.31 24.1969 393.31 23.3969 396.563 23.3969 399.176 23.3969 401.323 23.8636 403.003 24.7969 404.683 25.7303 406.03 26.9703 407.043 28.5169 408.056 30.0636 408.763 31.8636 409.163 33.9169 409.563 35.9703 409.763 38.1436 409.763 40.4369L409.763 65.9569 400.963 65.9569 400.963 42.5169C400.963 38.6769 400.283 35.8369 398.923 33.9969 397.563 32.1569 395.603 31.2369 393.043 31.2369 391.816 31.2369 390.59 31.4769 389.363 31.9569 388.136 32.4369 386.976 33.1169 385.883 33.9969 384.79 34.8769 383.816 35.9169 382.963 37.1169 382.11 38.3169 381.47 39.6369 381.043 41.0769L381.043 65.9569 372.243 65.9569Z" stroke="#F2F2F2" stroke-linejoin="round" stroke-miterlimit="10" fill="#FFFFFF" fill-rule="evenodd"/></g></g><path d="M677.304 151.538C674.158 151.538 671.584 152.218 669.584 153.578 667.584 154.938 666.584 156.738 666.584 158.978 666.584 161.058 667.358 162.805 668.904 164.218 670.451 165.631 672.424 166.338 674.824 166.338 676.958 166.338 678.971 165.951 680.864 165.178 682.758 164.405 684.238 163.325 685.304 161.938 686.424 160.978 686.984 159.965 686.984 158.898L686.984 153.378C685.491 152.791 683.904 152.338 682.224 152.018 680.544 151.698 678.904 151.538 677.304 151.538ZM267.304 151.538C264.158 151.538 261.584 152.218 259.584 153.578 257.584 154.938 256.584 156.738 256.584 158.978 256.584 161.058 257.358 162.805 258.904 164.218 260.451 165.631 262.424 166.338 264.824 166.338 266.958 166.338 268.971 165.951 270.864 165.178 272.758 164.405 274.238 163.325 275.304 161.938 276.424 160.978 276.984 159.965 276.984 158.898L276.984 153.378C275.491 152.791 273.904 152.338 272.224 152.018 270.544 151.698 268.904 151.538 267.304 151.538ZM727.184 136.978C724.464 136.978 722.051 137.858 719.944 139.618 717.838 141.378 716.224 143.511 715.104 146.018L715.104 157.058C715.424 158.285 715.984 159.391 716.784 160.378 717.584 161.365 718.518 162.231 719.584 162.978 720.651 163.725 721.798 164.298 723.024 164.698 724.251 165.098 725.424 165.298 726.544 165.298 728.464 165.298 730.224 164.911 731.824 164.138 733.424 163.365 734.798 162.338 735.944 161.058 737.091 159.778 737.984 158.298 738.624 156.618 739.264 154.938 739.584 153.165 739.584 151.298 739.584 149.431 739.278 147.631 738.664 145.898 738.051 144.165 737.198 142.645 736.104 141.338 735.011 140.031 733.704 138.978 732.184 138.178 730.664 137.378 728.998 136.978 727.184 136.978ZM390.104 136.978C388.398 136.978 386.784 137.351 385.264 138.098 383.744 138.845 382.424 139.858 381.304 141.138 380.184 142.418 379.291 143.925 378.624 145.658 377.958 147.391 377.624 149.245 377.624 151.218 377.624 153.245 377.944 155.111 378.584 156.818 379.224 158.525 380.104 160.005 381.224 161.258 382.344 162.511 383.664 163.498 385.184 164.218 386.704 164.938 388.344 165.298 390.104 165.298 391.864 165.298 393.504 164.938 395.024 164.218 396.544 163.498 397.864 162.498 398.984 161.218 400.104 159.938 400.984 158.445 401.624 156.738 402.264 155.031 402.584 153.165 402.584 151.138 402.584 149.165 402.264 147.311 401.624 145.578 400.984 143.845 400.104 142.338 398.984 141.058 397.864 139.778 396.544 138.778 395.024 138.058 393.504 137.338 391.864 136.978 390.104 136.978ZM595.304 130.178 604.104 130.178 604.104 172.018 595.304 172.018ZM494.584 129.778C495.118 129.778 495.558 129.778 495.904 129.778 496.251 129.778 496.558 129.805 496.824 129.858L496.824 137.778C493.411 137.885 490.384 138.671 487.744 140.138 485.104 141.605 483.224 143.698 482.104 146.418L482.104 172.018 473.304 172.018 473.304 130.178 481.464 130.178 481.464 139.538C482.904 136.658 484.784 134.351 487.104 132.618 489.424 130.885 491.918 129.938 494.584 129.778ZM362.584 129.778C363.118 129.778 363.558 129.778 363.904 129.778 364.251 129.778 364.558 129.805 364.824 129.858L364.824 137.778C361.411 137.885 358.384 138.671 355.744 140.138 353.104 141.605 351.224 143.698 350.104 146.418L350.104 172.018 341.304 172.018 341.304 130.178 349.464 130.178 349.464 139.538C350.904 136.658 352.784 134.351 355.104 132.618 357.424 130.885 359.918 129.938 362.584 129.778ZM677.544 129.458C683.304 129.458 687.784 130.925 690.984 133.858 694.184 136.791 695.784 141.005 695.784 146.498L695.784 161.618C695.784 163.485 696.558 164.445 698.104 164.498L698.104 172.018C697.251 172.178 696.518 172.285 695.904 172.338 695.291 172.391 694.691 172.418 694.104 172.418 692.398 172.418 691.078 171.991 690.144 171.138 689.211 170.285 688.638 169.191 688.424 167.858L688.184 165.218C686.318 167.671 684.011 169.551 681.264 170.858 678.518 172.165 675.571 172.818 672.424 172.818 670.398 172.818 668.518 172.485 666.784 171.818 665.051 171.151 663.558 170.231 662.304 169.058 661.051 167.885 660.064 166.498 659.344 164.898 658.624 163.298 658.264 161.565 658.264 159.698 658.264 157.725 658.691 155.938 659.544 154.338 660.398 152.738 661.611 151.351 663.184 150.178 664.758 149.005 666.624 148.098 668.784 147.458 670.944 146.818 673.331 146.498 675.944 146.498 677.918 146.498 679.864 146.671 681.784 147.018 683.704 147.365 685.438 147.831 686.984 148.418L686.984 145.538C686.984 142.445 686.104 140.031 684.344 138.298 682.584 136.565 680.051 135.698 676.744 135.698 674.504 135.698 672.304 136.111 670.144 136.938 667.984 137.765 665.758 138.951 663.464 140.498L660.744 134.898C666.131 131.271 671.731 129.458 677.544 129.458ZM522.264 129.458C526.584 129.458 530.304 130.405 533.424 132.298 536.544 134.191 538.878 136.711 540.424 139.858L531.864 142.578C530.851 140.818 529.491 139.445 527.784 138.458 526.078 137.471 524.184 136.978 522.104 136.978 520.344 136.978 518.704 137.325 517.184 138.018 515.664 138.711 514.344 139.685 513.224 140.938 512.104 142.191 511.224 143.671 510.584 145.378 509.944 147.085 509.624 148.978 509.624 151.058 509.624 153.085 509.958 154.965 510.624 156.698 511.291 158.431 512.198 159.938 513.344 161.218 514.491 162.498 515.824 163.498 517.344 164.218 518.864 164.938 520.478 165.298 522.184 165.298 523.251 165.298 524.318 165.151 525.384 164.858 526.451 164.565 527.424 164.151 528.304 163.618 529.184 163.085 529.958 162.471 530.624 161.778 531.291 161.085 531.784 160.338 532.104 159.538L540.744 162.098C539.358 165.245 537.038 167.818 533.784 169.818 530.531 171.818 526.691 172.818 522.264 172.818 519.011 172.818 516.051 172.231 513.384 171.058 510.718 169.885 508.438 168.298 506.544 166.298 504.651 164.298 503.184 161.991 502.144 159.378 501.104 156.765 500.584 153.991 500.584 151.058 500.584 148.125 501.091 145.351 502.104 142.738 503.118 140.125 504.571 137.831 506.464 135.858 508.358 133.885 510.638 132.325 513.304 131.178 515.971 130.031 518.958 129.458 522.264 129.458ZM390.104 129.458C393.358 129.458 396.304 130.045 398.944 131.218 401.584 132.391 403.851 133.965 405.744 135.938 407.638 137.911 409.091 140.218 410.104 142.858 411.118 145.498 411.624 148.258 411.624 151.138 411.624 154.018 411.118 156.778 410.104 159.418 409.091 162.058 407.638 164.365 405.744 166.338 403.851 168.311 401.584 169.885 398.944 171.058 396.304 172.231 393.358 172.818 390.104 172.818 386.798 172.818 383.824 172.231 381.184 171.058 378.544 169.885 376.291 168.311 374.424 166.338 372.558 164.365 371.118 162.058 370.104 159.418 369.091 156.778 368.584 154.018 368.584 151.138 368.584 148.258 369.091 145.498 370.104 142.858 371.118 140.218 372.571 137.911 374.464 135.938 376.358 133.965 378.624 132.391 381.264 131.218 383.904 130.045 386.851 129.458 390.104 129.458ZM315.264 129.458C319.584 129.458 323.304 130.405 326.424 132.298 329.544 134.191 331.878 136.711 333.424 139.858L324.864 142.578C323.851 140.818 322.491 139.445 320.784 138.458 319.078 137.471 317.184 136.978 315.104 136.978 313.344 136.978 311.704 137.325 310.184 138.018 308.664 138.711 307.344 139.685 306.224 140.938 305.104 142.191 304.224 143.671 303.584 145.378 302.944 147.085 302.624 148.978 302.624 151.058 302.624 153.085 302.958 154.965 303.624 156.698 304.291 158.431 305.198 159.938 306.344 161.218 307.491 162.498 308.824 163.498 310.344 164.218 311.864 164.938 313.478 165.298 315.184 165.298 316.251 165.298 317.318 165.151 318.384 164.858 319.451 164.565 320.424 164.151 321.304 163.618 322.184 163.085 322.958 162.471 323.624 161.778 324.291 161.085 324.784 160.338 325.104 159.538L333.744 162.098C332.358 165.245 330.038 167.818 326.784 169.818 323.531 171.818 319.691 172.818 315.264 172.818 312.011 172.818 309.051 172.231 306.384 171.058 303.718 169.885 301.438 168.298 299.544 166.298 297.651 164.298 296.184 161.991 295.144 159.378 294.104 156.765 293.584 153.991 293.584 151.058 293.584 148.125 294.091 145.351 295.104 142.738 296.118 140.125 297.571 137.831 299.464 135.858 301.358 133.885 303.638 132.325 306.304 131.178 308.971 130.031 311.958 129.458 315.264 129.458ZM267.544 129.458C273.304 129.458 277.784 130.925 280.984 133.858 284.184 136.791 285.784 141.005 285.784 146.498L285.784 161.618C285.784 163.485 286.558 164.445 288.104 164.498L288.104 172.018C287.251 172.178 286.518 172.285 285.904 172.338 285.291 172.391 284.691 172.418 284.104 172.418 282.398 172.418 281.078 171.991 280.144 171.138 279.211 170.285 278.638 169.191 278.424 167.858L278.184 165.218C276.318 167.671 274.011 169.551 271.264 170.858 268.518 172.165 265.571 172.818 262.424 172.818 260.398 172.818 258.518 172.485 256.784 171.818 255.051 171.151 253.558 170.231 252.304 169.058 251.051 167.885 250.064 166.498 249.344 164.898 248.624 163.298 248.264 161.565 248.264 159.698 248.264 157.725 248.691 155.938 249.544 154.338 250.398 152.738 251.611 151.351 253.184 150.178 254.758 149.005 256.624 148.098 258.784 147.458 260.944 146.818 263.331 146.498 265.944 146.498 267.918 146.498 269.864 146.671 271.784 147.018 273.704 147.365 275.438 147.831 276.984 148.418L276.984 145.538C276.984 142.445 276.104 140.031 274.344 138.298 272.584 136.565 270.051 135.698 266.744 135.698 264.504 135.698 262.304 136.111 260.144 136.938 257.984 137.765 255.758 138.951 253.464 140.498L250.744 134.898C256.131 131.271 261.731 129.458 267.544 129.458ZM441.064 125.538 431.624 149.938 450.184 149.938ZM616.424 115.218 625.384 115.218 625.384 164.098 655.864 164.098 655.864 172.018 616.424 172.018ZM437.144 115.218 444.984 115.218 467.384 172.018 457.944 172.018 451.944 156.578 430.024 156.578 424.104 172.018 414.584 172.018ZM182.424 115.218 192.024 115.218 210.824 149.938 229.624 115.218 239.224 115.218 239.224 172.018 230.184 172.018 230.184 131.138 213.304 162.098 208.344 162.098 191.384 131.138 191.384 172.018 182.424 172.018ZM706.304 113.618 715.104 113.618 715.104 138.098C716.758 135.431 718.824 133.325 721.304 131.778 723.784 130.231 726.704 129.458 730.064 129.458 732.838 129.458 735.371 130.058 737.664 131.258 739.958 132.458 741.918 134.058 743.544 136.058 745.171 138.058 746.424 140.378 747.304 143.018 748.184 145.658 748.624 148.418 748.624 151.298 748.624 154.285 748.118 157.085 747.104 159.698 746.091 162.311 744.704 164.591 742.944 166.538 741.184 168.485 739.091 170.018 736.664 171.138 734.238 172.258 731.638 172.818 728.864 172.818 725.664 172.818 722.771 172.058 720.184 170.538 717.598 169.018 715.558 166.978 714.064 164.418L714.064 172.018 706.304 172.018ZM595.304 113.618 604.104 113.618 604.104 123.298 595.304 123.298ZM547.304 113.618 556.104 113.618 556.104 138.578C557.704 135.698 559.878 133.458 562.624 131.858 565.371 130.258 568.371 129.458 571.624 129.458 574.238 129.458 576.384 129.925 578.064 130.858 579.744 131.791 581.091 133.031 582.104 134.578 583.118 136.125 583.824 137.925 584.224 139.978 584.624 142.031 584.824 144.205 584.824 146.498L584.824 172.018 576.024 172.018 576.024 148.578C576.024 144.738 575.344 141.898 573.984 140.058 572.624 138.218 570.664 137.298 568.104 137.298 566.878 137.298 565.651 137.538 564.424 138.018 563.198 138.498 562.038 139.178 560.944 140.058 559.851 140.938 558.878 141.978 558.024 143.178 557.171 144.378 556.531 145.698 556.104 147.138L556.104 172.018 547.304 172.018Z" stroke="#F2F2F2" stroke-linejoin="round" stroke-miterlimit="10" fill="#FFFFFF" fill-rule="evenodd"/><text fill="#000000" fill-opacity="0" font-family="Arial,Arial_MSFontService,sans-serif" font-size="59.2" x="182.424" y="165.418">MacroArchiLab</text></g></svg>