<?xml version="1.0" encoding="UTF-8" standalone="no"?>
<svg
   xmlns:dc="http://purl.org/dc/elements/1.1/"
   xmlns:cc="http://creativecommons.org/ns#"
   xmlns:rdf="http://www.w3.org/1999/02/22-rdf-syntax-ns#"
   xmlns:svg="http://www.w3.org/2000/svg"
   xmlns="http://www.w3.org/2000/svg"
   viewBox="0 0 460.79999 172.8"
   height="172.8"
   width="460.79999"
   xml:space="preserve"
   id="svg2"
   version="1.1"><metadata
     id="metadata8"><rdf:RDF><cc:Work
         rdf:about=""><dc:format>image/svg+xml</dc:format><dc:type
           rdf:resource="http://purl.org/dc/dcmitype/StillImage" /></cc:Work></rdf:RDF></metadata><defs
     id="defs6"><clipPath
       id="clipPath18"
       clipPathUnits="userSpaceOnUse"><path
         style="clip-rule:evenodd"
         id="path16"
         d="M 0,4.5776e-5 H 345.6 V 129.60005 H 0 Z" /></clipPath><clipPath
       id="clipPath28"
       clipPathUnits="userSpaceOnUse"><path
         style="clip-rule:evenodd"
         id="path26"
         d="M 5.15e-6,0 H 345.60001 V 129.6 H 5.15e-6 Z" /></clipPath><clipPath
       id="clipPath40"
       clipPathUnits="userSpaceOnUse"><path
         style="clip-rule:evenodd"
         id="path38"
         d="M 5.15e-6,0 H 345.60001 V 129.6 H 5.15e-6 Z" /></clipPath><clipPath
       id="clipPath52"
       clipPathUnits="userSpaceOnUse"><path
         style="clip-rule:evenodd"
         id="path50"
         d="M 5.15e-6,0 H 345.60001 V 129.6 H 5.15e-6 Z" /></clipPath><clipPath
       id="clipPath64"
       clipPathUnits="userSpaceOnUse"><path
         style="clip-rule:evenodd"
         id="path62"
         d="M 5.15e-6,0 H 345.60001 V 129.6 H 5.15e-6 Z" /></clipPath><clipPath
       id="clipPath76"
       clipPathUnits="userSpaceOnUse"><path
         style="clip-rule:evenodd"
         id="path74"
         d="M 5.15e-6,0 H 345.60001 V 129.6 H 5.15e-6 Z" /></clipPath><clipPath
       id="clipPath88"
       clipPathUnits="userSpaceOnUse"><path
         style="clip-rule:evenodd"
         id="path86"
         d="M 5.15e-6,0 H 345.60001 V 129.6 H 5.15e-6 Z" /></clipPath><clipPath
       id="clipPath100"
       clipPathUnits="userSpaceOnUse"><path
         style="clip-rule:evenodd"
         id="path98"
         d="M 5.15e-6,0 H 345.60001 V 129.6 H 5.15e-6 Z" /></clipPath><clipPath
       id="clipPath112"
       clipPathUnits="userSpaceOnUse"><path
         style="clip-rule:evenodd"
         id="path110"
         d="M 5.15e-6,0 H 345.60001 V 129.6 H 5.15e-6 Z" /></clipPath><clipPath
       id="clipPath124"
       clipPathUnits="userSpaceOnUse"><path
         style="clip-rule:evenodd"
         id="path122"
         d="M 5.15e-6,0 H 345.60001 V 129.6 H 5.15e-6 Z" /></clipPath><clipPath
       id="clipPath136"
       clipPathUnits="userSpaceOnUse"><path
         style="clip-rule:evenodd"
         id="path134"
         d="M 5.15e-6,0 H 345.60001 V 129.6 H 5.15e-6 Z" /></clipPath><clipPath
       id="clipPath148"
       clipPathUnits="userSpaceOnUse"><path
         style="clip-rule:evenodd"
         id="path146"
         d="M 5.15e-6,0 H 345.60001 V 129.6 H 5.15e-6 Z" /></clipPath><clipPath
       id="clipPath160"
       clipPathUnits="userSpaceOnUse"><path
         style="clip-rule:evenodd"
         id="path158"
         d="M 5.15e-6,0 H 345.60001 V 129.6 H 5.15e-6 Z" /></clipPath><clipPath
       id="clipPath172"
       clipPathUnits="userSpaceOnUse"><path
         style="clip-rule:evenodd"
         id="path170"
         d="M 5.15e-6,0 H 345.60001 V 129.6 H 5.15e-6 Z" /></clipPath><clipPath
       id="clipPath184"
       clipPathUnits="userSpaceOnUse"><path
         style="clip-rule:evenodd"
         id="path182"
         d="M 5.15e-6,0 H 345.60001 V 129.6 H 5.15e-6 Z" /></clipPath><clipPath
       id="clipPath196"
       clipPathUnits="userSpaceOnUse"><path
         style="clip-rule:evenodd"
         id="path194"
         d="M 5.15e-6,0 H 345.60001 V 129.6 H 5.15e-6 Z" /></clipPath><clipPath
       id="clipPath208"
       clipPathUnits="userSpaceOnUse"><path
         style="clip-rule:evenodd"
         id="path206"
         d="M 5.15e-6,0 H 345.60001 V 129.6 H 5.15e-6 Z" /></clipPath><clipPath
       id="clipPath220"
       clipPathUnits="userSpaceOnUse"><path
         style="clip-rule:evenodd"
         id="path218"
         d="M 5.15e-6,0 H 345.60001 V 129.6 H 5.15e-6 Z" /></clipPath><clipPath
       id="clipPath232"
       clipPathUnits="userSpaceOnUse"><path
         style="clip-rule:evenodd"
         id="path230"
         d="M 5.15e-6,0 H 345.60001 V 129.6 H 5.15e-6 Z" /></clipPath><clipPath
       id="clipPath244"
       clipPathUnits="userSpaceOnUse"><path
         style="clip-rule:evenodd"
         id="path242"
         d="M 5.15e-6,0 H 345.60001 V 129.6 H 5.15e-6 Z" /></clipPath><clipPath
       id="clipPath256"
       clipPathUnits="userSpaceOnUse"><path
         style="clip-rule:evenodd"
         id="path254"
         d="M 5.15e-6,0 H 345.60001 V 129.6 H 5.15e-6 Z" /></clipPath><clipPath
       id="clipPath268"
       clipPathUnits="userSpaceOnUse"><path
         style="clip-rule:evenodd"
         id="path266"
         d="M 5.15e-6,0 H 345.60001 V 129.6 H 5.15e-6 Z" /></clipPath><clipPath
       id="clipPath280"
       clipPathUnits="userSpaceOnUse"><path
         style="clip-rule:evenodd"
         id="path278"
         d="M 0,3.0518e-5 H 345.6 V 129.60003 H 0 Z" /></clipPath><clipPath
       id="clipPath290"
       clipPathUnits="userSpaceOnUse"><path
         id="path288"
         d="M 0,0 H 44.267 V 12.561 H 0 Z" /></clipPath><clipPath
       id="clipPath316"
       clipPathUnits="userSpaceOnUse"><path
         style="clip-rule:evenodd"
         id="path314"
         d="M 5.15e-6,0 H 345.60001 V 129.6 H 5.15e-6 Z" /></clipPath><clipPath
       id="clipPath328"
       clipPathUnits="userSpaceOnUse"><path
         style="clip-rule:evenodd"
         id="path326"
         d="M 5.15e-6,0 H 345.60001 V 129.6 H 5.15e-6 Z" /></clipPath><clipPath
       id="clipPath340"
       clipPathUnits="userSpaceOnUse"><path
         style="clip-rule:evenodd"
         id="path338"
         d="M -1.5259e-5,6.1035e-5 H 345.59998 V 129.60006 H -1.5259e-5 Z" /></clipPath><clipPath
       id="clipPath350"
       clipPathUnits="userSpaceOnUse"><path
         id="path348"
         d="M 0,0 H 50.841 V 43.591 H 0 Z" /></clipPath><clipPath
       id="clipPath372"
       clipPathUnits="userSpaceOnUse"><path
         style="clip-rule:evenodd"
         id="path370"
         d="M 5.15e-6,0 H 345.60001 V 129.6 H 5.15e-6 Z" /></clipPath><clipPath
       id="clipPath384"
       clipPathUnits="userSpaceOnUse"><path
         style="clip-rule:evenodd"
         id="path382"
         d="M 5.15e-6,0 H 345.60001 V 129.6 H 5.15e-6 Z" /></clipPath><clipPath
       id="clipPath396"
       clipPathUnits="userSpaceOnUse"><path
         style="clip-rule:evenodd"
         id="path394"
         d="M 5.15e-6,0 H 345.60001 V 129.6 H 5.15e-6 Z" /></clipPath><clipPath
       id="clipPath410"
       clipPathUnits="userSpaceOnUse"><path
         style="clip-rule:evenodd"
         id="path408"
         d="M 5.15e-6,0 H 345.60001 V 129.6 H 5.15e-6 Z" /></clipPath><clipPath
       id="clipPath422"
       clipPathUnits="userSpaceOnUse"><path
         style="clip-rule:evenodd"
         id="path420"
         d="M 5.15e-6,0 H 345.60001 V 129.6 H 5.15e-6 Z" /></clipPath><clipPath
       id="clipPath434"
       clipPathUnits="userSpaceOnUse"><path
         style="clip-rule:evenodd"
         id="path432"
         d="M 5.15e-6,0 H 345.60001 V 129.6 H 5.15e-6 Z" /></clipPath></defs><g
     transform="matrix(1.3333333,0,0,-1.3333333,0,172.8)"
     id="g10"><g
       id="g12"><g
         clip-path="url(#clipPath18)"
         id="g14"><path
           id="path20"
           style="fill:#8faadc;fill-opacity:1;fill-rule:evenodd;stroke:none"
           d="M 0,1.5259e-5 H 345.6 V 129.60002 H 0 Z" /></g></g><g
       id="g22"><g
         clip-path="url(#clipPath28)"
         id="g24"><text
           id="text32"
           style="font-variant:normal;font-weight:bold;font-size:18.36000061px;font-family:Arial;-inkscape-font-specification:Arial-BoldMT;writing-mode:lr-tb;fill:#0000ff;fill-opacity:1;fill-rule:nonzero;stroke:none"
           transform="matrix(1,0,0,-1,7.488,62.208)"><tspan
             id="tspan30"
             y="0"
             x="0">R</tspan></text>
</g></g><g
       id="g34"><g
         clip-path="url(#clipPath40)"
         id="g36"><text
           id="text44"
           style="font-variant:normal;font-weight:bold;font-size:18.36000061px;font-family:Arial;-inkscape-font-specification:Arial-BoldMT;writing-mode:lr-tb;fill:#ffffff;fill-opacity:1;fill-rule:nonzero;stroke:none"
           transform="matrix(1,0,0,-1,20.712,62.208)"><tspan
             id="tspan42"
             y="0"
             x="0">-</tspan></text>
</g></g><g
       id="g46"><g
         clip-path="url(#clipPath52)"
         id="g48"><text
           id="text56"
           style="font-variant:normal;font-weight:bold;font-size:18.36000061px;font-family:Arial;-inkscape-font-specification:Arial-BoldMT;writing-mode:lr-tb;fill:#00ff00;fill-opacity:1;fill-rule:nonzero;stroke:none"
           transform="matrix(1,0,0,-1,26.832,62.208)"><tspan
             id="tspan54"
             y="0"
             x="0">P</tspan></text>
</g></g><g
       id="g58"><g
         clip-path="url(#clipPath64)"
         id="g60"><text
           id="text68"
           style="font-variant:normal;font-weight:bold;font-size:12.23999977px;font-family:Arial;-inkscape-font-specification:Arial-BoldMT;writing-mode:lr-tb;fill:#00ff00;fill-opacity:1;fill-rule:nonzero;stroke:none"
           transform="matrix(1,0,0,-1,39.072,57.768)"><tspan
             id="tspan66"
             y="0"
             x="0">n</tspan></text>
</g></g><g
       id="g70"><g
         clip-path="url(#clipPath76)"
         id="g72"><text
           id="text80"
           style="font-variant:normal;font-weight:bold;font-size:18.36000061px;font-family:Arial;-inkscape-font-specification:Arial-BoldMT;writing-mode:lr-tb;fill:#ffffff;fill-opacity:1;fill-rule:nonzero;stroke:none"
           transform="matrix(1,0,0,-1,46.512,62.208)"><tspan
             id="tspan78"
             y="0"
             x="0">-</tspan></text>
</g></g><g
       id="g82"><g
         clip-path="url(#clipPath88)"
         id="g84"><text
           id="text92"
           style="font-variant:normal;font-weight:bold;font-size:18.36000061px;font-family:Arial;-inkscape-font-specification:Arial-BoldMT;writing-mode:lr-tb;fill:#ff0000;fill-opacity:1;fill-rule:nonzero;stroke:none"
           transform="matrix(1,0,0,-1,52.632,62.208)"><tspan
             id="tspan90"
             y="0"
             x="0">X</tspan></text>
</g></g><g
       id="g94"><g
         clip-path="url(#clipPath100)"
         id="g96"><text
           id="text104"
           style="font-variant:normal;font-weight:bold;font-size:18.36000061px;font-family:Arial;-inkscape-font-specification:Arial-BoldMT;writing-mode:lr-tb;fill:#ffffff;fill-opacity:1;fill-rule:nonzero;stroke:none"
           transform="matrix(1,0,0,-1,70.152,62.208)"><tspan
             id="tspan102"
             y="0"
             x="0">+</tspan></text>
</g></g><g
       id="g106"><g
         clip-path="url(#clipPath112)"
         id="g108"><text
           id="text116"
           style="font-variant:normal;font-weight:bold;font-size:18.36000061px;font-family:Arial;-inkscape-font-specification:Arial-BoldMT;writing-mode:lr-tb;fill:#7f7f7f;fill-opacity:1;fill-rule:nonzero;stroke:none"
           transform="matrix(1,0,0,-1,85.896,62.208)"><tspan
             id="tspan114"
             y="0"
             x="0 13.20002">Cu</tspan></text>
</g></g><g
       id="g118"><g
         clip-path="url(#clipPath124)"
         id="g120"><text
           id="text128"
           style="font-variant:normal;font-weight:bold;font-size:12.26399994px;font-family:Arial;-inkscape-font-specification:Arial-BoldMT;writing-mode:lr-tb;fill:#7f7f7f;fill-opacity:1;fill-rule:nonzero;stroke:none"
           transform="matrix(1,0,0,-1,110.26,67.752)"><tspan
             id="tspan126"
             y="0"
             x="0">I</tspan></text>
</g></g><g
       id="g130"><g
         clip-path="url(#clipPath136)"
         id="g132"><text
           id="text140"
           style="font-variant:normal;font-weight:bold;font-size:18.36000061px;font-family:Arial;-inkscape-font-specification:Arial-BoldMT;writing-mode:lr-tb;fill:#ffffff;fill-opacity:1;fill-rule:nonzero;stroke:none"
           transform="matrix(1,0,0,-1,113.62,62.208)"><tspan
             id="tspan138"
             y="0"
             x="0 5.1599798">/L</tspan></text>
</g></g><g
       id="g142"><g
         clip-path="url(#clipPath148)"
         id="g144"><text
           id="text152"
           style="font-variant:normal;font-weight:bold;font-size:18.36000061px;font-family:Arial;-inkscape-font-specification:Arial-BoldMT;writing-mode:lr-tb;fill:#0000ff;fill-opacity:1;fill-rule:nonzero;stroke:none"
           transform="matrix(1,0,0,-1,211.58,62.208)"><tspan
             id="tspan150"
             y="0"
             x="0">R</tspan></text>
</g></g><g
       id="g154"><g
         clip-path="url(#clipPath160)"
         id="g156"><text
           id="text164"
           style="font-variant:normal;font-weight:bold;font-size:18.36000061px;font-family:Arial;-inkscape-font-specification:Arial-BoldMT;writing-mode:lr-tb;fill:#ffffff;fill-opacity:1;fill-rule:nonzero;stroke:none"
           transform="matrix(1,0,0,-1,224.78,62.208)"><tspan
             id="tspan162"
             y="0"
             x="0">-</tspan></text>
</g></g><g
       id="g166"><g
         clip-path="url(#clipPath172)"
         id="g168"><text
           id="text176"
           style="font-variant:normal;font-weight:bold;font-size:18.36000061px;font-family:Arial;-inkscape-font-specification:Arial-BoldMT;writing-mode:lr-tb;fill:#00ff00;fill-opacity:1;fill-rule:nonzero;stroke:none"
           transform="matrix(1,0,0,-1,230.9,62.208)"><tspan
             id="tspan174"
             y="0"
             x="0">P</tspan></text>
</g></g><g
       id="g178"><g
         clip-path="url(#clipPath184)"
         id="g180"><text
           id="text188"
           style="font-variant:normal;font-weight:bold;font-size:12.23999977px;font-family:Arial;-inkscape-font-specification:Arial-BoldMT;writing-mode:lr-tb;fill:#00ff00;fill-opacity:1;fill-rule:nonzero;stroke:none"
           transform="matrix(1,0,0,-1,243.14,57.768)"><tspan
             id="tspan186"
             y="0"
             x="0">n</tspan></text>
</g></g><g
       id="g190"><g
         clip-path="url(#clipPath196)"
         id="g192"><text
           id="text200"
           style="font-variant:normal;font-weight:bold;font-size:18.36000061px;font-family:Arial;-inkscape-font-specification:Arial-BoldMT;writing-mode:lr-tb;fill:#ffffff;fill-opacity:1;fill-rule:nonzero;stroke:none"
           transform="matrix(1,0,0,-1,255.86,62.208)"><tspan
             id="tspan198"
             y="0"
             x="0">+</tspan></text>
</g></g><g
       id="g202"><g
         clip-path="url(#clipPath208)"
         id="g204"><text
           id="text212"
           style="font-variant:normal;font-weight:bold;font-size:18.36000061px;font-family:Arial;-inkscape-font-specification:Arial-BoldMT;writing-mode:lr-tb;fill:#ff0000;fill-opacity:1;fill-rule:nonzero;stroke:none"
           transform="matrix(1,0,0,-1,271.61,62.208)"><tspan
             id="tspan210"
             y="0"
             x="0">X</tspan></text>
</g></g><g
       id="g214"><g
         clip-path="url(#clipPath220)"
         id="g216"><text
           id="text224"
           style="font-variant:normal;font-weight:bold;font-size:18.36000061px;font-family:Arial;-inkscape-font-specification:Arial-BoldMT;writing-mode:lr-tb;fill:#ffffff;fill-opacity:1;fill-rule:nonzero;stroke:none"
           transform="matrix(1,0,0,-1,283.85,62.208)"><tspan
             id="tspan222"
             y="0"
             x="0">-</tspan></text>
</g></g><g
       id="g226"><g
         clip-path="url(#clipPath232)"
         id="g228"><text
           id="text236"
           style="font-variant:normal;font-weight:bold;font-size:18.36000061px;font-family:Arial;-inkscape-font-specification:Arial-BoldMT;writing-mode:lr-tb;fill:#548235;fill-opacity:1;fill-rule:nonzero;stroke:none"
           transform="matrix(1,0,0,-1,289.97,62.208)"><tspan
             id="tspan234"
             y="0"
             x="0 13.20002">Cu</tspan></text>
</g></g><g
       id="g238"><g
         clip-path="url(#clipPath244)"
         id="g240"><text
           id="text248"
           style="font-variant:normal;font-weight:bold;font-size:12.26399994px;font-family:Arial;-inkscape-font-specification:Arial-BoldMT;writing-mode:lr-tb;fill:#548235;fill-opacity:1;fill-rule:nonzero;stroke:none"
           transform="matrix(1,0,0,-1,314.33,67.752)"><tspan
             id="tspan246"
             y="0"
             x="0 3.359992">II</tspan></text>
</g></g><g
       id="g250"><g
         clip-path="url(#clipPath256)"
         id="g252"><text
           id="text260"
           style="font-variant:normal;font-weight:bold;font-size:18.36000061px;font-family:Arial;-inkscape-font-specification:Arial-BoldMT;writing-mode:lr-tb;fill:#ffffff;fill-opacity:1;fill-rule:nonzero;stroke:none"
           transform="matrix(1,0,0,-1,321.05,62.208)"><tspan
             id="tspan258"
             y="0"
             x="0 5.1599798">/L</tspan></text>
</g></g><g
       id="g262"><g
         clip-path="url(#clipPath268)"
         id="g264"><text
           id="text272"
           style="font-variant:normal;font-weight:normal;font-size:18.36000061px;font-family:ArialMT;-inkscape-font-specification:ArialMT;writing-mode:lr-tb;fill:#00ff00;fill-opacity:1;fill-rule:nonzero;stroke:none"
           transform="matrix(1,0,0,-1,246.89,69.312)"><tspan
             id="tspan270"
             y="0"
             x="0">•</tspan></text>
</g></g><g
       id="g274"><g
         clip-path="url(#clipPath280)"
         id="g276"><g
           transform="matrix(0.69667,-9.4e-8,-1.88e-7,0.15667,141.84,63.84)"
           id="g282"><g
             transform="scale(1.6265,5.732)"
             id="g284"><g
               clip-path="url(#clipPath290)"
               id="g286"><g
                 id="g292"><g
                   id="g294"><g
                     id="g296" /></g><path
                   id="path298"
                   style="fill:none;stroke:#ffffff;stroke-width:0.84928;stroke-linecap:round;stroke-linejoin:miter;stroke-miterlimit:10;stroke-dasharray:none;stroke-opacity:1"
                   d="M 11.373,8.1023 H 31.592" /><path
                   id="path300"
                   style="fill:#ffffff;fill-opacity:1;fill-rule:evenodd;stroke:none"
                   d="M 31.592,8.1023 24.641,9.8009 25.905,8.1023 Z" /><path
                   id="path302"
                   style="fill:none;stroke:#ffffff;stroke-width:0.84928;stroke-linecap:round;stroke-linejoin:miter;stroke-miterlimit:10;stroke-dasharray:none;stroke-opacity:1"
                   d="m 31.592,8.1023 -6.951,1.6986 1.264,-1.6986 h 5.687" /><path
                   id="path304"
                   style="fill:none;stroke:#ffffff;stroke-width:0.84928;stroke-linecap:round;stroke-linejoin:miter;stroke-miterlimit:10;stroke-dasharray:none;stroke-opacity:1"
                   d="M 38.963,5.3422 H 4.4228" /><path
                   id="path306"
                   style="fill:#ffffff;fill-opacity:1;fill-rule:evenodd;stroke:none"
                   d="M 4.4228,5.3422 11.373,3.6436 10.109,5.3422 Z" /><path
                   id="path308"
                   style="fill:none;stroke:#ffffff;stroke-width:0.84928;stroke-linecap:round;stroke-linejoin:miter;stroke-miterlimit:10;stroke-dasharray:none;stroke-opacity:1"
                   d="M 4.4228,5.3422 11.373,3.6436 10.109,5.3422 H 4.4228" /></g></g></g></g></g></g><g
       id="g310"><g
         clip-path="url(#clipPath316)"
         id="g312"><text
           id="text320"
           style="font-style:italic;font-variant:normal;font-weight:bold;font-size:18.36000061px;font-family:Arial;-inkscape-font-specification:Arial-BoldItalicMT;writing-mode:lr-tb;fill:#ffffff;fill-opacity:1;fill-rule:nonzero;stroke:none"
           transform="matrix(1,0,0,-1,148.58,79.8)"><tspan
             id="tspan318"
             y="0"
             x="0">K</tspan></text>
</g></g><g
       id="g322"><g
         clip-path="url(#clipPath328)"
         id="g324"><text
           id="text332"
           style="font-variant:normal;font-weight:bold;font-size:12.23999977px;font-family:Arial;-inkscape-font-specification:Arial-BoldMT;writing-mode:lr-tb;fill:#ffffff;fill-opacity:1;fill-rule:nonzero;stroke:none"
           transform="matrix(1,0,0,-1,161.78,75.36)"><tspan
             id="tspan330"
             y="0"
             x="0 7.5643201 15.1164 23.978161">ATRP</tspan></text>
</g></g><g
       id="g334"><g
         clip-path="url(#clipPath340)"
         id="g336"><g
           transform="matrix(0.615,-2.4e-8,-1.88e-7,0.515,208.56,21.12)"
           id="g342"><g
             transform="scale(1.4162,1.6517)"
             id="g344"><g
               clip-path="url(#clipPath350)"
               id="g346"><g
                 id="g352"><g
                   id="g354"><g
                     id="g356" /></g><path
                   id="path358"
                   style="fill:#ffffff;fill-opacity:1;fill-rule:nonzero;stroke:none"
                   d="m 42.413,42.958 1.937,-2.149 1.737,-2.601 1.52,-2.818 1.091,-3.05 0.656,-3.28 v -1.543 l -0.004,0.078 0.221,-1.77 -0.221,-1.771 0.004,0.079 V 22.607 L 49.13,21.039 48.691,19.503 48.263,18.221 48.271,18.248 47.831,16.71 46.944,14.939 45.869,13.221 44.799,11.512 43.712,9.9931 42.391,8.4542 40.872,7.1534 39.352,5.8533 37.592,4.7545 35.87,3.895 34.123,3.0226 32.583,2.5834 31.101,2.1604 29.576,1.7255 28.05,1.5079 26.523,1.29 26.266,1.2899 H 26.054 25.842 25.63 25.419 25.207 24.995 23.473 L 21.733,1.5071 20.202,1.7255 18.664,2.1642 17.38,2.5916 17.407,2.5834 15.867,3.0226 14.12,3.895 12.398,4.7545 10.637,5.8533 9.1184,7.1534 7.5985,8.4542 6.2958,9.9718 4.9938,11.489 3.8933,13.247 3.0325,14.966 2.1588,16.71 1.719,18.248 l 0.0081,-0.027 -0.428,1.282 -0.43935,1.536 -0.21796,1.523 -0.2182,1.526 v 0.256 0.212 0.211 l -2e-5,0.212 v 0.211 l 2e-5,0.212 v 0.211 0.243 l 0.21532,2.15 0.216,1.941 0.43819,1.969 0.6459,1.935 c 0.1109,0.333 0.4708,0.512 0.8038,0.401 0.3329,-0.11 0.5128,-0.47 0.4019,-0.802 L 2.5092,31.546 2.5267,31.609 2.103,29.706 2.1143,29.773 1.9025,27.87 l 7e-4,0.007 -0.2118,-2.115 0.0031,0.063 V 25.613 25.402 25.19 24.979 24.767 24.556 24.344 24.133 l -0.0064,0.089 0.2118,-1.48 0.2119,-1.481 -0.0181,0.085 0.4237,-1.481 -0.0082,0.027 0.428,-1.282 0.4274,-1.494 -0.0426,0.109 0.8473,-1.692 0.8473,-1.692 -0.0295,0.053 1.0591,-1.692 -0.0564,0.076 1.2709,-1.48 1.271,-1.4809 -0.069,0.0688 1.4828,-1.269 1.4825,-1.269 -0.077,0.0563 1.695,-1.0576 -0.053,0.0295 1.695,-0.846 1.695,-0.846 -0.11,0.0425 1.496,-0.4268 1.284,-0.4273 -0.026,0.0081 1.482,-0.423 -0.084,0.018 1.482,-0.2115 -0.011,0.0015 1.695,-0.2115 -0.079,0.0049 h 1.483 0.212 0.212 0.211 0.212 0.212 0.212 0.212 l -0.09,-0.0064 1.483,0.2115 1.482,0.2115 -0.084,-0.018 1.482,0.423 1.483,0.423 1.483,0.423 -0.11,-0.0425 1.695,0.846 1.694,0.846 -0.052,-0.0295 1.694,1.0576 -0.076,-0.0563 1.482,1.269 1.483,1.269 -0.069,-0.0688 1.271,1.4809 -0.034,-0.044 1.059,1.48 -0.022,-0.032 1.059,1.692 1.059,1.692 -0.029,-0.053 0.847,1.692 -0.043,-0.109 0.428,1.494 0.428,1.282 -0.008,-0.027 0.423,1.481 -0.018,-0.085 0.212,1.481 -0.006,-0.09 v 1.52 l 0.216,1.731 v -0.157 l -0.216,1.731 v 1.52 l 0.012,-0.124 -0.636,3.172 0.025,-0.089 -1.059,2.962 0.039,-0.088 -1.483,2.75 0.031,-0.051 -1.695,2.538 0.057,-0.073 -1.907,2.115 c -0.234,0.261 -0.213,0.662 0.048,0.896 0.26,0.235 0.662,0.214 0.897,-0.047 z" /><path
                   id="path360"
                   style="fill:#ffffff;fill-opacity:1;fill-rule:nonzero;stroke:none"
                   d="m 1.939,33.851 0.6497,1.946 0.881,1.76 1.0855,1.734 1.0868,1.519 1.3051,1.521 0.2291,0.228 0.2118,0.212 0.2118,0.211 c 0.2482,0.248 0.6505,0.248 0.8987,0 0.2482,-0.247 0.2482,-0.649 0,-0.897 L 8.2867,41.873 8.0749,41.662 7.8631,41.45 7.8962,41.486 6.6253,40.006 6.6599,40.05 5.6008,38.569 5.6226,38.602 4.5635,36.91 4.5929,36.962 3.7456,35.27 3.7801,35.353 3.1447,33.45 C 3.0337,33.117 2.6738,32.938 2.3408,33.048 2.0079,33.159 1.828,33.519 1.939,33.851 Z" /><path
                   id="path362"
                   style="fill:#ffffff;fill-opacity:1;fill-rule:evenodd;stroke:none"
                   d="m 41.941,42.534 4.024,-8.038 v 0 l 0.212,2.538 v 0 l -4.236,5.5 z" /><path
                   id="path364"
                   style="fill:#ffffff;fill-opacity:1;fill-rule:nonzero;stroke:none"
                   d="m 42.509,42.817 4.025,-8.037 -1.202,-0.231 0.212,2.538 0.129,-0.439 -4.236,5.499 c -0.214,0.278 -0.162,0.676 0.116,0.89 0.278,0.213 0.677,0.161 0.891,-0.116 L 46.831,37.227 46.41,32.189 41.372,42.25 c -0.157,0.313 -0.029,0.694 0.285,0.851 0.313,0.157 0.695,0.03 0.852,-0.284 z" /></g></g></g></g></g></g><g
       id="g366"><g
         clip-path="url(#clipPath372)"
         id="g368"><text
           id="text376"
           style="font-variant:normal;font-weight:normal;font-size:18.36000061px;font-family:MicrosoftSansSerif;-inkscape-font-specification:MicrosoftSansSerif;writing-mode:lr-tb;fill:#ffffff;fill-opacity:1;fill-rule:nonzero;stroke:#ffffff;stroke-width:0.52456999;stroke-linecap:butt;stroke-linejoin:miter;stroke-miterlimit:10;stroke-dasharray:none;stroke-opacity:1"
           transform="matrix(1,0,0,-1,215.18,34.248)"><tspan
             id="tspan374"
             y="0"
             x="0 10.77732 15.56928">+ M</tspan></text>
</g></g><g
       id="g378"><g
         clip-path="url(#clipPath384)"
         id="g380"><text
           id="text388"
           style="font-style:italic;font-variant:normal;font-weight:bold;font-size:18.36000061px;font-family:Arial;-inkscape-font-specification:Arial-BoldItalicMT;writing-mode:lr-tb;fill:#ffffff;fill-opacity:1;fill-rule:nonzero;stroke:none"
           transform="matrix(1,0,0,-1,227.83,6.528)"><tspan
             id="tspan386"
             y="0"
             x="0">k</tspan></text>
</g></g><g
       id="g390"><g
         clip-path="url(#clipPath396)"
         id="g392"><text
           id="text400"
           style="font-variant:normal;font-weight:bold;font-size:12.23999977px;font-family:Arial;-inkscape-font-specification:Arial-BoldMT;writing-mode:lr-tb;fill:#ffffff;fill-opacity:1;fill-rule:nonzero;stroke:none"
           transform="matrix(1,0,0,-1,238.03,2.088)"><tspan
             id="tspan398"
             y="0"
             x="0">p</tspan></text>
</g></g><path
       id="path402"
       style="fill:#ffffff;fill-opacity:1;fill-rule:nonzero;stroke:none"
       d="m 246.59,83.353 19.03,19.177 -0.71,0.7 -19.03,-19.173 z m 18.67,19.527 0.72,-3.532 2.1,6.372 -6.35,-2.15 z" /><g
       id="g404"><g
         clip-path="url(#clipPath410)"
         id="g406"><text
           id="text414"
           style="font-style:italic;font-variant:normal;font-weight:bold;font-size:18.36000061px;font-family:Arial;-inkscape-font-specification:Arial-BoldItalicMT;writing-mode:lr-tb;fill:#ffffff;fill-opacity:1;fill-rule:nonzero;stroke:none"
           transform="matrix(1,0,0,-1,234.98,94.056)"><tspan
             id="tspan412"
             y="0"
             x="0">k</tspan></text>
</g></g><g
       id="g416"><g
         clip-path="url(#clipPath422)"
         id="g418"><text
           id="text426"
           style="font-variant:normal;font-weight:bold;font-size:12.23999977px;font-family:Arial;-inkscape-font-specification:Arial-BoldMT;writing-mode:lr-tb;fill:#ffffff;fill-opacity:1;fill-rule:nonzero;stroke:none"
           transform="matrix(1,0,0,-1,245.18,89.616)"><tspan
             id="tspan424"
             y="0"
             x="0">t</tspan></text>
</g></g><g
       id="g428"><g
         clip-path="url(#clipPath434)"
         id="g430"><text
           id="text438"
           style="font-variant:normal;font-weight:bold;font-size:18.38400078px;font-family:Arial;-inkscape-font-specification:Arial-BoldMT;writing-mode:lr-tb;fill:#ffffff;fill-opacity:1;fill-rule:nonzero;stroke:none"
           transform="matrix(1,0,0,-1,232.46,111.84)"><tspan
             id="tspan436"
             y="0"
             x="0 13.199712 23.421215 33.642719 44.765041 49.802258 60.023762 71.164467 81.385971 86.496719 97.729347">Dead chains</tspan></text>
</g></g></g></svg>