<?xml version="1.0" encoding="UTF-8" standalone="no"?>
<!-- Created with Inkscape (http://www.inkscape.org/) -->

<svg
   xmlns:figma="http://www.figma.com/figma/ns"
   xmlns:dc="http://purl.org/dc/elements/1.1/"
   xmlns:cc="http://creativecommons.org/ns#"
   xmlns:rdf="http://www.w3.org/1999/02/22-rdf-syntax-ns#"
   xmlns:svg="http://www.w3.org/2000/svg"
   xmlns="http://www.w3.org/2000/svg"
   xmlns:xlink="http://www.w3.org/1999/xlink"
   xmlns:sodipodi="http://sodipodi.sourceforge.net/DTD/sodipodi-0.dtd"
   xmlns:inkscape="http://www.inkscape.org/namespaces/inkscape"
   width="90mm"
   height="30mm"
   viewBox="0 0 90 30"
   version="1.1"
   id="svg8"
   inkscape:version="0.92.1 r15371"
   sodipodi:docname="ATRP_Kinetic_Simulator_Full.svg">
  <defs
     id="defs2">
    <path
       d="m 1.74498,5.47533 c 0,1.55802 -0.12464,2.06549 -0.44515,2.43941 C 0.943119,8.23595 0.480024,8.41358 0,8.41331 L 0.124642,9.3036 C 0.86884,9.31366 1.59095,9.05078 2.15452,8.56466 2.45775,8.19487 2.6834,7.76781 2.818,7.30893 2.95261,6.85005 2.99341,6.36876 2.93798,5.89377 V 0 h -1.193 v 5.43972 z"
       id="path0_fill"
       inkscape:connector-curvature="0" />
    <path
       d="m 5.50204,4.76309 c 0,0.66772 0,1.26422 0.05341,1.78059 H 4.496 L 4.42478,5.48423 C 4.20318,5.85909 3.88627,6.16858 3.50628,6.38125 3.12628,6.59392 2.69675,6.70219 2.26135,6.69503 1.22861,6.69503 0,6.13415 0,3.84608 V 0.0445149 H 1.193 V 3.6057 c 0,1.23752 0.38283,2.06549 1.46009,2.06549 C 2.87472,5.67358 3.09459,5.63168 3.29982,5.54796 3.50505,5.46424 3.69149,5.34039 3.84822,5.18366 4.00494,5.02694 4.1288,4.84049 4.21252,4.63527 4.29623,4.43004 4.33813,4.21016 4.33575,3.98853 V 0 h 1.19299 v 4.72748 z"
       id="path1_fill"
       inkscape:connector-curvature="0" />
    <path
       d="m 0.0534178,2.27264 c 0,-0.82798 0,-1.504604 -0.0534178,-2.118909 H 1.06836 L 1.12177,1.2666 C 1.3598,0.864535 1.70247,0.534594 2.11325,0.311954 2.52404,0.0893145 2.98754,-0.0176786 3.45435,0.00238095 c 1.58473,0 2.77773,1.32653905 2.77773,3.30299905 0,2.33258 -1.43338,3.48997 -2.9825,3.48997 C 2.85309,6.81304 2.45874,6.7281 2.10469,6.54874 1.75064,6.36937 1.44888,6.10166 1.22861,5.77151 v 0 3.56118 H 0.0534178 V 2.29935 Z M 1.22861,4.00872 c 0.00323,0.16154 0.02111,0.32245 0.05342,0.48076 0.10101,0.39531 0.33096,0.74565 0.65345,0.99558 0.3225,0.24994 0.71913,0.3852 1.12714,0.38438 1.25532,0 1.99427,-1.02384 1.99427,-2.51064 0,-1.29983 -0.69443,-2.412704 -1.94975,-2.412704 C 2.61036,0.986777 2.14548,1.20726 1.79965,1.5662 1.45382,1.92514 1.25079,2.3979 1.22861,2.89585 Z"
       id="path2_fill"
       inkscape:connector-curvature="0" />
    <path
       d="M 1.31764,0.0178059 2.75102,3.85499 C 2.90237,4.28233 3.06262,4.7987 3.16946,5.18153 3.2941,4.7898 3.42764,4.29123 3.5879,3.82828 L 4.88773,0.0178059 H 6.14305 L 4.36246,4.64735 C 3.47216,6.87309 2.92908,8.02158 2.11,8.71601 1.69745,9.09283 1.19448,9.35658 0.649917,9.48166 L 0.356119,8.48453 C 0.736886,8.35942 1.09038,8.16304 1.39777,7.90584 1.8321,7.55188 2.17678,7.10044 2.4038,6.5882 2.45239,6.49949 2.48551,6.40314 2.50173,6.3033 2.49161,6.19586 2.46457,6.0907 2.42161,5.9917 L 0,0 h 1.29983 z"
       id="path3_fill"
       inkscape:connector-curvature="0" />
    <path
       d="M 2.19013,0 V 1.86962 H 3.8995 v 0.8903 H 2.19013 v 3.50777 c 0,0.80127 0.23148,1.26422 0.8903,1.26422 C 3.31442,7.53574 3.54789,7.5088 3.77486,7.45179 L 3.82828,8.34208 C 3.48794,8.45999 3.12881,8.51431 2.76882,8.50234 2.53042,8.51726 2.29161,8.48043 2.06878,8.39437 1.84595,8.30831 1.64438,8.17506 1.47789,8.00377 1.11525,7.51873 0.949826,6.91431 1.01494,6.31221 V 2.75102 H 0 V 1.86072 H 1.03274 V 0.275992 Z"
       id="path4_fill"
       inkscape:connector-curvature="0" />
    <path
       d="M 1.17716,3.57899 C 1.153,3.88093 1.19468,4.18451 1.29933,4.46876 1.40398,4.75301 1.5691,5.01114 1.78329,5.22532 1.99747,5.43951 2.2556,5.60463 2.53985,5.70928 2.8241,5.81393 3.12768,5.85561 3.42962,5.83145 4.04033,5.84511 4.64706,5.72983 5.21021,5.49313 l 0.20477,0.8903 C 4.72393,6.66809 3.98085,6.80458 3.23375,6.78406 2.79821,6.81388 2.36138,6.74914 1.95322,6.59427 1.54505,6.43941 1.17522,6.19809 0.869071,5.88688 0.562928,5.57566 0.327723,5.2019 0.179591,4.79125 0.0314584,4.38059 -0.0260962,3.94276 0.0108748,3.50777 0.0108748,1.54912 1.17716,0 3.0824,0 c 2.13671,0 2.67089,1.86962 2.67089,3.06262 0.01142,0.18382 0.01142,0.36817 0,0.55199 H 1.15046 Z M 4.66713,2.6887 C 4.70149,2.45067 4.68443,2.20805 4.61709,1.97718 4.54976,1.74631 4.43372,1.53255 4.2768,1.35031 4.11987,1.16808 3.92571,1.0216 3.70739,0.920744 3.48907,0.81989 3.25166,0.767006 3.01118,0.765656 2.52201,0.801064 2.06371,1.01788 1.72609,1.37362 1.38847,1.72935 1.19588,2.19835 1.18607,2.6887 Z"
       id="path5_fill"
       inkscape:connector-curvature="0" />
    <path
       d="m 0.0534178,2.19228 c 0,-0.76565 0,-1.424474 -0.0534178,-2.029876 H 1.06836 V 1.43553 H 1.12177 C 1.23391,1.04259 1.4656,0.694314 1.78468,0.439049 2.10376,0.183783 2.4944,0.034196 2.90237,0.0110538 c 0.11229,-0.01473839 0.22602,-0.01473839 0.33831,0 V 1.12393 C 3.10462,1.10817 2.9672,1.10817 2.83114,1.12393 2.427,1.13958 2.04237,1.30182 1.7491,1.58035 1.45583,1.85887 1.27398,2.23462 1.23751,2.63743 1.20422,2.8196 1.18635,3.00425 1.1841,3.18941 V 6.65267 H 0.00890297 V 2.20118 Z"
       id="path6_fill"
       inkscape:connector-curvature="0" />
    <path
       d="M 6.03059,2.83565 C 6.06715,3.43376 5.92485,4.02921 5.6218,4.54615 5.31875,5.0631 4.86869,5.47813 4.32893,5.73839 3.78917,5.99864 3.18416,6.09233 2.59097,6.00753 1.99778,5.92272 1.44326,5.66326 0.998048,5.26219 0.552837,4.86113 0.23709,4.33661 0.0910307,3.75546 -0.0550287,3.17431 -0.0247891,2.56283 0.177897,1.99893 0.380583,1.43503 0.746541,0.944221 1.22915,0.589037 1.71176,0.233853 2.28918,0.0303686 2.88784,0.00450543 3.28035,-0.0170932 3.67326,0.0391144 4.04396,0.169896 4.41467,0.300677 4.75587,0.503453 5.04794,0.766561 5.34,1.02967 5.57718,1.34792 5.74582,1.70301 5.91446,2.0581 6.01124,2.44303 6.03059,2.83565 Z"
       id="path7_fill"
       inkscape:connector-curvature="0" />
    <path
       d="M 18.6962,7.12238 C 10.6836,7.12238 3.64131,4.24672 0,0 1.41284,3.82041 3.96215,7.1163 7.30479,9.44404 10.6474,11.7718 14.623,13.0196 18.6962,13.0196 c 4.0733,0 8.0488,-1.2478 11.3915,-3.57556 C 33.4303,7.1163 35.9796,3.82041 37.3925,0 33.7601,4.24672 26.7445,7.12238 18.6962,7.12238 Z"
       id="path8_fill"
       inkscape:connector-curvature="0" />
    <path
       d="m 18.6962,5.89725 c 8.0127,0 15.055,2.87566 18.6963,7.12235 C 35.9796,9.19922 33.4303,5.90333 30.0877,3.57559 26.745,1.24785 22.7695,0 18.6962,0 14.623,0 10.6474,1.24785 7.30479,3.57559 3.96215,5.90333 1.41284,9.19922 0,13.0196 3.64131,8.76401 10.648,5.89725 18.6962,5.89725 Z"
       id="path9_fill"
       inkscape:connector-curvature="0" />
    <path
       d="M 7.59576,3.56656 C 7.64276,4.31992 7.46442,5.07022 7.08347,5.72186 6.70251,6.3735 6.13619,6.89698 5.45666,7.22561 4.77713,7.55424 4.01515,7.67314 3.26781,7.56716 2.52046,7.46117 1.82158,7.13511 1.26021,6.63051 0.698839,6.12591 0.300394,5.46561 0.115637,4.73375 -0.0691191,4.00188 -0.0318219,3.23159 0.222777,2.52099 0.477376,1.8104 0.93775,1.19169 1.54524,0.743685 2.15274,0.295678 2.87985,0.0386595 3.63394,0.00537589 4.12793,-0.0210471 4.62229,0.0501173 5.08878,0.214803 5.55526,0.37949 5.98473,0.63447 6.35264,0.965179 6.72055,1.29589 7.01971,1.69584 7.233,2.1422 7.4463,2.58855 7.56957,3.07256 7.59576,3.56656 Z"
       id="path10_fill"
       inkscape:connector-curvature="0" />
    <path
       d="M 2.25061,4.37943 C 1.81886,4.39135 1.39322,4.27535 1.02722,4.04602 0.661224,3.81668 0.371206,3.48424 0.193641,3.09052 0.0160762,2.69679 -0.0411078,2.25935 0.0292804,1.83321 0.0996686,1.40707 0.294486,1.01125 0.589233,0.695542 0.883981,0.37983 1.2655,0.158316 1.68581,0.0588577 2.10611,-0.0406005 2.54644,-0.0135622 2.95143,0.136572 3.35641,0.286707 3.70796,0.553234 3.96186,0.902636 4.21577,1.25204 4.3607,1.66872 4.37842,2.10027 4.39529,2.6838 4.18131,3.25044 3.78293,3.67715 3.38455,4.10387 2.83392,4.35623 2.25061,4.37943 Z"
       id="path11_fill"
       inkscape:connector-curvature="0" />
    <path
       d="m 1.74498,5.47533 c 0,1.55802 -0.12464,2.06549 -0.44515,2.43941 C 0.943119,8.23595 0.480024,8.41358 0,8.41331 L 0.124642,9.3036 C 0.86884,9.31366 1.59095,9.05078 2.15452,8.56466 2.45775,8.19487 2.6834,7.76781 2.818,7.30893 2.95261,6.85005 2.99341,6.36876 2.93798,5.89377 V 0 h -1.193 v 5.43972 z"
       id="path0_fill-9"
       inkscape:connector-curvature="0" />
    <path
       d="m 5.50204,4.76309 c 0,0.66772 0,1.26422 0.05341,1.78059 H 4.496 L 4.42478,5.48423 C 4.20318,5.85909 3.88627,6.16858 3.50628,6.38125 3.12628,6.59392 2.69675,6.70219 2.26135,6.69503 1.22861,6.69503 0,6.13415 0,3.84608 V 0.0445149 H 1.193 V 3.6057 c 0,1.23752 0.38283,2.06549 1.46009,2.06549 C 2.87472,5.67358 3.09459,5.63168 3.29982,5.54796 3.50505,5.46424 3.69149,5.34039 3.84822,5.18366 4.00494,5.02694 4.1288,4.84049 4.21252,4.63527 4.29623,4.43004 4.33813,4.21016 4.33575,3.98853 V 0 h 1.19299 v 4.72748 z"
       id="path1_fill-4"
       inkscape:connector-curvature="0" />
    <path
       d="m 0.0534178,2.27264 c 0,-0.82798 0,-1.504604 -0.0534178,-2.118909 H 1.06836 L 1.12177,1.2666 C 1.3598,0.864535 1.70247,0.534594 2.11325,0.311954 2.52404,0.0893145 2.98754,-0.0176786 3.45435,0.00238095 c 1.58473,0 2.77773,1.32653905 2.77773,3.30299905 0,2.33258 -1.43338,3.48997 -2.9825,3.48997 C 2.85309,6.81304 2.45874,6.7281 2.10469,6.54874 1.75064,6.36937 1.44888,6.10166 1.22861,5.77151 v 0 3.56118 H 0.0534178 V 2.29935 Z M 1.22861,4.00872 c 0.00323,0.16154 0.02111,0.32245 0.05342,0.48076 0.10101,0.39531 0.33096,0.74565 0.65345,0.99558 0.3225,0.24994 0.71913,0.3852 1.12714,0.38438 1.25532,0 1.99427,-1.02384 1.99427,-2.51064 0,-1.29983 -0.69443,-2.412704 -1.94975,-2.412704 C 2.61036,0.986777 2.14548,1.20726 1.79965,1.5662 1.45382,1.92514 1.25079,2.3979 1.22861,2.89585 Z"
       id="path2_fill-4"
       inkscape:connector-curvature="0" />
    <path
       d="M 1.31764,0.0178059 2.75102,3.85499 C 2.90237,4.28233 3.06262,4.7987 3.16946,5.18153 3.2941,4.7898 3.42764,4.29123 3.5879,3.82828 L 4.88773,0.0178059 H 6.14305 L 4.36246,4.64735 C 3.47216,6.87309 2.92908,8.02158 2.11,8.71601 1.69745,9.09283 1.19448,9.35658 0.649917,9.48166 L 0.356119,8.48453 C 0.736886,8.35942 1.09038,8.16304 1.39777,7.90584 1.8321,7.55188 2.17678,7.10044 2.4038,6.5882 2.45239,6.49949 2.48551,6.40314 2.50173,6.3033 2.49161,6.19586 2.46457,6.0907 2.42161,5.9917 L 0,0 h 1.29983 z"
       id="path3_fill-4"
       inkscape:connector-curvature="0" />
    <path
       d="M 2.19013,0 V 1.86962 H 3.8995 v 0.8903 H 2.19013 v 3.50777 c 0,0.80127 0.23148,1.26422 0.8903,1.26422 C 3.31442,7.53574 3.54789,7.5088 3.77486,7.45179 L 3.82828,8.34208 C 3.48794,8.45999 3.12881,8.51431 2.76882,8.50234 2.53042,8.51726 2.29161,8.48043 2.06878,8.39437 1.84595,8.30831 1.64438,8.17506 1.47789,8.00377 1.11525,7.51873 0.949826,6.91431 1.01494,6.31221 V 2.75102 H 0 V 1.86072 H 1.03274 V 0.275992 Z"
       id="path4_fill-1"
       inkscape:connector-curvature="0" />
    <path
       d="M 1.17716,3.57899 C 1.153,3.88093 1.19468,4.18451 1.29933,4.46876 1.40398,4.75301 1.5691,5.01114 1.78329,5.22532 1.99747,5.43951 2.2556,5.60463 2.53985,5.70928 2.8241,5.81393 3.12768,5.85561 3.42962,5.83145 4.04033,5.84511 4.64706,5.72983 5.21021,5.49313 l 0.20477,0.8903 C 4.72393,6.66809 3.98085,6.80458 3.23375,6.78406 2.79821,6.81388 2.36138,6.74914 1.95322,6.59427 1.54505,6.43941 1.17522,6.19809 0.869071,5.88688 0.562928,5.57566 0.327723,5.2019 0.179591,4.79125 0.0314584,4.38059 -0.0260962,3.94276 0.0108748,3.50777 0.0108748,1.54912 1.17716,0 3.0824,0 c 2.13671,0 2.67089,1.86962 2.67089,3.06262 0.01142,0.18382 0.01142,0.36817 0,0.55199 H 1.15046 Z M 4.66713,2.6887 C 4.70149,2.45067 4.68443,2.20805 4.61709,1.97718 4.54976,1.74631 4.43372,1.53255 4.2768,1.35031 4.11987,1.16808 3.92571,1.0216 3.70739,0.920744 3.48907,0.81989 3.25166,0.767006 3.01118,0.765656 2.52201,0.801064 2.06371,1.01788 1.72609,1.37362 1.38847,1.72935 1.19588,2.19835 1.18607,2.6887 Z"
       id="path5_fill-5"
       inkscape:connector-curvature="0" />
    <path
       d="m 0.0534178,2.19228 c 0,-0.76565 0,-1.424474 -0.0534178,-2.029876 H 1.06836 V 1.43553 H 1.12177 C 1.23391,1.04259 1.4656,0.694314 1.78468,0.439049 2.10376,0.183783 2.4944,0.034196 2.90237,0.0110538 c 0.11229,-0.01473839 0.22602,-0.01473839 0.33831,0 V 1.12393 C 3.10462,1.10817 2.9672,1.10817 2.83114,1.12393 2.427,1.13958 2.04237,1.30182 1.7491,1.58035 1.45583,1.85887 1.27398,2.23462 1.23751,2.63743 1.20422,2.8196 1.18635,3.00425 1.1841,3.18941 V 6.65267 H 0.00890297 V 2.20118 Z"
       id="path6_fill-1"
       inkscape:connector-curvature="0" />
    <path
       d="M 6.03059,2.83565 C 6.06715,3.43376 5.92485,4.02921 5.6218,4.54615 5.31875,5.0631 4.86869,5.47813 4.32893,5.73839 3.78917,5.99864 3.18416,6.09233 2.59097,6.00753 1.99778,5.92272 1.44326,5.66326 0.998048,5.26219 0.552837,4.86113 0.23709,4.33661 0.0910307,3.75546 -0.0550287,3.17431 -0.0247891,2.56283 0.177897,1.99893 0.380583,1.43503 0.746541,0.944221 1.22915,0.589037 1.71176,0.233853 2.28918,0.0303686 2.88784,0.00450543 3.28035,-0.0170932 3.67326,0.0391144 4.04396,0.169896 4.41467,0.300677 4.75587,0.503453 5.04794,0.766561 5.34,1.02967 5.57718,1.34792 5.74582,1.70301 5.91446,2.0581 6.01124,2.44303 6.03059,2.83565 Z"
       id="path7_fill-1"
       inkscape:connector-curvature="0" />
    <path
       d="M 18.6962,7.12238 C 10.6836,7.12238 3.64131,4.24672 0,0 1.41284,3.82041 3.96215,7.1163 7.30479,9.44404 10.6474,11.7718 14.623,13.0196 18.6962,13.0196 c 4.0733,0 8.0488,-1.2478 11.3915,-3.57556 C 33.4303,7.1163 35.9796,3.82041 37.3925,0 33.7601,4.24672 26.7445,7.12238 18.6962,7.12238 Z"
       id="path8_fill-3"
       inkscape:connector-curvature="0" />
    <path
       d="m 18.6962,5.89725 c 8.0127,0 15.055,2.87566 18.6963,7.12235 C 35.9796,9.19922 33.4303,5.90333 30.0877,3.57559 26.745,1.24785 22.7695,0 18.6962,0 14.623,0 10.6474,1.24785 7.30479,3.57559 3.96215,5.90333 1.41284,9.19922 0,13.0196 3.64131,8.76401 10.648,5.89725 18.6962,5.89725 Z"
       id="path9_fill-6"
       inkscape:connector-curvature="0" />
    <path
       d="M 7.59576,3.56656 C 7.64276,4.31992 7.46442,5.07022 7.08347,5.72186 6.70251,6.3735 6.13619,6.89698 5.45666,7.22561 4.77713,7.55424 4.01515,7.67314 3.26781,7.56716 2.52046,7.46117 1.82158,7.13511 1.26021,6.63051 0.698839,6.12591 0.300394,5.46561 0.115637,4.73375 -0.0691191,4.00188 -0.0318219,3.23159 0.222777,2.52099 0.477376,1.8104 0.93775,1.19169 1.54524,0.743685 2.15274,0.295678 2.87985,0.0386595 3.63394,0.00537589 4.12793,-0.0210471 4.62229,0.0501173 5.08878,0.214803 5.55526,0.37949 5.98473,0.63447 6.35264,0.965179 6.72055,1.29589 7.01971,1.69584 7.233,2.1422 7.4463,2.58855 7.56957,3.07256 7.59576,3.56656 Z"
       id="path10_fill-2"
       inkscape:connector-curvature="0" />
    <path
       d="M 2.25061,4.37943 C 1.81886,4.39135 1.39322,4.27535 1.02722,4.04602 0.661224,3.81668 0.371206,3.48424 0.193641,3.09052 0.0160762,2.69679 -0.0411078,2.25935 0.0292804,1.83321 0.0996686,1.40707 0.294486,1.01125 0.589233,0.695542 0.883981,0.37983 1.2655,0.158316 1.68581,0.0588577 2.10611,-0.0406005 2.54644,-0.0135622 2.95143,0.136572 3.35641,0.286707 3.70796,0.553234 3.96186,0.902636 4.21577,1.25204 4.3607,1.66872 4.37842,2.10027 4.39529,2.6838 4.18131,3.25044 3.78293,3.67715 3.38455,4.10387 2.83392,4.35623 2.25061,4.37943 Z"
       id="path11_fill-0"
       inkscape:connector-curvature="0" />
  </defs>
  <sodipodi:namedview
     id="base"
     pagecolor="#ffffff"
     bordercolor="#666666"
     borderopacity="1.0"
     inkscape:pageopacity="0.0"
     inkscape:pageshadow="2"
     inkscape:zoom="1.979899"
     inkscape:cx="222.56582"
     inkscape:cy="66.161592"
     inkscape:document-units="mm"
     inkscape:current-layer="layer1"
     showgrid="false"
     inkscape:pagecheckerboard="true"
     inkscape:window-width="1428"
     inkscape:window-height="977"
     inkscape:window-x="64"
     inkscape:window-y="-8"
     inkscape:window-maximized="1" />
  <metadata
     id="metadata5">
    <rdf:RDF>
      <cc:Work
         rdf:about="">
        <dc:format>image/svg+xml</dc:format>
        <dc:type
           rdf:resource="http://purl.org/dc/dcmitype/StillImage" />
        <dc:title></dc:title>
      </cc:Work>
    </rdf:RDF>
  </metadata>
  <g
     inkscape:label="Layer 1"
     inkscape:groupmode="layer"
     id="layer1"
     transform="translate(0,-267)">
    <g
       figma:type="canvas"
       transform="matrix(0.60003344,0,0,0.58648057,-983.71555,-1171.5795)"
       id="Canvas">
      <g
         figma:type="group"
         style="mix-blend-mode:normal"
         id="g225">
        <g
           figma:type="group"
           style="mix-blend-mode:normal"
           id="g223">
          <g
             figma:type="group"
             style="mix-blend-mode:normal"
             id="Group">
            <g
               figma:type="group"
               style="mix-blend-mode:normal"
               id="g">
              <g
                 figma:type="group"
                 style="mix-blend-mode:normal"
                 id="path">
                <g
                   figma:type="vector"
                   style="mix-blend-mode:normal"
                   id="path9 fill">
                  <use
                     id="use160"
                     style="mix-blend-mode:normal;fill:#4e4e4e"
                     transform="translate(1640.54,2474.36)"
                     xlink:href="#path0_fill-9"
                     x="0"
                     y="0"
                     width="100%"
                     height="100%" />
                </g>
              </g>
              <g
                 figma:type="group"
                 style="mix-blend-mode:normal"
                 id="g167">
                <g
                   figma:type="vector"
                   style="mix-blend-mode:normal"
                   id="path10 fill">
                  <use
                     id="use164"
                     style="mix-blend-mode:normal;fill:#4e4e4e"
                     transform="translate(1645.68,2474.37)"
                     xlink:href="#path1_fill-4"
                     x="0"
                     y="0"
                     width="100%"
                     height="100%" />
                </g>
              </g>
              <g
                 figma:type="group"
                 style="mix-blend-mode:normal"
                 id="g172">
                <g
                   figma:type="vector"
                   style="mix-blend-mode:normal"
                   id="path11 fill">
                  <use
                     id="use169"
                     style="mix-blend-mode:normal;fill:#4e4e4e"
                     transform="translate(1653.39,2474.26)"
                     xlink:href="#path2_fill-4"
                     x="0"
                     y="0"
                     width="100%"
                     height="100%" />
                </g>
              </g>
              <g
                 figma:type="group"
                 style="mix-blend-mode:normal"
                 id="g177">
                <g
                   figma:type="vector"
                   style="mix-blend-mode:normal"
                   id="path12 fill">
                  <use
                     id="use174"
                     style="mix-blend-mode:normal;fill:#4e4e4e"
                     transform="translate(1660.43,2474.39)"
                     xlink:href="#path3_fill-4"
                     x="0"
                     y="0"
                     width="100%"
                     height="100%" />
                </g>
              </g>
              <g
                 figma:type="group"
                 style="mix-blend-mode:normal"
                 id="g182">
                <g
                   figma:type="vector"
                   style="mix-blend-mode:normal"
                   id="path13 fill">
                  <use
                     id="use179"
                     style="mix-blend-mode:normal;fill:#4e4e4e"
                     transform="translate(1667.55,2472.54)"
                     xlink:href="#path4_fill-1"
                     x="0"
                     y="0"
                     width="100%"
                     height="100%" />
                </g>
              </g>
              <g
                 figma:type="group"
                 style="mix-blend-mode:normal"
                 id="g187">
                <g
                   figma:type="vector"
                   style="mix-blend-mode:normal"
                   id="path14 fill">
                  <use
                     id="use184"
                     style="mix-blend-mode:normal;fill:#4e4e4e"
                     transform="translate(1672.47,2474.29)"
                     xlink:href="#path5_fill-5"
                     x="0"
                     y="0"
                     width="100%"
                     height="100%" />
                </g>
              </g>
              <g
                 figma:type="group"
                 style="mix-blend-mode:normal"
                 id="g192">
                <g
                   figma:type="vector"
                   style="mix-blend-mode:normal"
                   id="path15 fill">
                  <use
                     id="use189"
                     style="mix-blend-mode:normal;fill:#4e4e4e"
                     transform="translate(1679.98,2474.24)"
                     xlink:href="#path6_fill-1"
                     x="0"
                     y="0"
                     width="100%"
                     height="100%" />
                </g>
              </g>
            </g>
          </g>
          <g
             figma:type="group"
             style="mix-blend-mode:normal"
             id="g221">
            <g
               figma:type="group"
               style="mix-blend-mode:normal"
               id="g199">
              <g
                 figma:type="vector"
                 style="mix-blend-mode:normal"
                 id="path16 fill">
                <use
                   id="use196"
                   style="mix-blend-mode:normal;fill:#767677"
                   transform="translate(1673.48,2453.69)"
                   xlink:href="#path7_fill-1"
                   x="0"
                   y="0"
                   width="100%"
                   height="100%" />
              </g>
            </g>
            <g
               figma:type="group"
               style="mix-blend-mode:normal"
               id="g204">
              <g
                 figma:type="vector"
                 style="mix-blend-mode:normal"
                 id="path17 fill">
                <use
                   id="use201"
                   style="mix-blend-mode:normal;fill:#f37726"
                   transform="translate(1643.21,2484.27)"
                   xlink:href="#path8_fill-3"
                   x="0"
                   y="0"
                   width="100%"
                   height="100%" />
              </g>
            </g>
            <g
               figma:type="group"
               style="mix-blend-mode:normal"
               id="g209">
              <g
                 figma:type="vector"
                 style="mix-blend-mode:normal"
                 id="path18 fill">
                <use
                   id="use206"
                   style="mix-blend-mode:normal;fill:#f37726"
                   transform="translate(1643.21,2457.88)"
                   xlink:href="#path9_fill-6"
                   x="0"
                   y="0"
                   width="100%"
                   height="100%" />
              </g>
            </g>
            <g
               figma:type="group"
               style="mix-blend-mode:normal"
               id="g214">
              <g
                 figma:type="vector"
                 style="mix-blend-mode:normal"
                 id="path19 fill">
                <use
                   id="use211"
                   style="mix-blend-mode:normal;fill:#9e9e9e"
                   transform="translate(1643.28,2496.09)"
                   xlink:href="#path10_fill-2"
                   x="0"
                   y="0"
                   width="100%"
                   height="100%" />
              </g>
            </g>
            <g
               figma:type="group"
               style="mix-blend-mode:normal"
               id="g219">
              <g
                 figma:type="vector"
                 style="mix-blend-mode:normal"
                 id="path20 fill">
                <use
                   id="use216"
                   style="mix-blend-mode:normal;fill:#616262"
                   transform="translate(1641.87,2458.43)"
                   xlink:href="#path11_fill-0"
                   x="0"
                   y="0"
                   width="100%"
                   height="100%" />
              </g>
            </g>
          </g>
        </g>
      </g>
    </g>
    <g
       aria-label="ATRP Kinetic Simulator -Lite"
       transform="matrix(0.26458333,0,0,0.26458333,-3.6081386,264.59457)"
       style="font-style:normal;font-weight:normal;font-size:40px;line-height:1.25;font-family:sans-serif;letter-spacing:0px;word-spacing:0px;fill:#000000;fill-opacity:1;stroke:none"
       id="flowRoot302">
      <path
         d="m 135.34375,45.284228 h -6.67188 l -0.51562,1.484375 q -0.21875,0.625 -0.35937,1.21875 -0.14063,0.578125 -0.14063,1.234375 0,1.53125 1.625,1.640625 v 1.03125 h -6.67187 v -1.03125 q 0.57812,-0.0625 1.01562,-0.40625 0.4375,-0.34375 0.79688,-0.9375 0.35937,-0.59375 0.76562,-1.703125 l 6.51562,-17.359375 h 4.17188 l 5.15625,17.5 q 0.34375,1.171875 0.57812,1.671875 0.23438,0.484375 0.60938,0.796875 0.375,0.296875 1.04687,0.4375 v 1.03125 h -8.625 v -1.03125 q 0.8125,-0.09375 1.20313,-0.453125 0.39062,-0.359375 0.39062,-1.015625 0,-0.484375 -0.10937,-1.078125 -0.10938,-0.59375 -0.35938,-1.5 z m -6.07813,-1.828125 h 5.625 l -2.5,-8.796875 z"
         style="font-style:normal;font-variant:normal;font-weight:bold;font-stretch:normal;font-size:32px;font-family:Cambria;-inkscape-font-specification:'Cambria Bold';fill:#0010af;fill-opacity:1"
         id="path4563" />
      <path
         d="m 146.96875,51.893603 v -1.03125 Q 147.625,50.752978 148,50.581103 q 0.39062,-0.1875 0.57812,-0.515625 0.1875,-0.328125 0.23438,-0.828125 0.0469,-0.515625 0.0469,-1.265625 V 32.393603 h -1.26562 q -0.9375,0 -1.4375,0.21875 -0.5,0.21875 -0.875,0.6875 -0.35938,0.46875 -0.625,1.265625 -0.26563,0.78125 -0.4375,1.484375 h -2.14063 v -5.484375 h 18.39063 v 5.484375 h -2.14063 q -0.29687,-1.0625 -0.46875,-1.5625 -0.17187,-0.5 -0.39062,-0.84375 -0.20313,-0.359375 -0.4375,-0.59375 -0.23438,-0.234375 -0.5,-0.375 -0.26563,-0.140625 -0.67188,-0.203125 -0.39062,-0.07813 -1.03125,-0.07813 h -1.125 v 15.578125 q 0,0.828125 0.0469,1.265625 0.0469,0.421875 0.17187,0.6875 0.125,0.265625 0.29688,0.4375 0.1875,0.15625 0.5,0.296875 0.32812,0.125 0.875,0.203125 v 1.03125 z"
         style="font-style:normal;font-variant:normal;font-weight:bold;font-stretch:normal;font-size:32px;font-family:Cambria;-inkscape-font-specification:'Cambria Bold';fill:#0010af;fill-opacity:1"
         id="path4565" />
      <path
         d="m 171.1875,51.893603 h -8.20313 v -1.03125 q 0.57813,-0.15625 0.90625,-0.328125 0.34375,-0.1875 0.5,-0.5 0.17188,-0.328125 0.21875,-0.8125 0.0469,-0.5 0.0469,-1.25 v -13.46875 q 0,-0.734375 -0.0469,-1.234375 -0.0312,-0.5 -0.20312,-0.8125 -0.15625,-0.3125 -0.5,-0.5 -0.32813,-0.203125 -0.92188,-0.359375 v -1.03125 h 9.10938 q 1.84375,0 3.125,0.265625 1.29687,0.25 2.26562,0.78125 0.8125,0.4375 1.375,1.109375 0.5625,0.65625 0.85938,1.546875 0.3125,0.875 0.3125,2.046875 0,1.53125 -0.54688,2.625 -0.53125,1.09375 -1.45312,1.828125 -0.90625,0.71875 -2.4375,1.359375 v 0.15625 q 1.15625,0.5 1.90625,1.34375 0.76562,0.828125 1.375,2.109375 l 0.98437,2.125 q 0.65625,1.421875 1.29688,2.140625 0.65625,0.703125 1.54687,0.859375 v 1.03125 h -6.01562 q -0.90625,-1.25 -2.04688,-3.71875 l -1.21875,-2.671875 q -0.54687,-1.1875 -0.9375,-1.6875 -0.39062,-0.5 -0.8125,-0.6875 -0.40625,-0.1875 -1.26562,-0.1875 H 169.5 v 5.03125 q 0,1.171875 0.10937,1.640625 0.10938,0.46875 0.42188,0.75 0.3125,0.28125 1.15625,0.5 z M 169.5,32.424853 v 8.6875 h 1.54687 q 1.25,0 2.0625,-0.328125 0.8125,-0.34375 1.28125,-0.9375 0.48438,-0.609375 0.65625,-1.421875 0.1875,-0.8125 0.1875,-1.78125 0,-2.125 -1,-3.1875 -1,-1.0625 -2.96875,-1.0625 -1.34375,0 -1.76562,0.03125 z"
         style="font-style:normal;font-variant:normal;font-weight:bold;font-stretch:normal;font-size:32px;font-family:Cambria;-inkscape-font-specification:'Cambria Bold';fill:#0010af;fill-opacity:1"
         id="path4567" />
      <path
         d="m 190.6875,47.987353 q 0,1.03125 0.0781,1.46875 0.0781,0.421875 0.25,0.6875 0.1875,0.25 0.51563,0.421875 0.34375,0.171875 1.04687,0.296875 v 1.03125 h -8.40625 v -1.03125 q 0.57813,-0.15625 0.90625,-0.328125 0.34375,-0.1875 0.5,-0.5 0.17188,-0.328125 0.21875,-0.8125 0.0469,-0.5 0.0469,-1.25 v -13.46875 q 0,-0.734375 -0.0469,-1.234375 -0.0312,-0.5 -0.20312,-0.8125 -0.15625,-0.3125 -0.5,-0.5 -0.32813,-0.203125 -0.92188,-0.359375 v -1.03125 H 193.25 q 3.95312,0 5.92187,1.421875 1.96875,1.40625 1.96875,4.34375 0,2.078125 -0.92187,3.609375 -0.92188,1.53125 -2.67188,2.328125 -1.75,0.78125 -4.375,0.78125 -1.51562,0 -2.48437,-0.0625 z m 0,-6.765625 h 1.34375 q 1.5625,0 2.48437,-0.4375 0.92188,-0.453125 1.35938,-1.421875 0.45312,-0.96875 0.45312,-2.609375 0,-1.625 -0.45312,-2.578125 -0.4375,-0.96875 -1.29688,-1.375 -0.85937,-0.40625 -2.20312,-0.40625 -1.09375,0 -1.6875,0.03125 z"
         style="font-style:normal;font-variant:normal;font-weight:bold;font-stretch:normal;font-size:32px;font-family:Cambria;-inkscape-font-specification:'Cambria Bold';fill:#0010af;fill-opacity:1"
         id="path4569" />
      <path
         d="m 228.23437,47.737353 q 0.60938,0.9375 1.01563,1.5 0.42187,0.546875 0.73437,0.859375 0.3125,0.3125 0.60938,0.484375 0.3125,0.15625 0.8125,0.296875 v 1.015625 h -8.46875 v -1.03125 q 0.53125,-0.07813 0.71875,-0.25 0.1875,-0.1875 0.1875,-0.484375 0,-0.25 -0.0781,-0.484375 -0.0625,-0.25 -0.32812,-0.71875 -0.26563,-0.46875 -1.07813,-1.71875 l -2.39062,-3.6875 q -0.4375,-0.671875 -0.76563,-1.046875 -0.3125,-0.375 -0.64062,-0.53125 -0.3125,-0.171875 -0.875,-0.171875 h -0.3125 v 6.203125 q 0,0.546875 0.0312,1.015625 0.0312,0.46875 0.125,0.765625 0.0937,0.296875 0.26562,0.5 0.1875,0.203125 0.5,0.359375 0.3125,0.140625 0.76563,0.25 v 1.03125 h -8.20313 v -1.03125 q 0.57813,-0.15625 0.90625,-0.328125 0.34375,-0.1875 0.5,-0.5 0.17188,-0.328125 0.21875,-0.8125 0.0469,-0.5 0.0469,-1.25 v -13.46875 q 0,-0.734375 -0.0469,-1.234375 -0.0312,-0.5 -0.20312,-0.8125 -0.15625,-0.3125 -0.5,-0.5 -0.32813,-0.203125 -0.92188,-0.359375 v -1.03125 h 8.20313 v 1.03125 q -0.65625,0.171875 -0.96875,0.375 -0.29688,0.203125 -0.45313,0.484375 -0.14062,0.28125 -0.20312,0.71875 -0.0625,0.4375 -0.0625,1.328125 v 5.5625 h 0.32812 q 0.71875,0 1.14063,-0.15625 0.42187,-0.15625 0.85937,-0.5625 0.45313,-0.40625 1.71875,-1.890625 1.28125,-1.5 1.84375,-2.296875 0.57813,-0.8125 0.78125,-1.328125 0.21875,-0.53125 0.21875,-1.046875 0,-0.546875 -0.375,-0.859375 -0.35937,-0.3125 -1.03125,-0.328125 v -1.03125 h 7.98438 v 1.0625 q -0.59375,0.109375 -1.01563,0.328125 -0.42187,0.21875 -0.96875,0.71875 -0.54687,0.484375 -1.39062,1.4375 l -4.6875,5.25 z"
         style="font-style:normal;font-variant:normal;font-weight:bold;font-stretch:normal;font-size:32px;font-family:Cambria;-inkscape-font-specification:'Cambria Bold';fill:#0010af;fill-opacity:1"
         id="path4571" />
      <path
         d="m 238.4375,30.159228 v 3.828125 h -4.28125 V 30.159228 Z M 232.5,50.862353 q 0.76562,-0.203125 1.04687,-0.53125 0.29688,-0.328125 0.39063,-0.890625 0.10937,-0.5625 0.10937,-2.046875 v -7.265625 q 0,-0.765625 -0.0781,-1.234375 -0.0625,-0.46875 -0.26563,-0.75 -0.1875,-0.28125 -0.53125,-0.421875 -0.32812,-0.15625 -0.85937,-0.265625 v -1.0625 l 4.29687,-0.125 h 1.95313 v 11.109375 q 0,0.875 0.0156,1.359375 0.0312,0.46875 0.0781,0.734375 0.0469,0.25 0.125,0.453125 0.0937,0.203125 0.23437,0.375 0.14063,0.171875 0.40625,0.3125 0.26563,0.140625 0.70313,0.25 v 1.03125 H 232.5 Z"
         style="font-style:normal;font-variant:normal;font-weight:bold;font-stretch:normal;font-size:32px;font-family:Cambria;-inkscape-font-specification:'Cambria Bold';fill:#0010af;fill-opacity:1"
         id="path4573" />
      <path
         d="m 259.5625,51.893603 h -7.57813 v -1.03125 q 0.71875,-0.171875 1,-0.5 0.28125,-0.34375 0.375,-0.90625 0.10938,-0.578125 0.10938,-2.0625 v -4.171875 q 0,-1.109375 -0.0469,-1.8125 -0.0469,-0.71875 -0.15625,-1.171875 -0.0937,-0.453125 -0.28125,-0.75 -0.17187,-0.3125 -0.39062,-0.5 -0.21875,-0.203125 -0.5,-0.296875 -0.28125,-0.09375 -0.71875,-0.09375 -0.59375,0 -1.23438,0.375 -0.64062,0.359375 -1.07812,1.015625 -0.4375,0.640625 -0.4375,1.375 v 6.015625 q 0,1.484375 0.0937,2.0625 0.0937,0.578125 0.375,0.921875 0.29687,0.328125 1.03125,0.5 v 1.03125 h -7.54688 v -1.03125 q 0.75,-0.203125 1.03125,-0.53125 0.29688,-0.328125 0.39063,-0.890625 0.10937,-0.5625 0.10937,-2.046875 v -6.421875 q 0,-1.15625 -0.0469,-1.703125 -0.0312,-0.5625 -0.1875,-0.890625 -0.14063,-0.34375 -0.45313,-0.546875 -0.29687,-0.21875 -1.04687,-0.375 v -1.0625 l 4.28125,-0.125 h 1.96875 l -0.23438,2.25 0.1875,0.04687 q 0.96875,-0.859375 1.70313,-1.34375 0.73437,-0.5 1.53125,-0.78125 0.8125,-0.296875 1.70312,-0.296875 1.28125,0 2.125,0.375 0.84375,0.359375 1.35938,1.0625 0.53125,0.703125 0.75,1.71875 0.23437,1.015625 0.23437,2.359375 v 5.71875 q 0,0.6875 0.0156,1.296875 0.0312,0.59375 0.125,0.953125 0.0937,0.359375 0.25,0.59375 0.17187,0.21875 0.46875,0.375 0.29687,0.15625 0.71875,0.265625 z"
         style="font-style:normal;font-variant:normal;font-weight:bold;font-stretch:normal;font-size:32px;font-family:Cambria;-inkscape-font-specification:'Cambria Bold';fill:#0010af;fill-opacity:1"
         id="path4575" />
      <path
         d="m 276.03125,49.049853 q -1.59375,1.6875 -3.15625,2.390625 -1.5625,0.703125 -3.59375,0.703125 -3.64063,0 -5.48438,-1.984375 -1.82812,-2 -1.82812,-5.921875 0,-2.53125 0.9375,-4.359375 0.95312,-1.84375 2.6875,-2.78125 1.73437,-0.953125 4.03125,-0.953125 1.42187,0 2.48437,0.328125 1.07813,0.328125 1.84375,0.921875 0.76563,0.578125 1.26563,1.40625 0.59375,0.984375 0.89062,2.25 0.3125,1.296875 0.32813,3.140625 h -9.90625 q 0.0156,2.828125 1,4.171875 1,1.328125 3.03125,1.328125 1.1875,0 2.14062,-0.4375 0.95313,-0.453125 2.0625,-1.578125 z m -4.21875,-6.546875 q -0.0625,-2.390625 -0.625,-3.5625 -0.5625,-1.171875 -1.8125,-1.171875 -1.20313,0 -1.92188,1.21875 -0.70312,1.21875 -0.84375,3.515625 z"
         style="font-style:normal;font-variant:normal;font-weight:bold;font-stretch:normal;font-size:32px;font-family:Cambria;-inkscape-font-specification:'Cambria Bold';fill:#0010af;fill-opacity:1"
         id="path4577" />
      <path
         d="m 289.57812,50.018603 q -1.375,1.171875 -2.5,1.65625 -1.125,0.46875 -2.375,0.46875 -2.32812,0 -3.48437,-1.25 -1.14063,-1.265625 -1.14063,-3.8125 V 38.346728 H 278.125 v -1.078125 q 0.95312,-0.15625 1.40625,-0.46875 0.45312,-0.3125 0.70312,-0.828125 0.25,-0.53125 0.39063,-1.375 0.15625,-0.84375 0.23437,-2.109375 h 3.73438 v 3.90625 h 4.45312 v 1.953125 h -4.45312 v 7.046875 q 0,1.765625 0.15625,2.609375 0.17187,0.84375 0.5625,1.25 0.39062,0.390625 0.96875,0.390625 0.4375,0 0.78125,-0.07813 0.34375,-0.07813 0.71875,-0.28125 0.39062,-0.203125 0.8125,-0.578125 z"
         style="font-style:normal;font-variant:normal;font-weight:bold;font-stretch:normal;font-size:32px;font-family:Cambria;-inkscape-font-specification:'Cambria Bold';fill:#0010af;fill-opacity:1"
         id="path4579" />
      <path
         d="m 296.5,30.159228 v 3.828125 h -4.28125 v -3.828125 z m -5.9375,20.703125 q 0.76562,-0.203125 1.04687,-0.53125 0.29688,-0.328125 0.39063,-0.890625 0.10937,-0.5625 0.10937,-2.046875 v -7.265625 q 0,-0.765625 -0.0781,-1.234375 -0.0625,-0.46875 -0.26563,-0.75 -0.1875,-0.28125 -0.53125,-0.421875 -0.32812,-0.15625 -0.85937,-0.265625 v -1.0625 l 4.29687,-0.125 h 1.95313 v 11.109375 q 0,0.875 0.0156,1.359375 0.0312,0.46875 0.0781,0.734375 0.0469,0.25 0.125,0.453125 0.0937,0.203125 0.23437,0.375 0.14063,0.171875 0.40625,0.3125 0.26563,0.140625 0.70313,0.25 v 1.03125 h -7.625 z"
         style="font-style:normal;font-variant:normal;font-weight:bold;font-stretch:normal;font-size:32px;font-family:Cambria;-inkscape-font-specification:'Cambria Bold';fill:#0010af;fill-opacity:1"
         id="path4581" />
      <path
         d="m 312.54687,47.893603 1.20313,1.453125 q -1.53125,1.5 -2.96875,2.15625 -1.42188,0.640625 -3.10938,0.640625 -3.39062,0 -5.17187,-1.984375 -1.78125,-2 -1.78125,-5.796875 0,-2.5625 0.96875,-4.421875 0.98437,-1.875 2.8125,-2.828125 1.82812,-0.96875 4.1875,-0.96875 1.26562,0 2.51562,0.1875 1.26563,0.171875 2.29688,0.484375 v 3.765625 h -3.09375 q -0.23438,-1.46875 -0.70313,-2.140625 -0.46875,-0.671875 -1.34375,-0.671875 -0.57812,0 -1.10937,0.296875 -0.51563,0.28125 -0.92188,1 -0.39062,0.703125 -0.625,1.90625 -0.23437,1.1875 -0.23437,3.015625 0,1.828125 0.34375,3.09375 0.34375,1.25 1.10937,1.9375 0.76563,0.671875 2.01563,0.671875 0.90625,0 1.70312,-0.390625 0.8125,-0.390625 1.90625,-1.40625 z"
         style="font-style:normal;font-variant:normal;font-weight:bold;font-stretch:normal;font-size:32px;font-family:Cambria;-inkscape-font-specification:'Cambria Bold';fill:#0010af;fill-opacity:1"
         id="path4583" />
      <path
         d="m 126.1875,96.627978 q 0.39063,1.859375 1.29688,2.78125 0.92187,0.906252 2.68749,0.906252 0.92188,0 1.65625,-0.3125 0.73438,-0.312502 1.17188,-1.000002 0.45312,-0.703125 0.45312,-1.75 0,-0.96875 -0.35937,-1.671875 -0.35938,-0.71875 -1.15625,-1.359375 -0.79688,-0.640625 -2.21875,-1.359375 -1.21875,-0.609375 -2.20312,-1.265625 -0.98438,-0.65625 -1.6875,-1.4375 -0.6875,-0.796875 -1.07813,-1.734375 -0.375,-0.9375 -0.375,-2.109375 0,-1.921875 0.95313,-3.265625 0.95312,-1.34375 2.74999,-2.03125 1.8125,-0.703125 4.1875,-0.703125 1.39063,0 2.65625,0.15625 1.26563,0.140625 2.89063,0.515625 v 4.53125 h -2.14063 q -0.29687,-1.234375 -0.76562,-1.953125 -0.45313,-0.734375 -1.14063,-1.078125 -0.6875,-0.34375 -1.73437,-0.34375 -0.89063,0 -1.59375,0.3125 -0.70313,0.3125 -1.10938,0.9375 -0.40625,0.609375 -0.40625,1.484375 0,0.90625 0.34375,1.578125 0.35938,0.65625 1.1875,1.296875 0.82813,0.625 2.40625,1.4375 1.92188,1 3.01563,1.96875 1.10937,0.953125 1.625,2.09375 0.53125,1.125 0.53125,2.625 0,1.921875 -0.89063,3.34375 -0.89062,1.406252 -2.59375,2.171872 -1.70312,0.75 -3.9375,0.75 -1.59375,0 -3.32812,-0.1875 -1.71875,-0.17187 -3.23437,-0.51562 v -4.812502 z"
         style="fill:#0010af;fill-opacity:1"
         id="path4585" />
      <path
         d="m 146.4375,80.159228 v 3.828125 h -4.28125 V 80.159228 Z M 140.5,100.86235 q 0.76562,-0.20312 1.04687,-0.53125 0.29688,-0.32812 0.39063,-0.890622 0.10937,-0.5625 0.10937,-2.046875 v -7.265625 q 0,-0.765625 -0.0781,-1.234375 -0.0625,-0.46875 -0.26563,-0.75 -0.1875,-0.28125 -0.53125,-0.421875 -0.32812,-0.15625 -0.85937,-0.265625 v -1.0625 l 4.29687,-0.125 h 1.95313 v 11.109375 q 0,0.875 0.0156,1.359375 0.0312,0.46875 0.0781,0.734375 0.0469,0.25 0.125,0.453125 0.0937,0.203127 0.23437,0.374997 0.14063,0.17188 0.40625,0.3125 0.26563,0.14063 0.70313,0.25 v 1.03125 H 140.5 Z"
         style="fill:#0010af;fill-opacity:1"
         id="path4587" />
      <path
         d="m 156.39062,88.518603 0.1875,0.04687 q 1.42188,-1.328125 2.5625,-1.875 1.14063,-0.546875 2.32813,-0.546875 1.15625,0 1.92187,0.296875 0.76563,0.296875 1.29688,0.875 0.53125,0.5625 0.85937,1.484375 1.57813,-1.46875 2.73438,-2.0625 1.17187,-0.59375 2.4375,-0.59375 1.25,0 2.0625,0.328125 0.82812,0.328125 1.35937,1.015625 0.53125,0.6875 0.76563,1.71875 0.25,1.03125 0.25,2.46875 v 5.703125 q 0,0.6875 0.0156,1.296875 0.0312,0.59375 0.125,0.953125 0.0937,0.359375 0.25,0.593752 0.17188,0.21875 0.46875,0.375 0.29688,0.15625 0.71875,0.26562 v 1.03125 h -7.53125 v -1.03125 q 0.70313,-0.17187 0.96875,-0.5 0.26563,-0.32812 0.35938,-0.906247 0.10937,-0.578125 0.10937,-2.0625 v -4.1875 q 0,-1.40625 -0.0937,-2.28125 -0.0937,-0.890625 -0.35937,-1.390625 -0.26563,-0.5 -0.64063,-0.71875 -0.35937,-0.21875 -0.95312,-0.21875 -0.40625,0 -0.75,0.125 -0.34375,0.125 -0.70313,0.390625 -0.34375,0.25 -0.59375,0.515625 -0.25,0.265625 -0.40625,0.59375 -0.14062,0.328125 -0.20312,0.734375 -0.0469,0.40625 -0.0469,1.328125 v 5.09375 q 0,1.0625 0.0312,1.625 0.0469,0.5625 0.17188,0.90625 0.125,0.343752 0.39062,0.578122 0.28125,0.21875 0.85938,0.375 v 1.03125 h -7.4375 v -1.03125 q 0.71875,-0.17187 0.98437,-0.5 0.28125,-0.32812 0.375,-0.890622 0.0937,-0.578125 0.0937,-2.078125 v -4.1875 q 0,-1.03125 -0.0469,-1.734375 -0.0312,-0.71875 -0.125,-1.15625 -0.0937,-0.4375 -0.26563,-0.765625 -0.15625,-0.328125 -0.375,-0.53125 -0.20312,-0.203125 -0.5,-0.3125 -0.28125,-0.109375 -0.71875,-0.109375 -0.57812,0 -1.21875,0.359375 -0.625,0.359375 -1.0625,1 -0.42187,0.640625 -0.42187,1.375 v 6.046875 q 0,1.46875 0.0781,2.0625 0.0937,0.578122 0.375,0.921872 0.28125,0.32813 0.98438,0.5 v 1.03125 h -7.48438 v -1.03125 q 0.75,-0.20312 1.03125,-0.53125 0.29688,-0.32812 0.39063,-0.890622 0.10937,-0.5625 0.10937,-2.046875 v -6.421875 q 0,-1.15625 -0.0469,-1.703125 -0.0312,-0.5625 -0.1875,-0.890625 -0.14063,-0.34375 -0.45313,-0.546875 -0.29687,-0.21875 -1.04687,-0.375 v -1.0625 l 4.28125,-0.125 h 1.96875 z"
         style="fill:#0010af;fill-opacity:1"
         id="path4589" />
      <path
         d="m 178.73437,86.393603 h 6.07813 v 8.671875 q 0,1.5 0.0937,2.34375 0.0937,0.84375 0.35937,1.34375 0.26563,0.484375 0.64063,0.71875 0.39062,0.21875 0.98437,0.21875 0.57813,0 1.21875,-0.359375 0.64063,-0.359375 1.07813,-1 0.45312,-0.65625 0.45312,-1.390625 v -6.03125 q 0,-1.140625 -0.0469,-1.6875 -0.0469,-0.5625 -0.1875,-0.875 -0.125,-0.3125 -0.40625,-0.515625 -0.28125,-0.21875 -0.92188,-0.40625 v -1.03125 h 6.09375 v 10.9375 q 0,1.1875 0.0312,1.734375 0.0469,0.546875 0.1875,0.875 0.14063,0.328122 0.45313,0.546872 0.3125,0.20313 1.04687,0.35938 v 1.04687 l -4.25,0.14063 H 189.75 l 0.14062,-2.250002 -0.1875,-0.04687 q -1.45312,1.343747 -2.59375,1.874997 -1.14062,0.53125 -2.29687,0.53125 -1.65625,0 -2.65625,-0.60937 -0.98438,-0.625 -1.42188,-1.812502 -0.4375,-1.203125 -0.4375,-3.09375 v -5.71875 q 0,-0.875 -0.0312,-1.34375 -0.0156,-0.46875 -0.0625,-0.71875 -0.0469,-0.265625 -0.14062,-0.46875 -0.0781,-0.21875 -0.23438,-0.390625 -0.14062,-0.171875 -0.40625,-0.3125 -0.25,-0.140625 -0.6875,-0.25 z"
         style="fill:#0010af;fill-opacity:1"
         id="path4591" />
      <path
         d="m 204.04687,97.377978 q 0,1.484375 0.0937,2.046875 0.0937,0.5625 0.375,0.906247 0.29688,0.32813 1.09375,0.53125 v 1.03125 h -7.65625 v -1.03125 q 0.46875,-0.10937 0.73438,-0.25 0.26562,-0.15625 0.40625,-0.34375 0.15625,-0.20312 0.26562,-0.499997 0.10938,-0.3125 0.14063,-0.84375 0.0312,-0.546875 0.0312,-1.546875 v -12.1875 q 0,-1.34375 -0.0312,-1.96875 -0.0156,-0.640625 -0.0937,-1.0625 -0.0625,-0.4375 -0.23438,-0.6875 -0.15625,-0.265625 -0.45312,-0.421875 -0.29688,-0.15625 -0.95313,-0.28125 v -1.03125 l 4.32813,-0.21875 h 1.95312 z"
         style="fill:#0010af;fill-opacity:1"
         id="path4593" />
      <path
         d="m 217.3125,99.846728 -0.23438,-0.07813 q -1.28125,1.249997 -2.5,1.812497 -1.20312,0.5625 -2.5625,0.5625 -1.34375,0 -2.34375,-0.48437 -0.98437,-0.5 -1.5,-1.375 -0.5,-0.875002 -0.5,-2.015627 0,-2.296875 2.25,-3.609375 2.26563,-1.328125 6.85938,-1.671875 v -1.484375 q 0,-1.453125 -0.32813,-2.234375 -0.32812,-0.796875 -0.84375,-1.109375 -0.51562,-0.328125 -1.23437,-0.328125 -0.71875,0 -1.25,0.25 -0.51563,0.25 -0.9375,0.953125 -0.42188,0.6875 -0.625,1.921875 h -2.95313 v -2.84375 q 1.4375,-0.640625 2.39063,-0.984375 0.95312,-0.34375 1.875,-0.5625 0.9375,-0.234375 1.67187,-0.328125 0.73438,-0.09375 1.46875,-0.09375 1.89063,0 3.01563,0.5 1.14062,0.5 1.70312,1.625 0.5625,1.125 0.5625,3.109375 v 6.09375 q 0,1.03125 0.0469,1.59375 0.0469,0.5625 0.14062,0.84375 0.10938,0.265622 0.26563,0.437502 0.15625,0.15625 0.375,0.26562 0.23437,0.0937 0.85937,0.25 v 1.03125 h -5.8125 z m -0.51563,-5.328125 q -2.42187,0.0625 -3.59375,0.90625 -1.15625,0.84375 -1.15625,2.46875 0,0.96875 0.53125,1.484375 0.53125,0.5 1.46875,0.5 0.71875,0 1.35938,-0.375 0.64062,-0.390625 1.01562,-1.03125 0.375,-0.640625 0.375,-1.359375 z"
         style="fill:#0010af;fill-opacity:1"
         id="path4595" />
      <path
         d="m 235.89062,100.0186 q -1.375,1.17188 -2.5,1.65625 -1.125,0.46875 -2.375,0.46875 -2.32812,0 -3.48437,-1.25 -1.14063,-1.265622 -1.14063,-3.812497 v -8.734375 h -1.95312 v -1.078125 q 0.95312,-0.15625 1.40625,-0.46875 0.45312,-0.3125 0.70312,-0.828125 0.25,-0.53125 0.39063,-1.375 0.15625,-0.84375 0.23437,-2.109375 h 3.73438 v 3.90625 h 4.45312 v 1.953125 h -4.45312 v 7.046875 q 0,1.765625 0.15625,2.609375 0.17187,0.84375 0.5625,1.25 0.39062,0.390625 0.96875,0.390625 0.4375,0 0.78125,-0.07813 0.34375,-0.07813 0.71875,-0.28125 0.39062,-0.203125 0.8125,-0.578125 z"
         style="fill:#0010af;fill-opacity:1"
         id="path4597" />
      <path
         d="m 244.03125,102.1436 q -2.29688,0 -3.96875,-0.79687 -1.65625,-0.8125 -2.59375,-2.578127 -0.9375,-1.78125 -0.9375,-4.515625 0,-2.09375 0.57812,-3.625 0.57813,-1.53125 1.60938,-2.53125 1.03125,-1 2.45312,-1.46875 1.4375,-0.484375 3.10938,-0.484375 3.78125,0 5.70312,2 1.92188,1.984375 1.92188,5.828125 0,2.71875 -0.95313,4.5625 -0.95312,1.828122 -2.71875,2.718752 -1.76562,0.89062 -4.20312,0.89062 z m -2.75,-8.234372 q 0,3.3125 0.73437,4.96875 0.75,1.640622 2.25,1.640622 0.82813,0 1.375,-0.42187 0.5625,-0.421877 0.89063,-1.218752 0.34375,-0.796875 0.48437,-1.90625 0.14063,-1.125 0.14063,-2.515625 0,-3.359375 -0.75,-5.015625 -0.73438,-1.671875 -2.1875,-1.671875 -1.0625,0 -1.70313,0.671875 -0.64062,0.671875 -0.9375,2.015625 -0.29687,1.34375 -0.29687,3.453125 z"
         style="fill:#0010af;fill-opacity:1"
         id="path4599" />
      <path
         d="m 260.53125,88.627978 0.20312,0.04687 q 1.14063,-1.34375 2.34375,-1.9375 1.20313,-0.59375 2.60938,-0.59375 0.95312,0 2,0.203125 v 4.3125 h -2.82813 q -0.26562,-0.90625 -0.70312,-1.390625 -0.42188,-0.484375 -1.14063,-0.484375 -0.34375,0 -0.76562,0.21875 -0.40625,0.203125 -0.76563,0.59375 -0.34375,0.375 -0.5,0.78125 -0.14062,0.390625 -0.1875,0.796875 -0.0469,0.40625 -0.0469,1.21875 v 4.984375 q 0,1.484375 0.10937,2.078125 0.10938,0.593747 0.4375,0.937497 0.32813,0.32813 1.10938,0.46875 v 1.03125 h -7.70313 v -1.03125 q 0.75,-0.20312 1.03125,-0.53125 0.29688,-0.32812 0.39063,-0.890622 0.10937,-0.5625 0.10937,-2.046875 v -6.421875 q 0,-1.15625 -0.0469,-1.703125 -0.0312,-0.5625 -0.1875,-0.890625 -0.14063,-0.34375 -0.45313,-0.546875 -0.29687,-0.21875 -1.04687,-0.375 v -1.0625 l 4.28125,-0.125 H 260.75 Z"
         style="fill:#0010af;fill-opacity:1"
         id="path4601" />
      <path
         d="m 283.59375,94.877978 h -6.82813 l 0.51563,-2.421875 h 6.82812 z"
         style="font-style:italic;font-variant:normal;font-weight:normal;font-stretch:normal;font-family:Cambria;-inkscape-font-specification:'Cambria Italic';fill:#000000;fill-opacity:0.60869565"
         id="path4603" />
    </g>
    <g
       aria-label="Full"
       style="font-style:italic;font-variant:normal;font-weight:normal;font-stretch:normal;font-size:8.46666622px;line-height:1.25;font-family:Cambria;-inkscape-font-specification:'Cambria, Italic';font-variant-ligatures:normal;font-variant-caps:normal;font-variant-numeric:normal;font-feature-settings:normal;text-align:start;letter-spacing:0px;word-spacing:0px;writing-mode:lr-tb;text-anchor:start;fill:#000000;fill-opacity:0.61352659;stroke:none;stroke-width:0.26458332"
       id="text4584">
      <path
         d="m 74.780303,290.54069 q -0.02894,0.12402 -0.04548,0.21084 -0.01654,0.0868 -0.02894,0.21497 -0.0124,0.12402 -0.0124,0.21911 0,0.12816 0.04134,0.20257 0.04134,0.0703 0.124023,0.10335 0.08268,0.0331 0.285254,0.0496 l -0.04547,0.20257 h -1.699121 l 0.04548,-0.20257 q 0.157096,-0.0248 0.235644,-0.0786 0.07855,-0.0579 0.132292,-0.15709 0.05374,-0.0992 0.09922,-0.23978 0.04548,-0.1447 0.136426,-0.55397 l 0.702799,-3.18327 q 0.09095,-0.41341 0.09095,-0.65319 0,-0.20257 -0.09508,-0.28112 -0.09508,-0.0785 -0.310059,-0.0909 l 0.04548,-0.20257 h 3.728971 l -0.285254,1.26917 h -0.396875 q -0.01654,-0.29352 -0.04547,-0.45889 -0.02894,-0.1695 -0.07441,-0.25218 -0.04134,-0.0827 -0.09508,-0.11989 -0.05374,-0.0413 -0.136426,-0.0579 -0.07855,-0.0165 -0.227376,-0.0165 h -1.273307 l -0.49196,2.24896 h 0.773079 q 0.181901,0 0.301791,-0.0496 0.119889,-0.0496 0.223242,-0.17777 0.103353,-0.13229 0.256315,-0.44648 h 0.376204 l -0.401009,1.74459 h -0.363802 q 0,-0.25631 -0.0124,-0.40101 -0.0083,-0.14469 -0.04961,-0.20257 -0.03721,-0.0579 -0.111621,-0.0786 -0.07028,-0.0248 -0.26045,-0.0248 h -0.810286 z"
         style="font-style:italic;font-variant:normal;font-weight:normal;font-stretch:normal;font-size:8.46666622px;font-family:Cambria;-inkscape-font-specification:'Cambria, Italic';font-variant-ligatures:normal;font-variant-caps:normal;font-variant-numeric:normal;font-feature-settings:normal;text-align:start;writing-mode:lr-tb;text-anchor:start;fill:#000000;fill-opacity:0.61352659;stroke-width:0.26458332"
         id="path4586" />
      <path
         d="m 78.240556,287.7915 h 1.302247 l -0.525033,2.10426 q -0.05788,0.23151 -0.103353,0.46303 -0.04134,0.22737 -0.04134,0.41754 0,0.29352 0.09922,0.42168 0.103353,0.12816 0.318327,0.12816 0.177766,0 0.384472,-0.13643 0.206706,-0.14056 0.438216,-0.42995 0.231511,-0.29352 0.363802,-0.55397 0.136426,-0.26045 0.21084,-0.62011 l 0.376205,-1.79421 h 0.715201 l -0.628385,2.8236 q -0.0248,0.11162 -0.05788,0.29352 -0.03307,0.1819 -0.03307,0.29766 0,0.17363 0.09508,0.24805 0.09922,0.0703 0.363802,0.0868 l -0.04547,0.20257 h -1.182357 l 0.264584,-1.03766 -0.05374,-0.0165 q -0.401009,0.57051 -0.777213,0.8475 -0.372071,0.27285 -0.752409,0.27285 -0.401009,0 -0.607715,-0.21911 -0.206706,-0.22324 -0.206706,-0.65732 0,-0.12403 0.02067,-0.28939 0.0248,-0.1695 0.06615,-0.3514 l 0.347265,-1.46761 q 0.04134,-0.1819 0.05374,-0.28939 0.01654,-0.10749 0.01654,-0.1819 0,-0.18604 -0.09922,-0.26045 -0.09922,-0.0744 -0.355533,-0.0951 z"
         style="font-style:italic;font-variant:normal;font-weight:normal;font-stretch:normal;font-size:8.46666622px;font-family:Cambria;-inkscape-font-specification:'Cambria, Italic';font-variant-ligatures:normal;font-variant-caps:normal;font-variant-numeric:normal;font-feature-settings:normal;text-align:start;writing-mode:lr-tb;text-anchor:start;fill:#000000;fill-opacity:0.61352659;stroke-width:0.26458332"
         id="path4588" />
      <path
         d="m 84.226754,285.83193 h 0.243913 l -1.07487,4.87825 q -0.04547,0.19844 -0.05788,0.3018 -0.0124,0.0992 -0.0124,0.16949 0,0.12403 0.04134,0.19431 0.04134,0.0703 0.128157,0.10748 0.08682,0.0372 0.285254,0.0579 l -0.03307,0.20257 h -1.289844 l 1.066602,-4.74596 q 0.04134,-0.1819 0.05788,-0.27285 0.01654,-0.0909 0.0248,-0.17363 0.0083,-0.0827 0.0083,-0.1447 0,-0.12402 -0.04547,-0.18603 -0.04547,-0.0662 -0.132291,-0.0951 -0.08268,-0.0289 -0.301791,-0.0413 l 0.04961,-0.21497 z"
         style="font-style:italic;font-variant:normal;font-weight:normal;font-stretch:normal;font-size:8.46666622px;font-family:Cambria;-inkscape-font-specification:'Cambria, Italic';font-variant-ligatures:normal;font-variant-caps:normal;font-variant-numeric:normal;font-feature-settings:normal;text-align:start;writing-mode:lr-tb;text-anchor:start;fill:#000000;fill-opacity:0.61352659;stroke-width:0.26458332"
         id="path4590" />
      <path
         d="m 86.492249,285.83193 h 0.243912 l -1.074869,4.87825 q -0.04548,0.19844 -0.05788,0.3018 -0.0124,0.0992 -0.0124,0.16949 0,0.12403 0.04134,0.19431 0.04134,0.0703 0.128158,0.10748 0.08682,0.0372 0.285253,0.0579 l -0.03307,0.20257 h -1.289843 l 1.066601,-4.74596 q 0.04134,-0.1819 0.05788,-0.27285 0.01654,-0.0909 0.0248,-0.17363 0.0083,-0.0827 0.0083,-0.1447 0,-0.12402 -0.04547,-0.18603 -0.04548,-0.0662 -0.132292,-0.0951 -0.08268,-0.0289 -0.30179,-0.0413 l 0.04961,-0.21497 z"
         style="font-style:italic;font-variant:normal;font-weight:normal;font-stretch:normal;font-size:8.46666622px;font-family:Cambria;-inkscape-font-specification:'Cambria, Italic';font-variant-ligatures:normal;font-variant-caps:normal;font-variant-numeric:normal;font-feature-settings:normal;text-align:start;writing-mode:lr-tb;text-anchor:start;fill:#000000;fill-opacity:0.61352659;stroke-width:0.26458332"
         id="path4592" />
    </g>
  </g>
</svg>
