<?xml version="1.0" encoding="utf-8"?>
<!-- Generator: Adobe Illustrator 14.0.0, SVG Export Plug-In . SVG Version: 6.00 Build 43363)  -->
<!DOCTYPE svg PUBLIC "-//W3C//DTD SVG 1.1//EN" "http://www.w3.org/Graphics/SVG/1.1/DTD/svg11.dtd">
<svg version="1.1" xmlns="http://www.w3.org/2000/svg" xmlns:xlink="http://www.w3.org/1999/xlink" x="0px" y="0px" width="2272px"
	 height="1872px" viewBox="0 0 2272 1872" enable-background="new 0 0 2272 1872" xml:space="preserve">
<g id="Back">
	<rect fill="#A389A5" width="2272" height="1872"/>
</g>
<g id="_x36_">
	<g>
		<g>
			
				<rect x="1334.713" y="510.803" transform="matrix(0.7071 0.7071 -0.7071 0.7071 766.6962 -815.8412)" fill="#4C4C4C" width="66.87" height="13.508"/>
		</g>
		<g>
			
				<rect x="1002.37" y="510.803" transform="matrix(-0.7071 0.7071 -0.7071 -0.7071 2134.1992 151.1055)" fill="#4C4C4C" width="66.87" height="13.508"/>
		</g>
		<g>
			<rect x="1193.871" y="184.202" fill="#4C4C4C" width="13.509" height="66.871"/>
		</g>
		<path fill="#4C4C4C" d="M1279.33,370.856v-84.569l-77.248-44.602l-77.248,44.602v83.667l-72.142,41.653v89.194l77.248,44.601
			l71.36-41.202l71.361,41.202l77.248-44.601v-89.194L1279.33,370.856z M1135.642,292.524l66.44-38.358l66.44,38.358v76.722
			l-66.44,38.358l-66.44-38.358V292.524z M1063.5,494.563v-76.719l66.44-38.358l65.474,37.8v77.834l-65.474,37.801L1063.5,494.563z
			 M1339.102,494.563l-66.439,38.358l-65.474-37.801v-77.834l65.474-37.8l66.439,38.358V494.563z"/>
		<circle fill="#FFAA00" cx="1058.096" cy="493.915" r="19.161"/>
		<circle fill="#FFAA00" cx="1058.096" cy="412.855" r="13.51"/>
		<circle fill="#FFAA00" cx="1201.301" cy="496.616" r="19.132"/>
		<circle fill="#FFAA00" cx="1201.301" cy="412.855" r="13.51"/>
		<circle fill="#FFAA00" cx="1274.254" cy="372.325" r="21.218"/>
		<circle fill="#FFAA00" cx="1131.05" cy="372.325" r="18.459"/>
		<circle fill="#FFAA00" cx="1201.301" cy="248.034" r="19.132"/>
		<circle fill="#FFAA00" cx="1274.255" cy="288.564" r="11.091"/>
		<circle fill="#FFAA00" cx="1131.05" cy="288.564" r="11.091"/>
		<circle fill="#FFAA00" cx="1344.506" cy="493.915" r="19.162"/>
		<circle fill="#FFAA00" cx="1344.506" cy="412.855" r="13.51"/>
	</g>
	<g>
		<g>
			
				<rect x="1698.571" y="743.037" transform="matrix(0.53 0.848 -0.848 0.53 1466.7245 -1077.9799)" fill="#4C4C4C" width="14.541" height="82.303"/>
		</g>
		<g>
			
				<rect x="2158.045" y="478.402" transform="matrix(0.5301 0.848 -0.848 0.5301 1458.1089 -1591.9348)" fill="#4C4C4C" width="14.542" height="82.304"/>
		</g>
		<path fill="#4C4C4C" d="M2055.65,488.003l-83.141,48.003v87.361l-0.84-0.485l-76.805,44.345l-76.803-44.345l-83.141,48.003v95.997
			l83.141,48.003l76.803-44.345l76.805,44.345l83.14-48.003v-87.358l0.841,0.485l83.139-48.003v-96L2055.65,488.003z
			 M1746.555,760.168v-82.57l71.508-41.283l70.468,40.684v83.771l-70.468,40.684L1746.555,760.168z M2043.177,760.168
			l-71.507,41.284l-70.469-40.684v-83.771l70.469-40.684l71.507,41.283V760.168z M2127.157,625.292l-71.507,41.284l-71.508-41.284
			V542.72l71.508-41.284l71.507,41.284V625.292z"/>
		<circle fill="#FFAA00" cx="1739.284" cy="673.682" r="23.265"/>
		<circle fill="#FFAA00" cx="1893.412" cy="760.924" r="15.994"/>
		<circle fill="#FFAA00" cx="1893.412" cy="673.682" r="15.994"/>
		<circle fill="#FFAA00" cx="1817.802" cy="807.453" r="10.178"/>
		<circle fill="#FFAA00" cx="1817.802" cy="630.061" r="10.178"/>
		<circle fill="#FFAA00" cx="2047.539" cy="760.924" r="15.994"/>
		<circle fill="#FFAA00" cx="1739.284" cy="760.924" r="23.265"/>
		<circle fill="#FFAA00" cx="2047.539" cy="673.682" r="19.223"/>
		<circle fill="#FFAA00" cx="2131.873" cy="630.061" r="24.398"/>
		<circle fill="#FFAA00" cx="2131.873" cy="537.003" r="15.994"/>
		<circle fill="#FFAA00" cx="1977.746" cy="537.003" r="10.528"/>
		<circle fill="#FFAA00" cx="1977.746" cy="630.061" r="10.178"/>
		<circle fill="#FFAA00" cx="1971.93" cy="804.545" r="11.31"/>
		<circle fill="#FFAA00" cx="2056.264" cy="496.29" r="19.557"/>
	</g>
	<g>
		<g>
			<rect x="468.127" y="557.274" fill="#4C4C4C" width="57.358" height="11.586"/>
		</g>
		<g>
			
				<rect x="208.554" y="696.331" transform="matrix(-0.7071 0.7071 -0.7071 -0.7071 901.4587 1030.8521)" fill="#4C4C4C" width="57.358" height="11.587"/>
		</g>
		<g>
			
				<rect x="210.872" y="413.581" transform="matrix(0.7071 0.7071 -0.7071 0.7071 366.7054 -46.5558)" fill="#4C4C4C" width="57.358" height="11.587"/>
		</g>
		<path fill="#4C4C4C" d="M363.13,629.481h72.539l38.256-66.259l-38.256-66.259h-71.766l-35.728-61.879h-76.506l-38.257,66.259
			l35.341,61.209l-35.341,61.21l38.257,66.259h76.506L363.13,629.481z M430.318,506.233l32.901,56.989l-32.901,56.989h-65.808
			l-32.902-56.989l32.902-56.989H430.318z M257.02,444.354h65.805l32.901,56.989l-32.423,56.16h-66.762l-32.423-56.16
			L257.02,444.354z M257.02,680.751l-32.902-56.989l32.423-56.161h66.762l32.423,56.161l-32.901,56.989H257.02z"/>
		<circle fill="#FFAA00" cx="257.577" cy="439.719" r="16.213"/>
		<circle fill="#FFAA00" cx="327.105" cy="439.719" r="8.194"/>
		<circle fill="#FFAA00" cx="255.259" cy="562.552" r="16.577"/>
		<circle fill="#FFAA00" cx="327.105" cy="562.552" r="8.194"/>
		<circle fill="#FFAA00" cx="361.869" cy="625.128" r="11.588"/>
		<circle fill="#FFAA00" cx="361.869" cy="502.294" r="11.588"/>
		<circle fill="#FFAA00" cx="468.48" cy="562.552" r="11.588"/>
		<circle fill="#FFAA00" cx="433.716" cy="625.128" r="16.476"/>
		<circle fill="#FFAA00" cx="433.716" cy="502.294" r="14.6"/>
		<circle fill="#FFAA00" cx="257.577" cy="685.386" r="14.675"/>
		<circle fill="#FFAA00" cx="327.105" cy="685.386" r="7.637"/>
	</g>
	<g>
		<g>
			
				<rect x="1015.969" y="970.772" transform="matrix(0.7071 -0.7071 0.7071 0.7071 -384.5656 1024.7074)" fill="#4C4C4C" width="57.359" height="11.587"/>
		</g>
		<g>
			<rect x="953.637" y="1229.761" fill="#4C4C4C" width="11.587" height="57.358"/>
		</g>
		<g>
			<rect x="732.457" y="1051.073" fill="#4C4C4C" width="57.358" height="11.587"/>
		</g>
		<path fill="#4C4C4C" d="M997.087,1118.051l51.293-51.293l-19.801-73.903l-73.904-19.801l-50.746,50.745l-69.019-18.492
			l-54.098,54.099l19.801,73.903l68.272,18.292l18.292,68.271l73.904,19.802l54.098-54.099L997.087,1118.051z M957.447,983.392
			l63.562,17.032l17.032,63.563l-46.533,46.533l-63.562-17.032l-17.032-63.563L957.447,983.392z M791.151,1062.177l46.531-46.531
			l63.562,17.032l16.785,62.638l-47.208,47.208l-62.638-16.784L791.151,1062.177z M958.309,1229.335l-63.562-17.032l-16.785-62.638
			l47.208-47.208l62.638,16.784l17.032,63.563L958.309,1229.335z"/>
		<circle fill="#FFAA00" cx="788.267" cy="1058.505" r="16.213"/>
		<circle fill="#FFAA00" cx="837.431" cy="1009.342" r="8.194"/>
		<circle fill="#FFAA00" cx="873.485" cy="1147.001" r="16.577"/>
		<circle fill="#FFAA00" cx="924.288" cy="1096.198" r="8.194"/>
		<circle fill="#FFAA00" cx="993.117" cy="1115.864" r="11.588"/>
		<circle fill="#FFAA00" cx="906.261" cy="1029.007" r="11.588"/>
		<circle fill="#FFAA00" cx="1024.255" cy="996.231" r="11.588"/>
		<circle fill="#FFAA00" cx="1043.92" cy="1065.061" r="16.476"/>
		<circle fill="#FFAA00" cx="957.064" cy="978.204" r="14.6"/>
		<circle fill="#FFAA00" cx="961.98" cy="1232.219" r="14.675"/>
		<circle fill="#FFAA00" cx="1011.144" cy="1183.055" r="7.637"/>
	</g>
</g>
<g id="_x35_">
	<g>
		<path fill="#8DD5E3" d="M1753.935,1335.061l-47.716-19.881v-64.916h-4.352h-87.037h-4.353v64.867l-49.511,20.072
			c-16.107,6.529-26.646,22.174-26.646,39.555v147.86c0,13.019,10.554,23.572,23.572,23.572h198.735
			c13.019,0,23.572-10.554,23.572-23.572v-148.159C1780.2,1357.229,1769.84,1341.688,1753.935,1335.061z"/>
		<path fill="#E9FBFF" d="M1743.093,1347.859l-46.229-19.262h-8.053v-78.334h-60.927v78.334h-8.296l-47.823,19.388
			c-14.301,5.798-23.658,19.688-23.658,35.118v131.278c0,11.559,9.37,20.929,20.93,20.929h176.446
			c11.56,0,20.929-9.37,20.929-20.929v-131.543C1766.412,1367.541,1757.214,1353.743,1743.093,1347.859z"/>
		<g>
			<path fill="#F9DA95" d="M1656.172,1468.945c-5.407,0-9.791-4.384-9.791-9.792v-279.607c0-5.407,4.384-9.791,9.791-9.791
				c5.408,0,9.792,4.384,9.792,9.791v279.607C1665.964,1464.562,1661.58,1468.945,1656.172,1468.945z"/>
		</g>
		<path fill="#8DD5E3" d="M1714.845,1250.264h-115.169c-2.446,0-4.43-1.982-4.43-4.429v-15.077c0-2.446,1.983-4.429,4.43-4.429
			h115.169c2.446,0,4.43,1.982,4.43,4.429v15.077C1719.274,1248.281,1717.291,1250.264,1714.845,1250.264z"/>
		<path fill="#6D3AA3" d="M1766.412,1514.382v-72.706c-20.803,5.296-45.511,11.513-79.777,2.246
			c-11.211-3.032-12.563-4.779-23.935-8.704c-29.252-10.096-71.036-16.022-114.593-8.479v87.644c0,11.559,9.37,20.929,20.93,20.929
			h176.446C1757.043,1535.311,1766.412,1525.94,1766.412,1514.382z"/>
		<g>
			<path fill="#FFCB48" d="M1664.876,1065.31c0,0-71.806,58.751-56.574,104.445c12.982,38.948,76.157,50.046,102.269,0
				c26.111-50.047-21.759-60.927-21.759-60.927s17.407,13.056,10.879,23.936c-0.065,0.109-0.13,0.217-0.194,0.323
				c-4.104,6.794-13.53,7.979-19.141,2.364C1669.834,1124.923,1656.432,1103.309,1664.876,1065.31z"/>
			<path fill="#FF5B00" d="M1656.952,1128.412c0,0-33.296,27.242-26.233,48.43c6.02,18.061,35.313,23.207,47.421,0
				c12.108-23.206-10.089-28.251-10.089-28.251s8.071,6.054,5.045,11.099c-0.03,0.051-0.061,0.101-0.091,0.15
				c-1.903,3.15-6.273,3.699-8.876,1.096C1659.251,1156.054,1653.036,1146.032,1656.952,1128.412z"/>
		</g>
	</g>
</g>
<g id="_x33_">
	<g>
		<path fill="#B4E2EF" d="M1817.872,1104.453h-316.243c-32.833,0-53.496-31.132-37.369-56.3l194.196-303.063l0,0l196.664,302.877
			C1871.463,1073.136,1850.813,1104.453,1817.872,1104.453z"/>
		<rect x="1615.38" y="650.521" fill="#B4E2EF" width="89.165" height="232.37"/>
		<g>
			<rect x="1618.081" y="591.077" fill="#D18118" width="83.762" height="59.444"/>
			<rect x="1636.995" y="650.521" fill="#AF6812" width="45.934" height="59.443"/>
		</g>
		<path fill="#8DD5E3" d="M1720.862,680.242h-116.396c-4.419,0-8-3.582-8-8V645.01c0-4.418,3.581-8,8-8h116.396c4.419,0,8,3.582,8,8
			v27.232C1728.862,676.66,1725.281,680.242,1720.862,680.242z"/>
		<path fill="#FFE696" d="M1682.064,967.012c-53.729,8.55-97.919,6.453-132.35,0.412l-41.287,67.724
			c-12.26,20.11,3.449,44.987,28.41,44.987h240.421c25.042,0,40.742-25.024,28.317-45.137l-45.125-73.047
			C1736.376,961.215,1710.152,962.542,1682.064,967.012z"/>
	</g>
</g>
<g id="_x34_">
	<g>
		<path fill="#6E6D72" d="M1062.825,1546.227H622.402v-176.139c0-7.18,5.82-13,13-13h414.422c7.18,0,13,5.82,13,13V1546.227z"/>
		<path fill="#515154" d="M657.528,1358.438c-3.777,0-7.408,0.612-10.817,1.716c31.482,80.438,109.712,137.437,201.307,137.437
			c89.901,0,166.963-54.893,199.55-132.981c-5.652-3.886-12.491-6.171-19.869-6.171H657.528z"/>
		<rect x="102.271" y="1544.875" fill="#6E6D72" width="2036.518" height="45.934"/>
		<rect x="1215.486" y="580.269" fill="#6E6D72" width="56.742" height="964.606"/>
		<rect x="1242.506" y="712.666" fill="#6E6D72" width="416.105" height="56.741"/>
		<path fill="#565659" d="M1715.59,793.831h-108.554c-2.854,0-5.167-2.313-5.167-5.167V682.813c0-2.854,2.313-5.167,5.167-5.167
			h108.554c2.854,0,5.167,2.313,5.167,5.167v105.852C1720.757,791.518,1718.443,793.831,1715.59,793.831z"/>
		<path fill="#F7C1D8" d="M1299.248,1544.875h-116.186v-34.135c0-8.009,6.492-14.5,14.5-14.5h87.186c8.008,0,14.5,6.491,14.5,14.5
			V1544.875z"/>
		<path fill="#CECCDD" d="M1662.155,522.832L851.563,295.867c-6.936-1.942-14.504-0.503-20.25,3.851
			c-5.739,4.354-9.166,11.255-9.166,18.459v617.604h46.338V348.724l764.256,213.991v28.361h46.338v-45.934
			C1679.078,534.798,1672.119,525.623,1662.155,522.832z"/>
		<path fill="#6E6D72" d="M1632.74,591.077v-28.361L868.484,348.724v587.057h-46.338V318.177c0-7.205,3.427-14.106,9.166-18.459
			c5.747-4.354,13.315-5.793,20.25-3.851l810.592,226.965c9.964,2.792,16.923,11.966,16.923,22.312v45.934h5v-45.934
			c0-12.578-8.46-23.732-20.574-27.126L852.912,291.052c-8.429-2.364-17.633-0.615-24.62,4.681
			c-6.979,5.294-11.146,13.685-11.146,22.444v622.604h56.338V355.316l754.256,211.191v24.569H1632.74z"/>
	</g>
</g>
<g id="_x32_">
	<g>
		<path fill="#B4E2EF" d="M896.653,1086.915V950.44H796.68v136.475c-79.437,21.891-137.801,94.611-137.801,181.008
			c0,103.712,84.075,187.787,187.788,187.787s187.788-84.075,187.788-187.787C1034.454,1181.526,976.09,1108.806,896.653,1086.915z"
			/>
		<g>
			<rect x="804.786" y="882.891" fill="#D18118" width="83.761" height="59.443"/>
			<rect x="823.7" y="942.334" fill="#AF6812" width="45.934" height="59.443"/>
		</g>
		<path fill="#8DD5E3" d="M912.971,972.056H780.362c-4.418,0-8-3.581-8-8v-27.231c0-4.418,3.582-8,8-8h132.608c4.418,0,8,3.582,8,8
			v27.231C920.971,968.475,917.389,972.056,912.971,972.056z"/>
		<g>
			<path fill="#FFE496" d="M843.964,1423.286c70.037,0,129.23-46.35,148.629-110.042c-49.989,4.724-103.896-0.305-149.98-27.759
				c-54.897-32.705-107.766-46.72-150.111-52.101c-2.524,11.112-3.901,22.661-3.901,34.538
				C688.601,1353.728,758.16,1423.286,843.964,1423.286z"/>
			<circle fill="#FFFFFF" cx="735.885" cy="1265.221" r="6.755"/>
			<circle fill="#FFFFFF" cx="861.527" cy="1339.525" r="13.51"/>
			<circle fill="#FFFFFF" cx="761.554" cy="1347.631" r="8.106"/>
			<circle fill="#FFFFFF" cx="938.534" cy="1313.856" r="9.457"/>
		</g>
	</g>
</g>
<g id="_x31_">
	<g>
		<path fill="#B4E2EF" d="M464.632,1540.454H249.328c-42.019,0-76.083-34.063-76.083-76.082v-364.341h367.469v364.341
			C540.715,1506.391,506.651,1540.454,464.632,1540.454z"/>
		<g>
			<g>
				<polygon fill="#FFE696" points="408.161,1482.009 389.478,1479.065 447.478,1058.76 482.175,1064.226 				"/>
				<path fill="#F9D05F" d="M410.359,1485.09l-23.92-3.768l58.739-425.659l40.138,6.322l-0.479,2.713L410.359,1485.09z
					 M392.516,1476.809l13.447,2.118l73.07-412.461l-29.255-4.608L392.516,1476.809z"/>
			</g>
			<path fill="#3939E5" d="M525.194,1024.307c4.628-29.376-15.436-56.941-44.812-61.569c-29.376-4.627-56.942,15.436-61.569,44.813
				c-3.156,20.036,5.187,39.214,20.123,50.862l-3.75,23.811c-1.791,11.372,5.975,22.043,17.347,23.834l10.295,1.621
				c11.372,1.792,22.042-5.975,23.833-17.347l3.75-23.811C508.204,1060.027,522.039,1044.343,525.194,1024.307z"/>
		</g>
		<path fill="#8DD5E3" d="M550.129,1102.733H158.428c-5.247,0-9.5-4.253-9.5-9.5v-32.338c0-5.246,4.253-9.5,9.5-9.5h391.701
			c5.247,0,9.5,4.254,9.5,9.5v32.338C559.629,1098.48,555.375,1102.733,550.129,1102.733z"/>
		<path opacity="0.69" fill="#6F8DC1" d="M197.563,1321.594v118.112c0,41.037,33.267,74.305,74.304,74.305h170.225
			c41.037,0,74.304-33.268,74.304-74.305v-118.112H197.563z"/>
		<g>
			<g>
				<g>
					<path fill="#1E1E1E" d="M246.199,1118.945h-48.636c-1.492,0-2.702-1.208-2.702-2.702c0-1.493,1.21-2.701,2.702-2.701h48.636
						c1.492,0,2.702,1.208,2.702,2.701C248.901,1117.737,247.691,1118.945,246.199,1118.945z"/>
				</g>
				<g>
					<path fill="#1E1E1E" d="M227.285,1135.157h-29.722c-1.492,0-2.702-1.208-2.702-2.702c0-1.493,1.21-2.701,2.702-2.701h29.722
						c1.492,0,2.702,1.208,2.702,2.701C229.987,1133.949,228.777,1135.157,227.285,1135.157z"/>
				</g>
				<g>
					<path fill="#1E1E1E" d="M227.285,1151.369h-29.722c-1.492,0-2.702-1.208-2.702-2.702c0-1.493,1.21-2.702,2.702-2.702h29.722
						c1.492,0,2.702,1.209,2.702,2.702C229.987,1150.161,228.777,1151.369,227.285,1151.369z"/>
				</g>
				<g>
					<path fill="#1E1E1E" d="M227.285,1167.581h-29.722c-1.492,0-2.702-1.208-2.702-2.702c0-1.493,1.21-2.701,2.702-2.701h29.722
						c1.492,0,2.702,1.208,2.702,2.701C229.987,1166.373,228.777,1167.581,227.285,1167.581z"/>
				</g>
				<g>
					<g>
						<path fill="#1E1E1E" d="M246.199,1183.793h-48.636c-1.492,0-2.702-1.208-2.702-2.702c0-1.493,1.21-2.702,2.702-2.702h48.636
							c1.492,0,2.702,1.209,2.702,2.702C248.901,1182.585,247.691,1183.793,246.199,1183.793z"/>
					</g>
					<g>
						<path fill="#1E1E1E" d="M227.285,1200.005h-29.722c-1.492,0-2.702-1.208-2.702-2.702c0-1.493,1.21-2.702,2.702-2.702h29.722
							c1.492,0,2.702,1.209,2.702,2.702C229.987,1198.797,228.777,1200.005,227.285,1200.005z"/>
					</g>
					<g>
						<path fill="#1E1E1E" d="M227.285,1216.217h-29.722c-1.492,0-2.702-1.209-2.702-2.702s1.21-2.702,2.702-2.702h29.722
							c1.492,0,2.702,1.209,2.702,2.702S228.777,1216.217,227.285,1216.217z"/>
					</g>
					<g>
						<path fill="#1E1E1E" d="M227.285,1232.429h-29.722c-1.492,0-2.702-1.209-2.702-2.702s1.21-2.702,2.702-2.702h29.722
							c1.492,0,2.702,1.209,2.702,2.702S228.777,1232.429,227.285,1232.429z"/>
					</g>
				</g>
			</g>
			<g>
				<g>
					<path fill="#1E1E1E" d="M246.199,1248.641h-48.636c-1.492,0-2.702-1.209-2.702-2.702s1.21-2.702,2.702-2.702h48.636
						c1.492,0,2.702,1.209,2.702,2.702S247.691,1248.641,246.199,1248.641z"/>
				</g>
				<g>
					<path fill="#1E1E1E" d="M227.285,1264.853h-29.722c-1.492,0-2.702-1.209-2.702-2.702s1.21-2.702,2.702-2.702h29.722
						c1.492,0,2.702,1.209,2.702,2.702S228.777,1264.853,227.285,1264.853z"/>
				</g>
				<g>
					<path fill="#1E1E1E" d="M227.285,1281.064h-29.722c-1.492,0-2.702-1.209-2.702-2.702s1.21-2.702,2.702-2.702h29.722
						c1.492,0,2.702,1.209,2.702,2.702S228.777,1281.064,227.285,1281.064z"/>
				</g>
				<g>
					<path fill="#1E1E1E" d="M227.285,1297.276h-29.722c-1.492,0-2.702-1.209-2.702-2.702s1.21-2.702,2.702-2.702h29.722
						c1.492,0,2.702,1.209,2.702,2.702S228.777,1297.276,227.285,1297.276z"/>
				</g>
				<g>
					<g>
						<path fill="#1E1E1E" d="M246.199,1313.488h-48.636c-1.492,0-2.702-1.209-2.702-2.702s1.21-2.702,2.702-2.702h48.636
							c1.492,0,2.702,1.209,2.702,2.702S247.691,1313.488,246.199,1313.488z"/>
					</g>
					<g>
						<path fill="#1E1E1E" d="M227.285,1329.7h-29.722c-1.492,0-2.702-1.209-2.702-2.702c0-1.494,1.21-2.702,2.702-2.702h29.722
							c1.492,0,2.702,1.208,2.702,2.702C229.987,1328.491,228.777,1329.7,227.285,1329.7z"/>
					</g>
					<g>
						<path fill="#1E1E1E" d="M227.285,1345.912h-29.722c-1.492,0-2.702-1.209-2.702-2.702s1.21-2.702,2.702-2.702h29.722
							c1.492,0,2.702,1.209,2.702,2.702S228.777,1345.912,227.285,1345.912z"/>
					</g>
					<g>
						<path fill="#1E1E1E" d="M227.285,1362.124h-29.722c-1.492,0-2.702-1.209-2.702-2.702c0-1.494,1.21-2.702,2.702-2.702h29.722
							c1.492,0,2.702,1.208,2.702,2.702C229.987,1360.915,228.777,1362.124,227.285,1362.124z"/>
					</g>
				</g>
			</g>
			<g>
				<g>
					<path fill="#1E1E1E" d="M246.199,1362.124h-48.636c-1.492,0-2.702-1.209-2.702-2.702c0-1.494,1.21-2.702,2.702-2.702h48.636
						c1.492,0,2.702,1.208,2.702,2.702C248.901,1360.915,247.691,1362.124,246.199,1362.124z"/>
				</g>
				<g>
					<path fill="#1E1E1E" d="M227.285,1378.336h-29.722c-1.492,0-2.702-1.209-2.702-2.702c0-1.494,1.21-2.702,2.702-2.702h29.722
						c1.492,0,2.702,1.208,2.702,2.702C229.987,1377.127,228.777,1378.336,227.285,1378.336z"/>
				</g>
				<g>
					<path fill="#1E1E1E" d="M227.285,1394.548h-29.722c-1.492,0-2.702-1.209-2.702-2.702c0-1.494,1.21-2.702,2.702-2.702h29.722
						c1.492,0,2.702,1.208,2.702,2.702C229.987,1393.339,228.777,1394.548,227.285,1394.548z"/>
				</g>
				<g>
					<path fill="#1E1E1E" d="M227.285,1410.76h-29.722c-1.492,0-2.702-1.209-2.702-2.702c0-1.494,1.21-2.702,2.702-2.702h29.722
						c1.492,0,2.702,1.208,2.702,2.702C229.987,1409.551,228.777,1410.76,227.285,1410.76z"/>
				</g>
				<g>
					<g>
						<path fill="#1E1E1E" d="M246.199,1426.971h-48.636c-1.492,0-2.702-1.208-2.702-2.701c0-1.494,1.21-2.702,2.702-2.702h48.636
							c1.492,0,2.702,1.208,2.702,2.702C248.901,1425.763,247.691,1426.971,246.199,1426.971z"/>
					</g>
					<g>
						<path fill="#1E1E1E" d="M227.285,1443.183h-29.722c-1.492,0-2.702-1.208-2.702-2.701c0-1.494,1.21-2.702,2.702-2.702h29.722
							c1.492,0,2.702,1.208,2.702,2.702C229.987,1441.975,228.777,1443.183,227.285,1443.183z"/>
					</g>
					<g>
						<path fill="#1E1E1E" d="M227.285,1459.395h-29.722c-1.492,0-2.702-1.208-2.702-2.701c0-1.494,1.21-2.702,2.702-2.702h29.722
							c1.492,0,2.702,1.208,2.702,2.702C229.987,1458.187,228.777,1459.395,227.285,1459.395z"/>
					</g>
					<g>
						<path fill="#1E1E1E" d="M227.285,1475.606h-29.722c-1.492,0-2.702-1.208-2.702-2.701c0-1.494,1.21-2.702,2.702-2.702h29.722
							c1.492,0,2.702,1.208,2.702,2.702C229.987,1474.398,228.777,1475.606,227.285,1475.606z"/>
					</g>
				</g>
			</g>
		</g>
	</g>
</g>
</svg>
