<?xml version="1.0" encoding="utf-8"?>
<!-- Generator: Adobe Illustrator 18.0.0, SVG Export Plug-In . SVG Version: 6.00 Build 0)  -->
<!DOCTYPE svg PUBLIC "-//W3C//DTD SVG 1.1//EN" "http://www.w3.org/Graphics/SVG/1.1/DTD/svg11.dtd">
<svg version="1.1" id="Layer_1" xmlns="http://www.w3.org/2000/svg" xmlns:xlink="http://www.w3.org/1999/xlink" x="0px" y="0px"
	 width="1400px" height="980px" viewBox="0 0 1400 980" enable-background="new 0 0 1400 980" xml:space="preserve">
<rect fill="#33CFD3" width="1400" height="980"/>
<g>
	<polygon fill="#404C63" points="971.7,229.4 892.7,229.4 899.2,214.5 980,214.5 	"/>
	<rect x="300.8" y="397.5" fill="#404C63" width="18.3" height="97.1"/>
	<ellipse fill="#2AB2B5" cx="229" cy="788.6" rx="177.8" ry="31.4"/>
	<ellipse fill="#2AB2B5" cx="256.1" cy="754" rx="107.6" ry="19"/>
	<ellipse fill="#2AB2B5" cx="474.6" cy="747.2" rx="182.1" ry="32.2"/>
	<ellipse fill="#2AB2B5" cx="628.2" cy="786.3" rx="335.7" ry="49.4"/>
	<ellipse fill="#2AB2B5" cx="1147.4" cy="797.3" rx="218.5" ry="34.5"/>
	<ellipse fill="#2AB2B5" cx="817.7" cy="834.9" rx="102.6" ry="24.8"/>
	<g>
		<g>
			<path fill="#E4E9F4" d="M461.5,627.6h0.3v91.1c0,5.5,4.5,10,10,10h0c5.5,0,10-4.5,10-10v-91.1h0.1c2.7,0,5.1-2.1,5.3-4.8
				c0.2-3-2.2-5.5-5.1-5.5h-20.4c-2.7,0-5.1,2.1-5.3,4.8C456.1,625.1,458.5,627.6,461.5,627.6z"/>
			<path fill="#DAE1ED" d="M482,617.2h-10.3v111.4c0,0,0,0,0,0c5.5,0,10-4.5,10-10v-91.1h0.1c2.7,0,5.1-2.1,5.3-4.8
				C487.4,619.7,485,617.2,482,617.2z"/>
			<path fill="#F93C2E" d="M466,657.8v60.8c0,3.2,2.6,5.7,5.7,5.7s5.7-2.6,5.7-5.7v-60.8H466z"/>
			<path fill="#F22F2A" d="M471.8,724.4C471.8,724.4,471.8,724.4,471.8,724.4c3.2,0,5.7-2.6,5.7-5.7v-60.8h-5.7V724.4z"/>
		</g>
		<g>
			<g>
				<path fill="#E4E9F4" d="M411.9,627.6h0.3v91.1c0,5.5,4.5,10,10,10l0,0c5.5,0,10-4.5,10-10v-91.1h0.1c2.7,0,5.1-2.1,5.3-4.8
					c0.2-3-2.2-5.5-5.1-5.5h-20.4c-2.7,0-5.1,2.1-5.3,4.8C406.6,625.1,409,627.6,411.9,627.6z"/>
				<path fill="#DAE1ED" d="M432.5,617.2h-10.3v111.4c0,0,0,0,0,0c5.5,0,10-4.5,10-10v-91.1h0.1c2.7,0,5.1-2.1,5.3-4.8
					C437.8,619.7,435.4,617.2,432.5,617.2z"/>
				<path fill="#FDC104" d="M416.5,671.8v46.9c0,3.2,2.6,5.7,5.7,5.7s5.7-2.6,5.7-5.7v-46.9H416.5z"/>
				<path fill="#EFB206" d="M422.2,724.4C422.2,724.4,422.2,724.4,422.2,724.4c3.2,0,5.7-2.6,5.7-5.7v-46.9h-5.7V724.4z"/>
			</g>
			<g>
				<path fill="#E4E9F4" d="M511,627.6h0.3v91.1c0,5.5,4.5,10,10,10l0,0c5.5,0,10-4.5,10-10v-91.1h0.1c2.7,0,5.1-2.1,5.3-4.8
					c0.2-3-2.2-5.5-5.1-5.5h-20.4c-2.7,0-5.1,2.1-5.3,4.8C505.7,625.1,508.1,627.6,511,627.6z"/>
				<path fill="#DAE1ED" d="M531.6,617.2h-10.3v111.4c0,0,0,0,0,0c5.5,0,10-4.5,10-10v-91.1h0.1c2.7,0,5.1-2.1,5.3-4.8
					C536.9,619.7,534.6,617.2,531.6,617.2z"/>
				<path fill="#32CDD6" d="M515.6,698.1v20.6c0,3.2,2.6,5.7,5.7,5.7s5.7-2.6,5.7-5.7v-20.6H515.6z"/>
				<path fill="#29C1C1" d="M521.3,724.4C521.3,724.4,521.3,724.4,521.3,724.4c3.2,0,5.7-2.6,5.7-5.7v-20.6h-5.7V724.4z"/>
			</g>
		</g>
		<path fill="#343F5B" d="M392.4,728.6h158.7c4.2,0,7.7,3.4,7.7,7.7v0c0,4.2-3.4,7.7-7.7,7.7H392.4c-4.2,0-7.7-3.4-7.7-7.7v0
			C384.7,732.1,388.2,728.6,392.4,728.6z"/>
		<g>
			<rect x="392.4" y="631.8" fill="#343F5B" width="6.3" height="104.5"/>
			<rect x="544.8" y="631.8" fill="#343F5B" width="6.3" height="104.5"/>
		</g>
		<path fill="#343F5B" d="M558.8,652.4H384.7c-2.1,0-3.8-1.7-3.8-3.8l0,0c0-2.1,1.7-3.8,3.8-3.8h174.1c2.1,0,3.8,1.7,3.8,3.8l0,0
			C562.7,650.7,560.9,652.4,558.8,652.4z"/>
	</g>
	<g>
		<path fill="#394363" d="M638.1,474.3H621c-2.5,0-4.6-2-4.6-4.6v-19.5c0-2.5,2-4.6,4.6-4.6h17.1c2.5,0,4.6,2,4.6,4.6v19.5
			C642.7,472.3,640.6,474.3,638.1,474.3z"/>
		<path fill="#343F5B" d="M638.1,445.6h-8.6v28.7h8.6c2.5,0,4.6-2,4.6-4.6v-19.5C642.7,447.7,640.6,445.6,638.1,445.6z"/>
	</g>
	<path fill="#E4E9F4" d="M645.8,534.6v-57.3h0.5c4.8,0,8.7-4.1,8.4-9c-0.3-4.5-4.2-7.9-8.7-7.9h-33.3c-4.8,0-8.7,4.1-8.4,9
		c0.3,4.5,4.2,7.9,8.7,7.9h0.2v57.3c-22.7,7-39.1,28-39.1,53c0,30.6,24.8,55.4,55.4,55.4c30.6,0,55.4-24.8,55.4-55.4
		C684.9,562.7,668.5,541.6,645.8,534.6z"/>
	<path fill="#DAE1ED" d="M645.8,534.6v-57.3h0.5c4.8,0,8.7-4.1,8.4-9c-0.3-4.5-4.2-7.9-8.7-7.9h-16.5V643
		c30.6,0,55.4-24.8,55.4-55.4C684.9,562.7,668.5,541.6,645.8,534.6z"/>
	<path fill="#FDC104" d="M581,587.6c0,26.7,21.8,48.5,48.5,48.5s48.5-21.8,48.5-48.5c0-12.4-4.6-23.9-12.5-32.6h-71.9
		C585.7,563.7,581,575.2,581,587.6z"/>
	<path fill="#EFB206" d="M629.5,555v81.1c26.7,0,48.5-21.8,48.5-48.5c0-12.4-4.6-23.9-12.5-32.6H629.5z"/>
	<g>
		<path fill="#E4E9F4" d="M824.3,644.1h0.5v124.6c0,9,7.3,16.3,16.3,16.3l0,0c9,0,16.3-7.3,16.3-16.3V644.1h0.2
			c4.5,0,8.4-3.4,8.7-7.9c0.3-4.9-3.6-9-8.4-9h-33.3c-4.5,0-8.4,3.4-8.7,7.9C815.6,640,819.5,644.1,824.3,644.1z"/>
		<path fill="#DAE1ED" d="M857.9,627.3h-16.8V785c0,0,0,0,0,0c9,0,16.3-7.3,16.3-16.3V644.1h0.2c4.5,0,8.4-3.4,8.7-7.9
			C866.6,631.3,862.7,627.3,857.9,627.3z"/>
		<circle fill="#E4E9F4" cx="835.9" cy="603.7" r="8.1"/>
		<circle fill="#E4E9F4" cx="857.6" cy="575.4" r="5.1"/>
		<circle fill="#E4E9F4" cx="826.1" cy="543.8" r="4.2"/>
		<circle fill="#E4E9F4" cx="838.1" cy="515.2" r="3.5"/>
	</g>
	<g>
		<path fill="#394363" d="M849.7,304h-17.1c-2.5,0-4.6-2-4.6-4.6v-19.5c0-2.5,2-4.6,4.6-4.6h17.1c2.5,0,4.6,2,4.6,4.6v19.5
			C854.2,302,852.2,304,849.7,304z"/>
		<path fill="#343F5B" d="M849.7,275.3h-8.6V304h8.6c2.5,0,4.6-2,4.6-4.6v-19.5C854.2,277.4,852.2,275.3,849.7,275.3z"/>
	</g>
	<path fill="#E4E9F4" d="M793.1,424h96c6.6,0,10.8-7.2,7.4-12.9l-39.2-67.5v-38.1h0.2c4.5,0,8.4-3.4,8.7-7.9c0.3-4.9-3.6-9-8.4-9
		h-33.3c-4.5,0-8.4,3.4-8.7,7.9c-0.3,4.9,3.6,9,8.4,9h0.5v38.1L785.6,411C782.3,416.8,786.5,424,793.1,424z"/>
	<path fill="#E4E9F4" d="M274.9,804.1h69.6c13.4,0,22.5-13.6,17.4-26L326,691.2v-24.8h0.2c4.5,0,8.4-3.4,8.7-7.9
		c0.3-4.9-3.6-9-8.4-9h-33.3c-4.5,0-8.4,3.4-8.7,7.9c-0.3,4.9,3.6,9,8.4,9h0.5v24.8l-35.9,86.8C252.4,790.4,261.5,804.1,274.9,804.1
		z"/>
	<path fill="#DAE1ED" d="M857.4,343.5v-38.1h0.2c4.5,0,8.4-3.4,8.7-7.9c0.3-4.9-3.6-9-8.4-9h-16.8V424h48c6.6,0,10.8-7.2,7.4-12.9
		L857.4,343.5z"/>
	<path fill="#394363" d="M1038.7,395.2h-17.1c-2.5,0-4.6-2-4.6-4.6v-19.5c0-2.5,2-4.6,4.6-4.6h17.1c2.5,0,4.6,2,4.6,4.6v19.5
		C1043.2,393.1,1041.2,395.2,1038.7,395.2z"/>
	<path fill="#343F5B" d="M1038.7,366.5h-8.6v28.7h8.6c2.5,0,4.6-2,4.6-4.6v-19.5C1043.2,368.5,1041.2,366.5,1038.7,366.5z"/>
	<path fill="#E4E9F4" d="M1046.4,435.9v-37h0.5c4.6,0,8.4-3.8,8.4-8.4s-3.8-8.4-8.4-8.4h-33.6c-4.6,0-8.4,3.8-8.4,8.4
		s3.8,8.4,8.4,8.4h0.5v37c-22.5,6.9-38.9,27.9-38.9,52.8c0,30.5,24.7,55.2,55.2,55.2s55.2-24.7,55.2-55.2
		C1085.3,463.8,1068.9,442.8,1046.4,435.9z"/>
	<path fill="#DAE1ED" d="M1046.4,435.9v-37h0.5c4.6,0,8.4-3.8,8.4-8.4s-3.8-8.4-8.4-8.4h-16.8v161.8c30.5,0,55.2-24.7,55.2-55.2
		C1085.3,463.8,1068.9,442.8,1046.4,435.9z"/>
	<rect x="1254.5" y="295.3" fill="#394363" width="14.8" height="508.8"/>
	<rect x="727.9" y="218.4" fill="#394363" width="14.8" height="585.7"/>
	<rect x="1007.5" y="409.2" fill="#394363" width="250.2" height="14.8"/>
	<rect x="735.3" y="316.3" fill="#394363" width="125.5" height="14.8"/>
	<path fill="#394363" d="M1003.1,783.3h323.9c5.7,0,10.4,4.6,10.4,10.4l0,0c0,5.7-4.6,10.4-10.4,10.4h-323.9
		c-5.7,0-10.4-4.6-10.4-10.4l0,0C992.7,788,997.4,783.3,1003.1,783.3z"/>
	<path fill="#394363" d="M556.4,783.3h357.9c5.7,0,10.4,4.6,10.4,10.4l0,0c0,5.7-4.6,10.4-10.4,10.4H556.4
		c-5.7,0-10.4-4.6-10.4-10.4l0,0C546,788,550.6,783.3,556.4,783.3z"/>
	<circle fill="#394363" cx="1261.9" cy="416.6" r="23.7"/>
	<circle fill="#D1D3D4" cx="1261.9" cy="416.6" r="13.9"/>
	<circle fill="#394363" cx="735.3" cy="323.7" r="23.7"/>
	<circle fill="#D1D3D4" cx="735.3" cy="323.7" r="13.9"/>
	<circle fill="#394363" cx="1261.9" cy="282.3" r="17.7"/>
	<circle fill="#394363" cx="735.3" cy="204.2" r="17.7"/>
	<path fill="#394363" d="M1052.7,430h-45.2c-7.4,0-13.4-6-13.4-13.4v0c0-7.4,6-13.4,13.4-13.4h45.2c7.4,0,13.4,6,13.4,13.4v0
		C1066.1,424,1060.1,430,1052.7,430z"/>
	<path fill="#394363" d="M863.7,337.2h-45.2c-7.4,0-13.4-6-13.4-13.4v0c0-7.4,6-13.4,13.4-13.4h45.2c7.4,0,13.4,6,13.4,13.4v0
		C877.1,331.1,871.1,337.2,863.7,337.2z"/>
	<rect x="735.3" y="662.9" fill="#394363" width="125.5" height="14.8"/>
	<circle fill="#394363" cx="735.3" cy="670.3" r="23.7"/>
	<circle fill="#D1D3D4" cx="735.3" cy="670.3" r="13.9"/>
	<path fill="#394363" d="M863.7,683.7h-45.2c-7.4,0-13.4-6-13.4-13.4l0,0c0-7.4,6-13.4,13.4-13.4h45.2c7.4,0,13.4,6,13.4,13.4l0,0
		C877.1,677.7,871.1,683.7,863.7,683.7z"/>
	<path fill="#F93C2E" d="M981.8,488.6c0,26.6,21.7,48.3,48.3,48.3c26.6,0,48.3-21.7,48.3-48.3c0-7.1-1.5-13.9-4.3-20.1h-88
		C983.3,474.7,981.8,481.5,981.8,488.6z"/>
	<path fill="#F22F2A" d="M1030.1,468.6v68.4c0,0,0,0,0,0c26.6,0,48.3-21.7,48.3-48.3c0-7.1-1.5-13.9-4.3-20.1H1030.1z"/>
	<path fill="#343F5B" d="M1030.1,371.4c-2.7,0-4.9-2.2-4.9-4.9V241.3c0-7.9-6.5-14.4-14.4-14.4H860.4c-7.9,0-14.4,6.5-14.4,14.4
		v31.6c0,2.7-2.2,4.9-4.9,4.9s-4.9-2.2-4.9-4.9v-31.6c0-13.4,10.9-24.3,24.3-24.3h150.3c13.4,0,24.3,10.9,24.3,24.3v125.2
		C1035,369.2,1032.8,371.4,1030.1,371.4z"/>
	<circle fill="#FFFFFF" cx="1003.4" cy="502.8" r="7.1"/>
	<circle fill="#FFFFFF" cx="1015.3" cy="485.3" r="4.2"/>
	<circle fill="#F93C2E" cx="1007.5" cy="454.6" r="4.2"/>
	<path fill="#FDC104" d="M791.6,414.5c-0.4,0.7-0.2,1.3,0,1.7c0.2,0.4,0.7,0.9,1.5,0.9h96c0.8,0,1.3-0.5,1.5-0.9
		c0.2-0.4,0.4-1,0-1.7l-23-39.6h-53L791.6,414.5z"/>
	<path fill="#EFB206" d="M867.6,374.9h-26.5V417h48c0.8,0,1.3-0.5,1.5-0.9c0.2-0.4,0.4-1,0-1.7L867.6,374.9z"/>
	<circle fill="#FFFFFF" cx="822.9" cy="390.3" r="4.9"/>
	<path fill="#32CDD6" d="M831.7,716.3v52.4c0,5.2,4.2,9.4,9.4,9.4s9.4-4.2,9.4-9.4v-52.4H831.7z"/>
	<path fill="#29C1C1" d="M841.1,778.1C841.1,778.1,841.1,778.1,841.1,778.1c5.2,0,9.4-4.2,9.4-9.4v-52.4h-9.4V778.1z"/>
	<rect x="609.8" y="496.2" fill="#394363" width="125.5" height="14.8"/>
	<circle fill="#394363" cx="735.3" cy="503.6" r="23.7"/>
	<circle fill="#D1D3D4" cx="735.3" cy="503.6" r="13.9"/>
	<path fill="#394363" d="M606.9,517h45.2c7.4,0,13.4-6,13.4-13.4v0c0-7.4-6-13.4-13.4-13.4h-45.2c-7.4,0-13.4,6-13.4,13.4v0
		C593.5,511,599.5,517,606.9,517z"/>
	<g>
		<g>
			<path fill="#E8EBEB" d="M1201.6,757.2L1201.6,757.2c0-10.5,7.6-19.2,17.5-21v-0.3h-160.9c-11.8,0-21.3,9.5-21.3,21.3l0,0
				c0,11.8,9.5,21.3,21.3,21.3h160.9v-0.3C1209.2,776.3,1201.6,767.6,1201.6,757.2z"/>
			<path fill="#F4F4F4" d="M1036.9,757.2h164.7c0-10.5,7.6-19.2,17.5-21v-0.3h-160.9C1046.4,735.8,1036.9,745.4,1036.9,757.2z"/>
			<g>
				<path fill="#F44234" d="M1215.9,782.7h-157.7c-14.1,0-25.5-11.4-25.5-25.5s11.4-25.5,25.5-25.5h157.7c2.3,0,4.2,1.9,4.2,4.2
					c0,2.3-1.9,4.2-4.2,4.2h-157.7c-9.4,0-17.1,7.7-17.1,17.1c0,9.4,7.7,17.1,17.1,17.1h157.7c2.3,0,4.2,1.9,4.2,4.2
					S1218.2,782.7,1215.9,782.7z"/>
			</g>
			<polygon fill="#FDC90D" points="1083.5,779.6 1075.1,776.2 1066.6,779.6 1066.6,757.2 1083.5,757.2 			"/>
		</g>
		<g>
			<path fill="#E8EBEB" d="M1214.5,655.1L1214.5,655.1c0-10.5,7.6-19.2,17.5-21v-0.3h-160.9c-11.8,0-21.3,9.5-21.3,21.3v0
				c0,11.8,9.5,21.3,21.3,21.3H1232V676C1222.1,674.3,1214.5,665.5,1214.5,655.1z"/>
			<path fill="#F4F4F4" d="M1049.8,655.1h164.7c0-10.5,7.6-19.2,17.5-21v-0.3h-160.9C1059.3,633.7,1049.8,643.3,1049.8,655.1z"/>
			<g>
				<path fill="#394363" d="M1228.8,680.6h-157.7c-14.1,0-25.5-11.4-25.5-25.5c0-14.1,11.4-25.5,25.5-25.5h157.7
					c2.3,0,4.2,1.9,4.2,4.2s-1.9,4.2-4.2,4.2h-157.7c-9.4,0-17.1,7.7-17.1,17.1c0,9.4,7.7,17.1,17.1,17.1h157.7
					c2.3,0,4.2,1.9,4.2,4.2C1233,678.7,1231.1,680.6,1228.8,680.6z"/>
			</g>
			<polygon fill="#FDC90D" points="1096.4,677.5 1088,674.1 1079.5,677.5 1079.5,655.1 1096.4,655.1 			"/>
		</g>
		<g>
			<path fill="#E8EBEB" d="M1180.6,706.1L1180.6,706.1c0-10.5,7.6-19.2,17.5-21v-0.3h-160.9c-11.8,0-21.3,9.5-21.3,21.3l0,0
				c0,11.8,9.5,21.3,21.3,21.3h160.9v-0.3C1188.1,725.3,1180.6,716.6,1180.6,706.1z"/>
			<path fill="#F4F4F4" d="M1015.8,706.1h164.7c0-10.5,7.6-19.2,17.5-21v-0.3h-160.9C1025.4,684.8,1015.8,694.3,1015.8,706.1z"/>
			<g>
				<path fill="#FDC90D" d="M1194.8,731.6h-157.7c-14.1,0-25.5-11.4-25.5-25.5s11.4-25.5,25.5-25.5h157.7c2.3,0,4.2,1.9,4.2,4.2
					c0,2.3-1.9,4.2-4.2,4.2h-157.7c-9.4,0-17.1,7.7-17.1,17.1c0,9.4,7.7,17.1,17.1,17.1h157.7c2.3,0,4.2,1.9,4.2,4.2
					C1199,729.8,1197.2,731.6,1194.8,731.6z"/>
			</g>
			<polygon fill="#F44234" points="1062.5,728.5 1054,725.1 1045.6,728.5 1045.6,706.1 1062.5,706.1 			"/>
		</g>
	</g>
	<path fill="#E4E9F4" d="M653,720.6h-2.4v-8.5h-42.1v8.5h-2.4c-7.2,0-13.1,5.9-13.1,13.1v35.6c0,7.2,5.9,13.1,13.1,13.1H653
		c7.2,0,13.1-5.9,13.1-13.1v-35.6C666.1,726.5,660.2,720.6,653,720.6z"/>
	<path fill="#DAE1ED" d="M653,720.6h-2.4v-8.5h-21v70.4H653c7.2,0,13.1-5.9,13.1-13.1v-35.6C666.1,726.5,660.2,720.6,653,720.6z"/>
	<path fill="#32CDD6" d="M599.9,761.8v7.5c0,3.4,2.8,6.2,6.2,6.2H653c3.4,0,6.2-2.8,6.2-6.2v-7.5H599.9z"/>
	<path fill="#29C1C1" d="M629.5,775.6H653c3.4,0,6.2-2.8,6.2-6.2v-7.5h-29.6V775.6z"/>
	<path fill="#F93C2E" d="M643,687.2l-13.4-23.9l-13.4,23.9c-1.4,2.6-2.3,5.5-2.3,8.4c0,6.4,3.6,12.6,9.7,15.6l0,0
		c3.8,1.9,8.3,1.9,12.1,0l0,0c6.1-3,9.7-9.2,9.7-15.6C645.3,692.7,644.4,689.8,643,687.2z"/>
	<path fill="#FDC104" d="M629.5,706.4c-1.1,0-2.3-0.3-3.3-0.8c-3.8-1.9-6.2-5.7-6.2-10c0-1.7,0.5-3.5,1.5-5.3l8-14.2l8,14.2
		c1,1.8,1.5,3.6,1.5,5.3c0,4.3-2.4,8.1-6.2,10C631.8,706.1,630.7,706.4,629.5,706.4z"/>
	<path fill="#FDC104" d="M309.7,638.1c-0.7,0-1.3-0.2-1.9-0.4c-2.2-1.1-3.6-3.3-3.6-5.8c0-1,0.3-2,0.9-3.1l4.6-8.2l4.6,8.2
		c0.6,1,0.9,2.1,0.9,3.1c0,2.5-1.4,4.7-3.6,5.8C311,638,310.4,638.1,309.7,638.1z"/>
	<path fill="#394363" d="M629.5,771.8c-1.9,0-3.5-1.5-3.5-3.5v-66.7c0-1.9,1.5-3.5,3.5-3.5c1.9,0,3.5,1.5,3.5,3.5v66.7
		C633,770.3,631.4,771.8,629.5,771.8z"/>
	<path fill="#343F5B" d="M309.7,616.7c-2.7,0-4.9-2.2-4.9-4.9V337.9c0-21.4,17.4-38.9,38.9-38.9h252c21.4,0,38.9,17.4,38.9,38.9
		v107.7c0,2.7-2.2,4.9-4.9,4.9s-4.9-2.2-4.9-4.9V337.9c0-16-13-29-29-29h-252c-16,0-29,13-29,29v273.9
		C314.6,614.5,312.4,616.7,309.7,616.7z"/>
	<path fill="#DAE1ED" d="M326,691.2v-24.8h0.2c4.5,0,8.4-3.4,8.7-7.9c0.3-4.9-3.6-9-8.4-9h-16.8v154.4h34.8
		c13.4,0,22.5-13.6,17.4-26L326,691.2z"/>
	<path fill="#FDC104" d="M263.9,780.7c-1.5,3.7-1.1,7.8,1.1,11.2c2.2,3.4,5.9,5.3,9.9,5.3h69.6c4,0,7.7-1.9,9.9-5.3
		c2.2-3.4,2.6-7.4,1.1-11.2l-5-12h-81.7L263.9,780.7z"/>
	<path fill="#EFB206" d="M350.6,768.7h-40.8v28.5h34.8c4,0,7.7-1.9,9.9-5.3c2.2-3.4,2.6-7.4,1.1-11.2L350.6,768.7z"/>
	<circle fill="#FFFFFF" cx="280.6" cy="780.6" r="3"/>
	<circle fill="#FDC104" cx="297.1" cy="753.8" r="5"/>
	<path fill="#343F5B" d="M300.3,406.9c-2.3,0-4.4-1.3-5.4-3.5c-1.3-3,0-6.5,3-7.8l18.9-8.4c3-1.3,6.5,0,7.8,3c1.3,3,0,6.5-3,7.8
		l-18.9,8.4C301.9,406.7,301.1,406.9,300.3,406.9z"/>
	<g>
		<path fill="#343F5B" d="M893.9,236.8c-1,0-2.1-0.3-3-0.8c-2.8-1.7-3.8-5.3-2.1-8.1l10.5-17.8c1.7-2.8,5.3-3.8,8.1-2.1
			c2.8,1.7,3.8,5.3,2.1,8.1L899,233.9C897.9,235.7,896,236.8,893.9,236.8z"/>
		<path fill="#343F5B" d="M908.8,236.8c-1,0-2.1-0.3-3-0.8c-2.8-1.7-3.8-5.3-2.1-8.1l10.5-17.8c1.7-2.8,5.3-3.8,8.1-2.1
			c2.8,1.7,3.8,5.3,2.1,8.1l-10.5,17.8C912.8,235.7,910.8,236.8,908.8,236.8z"/>
		<path fill="#343F5B" d="M923.7,236.8c-1,0-2.1-0.3-3-0.8c-2.8-1.7-3.8-5.3-2.1-8.1l10.5-17.8c1.7-2.8,5.3-3.8,8.1-2.1
			c2.8,1.7,3.8,5.3,2.1,8.1l-10.5,17.8C927.7,235.7,925.7,236.8,923.7,236.8z"/>
		<path fill="#343F5B" d="M938.6,236.8c-1,0-2.1-0.3-3-0.8c-2.8-1.7-3.8-5.3-2.1-8.1L944,210c1.7-2.8,5.3-3.8,8.1-2.1
			c2.8,1.7,3.8,5.3,2.1,8.1l-10.5,17.8C942.6,235.7,940.6,236.8,938.6,236.8z"/>
		<path fill="#343F5B" d="M953.5,236.8c-1,0-2.1-0.3-3-0.8c-2.8-1.7-3.8-5.3-2.1-8.1l10.5-17.8c1.7-2.8,5.3-3.8,8.1-2.1
			c2.8,1.7,3.8,5.3,2.1,8.1l-10.5,17.8C957.5,235.7,955.5,236.8,953.5,236.8z"/>
		<path fill="#343F5B" d="M968.3,236.8c-1,0-2.1-0.3-3-0.8c-2.8-1.7-3.8-5.3-2.1-8.1l10.5-17.8c1.7-2.8,5.3-3.8,8.1-2.1
			c2.8,1.7,3.8,5.3,2.1,8.1l-10.5,17.8C972.3,235.7,970.4,236.8,968.3,236.8z"/>
	</g>
	<path fill="#343F5B" d="M300.3,423.2c-2.3,0-4.4-1.3-5.4-3.5c-1.3-3,0-6.5,3-7.8l18.9-8.4c3-1.3,6.5,0,7.8,3c1.3,3,0,6.5-3,7.8
		l-18.9,8.4C301.9,423,301.1,423.2,300.3,423.2z"/>
	<path fill="#343F5B" d="M300.3,439.5c-2.3,0-4.4-1.3-5.4-3.5c-1.3-3,0-6.5,3-7.8l18.9-8.4c3-1.3,6.5,0,7.8,3c1.3,3,0,6.5-3,7.8
		l-18.9,8.4C301.9,439.3,301.1,439.5,300.3,439.5z"/>
	<path fill="#343F5B" d="M300.3,455.8c-2.3,0-4.4-1.3-5.4-3.5c-1.3-3,0-6.5,3-7.8l18.9-8.4c3-1.3,6.5,0,7.8,3c1.3,3,0,6.5-3,7.8
		l-18.9,8.4C301.9,455.6,301.1,455.8,300.3,455.8z"/>
	<path fill="#343F5B" d="M300.3,472.1c-2.3,0-4.4-1.3-5.4-3.5c-1.3-3,0-6.5,3-7.8l18.9-8.4c3-1.3,6.5,0,7.8,3c1.3,3,0,6.5-3,7.8
		l-18.9,8.4C301.9,471.9,301.1,472.1,300.3,472.1z"/>
	<path fill="#343F5B" d="M300.3,488.4c-2.3,0-4.4-1.3-5.4-3.5c-1.3-3,0-6.5,3-7.8l18.9-8.4c3-1.3,6.5,0,7.8,3c1.3,3,0,6.5-3,7.8
		l-18.9,8.4C301.9,488.2,301.1,488.4,300.3,488.4z"/>
	<path fill="#343F5B" d="M300.3,504.7c-2.3,0-4.4-1.3-5.4-3.5c-1.3-3,0-6.5,3-7.8l18.9-8.4c3-1.3,6.5,0,7.8,3c1.3,3,0,6.5-3,7.8
		l-18.9,8.4C301.9,504.5,301.1,504.7,300.3,504.7z"/>
	<path fill="#343F5B" d="M313.9,617h-8.4c-2.9,0-5.2-2.3-5.2-5.2v0c0-2.9,2.3-5.2,5.2-5.2h8.4c2.9,0,5.2,2.3,5.2,5.2v0
		C319.2,614.7,316.8,617,313.9,617z"/>
	<g>
		<path fill="#E4E9F4" d="M171,660.3v-0.4H169H73.4H59.5h-2.8c-3,0-5.5,2.4-5.5,5.5v0.3c0,3,2.4,5.5,5.5,5.5h8.2l8.5,17.8v80
			c0,8.2,6.7,14.9,14.9,14.9h68c8.2,0,14.9-6.7,14.9-14.9v-98.2c2-0.8,3.4-2.8,3.4-5.1v-0.3C174.5,663.1,173,661.2,171,660.3z"/>
		<path fill="#DAE1ED" d="M171,660.3v-0.4H169h-45.1v123.9h32.3c8.2,0,14.9-6.7,14.9-14.9v-98.2c2-0.8,3.4-2.8,3.4-5.1v-0.3
			C174.5,663.1,173,661.2,171,660.3z"/>
		<path fill="#32CDD6" d="M79.8,730.5V769c0,4.7,3.8,8.5,8.5,8.5h68c4.7,0,8.5-3.8,8.5-8.5v-38.5H79.8z"/>
		<path fill="#29C1C1" d="M123.9,777.4h32.3c4.7,0,8.5-3.8,8.5-8.5v-38.5h-40.7V777.4z"/>
		<circle fill="#FFFFFF" cx="149.2" cy="747.3" r="6.6"/>
		<circle fill="#29C1C1" cx="136.3" cy="717.7" r="4.3"/>
		<circle fill="#29C1C1" cx="155.7" cy="701.5" r="3"/>
	</g>
	<g>
		<g>
			<path fill="#E4E9F4" d="M211.4,608h0.5v124.6c0,9,7.3,16.3,16.3,16.3h0c9,0,16.3-7.3,16.3-16.3V608h0.2c4.5,0,8.4-3.4,8.7-7.9
				c0.3-4.9-3.6-9-8.4-9h-33.3c-4.5,0-8.4,3.4-8.7,7.9C202.7,603.9,206.6,608,211.4,608z"/>
			<path fill="#DAE1ED" d="M245,591.2h-16.8v157.7c0,0,0,0,0,0c9,0,16.3-7.3,16.3-16.3V608h0.2c4.5,0,8.4-3.4,8.7-7.9
				C253.7,595.2,249.8,591.2,245,591.2z"/>
			<path fill="#F93C2E" d="M228.2,742c-5.2,0-9.4-4.2-9.4-9.4v-99.8h18.7v99.8C237.5,737.8,233.3,742,228.2,742z"/>
			<path fill="#F22F2A" d="M228.2,742C228.2,742,228.2,742,228.2,742c5.2,0,9.4-4.2,9.4-9.4v-99.8h-9.4V742z"/>
		</g>
		<path fill="#DAE1ED" d="M246.7,749.4h-37c-2,0-3.6-1.6-3.6-3.6l0,0c0-2,1.6-3.6,3.6-3.6h37c2,0,3.6,1.6,3.6,3.6l0,0
			C250.3,747.8,248.7,749.4,246.7,749.4z"/>
	</g>
	<circle fill="#F93C2E" cx="211.8" cy="544" r="7"/>
	<circle fill="#F93C2E" cx="238.7" cy="570.9" r="9"/>
	<circle fill="#F93C2E" cx="240.8" cy="518.4" r="5.5"/>
	<path fill="#5EEAF0" d="M1194.2,326.1c-0.1,0-0.2,0-0.3,0l-6.8-14c2.5-1.5,4.3-4.2,4.3-7.4c0-3.6-2.3-6.8-5.5-8l3.7-15
		c0.2,0,0.5,0,0.7,0c3.9,0,7-3.1,7-7c0-3.9-3.1-7-7-7c-3.9,0-7,3.1-7,7c0,2.8,1.7,5.3,4.1,6.4l-3.7,15c-0.3,0-0.7-0.1-1-0.1
		c-1.4,0-2.8,0.4-4,1l-6.6-9.5c0.3-0.6,0.5-1.3,0.5-2.1c0-2.4-2-4.4-4.4-4.4c-2.4,0-4.4,2-4.4,4.4c0,2.4,2,4.4,4.4,4.4
		c0.9,0,1.7-0.3,2.3-0.7l6.3,9.1c-1.7,1.6-2.8,3.8-2.8,6.4c0,0.4,0,0.7,0.1,1l-13.5,1.8c-0.8-1.6-2.5-2.8-4.4-2.8
		c-2.7,0-4.9,2.2-4.9,4.9c0,2.7,2.2,4.9,4.9,4.9c2.7,0,4.9-2.2,4.9-4.9l13.6-1.8c1.3,3.2,4.4,5.4,8,5.4c0.8,0,1.6-0.1,2.3-0.3
		l6.9,14.2c-0.5,0.5-0.8,1.3-0.8,2.1c0,1.7,1.4,3.1,3.1,3.1s3.1-1.4,3.1-3.1C1197.3,327.5,1195.9,326.1,1194.2,326.1z"/>
	<g>
		<g>
			<circle fill="#5EEAF0" cx="461.7" cy="515.9" r="11.2"/>
		</g>
		<g>
			<circle fill="#5EEAF0" cx="443.8" cy="517.2" r="3.4"/>
		</g>
		<g>
			<circle fill="#5EEAF0" cx="475.4" cy="528.5" r="4.3"/>
		</g>
		<g>
			<circle fill="#5EEAF0" cx="448.9" cy="500.4" r="4.3"/>
		</g>
		<g>
			<circle fill="#5EEAF0" cx="471.2" cy="498.3" r="2.8"/>
		</g>
		<g>
			<circle fill="#5EEAF0" cx="454.9" cy="533.1" r="5.5"/>
		</g>
		<g>
			
				<rect x="445.2" y="507" transform="matrix(0.6364 0.7714 -0.7714 0.6364 557.5103 -166.4379)" fill="#5EEAF0" width="20.1" height="2.3"/>
		</g>
		<g>
			
				<rect x="465.3" y="497" transform="matrix(0.865 0.5017 -0.5017 0.865 317.0422 -165.657)" fill="#5EEAF0" width="2.3" height="18.9"/>
		</g>
		<g>
			
				<rect x="449.9" y="509.2" transform="matrix(8.724926e-02 0.9962 -0.9962 8.724926e-02 926.2641 22.0972)" fill="#5EEAF0" width="2.3" height="14.6"/>
		</g>
		<g>
			
				<rect x="457.1" y="516.5" transform="matrix(0.9201 0.3917 -0.3917 0.9201 242.3052 -137.5536)" fill="#5EEAF0" width="2.3" height="17.3"/>
		</g>
		<g>
			
				<rect x="461.4" y="521.4" transform="matrix(0.688 0.7257 -0.7257 0.688 525.7014 -177.8212)" fill="#5EEAF0" width="16.6" height="2.3"/>
		</g>
	</g>
	<path fill="#5EEAF0" d="M938.2,548.2c-0.4-1.6-1.7-2.6-3.3-2.7c-1.3-5.4-2.6-10.7-3.9-16.1c1.3-0.8,2.1-2.3,1.7-3.9
		c-0.5-1.9-2.4-3.1-4.3-2.6c-1.2,0.3-2,1.1-2.4,2.1c-4.3-0.4-8.5-0.9-12.8-1.3c0-0.1,0-0.1,0-0.2c-0.5-1.9-2.4-3.1-4.3-2.6
		c-1.9,0.5-3.1,2.4-2.6,4.3c0,0.1,0,0.1,0.1,0.2c-3.6,2.3-7.2,4.6-10.8,7c-0.8-0.7-2-1.1-3.1-0.8c-1.9,0.5-3.1,2.4-2.6,4.3
		c0.4,1.6,1.7,2.6,3.3,2.7c1.3,5.4,2.6,10.7,3.9,16.1c-1.3,0.8-2.1,2.3-1.7,3.9c0.5,1.9,2.4,3.1,4.3,2.6c0.9-0.2,1.7-0.8,2.2-1.6
		c4.6,1.2,9.2,2.5,13.8,3.7c0,0.3,0,0.5,0.1,0.8c0.5,1.9,2.4,3.1,4.3,2.6c1.9-0.5,3.1-2.4,2.6-4.3c-0.1-0.3-0.2-0.5-0.3-0.7
		c3.5-3.2,7.1-6.4,10.6-9.6c0.8,0.5,1.7,0.6,2.7,0.4C937.5,552,938.7,550.1,938.2,548.2z M925.9,527.2c0,0.1,0.1,0.3,0.1,0.4
		c-3.6,2.6-7.2,5.2-10.7,7.8c-0.6-0.4-1.3-0.7-2-0.7c-0.6-2.4-1.2-4.8-1.7-7.2c0.7-0.4,1.2-1,1.5-1.7c4.3,0.4,8.5,0.9,12.8,1.3
		C925.9,527.1,925.9,527.2,925.9,527.2z M909.7,527.9c0.6,2.4,1.2,4.8,1.7,7.2c-0.6,0.4-1.1,0.9-1.4,1.6c-4.4-0.7-8.7-1.4-13.1-2.1
		c0-0.1,0-0.3-0.1-0.4c0-0.1,0-0.1-0.1-0.2c3.6-2.3,7.2-4.6,10.8-7C908.1,527.6,908.9,527.9,909.7,527.9z M919.3,559.7
		c-1.5-6.1-2.9-12.3-4.4-18.4c1.3-0.8,2.1-2.3,1.7-3.9c0-0.1-0.1-0.3-0.1-0.4c1.1-0.8,2.2-1.6,3.3-2.4c2.5-1.8,5-3.6,7.5-5.4
		c0.6,0.4,1.3,0.7,2,0.7c0,0.2,0.1,0.3,0.1,0.5c1.2,5.2,2.5,10.4,3.7,15.6c-1.3,0.8-2.1,2.3-1.7,3.9c0.1,0.3,0.2,0.5,0.3,0.7
		c-3.5,3.2-7.1,6.4-10.6,9.6C920.5,559.9,919.9,559.7,919.3,559.7z M902.3,557.7c0-0.3,0-0.5-0.1-0.8c-0.4-1.6-1.7-2.6-3.3-2.7
		c-1.2-4.9-2.3-9.7-3.5-14.6c-0.1-0.5-0.2-1-0.4-1.5c0.6-0.4,1.1-0.9,1.4-1.6c2.6,0.4,5.3,0.8,7.9,1.3c1.7,0.3,3.5,0.6,5.2,0.8
		c0,0.1,0,0.3,0.1,0.4c0.4,1.6,1.7,2.6,3.3,2.7c1.5,6.1,2.9,12.3,4.4,18.4c-0.5,0.3-1,0.7-1.3,1.2
		C911.5,560.2,906.9,558.9,902.3,557.7z"/>
	<g>
		<g>
			<path fill="#5EEAF0" d="M605.4,132.8c-0.1,0-0.3,0-0.4-0.1l-9.3-5.4c-0.2-0.1-0.4-0.4-0.4-0.6v-10.8c0-0.3,0.1-0.5,0.4-0.6
				l9.3-5.4c0.2-0.1,0.5-0.1,0.7,0l9.3,5.4c0.2,0.1,0.4,0.4,0.4,0.6v10.8c0,0.3-0.1,0.5-0.4,0.6l-9.3,5.4
				C605.6,132.8,605.5,132.8,605.4,132.8z M596.8,126.3l8.6,5l8.6-5v-9.9l-8.6-5l-8.6,5V126.3z"/>
		</g>
		<g>
			<path fill="#5EEAF0" d="M605.4,130c-0.1,0-0.3,0-0.4-0.1l-6.8-3.9c-0.2-0.1-0.4-0.4-0.4-0.6v-7.9c0-0.4,0.3-0.7,0.7-0.7
				c0.4,0,0.7,0.3,0.7,0.7v7.5l6.5,3.7c0.4,0.2,0.5,0.7,0.3,1C605.9,129.8,605.6,130,605.4,130z"/>
		</g>
		<g>
			<path fill="#5EEAF0" d="M642.7,132.8c-0.1,0-0.3,0-0.4-0.1l-9.3-5.4c-0.2-0.1-0.4-0.4-0.4-0.6v-10.8c0-0.3,0.1-0.5,0.4-0.6
				l9.3-5.4c0.2-0.1,0.5-0.1,0.7,0l9.3,5.4c0.2,0.1,0.4,0.4,0.4,0.6v10.8c0,0.3-0.1,0.5-0.4,0.6l-9.3,5.4
				C642.9,132.8,642.8,132.8,642.7,132.8z M634.1,126.3l8.6,5l8.6-5v-9.9l-8.6-5l-8.6,5V126.3z"/>
		</g>
		<g>
			<path fill="#5EEAF0" d="M642.7,130c-0.1,0-0.3,0-0.4-0.1l-6.8-3.9c-0.2-0.1-0.4-0.4-0.4-0.6v-7.9c0-0.4,0.3-0.7,0.7-0.7
				c0.4,0,0.7,0.3,0.7,0.7v7.5l6.5,3.7c0.4,0.2,0.5,0.7,0.3,1C643.2,129.8,642.9,130,642.7,130z"/>
		</g>
		<g>
			<path fill="#5EEAF0" d="M614.9,146.3c-0.3,0-0.5-0.1-0.6-0.4c-0.2-0.4-0.1-0.8,0.3-1l6.8-3.9c0.4-0.2,0.8-0.1,1,0.3
				c0.2,0.4,0.1,0.8-0.3,1l-6.8,3.9C615.1,146.3,615,146.3,614.9,146.3z"/>
		</g>
		<g>
			<path fill="#5EEAF0" d="M624.2,162.1c-0.1,0-0.3,0-0.4-0.1l-6.8-3.9c-0.2-0.1-0.4-0.4-0.4-0.6v-7.9c0-0.4,0.3-0.7,0.7-0.7
				c0.4,0,0.7,0.3,0.7,0.7v7.5l6.5,3.7c0.4,0.2,0.5,0.7,0.3,1C624.7,162,624.4,162.1,624.2,162.1z"/>
		</g>
		<g>
			<path fill="#5EEAF0" d="M624,132.8c-0.1,0-0.3,0-0.4-0.1l-9.3-5.4c-0.4-0.2-0.5-0.7-0.3-1c0.2-0.4,0.7-0.5,1-0.3l9,5.2l9-5.2
				c0.4-0.2,0.8-0.1,1,0.3c0.2,0.4,0.1,0.8-0.3,1l-9.3,5.4C624.3,132.8,624.1,132.8,624,132.8z"/>
		</g>
		<g>
			<path fill="#5EEAF0" d="M624,165c-0.1,0-0.3,0-0.4-0.1l-9.3-5.4c-0.2-0.1-0.4-0.4-0.4-0.6v-10.8c0-0.3,0.1-0.5,0.4-0.6l9.3-5.4
				c0.2-0.1,0.5-0.1,0.7,0l9.3,5.4c0.2,0.1,0.4,0.4,0.4,0.6v10.8c0,0.3-0.1,0.5-0.4,0.6l-9.3,5.4C624.3,164.9,624.1,165,624,165z
				 M615.4,158.4l8.6,5l8.6-5v-9.9l-8.6-5l-8.6,5V158.4z"/>
		</g>
		<g>
			<path fill="#5EEAF0" d="M633.2,146.3c-0.1,0-0.3,0-0.4-0.1l-6.8-3.9c-0.4-0.2-0.5-0.7-0.3-1c0.2-0.4,0.7-0.5,1-0.3l6.8,3.9
				c0.4,0.2,0.5,0.7,0.3,1C633.7,146.2,633.4,146.3,633.2,146.3z"/>
		</g>
		<g>
			<path fill="#5EEAF0" d="M624,143.4c-0.4,0-0.7-0.3-0.7-0.7v-10.6c0-0.4,0.3-0.7,0.7-0.7c0.4,0,0.7,0.3,0.7,0.7v10.6
				C624.8,143.1,624.4,143.4,624,143.4z"/>
		</g>
	</g>
	<g>
		<g>
			<path fill="#5EEAF0" d="M127.5,393.3c-2.8,1.1-5.5,2.1-8.3,3.2c-0.3,0.1-0.6,0.4-0.6,0.8c-0.4,2.9-0.9,5.8-1.3,8.7
				c-0.2,1.3,1.8,1.5,1.9,0.3c0.4-2.9,0.9-5.8,1.3-8.7c-0.1,0.6-1,0.9-0.3,0.6c0.3-0.1,0.5-0.2,0.8-0.3c1-0.4,2-0.8,3-1.2
				c1.4-0.5,2.8-1.1,4.1-1.6C129.4,394.6,128.7,392.8,127.5,393.3L127.5,393.3z"/>
		</g>
		<g>
			<path fill="#5EEAF0" d="M150.5,396.7c-2.8,1.1-5.5,2.1-8.3,3.2c-0.3,0.1-0.6,0.4-0.6,0.8c-0.4,2.9-0.9,5.8-1.3,8.7
				c-0.2,1.3,1.8,1.5,2,0.3c0.4-2.9,0.9-5.8,1.3-8.7c-0.1,0.6-0.9,0.9-0.3,0.6c0.3-0.1,0.5-0.2,0.8-0.3c1-0.4,2-0.8,3-1.2
				c1.4-0.5,2.8-1.1,4.1-1.6C152.4,398,151.7,396.2,150.5,396.7L150.5,396.7z"/>
		</g>
		<g>
			<path fill="#5EEAF0" d="M136.1,414.5c-2.8,1.1-5.5,2.1-8.3,3.2c-0.3,0.1-0.6,0.4-0.6,0.8c-0.4,2.9-0.9,5.8-1.3,8.7
				c-0.2,1.3,1.8,1.5,1.9,0.3c0.4-2.9,0.9-5.8,1.3-8.7c-0.1,0.6-0.9,0.9-0.3,0.6c0.3-0.1,0.5-0.2,0.8-0.3c1-0.4,2-0.8,3-1.2
				c1.4-0.5,2.8-1.1,4.1-1.6C138,415.8,137.3,414,136.1,414.5L136.1,414.5z"/>
		</g>
		<path fill="#5EEAF0" d="M124.7,415.5c-3.3-2.7-6.7-5.3-10-8c-0.3-0.2-0.7-0.3-1-0.1c-4.2,1.6-8.3,3.3-12.5,4.9
			c-1.2,0.5-0.5,2.3,0.7,1.8c4-1.6,7.9-3.1,11.9-4.7c0.1,0.1,0.4,0.2,0.9,0.6c1.2,1,2.4,1.9,3.6,2.9c1.7,1.3,3.4,2.7,5.1,4
			c0,0.1,0,0.4-0.1,1.1c-0.2,1.5-0.5,3.1-0.7,4.6c-0.3,2.1-0.6,4.3-0.9,6.4c-0.1,0.1-0.4,0.2-1,0.5c-1.4,0.6-2.9,1.1-4.3,1.7
			c-2.2,0.9-4.4,1.8-6.7,2.6c-1.2,0.5-0.5,2.3,0.7,1.8c3.8-1.5,7.7-3,11.5-4.5c1-0.4,1.5-1.1,1.8-2l0.4-2.6l0-0.2l0.7-4.8l0.2-1.3
			l0.4-3C125.4,416.6,125.2,415.9,124.7,415.5z"/>
		
			<rect x="122.5" y="421" transform="matrix(0.9892 0.1467 -0.1467 0.9892 63.3971 -13.4661)" fill="#5EEAF0" width="1.1" height="4.5"/>
		
			<rect x="136.9" y="398.8" transform="matrix(0.9892 0.1465 -0.1465 0.9892 60.8556 -15.7382)" fill="#5EEAF0" width="0.7" height="12.8"/>
		<path fill="#5EEAF0" d="M139.9,398.1c-0.6-1.4-3.4-2.8-4.5-3.8c-2.1-1.7-4.2-3.3-6.3-5c-0.3-0.2-0.7-0.3-1-0.1
			c-3.8,1.5-7.7,3-11.5,4.5c-0.9,0.4-1.5,1.1-1.8,2l-0.6,3.8c0,0.6-0.1,1.1-0.1,1.6c-0.1,0.4-0.2,0.8-0.3,1.4l-0.8,5.2
			c0.1,0.8,0.3,1.4,0.9,1.8c3.3,2.7,6.7,5.3,10,8c0.3,0.2,0.7,0.3,1,0.1c4.2-1.6,8.3-3.3,12.5-4.9c0.2-0.1,0.4-0.2,0.5-0.4
			c0,0,0,0,0,0c0.1-0.1,0.1-0.2,0.1-0.4c0,0,0,0,0,0c0-0.2,0.1-0.4,0.1-0.6c0.3-2.2,0.6-4.3,1-6.5l0.8-5.6l0.2-0.1
			C140.1,398.7,140,398.4,139.9,398.1z M137.7,400.5c-0.5,3.5-1,7-1.6,10.5c-3.1,1.2-6.1,2.4-9.2,3.6c-0.7,0.3-1.5,0.6-2.2,0.9
			c0,0,0,0,0,0c-1.5-1.2-3-2.4-4.5-3.5c-1.6-1.3-3.2-2.5-4.8-3.8c-0.2-0.2-0.3-0.3-0.4-0.3c0.1-0.3,0.1-0.7,0.2-1
			c0.5-3.7,1.1-7.4,1.6-11.1c0.1-0.1,0.3-0.1,0.5-0.2c0.8-0.3,1.7-0.7,2.5-1c2.1-0.8,4.2-1.6,6.2-2.5c0.7-0.3,1.5-0.6,2.2-0.9
			c0,0,0,0,0,0c1.5,1.2,3,2.4,4.5,3.5c1.6,1.3,3.2,2.5,4.8,3.8c0.2,0.1,0.3,0.3,0.4,0.3C137.8,399.4,137.8,400,137.7,400.5z"/>
		
			<rect x="114.1" y="396.1" transform="matrix(0.9892 0.1466 -0.1466 0.9892 59.9356 -12.5046)" fill="#5EEAF0" width="1.4" height="8.6"/>
		<path fill="#5EEAF0" d="M171.1,422.7c-3.5-2.8-7-5.6-10.5-8.3c-0.3-0.2-0.7-0.3-1-0.1c-3.8,1.5-7.7,3-11.5,4.5
			c-0.9,0.3-1.4,1-1.7,1.8l0,0l-1.8,12.1l-0.1-0.1c0.1,0.8,0.3,1.5,0.9,1.9c3.3,2.7,6.7,5.3,10,8c1,0.8,2.2-0.7,1.2-1.5
			c-3.3-2.6-6.7-5.3-10-7.9c0-0.1,0-0.4,0.1-1.1c0.2-1.5,0.5-3.1,0.7-4.6c0.3-2.1,0.6-4.3,0.9-6.4c0.1-0.1,0.4-0.2,1-0.5
			c1.4-0.6,2.9-1.1,4.3-1.7c2-0.8,4-1.6,6-2.4c0.1,0.1,0.4,0.2,0.9,0.6c1.2,1,2.4,1.9,3.6,2.9c1.9,1.5,3.7,3,5.6,4.4
			C170.9,425,172.1,423.5,171.1,422.7z"/>
		<path fill="#5EEAF0" d="M148.4,420.9l0.2-0.1c0-0.4,0-0.8-0.2-1.1c-0.1-0.3-0.3-0.6-0.6-0.8l-0.2,0.1l-3.5-2.8
			c-0.1-0.1-0.2-0.1-0.3-0.2c-2.1-1.7-4.2-3.3-6.3-5c-0.3-0.2-0.7-0.3-1-0.1c-3.8,1.5-7.7,3-11.5,4.5c-1,0.4-1.5,1.1-1.8,2l-0.6,3.8
			c0,0.6-0.1,1.1-0.2,1.6c-0.1,0.4-0.2,0.9-0.3,1.4l-0.7,5l0,0c0.1,0.8,0.3,1.5,0.9,1.9c3.3,2.7,6.7,5.3,10,8c0.3,0.2,0.7,0.3,1,0.1
			c4.2-1.6,8.3-3.3,12.5-4.9c0.2-0.1,0.4-0.2,0.5-0.4l0,0c0.1-0.1,0.1-0.2,0.1-0.4c0,0,0,0,0,0c0-0.2,0.1-0.4,0.1-0.6
			c0.3-2.2,0.6-4.3,1-6.4L148.4,420.9z M146.2,422.2c-0.5,3.5-1,7-1.6,10.5c-3.1,1.2-6.1,2.4-9.2,3.6c-0.7,0.3-1.5,0.6-2.2,0.9
			c0,0,0,0,0,0c-1.5-1.2-3-2.4-4.5-3.5c-1.6-1.3-3.2-2.5-4.8-3.8c-0.2-0.1-0.3-0.3-0.4-0.3c0.1-0.3,0.1-0.7,0.2-1
			c0.1-0.7,0.2-1.4,0.3-2l0.7-4.8c0.2-1.4,0.4-2.8,0.6-4.2c0,0,0.1,0,0.1,0l0,0l0,0c0.1,0,0.2-0.1,0.4-0.2c0.8-0.3,1.7-0.7,2.5-1
			c2.1-0.8,4.2-1.6,6.2-2.5c0.7-0.3,1.5-0.6,2.2-0.9c0,0,0,0,0,0c1.5,1.2,3,2.4,4.5,3.5c1.6,1.3,3.2,2.5,4.8,3.8
			c0.2,0.2,0.3,0.3,0.4,0.3C146.4,421,146.3,421.6,146.2,422.2z"/>
		<path fill="#5EEAF0" d="M152.5,393.1l0.7-5c0.4-2.6,0.8-5.3,1.2-7.9c0.2-1.3-1.8-1.5-1.9-0.3c-0.6,4.2-1.2,8.4-1.9,12.6
			c-0.1,0.1-0.4,0.2-1,0.5c-1.4,0.6-2.9,1.1-4.3,1.7c-2,0.8-4,1.6-6,2.4c-0.1-0.1-0.4-0.2-0.9-0.6c-1.2-1-2.4-1.9-3.6-2.9
			c-1.5-1.2-3-2.3-4.4-3.5l-0.7-0.6l0.2-1.1c0.2-1.5,0.5-3.1,0.7-4.6c0.3-2.1,0.6-4.2,0.9-6.3c0-0.3,0.1-0.5,0.1-0.8
			c0.2-1.3-1.8-1.5-1.9-0.3c-0.3,2.4-0.7,4.7-1,7.1l-0.9,5.8l-0.2,0.1c0,0.3,0.1,0.6,0.2,0.8c0.1,0.3,0.4,0.7,0.7,1
			c0,0,0.7,0.6,1.8,1.4c0.8,0.5,1.6,1,2.1,1.4c2.1,1.7,4.2,3.3,6.3,5c0.3,0.2,0.7,0.3,1,0.1c2.2-0.9,4.4-1.8,6.7-2.6
			c1.5-0.6,5.1-1.2,6.2-2.6c0.2-0.2,0.3-0.4,0.4-0.7L152.5,393.1z"/>
		<path fill="#5EEAF0" d="M163,401.8c0-0.1,0-0.3-0.1-0.4c-0.6-1.4-3.4-2.9-4.5-3.8c-2.1-1.7-4.2-3.3-6.3-5c-0.3-0.2-0.7-0.3-1-0.1
			c-3.8,1.5-7.7,3-11.5,4.5c-1,0.4-1.5,1.1-1.9,2.1l-0.5,3.5c0,0.6-0.1,1.3-0.2,1.8c-0.1,0.4-0.2,1-0.3,1.6l-0.7,4.9
			c0.1,0.8,0.3,1.5,0.9,1.9c3.3,2.7,6.7,5.3,10,8c0.3,0.2,0.7,0.3,1,0.1c4.2-1.6,8.3-3.3,12.5-4.9c0.2-0.1,0.4-0.2,0.5-0.4
			c0,0,0,0,0,0c0.1-0.1,0.1-0.2,0.1-0.4c0,0,0,0,0,0c0.3-1.8,0.5-3.5,0.8-5.3c0.1-0.6,0.2-1.2,0.3-1.7L163,401.8z M160.7,403.9
			c-0.5,3.5-1,7-1.6,10.5c-3.1,1.2-6.1,2.4-9.2,3.6c-0.7,0.3-1.5,0.6-2.2,0.9c0,0,0,0,0,0c-1.5-1.2-3-2.4-4.5-3.5
			c-1.6-1.3-3.2-2.5-4.8-3.8c-0.2-0.2-0.3-0.3-0.4-0.3c0.1-0.3,0.1-0.7,0.2-1c0.5-3.7,1.1-7.4,1.6-11.1c0.1-0.1,0.3-0.1,0.5-0.2
			c0.8-0.3,1.7-0.7,2.5-1c2.1-0.8,4.2-1.6,6.2-2.5c0.7-0.3,1.5-0.6,2.2-0.9c0,0,0,0,0,0c1.5,1.2,3,2.4,4.5,3.5
			c1.6,1.3,3.2,2.5,4.8,3.8c0.2,0.1,0.3,0.3,0.4,0.3C160.8,402.8,160.8,403.4,160.7,403.9z"/>
	</g>
	<g>
		<g>
			<path fill="#5EEAF0" d="M441,243.1c1.9,0,3.8,0,5.7,0c2.3,0,2.3-3.6,0-3.6c-1.9,0-3.8,0-5.7,0C438.7,239.5,438.7,243.1,441,243.1
				L441,243.1z"/>
		</g>
		<g>
			<path fill="#5EEAF0" d="M455.5,243.1c1.9,0,3.8,0,5.7,0c2.3,0,2.3-3.6,0-3.6c-1.9,0-3.8,0-5.7,0
				C453.2,239.5,453.2,243.1,455.5,243.1L455.5,243.1z"/>
		</g>
		<g>
			<path fill="#5EEAF0" d="M452.9,251.4c0-1.9,0-3.8,0-5.7c0-2.3-3.6-2.3-3.6,0c0,1.9,0,3.8,0,5.7
				C449.3,253.7,452.9,253.7,452.9,251.4L452.9,251.4z"/>
		</g>
		<g>
			<path fill="#5EEAF0" d="M452.9,236.8c0-1.9,0-3.8,0-5.7c0-2.3-3.6-2.3-3.6,0c0,1.9,0,3.8,0,5.7
				C449.3,239.1,452.9,239.1,452.9,236.8L452.9,236.8z"/>
		</g>
	</g>
	<g>
		<g>
			<path fill="#5EEAF0" d="M552.2,422.7c1.2,0,2.4,0,3.5,0c1.4,0,1.4-2.2,0-2.2c-1.2,0-2.4,0-3.5,0
				C550.7,420.5,550.7,422.7,552.2,422.7L552.2,422.7z"/>
		</g>
		<g>
			<path fill="#5EEAF0" d="M561.2,422.7c1.2,0,2.4,0,3.5,0c1.4,0,1.4-2.2,0-2.2c-1.2,0-2.4,0-3.5,0
				C559.8,420.5,559.8,422.7,561.2,422.7L561.2,422.7z"/>
		</g>
		<g>
			<path fill="#5EEAF0" d="M559.6,427.9c0-1.2,0-2.4,0-3.5c0-1.4-2.2-1.4-2.2,0c0,1.2,0,2.4,0,3.5
				C557.3,429.3,559.6,429.3,559.6,427.9L559.6,427.9z"/>
		</g>
		<g>
			<path fill="#5EEAF0" d="M559.6,418.8c0-1.2,0-2.4,0-3.5c0-1.4-2.2-1.4-2.2,0c0,1.2,0,2.4,0,3.5
				C557.3,420.3,559.6,420.3,559.6,418.8L559.6,418.8z"/>
		</g>
	</g>
	<g>
		<g>
			<path fill="#5EEAF0" d="M962,296.4c1.2,0,2.4,0,3.5,0c1.4,0,1.4-2.2,0-2.2c-1.2,0-2.4,0-3.5,0C960.6,294.2,960.6,296.4,962,296.4
				L962,296.4z"/>
		</g>
		<g>
			<path fill="#5EEAF0" d="M971.1,296.4c1.2,0,2.4,0,3.5,0c1.4,0,1.4-2.2,0-2.2c-1.2,0-2.4,0-3.5,0
				C969.7,294.2,969.7,296.4,971.1,296.4L971.1,296.4z"/>
		</g>
		<g>
			<path fill="#5EEAF0" d="M969.5,301.6c0-1.2,0-2.4,0-3.5c0-1.4-2.2-1.4-2.2,0c0,1.2,0,2.4,0,3.5C967.2,303,969.5,303,969.5,301.6
				L969.5,301.6z"/>
		</g>
		<g>
			<path fill="#5EEAF0" d="M969.5,292.5c0-1.2,0-2.4,0-3.5c0-1.4-2.2-1.4-2.2,0c0,1.2,0,2.4,0,3.5C967.2,294,969.5,294,969.5,292.5
				L969.5,292.5z"/>
		</g>
	</g>
	<g>
		<g>
			<path fill="#5EEAF0" d="M1200.1,575.2c1.2,0,2.4,0,3.5,0c1.4,0,1.4-2.2,0-2.2c-1.2,0-2.4,0-3.5,0
				C1198.7,573,1198.7,575.2,1200.1,575.2L1200.1,575.2z"/>
		</g>
		<g>
			<path fill="#5EEAF0" d="M1209.2,575.2c1.2,0,2.4,0,3.5,0c1.4,0,1.4-2.2,0-2.2c-1.2,0-2.4,0-3.5,0
				C1207.7,573,1207.7,575.2,1209.2,575.2L1209.2,575.2z"/>
		</g>
		<g>
			<path fill="#5EEAF0" d="M1207.5,580.4c0-1.2,0-2.4,0-3.5c0-1.4-2.2-1.4-2.2,0c0,1.2,0,2.4,0,3.5
				C1205.3,581.9,1207.5,581.9,1207.5,580.4L1207.5,580.4z"/>
		</g>
		<g>
			<path fill="#5EEAF0" d="M1207.5,571.4c0-1.2,0-2.4,0-3.5c0-1.4-2.2-1.4-2.2,0c0,1.2,0,2.4,0,3.5
				C1205.3,572.8,1207.5,572.8,1207.5,571.4L1207.5,571.4z"/>
		</g>
	</g>
	<g>
		<g>
			<path fill="#5EEAF0" d="M1263,160c1.2,0,2.4,0,3.5,0c1.4,0,1.4-2.2,0-2.2c-1.2,0-2.4,0-3.5,0C1261.5,157.8,1261.5,160,1263,160
				L1263,160z"/>
		</g>
		<g>
			<path fill="#5EEAF0" d="M1272,160c1.2,0,2.4,0,3.5,0c1.4,0,1.4-2.2,0-2.2c-1.2,0-2.4,0-3.5,0C1270.6,157.8,1270.6,160,1272,160
				L1272,160z"/>
		</g>
		<g>
			<path fill="#5EEAF0" d="M1270.4,165.2c0-1.2,0-2.4,0-3.5c0-1.4-2.2-1.4-2.2,0c0,1.2,0,2.4,0,3.5
				C1268.1,166.7,1270.4,166.7,1270.4,165.2L1270.4,165.2z"/>
		</g>
		<g>
			<path fill="#5EEAF0" d="M1270.4,156.2c0-1.2,0-2.4,0-3.5c0-1.4-2.2-1.4-2.2,0c0,1.2,0,2.4,0,3.5
				C1268.1,157.6,1270.4,157.6,1270.4,156.2L1270.4,156.2z"/>
		</g>
	</g>
	<g>
		<g>
			<path fill="#5EEAF0" d="M907.8,77.2c1.2,0,2.4,0,3.5,0c1.4,0,1.4-2.2,0-2.2c-1.2,0-2.4,0-3.5,0C906.3,75,906.3,77.2,907.8,77.2
				L907.8,77.2z"/>
		</g>
		<g>
			<path fill="#5EEAF0" d="M916.8,77.2c1.2,0,2.4,0,3.5,0c1.4,0,1.4-2.2,0-2.2c-1.2,0-2.4,0-3.5,0C915.4,75,915.4,77.2,916.8,77.2
				L916.8,77.2z"/>
		</g>
		<g>
			<path fill="#5EEAF0" d="M915.2,82.4c0-1.2,0-2.4,0-3.5c0-1.4-2.2-1.4-2.2,0c0,1.2,0,2.4,0,3.5C913,83.8,915.2,83.8,915.2,82.4
				L915.2,82.4z"/>
		</g>
		<g>
			<path fill="#5EEAF0" d="M915.2,73.3c0-1.2,0-2.4,0-3.5c0-1.4-2.2-1.4-2.2,0c0,1.2,0,2.4,0,3.5C913,74.7,915.2,74.7,915.2,73.3
				L915.2,73.3z"/>
		</g>
	</g>
	<g>
		<g>
			<path fill="#5EEAF0" d="M350,84.6c1.2,0,2.4,0,3.5,0c1.4,0,1.4-2.2,0-2.2c-1.2,0-2.4,0-3.5,0C348.5,82.4,348.5,84.6,350,84.6
				L350,84.6z"/>
		</g>
		<g>
			<path fill="#5EEAF0" d="M359,84.6c1.2,0,2.4,0,3.5,0c1.4,0,1.4-2.2,0-2.2c-1.2,0-2.4,0-3.5,0C357.6,82.4,357.6,84.6,359,84.6
				L359,84.6z"/>
		</g>
		<g>
			<path fill="#5EEAF0" d="M357.4,89.8c0-1.2,0-2.4,0-3.5c0-1.4-2.2-1.4-2.2,0c0,1.2,0,2.4,0,3.5C355.1,91.2,357.4,91.2,357.4,89.8
				L357.4,89.8z"/>
		</g>
		<g>
			<path fill="#5EEAF0" d="M357.4,80.7c0-1.2,0-2.4,0-3.5c0-1.4-2.2-1.4-2.2,0c0,1.2,0,2.4,0,3.5C355.1,82.2,357.4,82.2,357.4,80.7
				L357.4,80.7z"/>
		</g>
	</g>
	<g>
		<path fill="#5EEAF0" d="M100.6,620.9c-5,0-9.1-4.1-9.1-9.1s4.1-9.1,9.1-9.1s9.1,4.1,9.1,9.1S105.6,620.9,100.6,620.9z
			 M100.6,606.6c-2.9,0-5.2,2.3-5.2,5.2c0,2.9,2.3,5.2,5.2,5.2c2.9,0,5.2-2.3,5.2-5.2C105.8,608.9,103.4,606.6,100.6,606.6z"/>
	</g>
	<g>
		<path fill="#5EEAF0" d="M384.7,384.1c-5,0-9.1-4.1-9.1-9.1s4.1-9.1,9.1-9.1s9.1,4.1,9.1,9.1S389.8,384.1,384.7,384.1z
			 M384.7,369.7c-2.9,0-5.2,2.3-5.2,5.2c0,2.9,2.3,5.2,5.2,5.2s5.2-2.3,5.2-5.2C389.9,372,387.6,369.7,384.7,369.7z"/>
	</g>
	<g>
		<path fill="#5EEAF0" d="M798.1,220.4c-5,0-9.1-4.1-9.1-9.1s4.1-9.1,9.1-9.1s9.1,4.1,9.1,9.1S803.1,220.4,798.1,220.4z
			 M798.1,206.1c-2.9,0-5.2,2.3-5.2,5.2c0,2.9,2.3,5.2,5.2,5.2s5.2-2.3,5.2-5.2C803.3,208.4,800.9,206.1,798.1,206.1z"/>
	</g>
	<g>
		<path fill="#5EEAF0" d="M1165,88.1c-5,0-9.1-4.1-9.1-9.1s4.1-9.1,9.1-9.1c5,0,9.1,4.1,9.1,9.1S1170,88.1,1165,88.1z M1165,73.8
			c-2.9,0-5.2,2.3-5.2,5.2s2.3,5.2,5.2,5.2c2.9,0,5.2-2.3,5.2-5.2S1167.9,73.8,1165,73.8z"/>
	</g>
	<g>
		<path fill="#5EEAF0" d="M1132.6,526.6c-5,0-9.1-4.1-9.1-9.1s4.1-9.1,9.1-9.1c5,0,9.1,4.1,9.1,9.1S1137.6,526.6,1132.6,526.6z
			 M1132.6,512.3c-2.9,0-5.2,2.3-5.2,5.2c0,2.9,2.3,5.2,5.2,5.2c2.9,0,5.2-2.3,5.2-5.2C1137.8,514.6,1135.4,512.3,1132.6,512.3z"/>
	</g>
	<g>
		<path fill="#5EEAF0" d="M1075.1,227.5c-5,0-9.1-4.1-9.1-9.1s4.1-9.1,9.1-9.1c5,0,9.1,4.1,9.1,9.1S1080.1,227.5,1075.1,227.5z
			 M1075.1,213.2c-2.9,0-5.2,2.3-5.2,5.2c0,2.9,2.3,5.2,5.2,5.2s5.2-2.3,5.2-5.2C1080.3,215.5,1077.9,213.2,1075.1,213.2z"/>
	</g>
	<g>
		<path fill="#5EEAF0" d="M171.5,185.6c-5,0-9.1-4.1-9.1-9.1s4.1-9.1,9.1-9.1s9.1,4.1,9.1,9.1S176.6,185.6,171.5,185.6z
			 M171.5,171.3c-2.9,0-5.2,2.3-5.2,5.2c0,2.9,2.3,5.2,5.2,5.2c2.9,0,5.2-2.3,5.2-5.2C176.7,173.6,174.4,171.3,171.5,171.3z"/>
	</g>
</g>
</svg>
