<?xml version="1.0" encoding="UTF-8" standalone="no"?>
<!DOCTYPE svg PUBLIC "-//W3C//DTD SVG 1.1//EN"
"http://www.w3.org/Graphics/SVG/1.1/DTD/svg11.dtd">


<!-- Page 1 -->
<svg x="0" y="0" width="357" height="192" viewBox="0 0 357 192" version="1.1" xmlns="http://www.w3.org/2000/svg" xmlns:xlink="http://www.w3.org/1999/xlink"
style="display: block;margin-left: auto;margin-right: auto;">
<defs>
<clipPath id="c_1"><path d="M0,0H357V192H0Z" /></clipPath>
<clipPath id="c0_1"><path d="M0,192.6V0H357.3V192.6Z" /></clipPath>

<style type="text/css"><![CDATA[
text { white-space: pre; }
path, image { pointer-events: none; }

.s1_1{
font-size: 9.18px;
font-family: LiberationSans-Bold_9;
fill: #FFFFFF;
}
.s2_1{
font-size: 9.18px;
font-family: LiberationSans-Bold_9;
fill: #A6A6A6;
}
.s3_1{
font-size: 8.40px;
font-family: LiberationSans-Bold_9;
fill: #824200;
}
.s4_1{
font-size: 7.32px;
font-family: LiberationSans_j;
fill: #0000FF;
}
.s5_1{
font-size: 5.67px;
font-family: LiberationSans_j;
fill: #000000;
}
.s6_1{
font-size: 7.32px;
font-family: LiberationSans_j;
fill: #000000;
}
.s7_1{
font-size: 5.67px;
font-family: LiberationSans-Italic_e;
fill: #000000;
}
.s8_1{
font-size: 10.22px;
font-family: LiberationSans_j;
fill: #000000;
}
.s9_1{
font-size: 9.18px;
font-family: LiberationSans-Bold_9;
fill: #000000;
}
.s10_1{
font-size: 6.71px;
font-family: LiberationSans_j;
fill: #824200;
}
.s11_1{
font-size: 8.88px;
font-family: LiberationSans_j;
fill: #008000;
}
.s12_1{
font-size: 6.71px;
font-family: LiberationSans_j;
fill: #008000;
}
.s13_1{
font-size: 8.88px;
font-family: LiberationSans_j;
fill: #808080;
}
.s14_1{
font-size: 6.71px;
font-family: LiberationSans_j;
fill: #808080;
}
.s15_1{
font-size: 7.79px;
font-family: LiberationSans-Bold_9;
fill: #FF0000;
}
.s16_1{
font-size: 9.18px;
font-family: LiberationSans-Bold_9;
fill: #824200;
}
.s17_1{
font-size: 7.79px;
font-family: LiberationSans-Bold_9;
fill: #100000;
}

.g0_1{
fill: #FFFFFF;
}
.g1_1{
fill: #D9D9D9;
}
.g2_1{
fill: none;
stroke: #F2F2F2;
stroke-width: 1.5157236;
stroke-linecap: butt;
stroke-linejoin: miter;
stroke-miterlimit: 7;
}
.g3_1{
fill: none;
stroke: #F2F2F2;
stroke-width: 0.38975137;
stroke-linecap: butt;
stroke-linejoin: miter;
stroke-miterlimit: 7;
}
.g4_1{
fill: none;
stroke: #FFFFFF;
stroke-width: 1.5157236;
stroke-linecap: butt;
stroke-linejoin: miter;
stroke-miterlimit: 7;
}
.g5_1{
fill: none;
stroke: #D9D9D9;
stroke-width: 1.5157236;
stroke-linecap: butt;
stroke-linejoin: miter;
stroke-miterlimit: 7;
}
.g6_1{
fill: #F2F2F2;
}
.g7_1{
fill: #5B9BD5;
}
.g8_1{
fill: none;
stroke: #5B9BD5;
stroke-width: 0.77950275;
stroke-linecap: butt;
stroke-linejoin: miter;
}
.g9_1{
fill: none;
stroke: #000000;
stroke-width: 0.5456611;
stroke-linecap: round;
stroke-linejoin: round;
}
.g10_1{
fill: none;
stroke: #0000FF;
stroke-width: 0.5456611;
stroke-linecap: round;
stroke-linejoin: round;
}
.g11_1{
fill: none;
stroke: #000000;
stroke-width: 0.40924585;
stroke-linecap: round;
stroke-linejoin: round;
}
.g12_1{
}
.g13_1{
fill: none;
stroke: #000000;
stroke-width: 0.15277778;
stroke-linecap: butt;
stroke-linejoin: miter;
}
.g14_1{
fill: none;
stroke: #000000;
stroke-width: 1.0913374;
stroke-linecap: round;
stroke-linejoin: round;
}
.g15_1{
fill: none;
stroke: #000000;
stroke-width: 0.27283055;
stroke-linecap: round;
stroke-linejoin: round;
}
.g16_1{
fill: none;
stroke: #000000;
stroke-width: 0.40924585;
stroke-linecap: round;
stroke-linejoin: miter;
stroke-miterlimit: 1;
}

]]></style>

</defs>
<g clip-path="url(#c_1)">
<path d="M0,0
L0,192
L357,192
L357,0 Z " 
fill="#FFFFFF" stroke="none" />
<g clip-path="url(#c0_1)">
<path fill-rule="evenodd" d="M0,0H357.3V192.6H0V0Z" class="g0_1" />
<path fill-rule="evenodd" d="M0,0H357.3V192.7H0V0Z" class="g1_1" />
</g>
<path fill-rule="evenodd" d="M43.7,67.9v-.7l.1,-.7l.1,-.7l.1,-.7l.1,-.7l.2,-.7l.3,-.6l.3,-.6l.2,-.7l.4,-.6l.4,-.6l.4,-.5l.3,-.6l.5,-.5l.5,-.5l.5,-.5l.5,-.5l.6,-.4l.6,-.4l.6,-.4L51,56l.6,-.3l.6,-.3l.7,-.2l.7,-.2l.6,-.1l.7,-.2h.7l.7,-.1h8l.7,.1h.7l.6,.2L67,55l.7,.2l.6,.2l.7,.3l.6,.3l.6,.3l.6,.4l.6,.4l.5,.4l.6,.5l.5,.5l.4,.5l.5,.5l.4,.6l.4,.5l.4,.6l.3,.6l.3,.7l.3,.6l.2,.6l.2,.7l.2,.7l.1,.7l.1,.7l.1,.7V118l-.1,.7l-.1,.7l-.1,.6l-.1,.7l-.2,.7L76,122l-.3,.7l-.2,.6l-.4,.6l-.4,.6l-.3,.6l-.4,.5l-.5,.6l-.5,.5l-.5,.4l-.5,.5l-.6,.4l-.5,.4l-.6,.4l-.7,.3l-.6,.3l-.6,.3l-.7,.2l-.7,.2l-.6,.2l-.7,.1l-.7,.1l-.7,.1h-8l-.7,-.1l-.7,-.1l-.7,-.1l-.6,-.1l-.7,-.2l-.7,-.3l-.6,-.3l-.6,-.2l-.6,-.4l-.6,-.3l-.6,-.4l-.6,-.4l-.5,-.5l-.5,-.5l-.5,-.5l-.5,-.5l-.3,-.6l-.4,-.5l-.4,-.6l-.4,-.7l-.2,-.6l-.3,-.6l-.3,-.7l-.2,-.7l-.1,-.6l-.1,-.7l-.1,-.7l-.1,-.7V67.9Z" class="g0_1" />
<path fill-rule="evenodd" d="M21.3,148.7v-2l.2,-1.9l.2,-2l.3,-1.9l.5,-2l.5,-1.8l.7,-1.9l.7,-1.9l.8,-1.7l1,-1.8l1,-1.7l1,-1.6l1.2,-1.6l1.3,-1.6L32,121.9l1.4,-1.5l1.4,-1.3l1.6,-1.2l1.5,-1.2l1.7,-1.1l1.7,-1l1.7,-.9l1.9,-.8l1.8,-.8l1.8,-.6l2,-.5l1.9,-.5l2,-.3l1.9,-.3l1.9,-.2h4.1l2,.2l2,.3l2,.4l2,.4l2,.6l1.9,.7l1.9,.8l1.8,.8l1.8,1l1.8,1.1l1.6,1.1l1.7,1.3l1.5,1.3l1.5,1.4l1.4,1.5l1.3,1.6l1.3,1.6l1.1,1.7l1.1,1.7l1,1.8l.8,1.8l.8,1.9l.7,1.9l.6,2l.5,2l.3,2l.3,2l.2,2v4.1l-.2,2l-.3,2.1l-.3,2l-.5,2l-.6,1.9l-.7,2l-.8,1.8l-.8,1.9l-1,1.8l-1.1,1.7l-1.1,1.7l-1.3,1.6l-1.3,1.6l-1.4,1.5l-1.5,1.3L84.8,179l-1.7,1.2l-1.6,1.2l-1.8,1.1l-1.7,.9l-1.9,.9l-1.9,.8l-1.9,.7l-2,.6l-2,.4l-2,.4l-2,.3l-2,.1l-2.1,.1l-2,-.1l-2,-.1l-2.1,-.3l-2,-.4l-2,-.4l-1.9,-.6l-1.9,-.7l-1.9,-.8l-1.9,-.8l-1.7,-1L39,181.4l-1.7,-1.2L35.7,179l-1.6,-1.3l-1.4,-1.4l-1.4,-1.5l-1.4,-1.6l-1.2,-1.6l-1.2,-1.7l-1,-1.7l-1,-1.8l-.9,-1.8l-.8,-1.9l-.7,-1.9l-.5,-2l-.5,-2l-.4,-2l-.3,-2l-.1,-2l-.1,-2.1h.1Z" class="g0_1" />
<path fill-rule="evenodd" d="M49.9,32.2L52.3,53h16L70.7,32.2H49.9Z" class="g0_1" />
<path fill-rule="evenodd" d="M70,83.9h-.1v-.2l-.1,-.1v-.2h-.1v-.6h.1v-.3h.1v-.1l.1,-.1v-.1h.1v-.1h.1V82L108.1,53.5v-.1h.2v-.1h.2v-.1h.8v.1h.1l.1,.1h.2v.1l.1,.1h.1v.1h.1l3.5,4.6h-.1h.1v.2h.1v.2l.1,.1l-.1,.1h.1v.6h-.1v.3h-.1v.1l-.1,.1l-.1,.1v.1h-.1L75.4,88.8h-.1v.1h-.2V89h-.5v.1L74.5,89h-.1v.1V89H74v-.1h-.2v-.1h-.1v-.1h-.1l-.1,-.1l-.1,-.1L70,83.9Z" class="g0_1" />
<path fill-rule="evenodd" d="M48.9,22.9V21.7l.1,-.6l.1,-.6l.1,-.6l.2,-.6l.2,-.5l.2,-.6l.3,-.5l.3,-.6l.3,-.5l.3,-.4l.4,-.5l.4,-.5l.4,-.4l.4,-.4l.5,-.4l.5,-.4l.4,-.3l.6,-.3l.5,-.3l.5,-.3l.6,-.2l.5,-.2l.6,-.2l.6,-.1l.6,-.1l.6,-.1l.6,-.1h1.2l.6,.1l.6,.1l.6,.1l.5,.1l.6,.2l.6,.2l.5,.2l.6,.3L66,13l.5,.3l.5,.3l.5,.4l.4,.4l.5,.4l.4,.4l.4,.5l.4,.5l.3,.4l.3,.5l.3,.6l.2,.5l.2,.6l.3,.5l.1,.6l.2,.6l.1,.6l.1,.6v1.8l-.1,.6l-.1,.5l-.1,.6l-.1,.6l-.2,.6l-.2,.5l-.2,.6l-.3,.6l-.2,.5l-.3,.5l-.4,.5l-.4,.5l-.3,.4l-.5,.4l-.4,.5l-.4,.3l-.5,.4l-.5,.3l-.5,.3l-.6,.3l-.5,.3l-.5,.2l-.6,.2l-.6,.2l-.5,.1l-.6,.2h-.6l-.6,.1H59.7l-.6,-.1l-.6,-.1L57.9,34l-.6,-.1l-.5,-.2l-.6,-.2l-.6,-.2L55.1,33l-.5,-.3l-.5,-.3l-.5,-.3l-.5,-.4l-.4,-.3l-.5,-.5l-.4,-.4l-.4,-.4l-.3,-.5l-.4,-.5l-.3,-.5L50.1,28l-.3,-.5l-.2,-.6l-.2,-.5l-.2,-.6l-.1,-.6L49,24.6l-.1,-.5V22.9Z" class="g0_1" />
<path fill-rule="evenodd" d="M48.8,35.2l2.6,22.9H69.2L71.8,35.2h-23Z" class="g0_1" />
<path d="M46.7,147.2c.7,-13.2,1.4,-26.5,7.1,-37.8C59.5,98,66.3,91.9,81,79.3C95.8,66.7,128.9,43.5,142.4,33.7C155.8,24,156,23.6,161.8,20.9c5.8,-2.8,12,-2.9,15.5,-3.5c3.4,-.5,4.3,-.3,5.2,0" class="g2_1" />
<path fill-rule="evenodd" d="M232.8,26.4H194.5V7.2H271V26.4H232.8Z" class="g0_1" />
<path fill-rule="evenodd" d="M292.5,24H254.3V9.6h76.4V24H292.5Z" class="g0_1" />
<path d="M292.5,24H254.3V9.6h76.4V24H292.5Z" class="g3_1" />
<path fill-rule="evenodd" d="M331.6,3.9h3.9v.3l.1,.1v.3l.1,.1V5l.1,.2v.9l.1,.2v.8l.1,.3V8.5l.1,.3v3l.1,.3v9.5l-.1,.3v3l-.1,.3v1.1l-.1,.2v.9l-.1,.1v1l-.1,.2V29l-.1,.1v.3l-.1,.1v.3h-3.9v-.1h-.1v-.2l-.1,-.1v-.3l-.1,-.1v-.6l-.1,-.2v-.7l-.1,-.1v-.9l-.1,-.2V24.4l-.1,-.3V21.9l-.1,-.3V12.1l.1,-.3V9.6l.1,-.3V7.4l.1,-.3V6.3l.1,-.2V5.5l.1,-.2V4.7l.1,-.1V4.3l.1,-.1V4h.1V3.9Z" class="g0_1" />
<path fill-rule="evenodd" d="M189.8,19.7h-4.7V14.2h9.4v5.5h-4.7Z" class="g0_1" />
<path fill-rule="evenodd" d="M183.2,19.5h-3.6V14.1h7.1v5.4h-3.5Z" class="g0_1" />
<path d="M183.2,19.5h-3.6V14.1h7.1v5.4h-3.5Z" class="g4_1" />
<path fill-rule="evenodd" d="M89.6,66.8v-.4l.1,-.4v-.4l.1,-.4l.1,-.4l.1,-.3l.1,-.4l.2,-.4l.2,-.3l.1,-.3l.3,-.4l.2,-.3l.2,-.3l.3,-.3l.2,-.3l.3,-.3l.3,-.2l.3,-.2l.3,-.3l.4,-.2l.3,-.1l.4,-.2l.3,-.2l.4,-.1l.3,-.1l.4,-.1l.4,-.1h.4l.4,-.1h.8l.4,.1h.4l.4,.1l.3,.1l.4,.1l.4,.1l.3,.2l.4,.2l.3,.1l.4,.2l.3,.3l.3,.2l.3,.2l.3,.3l.2,.3l.3,.3l.2,.3l.2,.3l.2,.4l.2,.3l.2,.3l.2,.4l.1,.4l.1,.3l.1,.4l.1,.4v2l-.1,.4l-.1,.3l-.1,.4v.4l-.2,.3l-.1,.4l-.2,.4l-.2,.3l-.2,.3l-.2,.4l-.2,.3l-.3,.3l-.3,.2l-.3,.3l-.2,.2l-.3,.3l-.4,.2l-.3,.2l-.3,.2l-.4,.2l-.4,.1l-.3,.1L99,74l-.3,.1h-.4l-.4,.1H96.7l-.4,-.1h-.4L95.5,74l-.3,-.1l-.4,-.1l-.3,-.1l-.4,-.2l-.4,-.1l-.3,-.2L93.1,73l-.4,-.2l-.3,-.3l-.3,-.2L91.9,72l-.3,-.3l-.3,-.2l-.2,-.3l-.2,-.4l-.3,-.3l-.1,-.3l-.2,-.4l-.1,-.4L90,69.1l-.1,-.4l-.1,-.4L89.7,68v-.4l-.1,-.4v-.4Z" class="g0_1" />
<path d="M89.6,66.8v-.4l.1,-.4v-.4l.1,-.4l.1,-.4l.1,-.3l.1,-.4l.2,-.4l.2,-.3l.1,-.3l.3,-.4l.2,-.3l.2,-.3l.3,-.3l.2,-.3l.3,-.3l.3,-.2l.3,-.2l.3,-.3l.4,-.2l.3,-.1l.4,-.2l.3,-.2l.4,-.1l.3,-.1l.4,-.1l.4,-.1h.4l.4,-.1h.8l.4,.1h.4l.4,.1l.3,.1l.4,.1l.4,.1l.3,.2l.4,.2l.3,.1l.4,.2l.3,.3l.3,.2l.3,.2l.3,.3l.2,.3l.3,.3l.2,.3l.2,.3l.2,.4l.2,.3l.2,.3l.2,.4l.1,.4l.1,.3l.1,.4l.1,.4v2l-.1,.4l-.1,.3l-.1,.4v.4l-.2,.3l-.1,.4l-.2,.4l-.2,.3l-.2,.3l-.2,.4l-.2,.3l-.3,.3l-.3,.2l-.3,.3l-.2,.2l-.3,.3l-.4,.2l-.3,.2l-.3,.2l-.4,.2l-.4,.1l-.3,.1L99,74l-.3,.1h-.4l-.4,.1H96.7l-.4,-.1h-.4L95.5,74l-.3,-.1l-.4,-.1l-.3,-.1l-.4,-.2l-.4,-.1l-.3,-.2L93.1,73l-.4,-.2l-.3,-.3l-.3,-.2L91.9,72l-.3,-.3l-.3,-.2l-.2,-.3l-.2,-.4l-.3,-.3l-.1,-.3l-.2,-.4l-.1,-.4L90,69.1l-.1,-.4l-.1,-.4L89.7,68v-.4l-.1,-.4v-.4Z" class="g2_1" />
<path fill-rule="evenodd" d="M93.4,57.8l12.1,13.6l.1,.1l.2,.2l.1,.2l.1,.1l.1,.2l.1,.2l.1,.2l.1,.2l.1,.2l.1,.1v.3l.1,.2l.1,.2v1.6l-.1,.2l-.1,.1v.1l-.1,.2l-.1,.2l-.1,.1l-.1,.1l-.1,.1l-.1,.1l-.1,.1l-.1,.1l-.2,.1l-.1,.1h-.2l-.2,.1l-.1,.1h-.3l-.2,.1h-.2l-.1,-.1h-.6l-.2,-.1h-.2l-.1,-.1h-.2l-.2,-.1l-.2,-.1l-.2,-.1l-.1,-.1l-.3,-.1l-.1,-.1l-.2,-.1l-.2,-.2l-.1,-.1l-.2,-.2l-.2,-.1l-.1,-.2L88.7,61.9l-.1,-.1l-.2,-.2l-.1,-.2l-.1,-.1L88,61.1v-.2l-.1,-.2l-.1,-.2l-.1,-.2l-.1,-.1v-.3l-.1,-.2l-.1,-.2V57.9l.1,-.2l.1,-.1v-.1l.1,-.2l.1,-.2l.1,-.1l.1,-.1v-.1l.2,-.1l.1,-.1l.1,-.1l.2,-.1l.1,-.1h.2l.1,-.1l.2,-.1h.3l.1,-.1h.3l.1,.1h.6l.2,.1H91l.1,.1h.2l.2,.1l.2,.1l.2,.1l.1,.1l.2,.1l.2,.1l.2,.1l.2,.2l.1,.1l.2,.2l.1,.1l.2,.2Z" class="g0_1" />
<path d="M93.4,57.8l12.1,13.6l.1,.1l.2,.2l.1,.2l.1,.1l.1,.2l.1,.2l.1,.2l.1,.2l.1,.2l.1,.1v.3l.1,.2l.1,.2v1.6l-.1,.2l-.1,.1v.1l-.1,.2l-.1,.2l-.1,.1l-.1,.1l-.1,.1l-.1,.1l-.1,.1l-.1,.1l-.2,.1l-.1,.1h-.2l-.2,.1l-.1,.1h-.3l-.2,.1h-.2l-.1,-.1h-.6l-.2,-.1h-.2l-.1,-.1h-.2l-.2,-.1l-.2,-.1l-.2,-.1l-.1,-.1l-.3,-.1l-.1,-.1l-.2,-.1l-.2,-.2l-.1,-.1l-.2,-.2l-.2,-.1l-.1,-.2L88.7,61.9l-.1,-.1l-.2,-.2l-.1,-.2l-.1,-.1L88,61.1v-.2l-.1,-.2l-.1,-.2l-.1,-.2l-.1,-.1v-.3l-.1,-.2l-.1,-.2V57.9l.1,-.2l.1,-.1v-.1l.1,-.2l.1,-.2l.1,-.1l.1,-.1v-.1l.2,-.1l.1,-.1l.1,-.1l.2,-.1l.1,-.1h.2l.1,-.1l.2,-.1h.3l.1,-.1h.3l.1,.1h.6l.2,.1H91l.1,.1h.2l.2,.1l.2,.1l.2,.1l.1,.1l.2,.1l.2,.1l.2,.1l.2,.2l.1,.1l.2,.2l.1,.1l.2,.2Z" class="g5_1" />
<path fill-rule="evenodd" d="M225.8,24H197.6V9.6h56.5V24H225.8Z" class="g6_1" />
<path fill-rule="evenodd" d="M272.2,29.2h-1.1V4.3h2.2V29.2h-1.1Z" class="g0_1" />
<path d="M272.2,29.2h-1.1V4.3h2.2V29.2h-1.1Z" class="g3_1" />
<path fill-rule="evenodd" d="M97.5,148.8l-.1,1.9l-.1,1.8l-.2,1.9l-.4,1.9l-.4,1.8l-.5,1.7l-.6,1.8l-.7,1.8l-.8,1.6l-.8,1.7l-1,1.6l-1,1.6l-1.1,1.5l-1.2,1.4l-1.3,1.4L86,175.6l-1.4,1.2L83.1,178l-1.4,1.1l-1.6,1.1l-1.6,.9l-1.7,.9l-1.7,.8l-1.7,.7l-1.8,.6l-1.8,.5L68,185l-1.9,.4l-1.8,.2l-1.9,.1l-1.9,.1l-1.8,-.1l-1.9,-.1L55,185.4l-1.9,-.3l-1.8,-.4l-1.8,-.6l-1.8,-.6l-1.8,-.7l-1.6,-.7l-1.7,-.9L41,180.3l-1.6,-1.1l-1.5,-1L36.4,177L35,175.7l-1.3,-1.3l-1.3,-1.3l-1.2,-1.5l-1.1,-1.5l-1,-1.5l-1,-1.6l-.9,-1.7l-.8,-1.7l-.7,-1.7l-.6,-1.8l-.5,-1.8l-.4,-1.8l-.4,-1.9l-.2,-1.8l-.2,-1.9l-.1,-1.8l37.1,-.3H97.5Z" class="g7_1" />
<text x="31" y="157" dx="0,0,0.2,0,0,0,0,0,0.1,0,0.1,0.1,0.1" class="s1_1">Cu(II)/Ligand</text>
<text x="39" y="168" dx="0,0.1,0.1,0.1,0.1,-0.1,-0.1" class="s1_1">Monomer</text>
<text x="43" y="179" dx="0,-0.1,0.2,0,0,0,-0.1,0.1,0.1" class="s1_1">Initiator</text>
<text x="198" y="20" dx="0,0,0.1,0.1,0,0,0,0.1,0,0.1,-0.1,0.2" class="s2_1">Cu(I)/Ligand</text>
<path d="M150.8,35.3L132.3,50.1" class="g8_1" />
<path fill-rule="evenodd" d="M125.5,55.6l5.2,-8.1l3.8,4.7l-9,3.4Z" class="g7_1" />
<text transform="matrix(0.99, 0, 0, 1, 188, 53)" dx="0,0.2" class="s3_1">Br</text>
<text transform="matrix(0.99, 0, 0, 1, 169, 74)" class="s4_1">O</text>
<text transform="matrix(0.99, 0, 0, 1, 188, 74)" class="s4_1">O</text>
<path d="M182.1,56.3l5.2,-2.9" class="g9_1" />
<path d="M182.1,56.3L172.8,51m9.3,5.3V66.9m0,0l-5.6,3.3m5,-2.5l6.1,3.5m-5.1,-5.1l5.1,3M172.8,76v6.9" class="g10_1" />
<text x="241" y="95" class="s5_1">O</text>
<text x="253" y="88" class="s5_1">O</text>
<path d="M235.1,79.8h8.1m-8.1,1.4h7.5m.6,-1.4l4.1,7m0,0L245,90.9m2.3,-3.4h5.4M247.3,86h5.4M245,96.7l2.3,4.1" class="g11_1" />
<text transform="matrix(0.99, 0, 0, 1, 267, 74)" class="s4_1">O</text>
<text transform="matrix(0.99, 0, 0, 1, 285, 74)" class="s4_1">O</text>
<text transform="matrix(0.99, 0, 0, 1, 319, 53)" class="s3_1">Br</text>
<text transform="matrix(0.99, 0, 0, 1, 294, 74)" class="s6_1">O</text>
<text transform="matrix(0.99, 0, 0, 1, 312, 74)" class="s6_1">O</text>
<path d="M279.4,56.5l-9.2,-5.4m9.2,5.4V67m0,0L274,70.2m4.9,-2.4l6,3.6m-5,-5.2l5,2.9m-14.7,7V83" class="g10_1" />
<path d="M279.4,56.5l18.1,-5.4m0,0l9.2,5.4m0,0V67m0,-10.5l11.4,-4M306.7,67l-5.5,3.3m5.1,-2.5l5.8,3.4m-4.9,-5l4.9,2.9m-14.6,7V83" class="g9_1" />
<path fill-rule="evenodd" d="M314.4,62.7h-2.5v-.1H314V45.2h-2.1v-.1h2.5V62.7Z" class="g12_1" />
<path d="M314.4,62.7h-2.5v-.1H314V45.2h-2.1v-.1h2.5V62.7Z" class="g13_1" />
<text x="315" y="66" class="s7_1">n</text>
<path fill-rule="evenodd" d="M288.4,45.1H291v.1h-2.2V62.6H291v.1h-2.6V45.1Z" class="g12_1" />
<path d="M288.4,45.1H291v.1h-2.2V62.6H291v.1h-2.6V45.1Z" class="g13_1" />
<text transform="matrix(0.44, 0, 0, 1, 229, 92)" class="s8_1">+</text>
<path d="M190.6,84l2.2,2.1L195,88l2.5,1.9l2.4,1.9l2.6,1.7l2.6,1.6l2.6,1.4l2.9,1.4l2.7,1.2l2.8,1.2l3,1.1l3,.8l3,.9l3.1,.6l3.2,.6l3.1,.4l3.3,.3l3.2,.1h1.1l3.3,-.1l3.3,-.3l3.2,-.3l3.2,-.5l3.1,-.7l3.1,-.7l3.2,-.9l2.8,-1l3,-1.2l2.9,-1.2l2.7,-1.4l2.9,-1.5l2.5,-1.6l2.6,-1.8l2.5,-1.7l2.4,-1.9l2.4,-2l2.2,-2.1l.5,-.5l.4,-.4" class="g14_1" />
<path fill-rule="evenodd" d="M290.2,85.6l4.1,-2.3l-2.5,3.9l-.1,-1.5l-1.5,-.1Z" class="g12_1" />
<path d="M290.2,85.6l4.1,-2.3l-2.5,3.9l-.1,-1.5l-1.5,-.1Z" class="g14_1" />
<path d="M189.6,137.9l2.3,-2.2l2.2,-2l2.4,-1.9L199,130l2.6,-1.6l2.5,-1.6l2.6,-1.5l2.9,-1.4l2.7,-1.3l2.9,-1.1l3,-1.1l3,-.8l3,-.8l3.1,-.7l3.1,-.6l3.2,-.4l3.2,-.2l3.3,-.1h1.1l3.2,.1l3.3,.1l3.3,.5l3.1,.5l3.1,.5l3.2,.8l3.1,1l2.9,.9l3,1.2l2.8,1.2L275,125l2.8,1.5l2.6,1.6l2.6,1.6l2.4,2l2.5,1.9l2.3,2l2.3,2l.4,.4l.4,.5" class="g15_1" />
<path fill-rule="evenodd" d="M290.9,134.6l2.4,3.9l-4.1,-2.3l1.5,-.1l.2,-1.5Z" class="g12_1" />
<path d="M290.9,134.6l2.4,3.9l-4.1,-2.3l1.5,-.1l.2,-1.5Z" class="g15_1" />
<text transform="matrix(0.99, 0, 0, 1, 230, 114)" dx="0,-0.5,0.1,0" class="s9_1">ATRP</text>
<text transform="matrix(0.99, 0, 0, 1, 274, 183)" class="s3_1">Br</text>
<text x="284" y="177" class="s10_1">-</text>
<text x="307" y="153" class="s5_1">N</text>
<text x="288" y="150" class="s5_1">N</text>
<text x="300" y="171" class="s5_1">N</text>
<text x="309" y="178" class="s5_1">N</text>
<text x="275" y="171" class="s11_1">Cu</text>
<text x="286" y="165" dx="0,0.1,0,0,0.1" class="s12_1">+(II)</text>
<text transform="matrix(0.99, 0, 0, 1, 258, 176)" dx="0,0.2" class="s3_1">Br</text>
<path d="M309.1,148.2L308,141.1m0,0H293.6m0,0l-2.1,4.8m20.1,8.1l4.5,6.6m0,0l-8.5,10.3m0,0l-3,-.6m7.5,-17.8l15.3,7.9m0,0l-5.1,14.3m0,0l-8.3,1.4m-2.8,3.2l-.7,4.7m3.5,-4.8l2.4,2.6M302,172.6l-.2,5.8m-2.3,-5.8l-4,4.2m-7.9,-26.2l-2.7,1.8m7.2,-.7l1.5,2.4" class="g11_1" />
<path d="M274.7,171.5l-5.6,1.5" class="g15_1" />
<path d="M289.4,151.7l-.3,1.1m-.2,.8l-.3,1.2m-.3,.8l-.3,1.3m-.3,.8l-.2,1.2m19.4,-6l-1.1,.7m-.8,.5l-1.2,1m-.8,.5l-1.2,.9m-.9,.5l-1.2,.9m-.8,.6l-1.2,.8m1.8,10.3h-1.2m-.8,0l-1.2,-.1m-.8,-.2h-1.2m-.9,-.1h-1.2m-.8,-.2h-1.2m-.8,-.1h-1.2" class="g16_1" />
<path fill-rule="evenodd" d="M300.9,174.3l.2,-1.8l1.9,.5l-.2,1.9l-1.9,-.6Z" class="g0_1" />
<path fill-rule="evenodd" d="M297.4,173.4l1.5,-1.6l2,.7l-1.4,1.4l-2.1,-.5Z" class="g0_1" />
<path d="M308.8,175.7l-1.1,-.3m-.8,-.3l-1.2,-.2m-.8,-.3l-1.2,-.4m-.9,-.1l-1.2,-.4m-.8,-.3l-1.2,-.3m-.8,-.3l-1.3,-.3m-.8,-.3l-1.2,-.3m-.8,-.3l-1.3,-.4m-.8,-.1l-1.2,-.4m-.8,-.3l-1.2,-.3" class="g16_1" />
<text x="200" y="153" class="s5_1">N</text>
<text x="181" y="151" class="s5_1">N</text>
<text x="193" y="172" class="s5_1">N</text>
<text x="202" y="179" class="s5_1">N</text>
<text x="168" y="172" class="s13_1">Cu</text>
<text x="180" y="166" dx="0,0.1,0,0.1" class="s14_1">+(I)</text>
<path d="M202.5,149l-1.1,-7m0,0H187m0,0l-2,4.7m20,8.1l4.5,6.7m0,0L201,171.8m0,0l-3,-.7m7.5,-17.9l15.3,8m0,0l-5.1,14.4m0,0l-8.3,1.3m-2.9,3.3l-.6,4.5m3.5,-4.8l2.5,2.7m-14.5,-9.2l-.2,5.8m-2.4,-5.8l-3.9,4.2M181,151.3l-2.7,1.9m7.2,-.7L187,155" class="g11_1" />
<path d="M182.8,152.5l-.3,1.1m-.1,.8l-.4,1.2m-.3,.9l-.3,1.2m-.2,.8l-.3,1.2m19.4,-6l-1,.7m-.9,.6l-1.2,.9m-.8,.6l-1.2,.7m-.8,.6l-1.3,1m-.8,.5l-1.2,.8m1.7,10.2h-1m-.9,0l-1.2,-.2m-.8,0l-1.2,-.1m-.8,0l-1.3,-.1m-.8,0l-1.2,-.2m-.8,0h-1.3" class="g16_1" />
<path fill-rule="evenodd" d="M194.4,175.1l.1,-1.8l1.9,.5l-.1,1.9l-1.9,-.6Z" class="g0_1" />
<path fill-rule="evenodd" d="M190.8,174.2l1.5,-1.6l2.1,.7l-1.6,1.4l-2,-.5Z" class="g0_1" />
<path d="M202.2,176.5l-1,-.3m-.9,-.2l-1.2,-.3m-.8,-.3l-1.2,-.4m-.8,-.1l-1.3,-.4m-.8,-.3l-1.2,-.3m-.8,-.2l-1.3,-.4m-.8,-.3l-1.2,-.3m-.8,-.2l-1.2,-.5m-.9,-.1l-1.2,-.4m-.8,-.3l-1.2,-.3" class="g16_1" />
<text transform="matrix(0.99, 0, 0, 1, 168, 184)" class="s3_1">Br</text>
<text x="177" y="178" class="s10_1">-</text>
<path d="M295.7,109l-.6,-1L294,106.5l-1.1,-1.4l-1.4,-1.4L290,102.6l-1.4,-1l-1.1,-.6l-1.1,-.5l-1.3,-.5l-1.2,-.5l-1.2,-.4l-1.2,-.2l-1.3,-.2l-1.3,-.1h-3.4l-2.1,.3l-1.9,.5l-1.7,.7l-1.8,.8l-1,.4" class="g15_1" />
<path fill-rule="evenodd" d="M292.2,105.9l3.5,3.1l-1.6,-4.3l-.3,1.4l-1.6,-.2Z" class="g12_1" />
<path d="M292.2,105.9l3.5,3.1l-1.6,-4.3l-.3,1.4l-1.6,-.2Z" class="g15_1" />
<text transform="matrix(0.49, 0, 0, 1, 284, 126)" dx="0,2.1,5,4.7,2.3,4.9" class="s15_1">losing</text>
<text transform="matrix(0.47, 0, 0, 1, 309, 127)" class="s16_1">B</text>
<text transform="matrix(0.47, 0, 0, 1, 316, 127)" class="s16_1">r</text>
<text transform="matrix(0.49, 0, 0, 1, 221, 125)" dx="0,4.9,4.5,2.1" class="s15_1">gain</text>
<text transform="matrix(0.49, 0, 0, 1, 237, 125)" dx="0,2.1,5" class="s15_1">ing</text>
<text transform="matrix(0.47, 0, 0, 1, 249, 126)" class="s16_1">B</text>
<text transform="matrix(0.47, 0, 0, 1, 256, 126)" class="s16_1">r</text>
<text transform="matrix(0.49, 0, 0, 1, 284, 116)" class="s17_1">D</text>
<text transform="matrix(0.49, 0, 0, 1, 289, 116)" dx="0,4.8,4.4" class="s17_1">ead</text>
<text transform="matrix(0.49, 0, 0, 1, 305, 116)" dx="0,4.4" class="s17_1">ch</text>
<text transform="matrix(0.49, 0, 0, 1, 314, 116)" dx="0,4.4,2.3,4.9" class="s17_1">ains</text>
<text transform="matrix(0.47, 0, 0, 1, 172, 41)" class="s9_1">M</text>
<text transform="matrix(0.47, 0, 0, 1, 179, 41)" class="s9_1">B</text>
<text transform="matrix(0.47, 0, 0, 1, 186, 41)" dx="0,3.8" class="s9_1">rP</text>
<text transform="matrix(0.47, 0, 0, 1, 281, 41)" class="s9_1">P</text>
<text transform="matrix(0.47, 0, 0, 1, 288, 41)" class="s9_1">M</text>
<text transform="matrix(0.47, 0, 0, 1, 295, 41)" class="s9_1">A</text>
<text transform="matrix(0.47, 0, 0, 1, 301, 41)" dx="0,3.4" class="s9_1">-B</text>
<text transform="matrix(0.47, 0, 0, 1, 311, 41)" class="s9_1">r</text>

</g>

<!-- Any embedded fonts defined here -->
<style type="text/css" ><![CDATA[

@font-face {
	font-family: LiberationSans-Bold_9;
	src: url("fonts/LiberationSans-Bold_9.woff") format("woff");
}

@font-face {
	font-family: LiberationSans-Italic_e;
	src: url("fonts/LiberationSans-Italic_e.woff") format("woff");
}

@font-face {
	font-family: LiberationSans_j;
	src: url("fonts/LiberationSans_j.woff") format("woff");
}

]]></style>

</svg>
