<?xml version="1.0" encoding="UTF-8" standalone="no"?>
<svg
   xmlns:dc="http://purl.org/dc/elements/1.1/"
   xmlns:cc="http://creativecommons.org/ns#"
   xmlns:rdf="http://www.w3.org/1999/02/22-rdf-syntax-ns#"
   xmlns:svg="http://www.w3.org/2000/svg"
   xmlns="http://www.w3.org/2000/svg"
   viewBox="0 0 311.84 168.16"
   height="168.16"
   width="311.84"
   xml:space="preserve"
   id="svg2"
   version="1.1"><metadata
     id="metadata8"><rdf:RDF><cc:Work
         rdf:about=""><dc:format>image/svg+xml</dc:format><dc:type
           rdf:resource="http://purl.org/dc/dcmitype/StillImage" /></cc:Work></rdf:RDF></metadata><defs
     id="defs6"><clipPath
       id="clipPath18"
       clipPathUnits="userSpaceOnUse"><path
         style="clip-rule:evenodd"
         id="path16"
         d="M 0,3.8147e-5 H 233.88 V 126.12004 H 0 Z" /></clipPath><clipPath
       id="clipPath34"
       clipPathUnits="userSpaceOnUse"><path
         style="clip-rule:evenodd"
         id="path32"
         d="M -7.629e-6,126.12 H 233.88 V 4.5776e-5 L -1.1444e-5,2.2888e-5" /></clipPath><clipPath
       id="clipPath68"
       clipPathUnits="userSpaceOnUse"><path
         style="clip-rule:evenodd"
         id="path66"
         d="M 0,126.12 H 233.88 V 5.3406e-5 L 3.815e-6,3.0518e-5" /></clipPath><clipPath
       id="clipPath78"
       clipPathUnits="userSpaceOnUse"><path
         style="clip-rule:evenodd"
         id="path76"
         d="M 0,126.12 H 233.88 V 5.3406e-5 L 3.815e-6,3.0518e-5" /></clipPath><clipPath
       id="clipPath96"
       clipPathUnits="userSpaceOnUse"><path
         style="clip-rule:evenodd"
         id="path94"
         d="M 3.485e-6,0 H 233.88 V 126.12 H 3.485e-6 Z" /></clipPath><clipPath
       id="clipPath108"
       clipPathUnits="userSpaceOnUse"><path
         style="clip-rule:evenodd"
         id="path106"
         d="M 3.485e-6,0 H 233.88 V 126.12 H 3.485e-6 Z" /></clipPath><clipPath
       id="clipPath120"
       clipPathUnits="userSpaceOnUse"><path
         style="clip-rule:evenodd"
         id="path118"
         d="M 3.485e-6,0 H 233.88 V 126.12 H 3.485e-6 Z" /></clipPath><clipPath
       id="clipPath132"
       clipPathUnits="userSpaceOnUse"><path
         style="clip-rule:evenodd"
         id="path130"
         d="M 3.485e-6,0 H 233.88 V 126.12 H 3.485e-6 Z" /></clipPath><clipPath
       id="clipPath146"
       clipPathUnits="userSpaceOnUse"><path
         style="clip-rule:evenodd"
         id="path144"
         d="M -7.629e-6,3.0518e-5 H 233.87999 V 126.12003 H -7.629e-6 Z" /></clipPath><clipPath
       id="clipPath156"
       clipPathUnits="userSpaceOnUse"><path
         id="path154"
         d="M 0,0 H 283.46 V 85.069 H 0 Z" /></clipPath><clipPath
       id="clipPath502"
       clipPathUnits="userSpaceOnUse"><path
         style="clip-rule:evenodd"
         id="path500"
         d="M 3.485e-6,0 H 233.88 V 126.12 H 3.485e-6 Z" /></clipPath><clipPath
       id="clipPath514"
       clipPathUnits="userSpaceOnUse"><path
         style="clip-rule:evenodd"
         id="path512"
         d="M 3.485e-6,0 H 233.88 V 126.12 H 3.485e-6 Z" /></clipPath><clipPath
       id="clipPath526"
       clipPathUnits="userSpaceOnUse"><path
         style="clip-rule:evenodd"
         id="path524"
         d="M 3.485e-6,0 H 233.88 V 126.12 H 3.485e-6 Z" /></clipPath><clipPath
       id="clipPath538"
       clipPathUnits="userSpaceOnUse"><path
         style="clip-rule:evenodd"
         id="path536"
         d="M 3.485e-6,0 H 233.88 V 126.12 H 3.485e-6 Z" /></clipPath><clipPath
       id="clipPath550"
       clipPathUnits="userSpaceOnUse"><path
         style="clip-rule:evenodd"
         id="path548"
         d="M 3.485e-6,0 H 233.88 V 126.12 H 3.485e-6 Z" /></clipPath><clipPath
       id="clipPath562"
       clipPathUnits="userSpaceOnUse"><path
         style="clip-rule:evenodd"
         id="path560"
         d="M 3.485e-6,0 H 233.88 V 126.12 H 3.485e-6 Z" /></clipPath><clipPath
       id="clipPath574"
       clipPathUnits="userSpaceOnUse"><path
         style="clip-rule:evenodd"
         id="path572"
         d="M 3.485e-6,0 H 233.88 V 126.12 H 3.485e-6 Z" /></clipPath><clipPath
       id="clipPath586"
       clipPathUnits="userSpaceOnUse"><path
         style="clip-rule:evenodd"
         id="path584"
         d="M 3.485e-6,0 H 233.88 V 126.12 H 3.485e-6 Z" /></clipPath><clipPath
       id="clipPath600"
       clipPathUnits="userSpaceOnUse"><path
         style="clip-rule:evenodd"
         id="path598"
         d="M 3.485e-6,0 H 233.88 V 126.12 H 3.485e-6 Z" /></clipPath><clipPath
       id="clipPath612"
       clipPathUnits="userSpaceOnUse"><path
         style="clip-rule:evenodd"
         id="path610"
         d="M 3.485e-6,0 H 233.88 V 126.12 H 3.485e-6 Z" /></clipPath><clipPath
       id="clipPath624"
       clipPathUnits="userSpaceOnUse"><path
         style="clip-rule:evenodd"
         id="path622"
         d="M 3.485e-6,0 H 233.88 V 126.12 H 3.485e-6 Z" /></clipPath><clipPath
       id="clipPath636"
       clipPathUnits="userSpaceOnUse"><path
         style="clip-rule:evenodd"
         id="path634"
         d="M 3.485e-6,0 H 233.88 V 126.12 H 3.485e-6 Z" /></clipPath></defs><g
     transform="matrix(1.3333333,0,0,-1.3333333,0,168.16)"
     id="g10"><g
       id="g12"><g
         clip-path="url(#clipPath18)"
         id="g14"><path
           id="path20"
           style="fill:#5b9bd5;fill-opacity:1;fill-rule:evenodd;stroke:none"
           d="M 0,1.5259e-5 H 233.88 V 126.12002 H 0 Z" /></g></g><path
       id="path22"
       style="fill:#ffffff;fill-opacity:1;fill-rule:evenodd;stroke:none"
       d="m 26.52,81.665 c 0,4.802 3.893,8.695 8.695,8.695 h 4.33 c 4.802,0 8.695,-3.893 8.695,-8.695 v -32.41 c 0,-4.802 -3.893,-8.695 -8.695,-8.695 h -4.33 c -4.802,0 -8.695,3.893 -8.695,8.695 z" /><path
       id="path24"
       style="fill:#ffffff;fill-opacity:1;fill-rule:evenodd;stroke:none"
       d="m 11.88,28.74 c 0,14.083 11.444,25.5 25.56,25.5 C 51.556,54.24 63,42.823 63,28.74 63,14.657 51.556,3.24 37.44,3.24 23.324,3.24 11.88,14.657 11.88,28.74 Z" /><path
       id="path26"
       style="fill:#ffffff;fill-opacity:1;fill-rule:evenodd;stroke:none"
       d="M 30.6,105 32.182,91.44 H 42.578 L 44.16,105 Z" /><g
       id="g28"><g
         clip-path="url(#clipPath34)"
         id="g30"><path
           id="path36"
           style="fill:#ffffff;fill-opacity:1;fill-rule:evenodd;stroke:none"
           d="m 43.805,71.146 c -0.309,0.409 -0.228,0.992 0.182,1.302 L 68.7,91.111 c 0.409,0.309 0.992,0.228 1.302,-0.182 l 2.241,-2.967 c 0.309,-0.41 0.228,-0.993 -0.182,-1.303 L 47.349,67.996 c -0.41,-0.309 -0.993,-0.228 -1.302,0.182 z" /></g></g><path
       id="path38"
       style="fill:#ffffff;fill-opacity:1;fill-rule:evenodd;stroke:none"
       d="m 29.88,111.18 c 0,4.14 3.358,7.5 7.5,7.5 4.142,0 7.5,-3.36 7.5,-7.5 0,-4.14 -3.358,-7.5 -7.5,-7.5 -4.142,0 -7.5,3.36 -7.5,7.5 z" /><path
       id="path40"
       style="fill:#ffffff;fill-opacity:1;fill-rule:evenodd;stroke:none"
       d="m 29.88,103.08 1.75,-15 h 11.62 l 1.75,15 z" /><path
       id="path42"
       style="fill:none;stroke:#f2f2f2;stroke-width:0.95999998;stroke-linecap:butt;stroke-linejoin:miter;stroke-miterlimit:10;stroke-dasharray:none;stroke-opacity:1"
       d="m 28.56,29.76 c 0.468,8.664 0.937,17.329 4.684,24.729 3.746,7.399 8.149,11.427 17.797,19.67 9.648,8.243 31.286,23.417 40.091,29.791 8.805,6.37 8.928,6.65 12.738,8.43 3.81,1.78 7.87,1.87 10.12,2.24 2.25,0.38 2.81,0.19 3.37,0" /><path
       id="path44"
       style="fill:#ffffff;fill-opacity:1;fill-rule:evenodd;stroke:none"
       d="m 125.28,108.84 h 50.04 v 12.6 h -50.04 z" /><path
       id="path46"
       style="fill:#ffffff;fill-opacity:1;fill-rule:evenodd;stroke:none"
       d="m 164.4,110.4 h 50.04 v 9.36 H 164.4 Z" /><path
       id="path48"
       style="fill:none;stroke:#f2f2f2;stroke-width:0.23999999;stroke-linecap:butt;stroke-linejoin:miter;stroke-miterlimit:10;stroke-dasharray:none;stroke-opacity:1"
       d="m 164.4,110.4 h 50.04 v 9.36 H 164.4 Z" /><path
       id="path50"
       style="fill:#ffffff;fill-opacity:1;fill-rule:evenodd;stroke:none"
       d="m 215.02,123.6 h 2.44 c 0.32,0 0.58,-3.81 0.58,-8.52 0,-4.71 -0.26,-8.52 -0.58,-8.52 h -2.44 c -0.32,0 -0.58,3.81 -0.58,8.52 0,4.71 0.26,8.52 0.58,8.52 z" /><path
       id="path52"
       style="fill:#ffffff;fill-opacity:1;fill-rule:evenodd;stroke:none"
       d="m 119.16,113.16 h 6.12 v 3.6 h -6.12 z" /><path
       id="path54"
       style="fill:#ffffff;fill-opacity:1;fill-rule:evenodd;stroke:none"
       d="m 115.56,113.28 h 4.68 v 3.6 h -4.68 z" /><path
       id="path56"
       style="fill:none;stroke:#ffffff;stroke-width:0.95999998;stroke-linecap:butt;stroke-linejoin:miter;stroke-miterlimit:10;stroke-dasharray:none;stroke-opacity:1"
       d="m 115.56,113.28 h 4.68 v 3.6 h -4.68 z" /><path
       id="path58"
       style="fill:#ffffff;fill-opacity:1;fill-rule:evenodd;stroke:none"
       d="m 56.64,82.38 c 0,2.684 2.176,4.86 4.86,4.86 2.684,0 4.86,-2.176 4.86,-4.86 0,-2.684 -2.176,-4.86 -4.86,-4.86 -2.684,0 -4.86,2.176 -4.86,4.86 z" /><path
       id="path60"
       style="fill:none;stroke:#f2f2f2;stroke-width:0.95999998;stroke-linecap:butt;stroke-linejoin:miter;stroke-miterlimit:10;stroke-dasharray:none;stroke-opacity:1"
       d="m 56.64,82.38 c 0,2.684 2.176,4.86 4.86,4.86 2.684,0 4.86,-2.176 4.86,-4.86 0,-2.684 -2.176,-4.86 -4.86,-4.86 -2.684,0 -4.86,2.176 -4.86,4.86 z" /><g
       id="g62"><g
         clip-path="url(#clipPath68)"
         id="g64"><path
           id="path70"
           style="fill:#ffffff;fill-opacity:1;fill-rule:evenodd;stroke:none"
           d="m 59.051,88.259 7.931,-8.882 c 1.039,-1.164 1.2,-2.715 0.36,-3.466 -0.84,-0.75 -2.364,-0.415 -3.403,0.749 l -7.931,8.883 c -1.039,1.163 -1.2,2.715 -0.36,3.465 0.841,0.75 2.364,0.415 3.403,-0.749 z" /></g></g><g
       id="g72"><g
         clip-path="url(#clipPath78)"
         id="g74"><path
           id="path80"
           style="fill:none;stroke:#d9d9d9;stroke-width:1;stroke-linecap:butt;stroke-linejoin:miter;stroke-miterlimit:10;stroke-dasharray:none;stroke-opacity:1"
           d="m 59.051,88.259 7.931,-8.882 c 1.039,-1.164 1.2,-2.715 0.36,-3.466 -0.84,-0.75 -2.364,-0.415 -3.403,0.749 l -7.931,8.883 c -1.039,1.163 -1.2,2.715 -0.36,3.465 0.841,0.75 2.364,0.415 3.403,-0.749 z" /></g></g><path
       id="path82"
       style="fill:#f2f2f2;fill-opacity:1;fill-rule:evenodd;stroke:none"
       d="m 127.32,110.4 h 36.96 v 9.36 h -36.96 z" /><path
       id="path84"
       style="fill:#ffffff;fill-opacity:1;fill-rule:evenodd;stroke:none"
       d="m 175.44,106.92 h 1.44 v 16.44 h -1.44 z" /><path
       id="path86"
       style="fill:none;stroke:#f2f2f2;stroke-width:0.23999999;stroke-linecap:butt;stroke-linejoin:miter;stroke-miterlimit:10;stroke-dasharray:none;stroke-opacity:1"
       d="m 175.44,106.92 h 1.44 v 16.44 h -1.44 z" /><path
       id="path88"
       style="fill:#5b9bd5;fill-opacity:1;fill-rule:evenodd;stroke:none"
       d="M 61.8,28.68 C 61.8,15.293 50.921,4.44 37.5,4.44 24.147,4.44 13.295,15.188 13.201,28.508 L 37.5,28.68 Z" /><g
       id="g90"><g
         clip-path="url(#clipPath96)"
         id="g92"><text
           id="text100"
           style="font-variant:normal;font-weight:bold;font-size:6px;font-family:Arial;-inkscape-font-specification:Arial-BoldMT;writing-mode:lr-tb;fill:#ffffff;fill-opacity:1;fill-rule:nonzero;stroke:none"
           transform="matrix(1,0,0,-1,19.056,22.68)"><tspan
             id="tspan98"
             y="0"
             x="0 4.3319998 7.9679999 10.026 11.61 13.194 15.252 16.950001 20.688 22.386 26.124001 29.502001 33.125999">Cu(II)/Ligand</tspan></text>
</g></g><g
       id="g102"><g
         clip-path="url(#clipPath108)"
         id="g104"><text
           id="text112"
           style="font-variant:normal;font-weight:bold;font-size:6px;font-family:Arial;-inkscape-font-specification:Arial-BoldMT;writing-mode:lr-tb;fill:#ffffff;fill-opacity:1;fill-rule:nonzero;stroke:none"
           transform="matrix(1,0,0,-1,24,15.48)"><tspan
             id="tspan110"
             y="0"
             x="0 4.9200001 8.6339998 12.234 15.948 21.228001 24.582001">Monomer</tspan></text>
</g></g><g
       id="g114"><g
         clip-path="url(#clipPath120)"
         id="g116"><text
           id="text124"
           style="font-variant:normal;font-weight:bold;font-size:6px;font-family:Arial;-inkscape-font-specification:Arial-BoldMT;writing-mode:lr-tb;fill:#ffffff;fill-opacity:1;fill-rule:nonzero;stroke:none"
           transform="matrix(1,0,0,-1,26.4,8.28)"><tspan
             id="tspan122"
             y="0"
             x="0 1.5599999 5.1599998 6.8280001 8.8739996 10.542 13.908 15.942 19.656">Initiator</tspan></text>
</g></g><g
       id="g126"><g
         clip-path="url(#clipPath132)"
         id="g128"><text
           id="text136"
           style="font-variant:normal;font-weight:bold;font-size:6px;font-family:Arial;-inkscape-font-specification:Arial-BoldMT;writing-mode:lr-tb;fill:#a6a6a6;fill-opacity:1;fill-rule:nonzero;stroke:none"
           transform="matrix(1,0,0,-1,128.14,112.92)"><tspan
             id="tspan134"
             y="0"
             x="0 4.3319998 7.9200001 9.9540005 11.514 13.548 15.216 18.941999 20.610001 24.336 27.690001 31.290001">Cu(I)/Ligand</tspan></text>
</g></g><path
       id="path138"
       style="fill:#2f5597;fill-opacity:1;fill-rule:nonzero;stroke:none"
       d="M 96.443,103.47 83.751,93.31 84.376,92.529 97.068,102.69 Z m -12.849,-8.364 -3.434,-5.311 5.934,2.188 z" /><g
       id="g140"><g
         clip-path="url(#clipPath146)"
         id="g142"><g
           transform="matrix(2.2117,0,-9.4e-8,0.66333,72.84,2.4)"
           id="g148"><g
             transform="scale(0.254,0.84637)"
             id="g150"><g
               clip-path="url(#clipPath156)"
               id="g152"><g
                 id="g158"><text
                   id="text162"
                   style="font-variant:normal;font-weight:normal;font-size:8.96049976px;font-family:Arial;-inkscape-font-specification:ArialMT;writing-mode:lr-tb;fill:#ffffff;fill-opacity:1;fill-rule:nonzero;stroke:none"
                   transform="matrix(1,0,0,-1,111.26,76.96)"><tspan
                     id="tspan160"
                     y="0"
                     x="0">O</tspan></text>
<text
                   id="text166"
                   style="font-variant:normal;font-weight:normal;font-size:8.96049976px;font-family:Arial;-inkscape-font-specification:ArialMT;writing-mode:lr-tb;fill:#ffffff;fill-opacity:1;fill-rule:nonzero;stroke:none"
                   transform="matrix(1,0,0,-1,100.47,57.787)"><tspan
                     id="tspan164"
                     y="0"
                     x="0">O</tspan></text>
<text
                   id="text170"
                   style="font-variant:normal;font-weight:normal;font-size:8.96049976px;font-family:Arial;-inkscape-font-specification:ArialMT;writing-mode:lr-tb;fill:#ffffff;fill-opacity:1;fill-rule:nonzero;stroke:none"
                   transform="matrix(1,0,0,-1,168.17,63.332)"><tspan
                     id="tspan168"
                     y="0"
                     x="0">X</tspan></text>
<text
                   id="text174"
                   style="font-variant:normal;font-weight:normal;font-size:8.96049976px;font-family:Arial;-inkscape-font-specification:ArialMT;writing-mode:lr-tb;fill:#ffffff;fill-opacity:1;fill-rule:nonzero;stroke:none"
                   transform="matrix(1,0,0,-1,141.73,38.81)"><tspan
                     id="tspan172"
                     y="0"
                     x="0">O</tspan></text>
<text
                   id="text178"
                   style="font-variant:normal;font-weight:normal;font-size:8.96049976px;font-family:Arial;-inkscape-font-specification:ArialMT;writing-mode:lr-tb;fill:#ffffff;fill-opacity:1;fill-rule:nonzero;stroke:none"
                   transform="matrix(1,0,0,-1,163.73,38.81)"><tspan
                     id="tspan176"
                     y="0"
                     x="0">O</tspan></text>
<g
                   id="g180"><path
                     id="path182"
                     style="fill:none;stroke:#ffffff;stroke-width:0.63480002;stroke-linecap:butt;stroke-linejoin:round;stroke-miterlimit:10;stroke-dasharray:none;stroke-opacity:1"
                     d="M 136.87,28.991 V 41.79" /></g><g
                   id="g184"><path
                     id="path186"
                     style="fill:none;stroke:#ffffff;stroke-width:0.63480002;stroke-linecap:butt;stroke-linejoin:round;stroke-miterlimit:10;stroke-dasharray:none;stroke-opacity:1"
                     d="M 125.86,48.189 136.87,41.79" /></g><g
                   id="g188"><path
                     id="path190"
                     style="fill:none;stroke:#ffffff;stroke-width:0.63480002;stroke-linecap:butt;stroke-linejoin:round;stroke-miterlimit:10;stroke-dasharray:none;stroke-opacity:1"
                     d="m 125.45,45.624 9.3,-5.324" /></g><g
                   id="g192"><path
                     id="path194"
                     style="fill:none;stroke:#ffffff;stroke-width:0.63480002;stroke-linecap:butt;stroke-linejoin:round;stroke-miterlimit:10;stroke-dasharray:none;stroke-opacity:1"
                     d="m 125.86,22.592 11.01,6.399" /></g><g
                   id="g196"><path
                     id="path198"
                     style="fill:none;stroke:#ffffff;stroke-width:0.63480002;stroke-linecap:butt;stroke-linejoin:round;stroke-miterlimit:10;stroke-dasharray:none;stroke-opacity:1"
                     d="m 125.45,25.157 9.3,5.324" /></g><g
                   id="g200"><path
                     id="path202"
                     style="fill:none;stroke:#ffffff;stroke-width:0.63480002;stroke-linecap:butt;stroke-linejoin:round;stroke-miterlimit:10;stroke-dasharray:none;stroke-opacity:1"
                     d="m 114.88,41.79 10.98,6.399" /></g><g
                   id="g204"><path
                     id="path206"
                     style="fill:none;stroke:#ffffff;stroke-width:0.63480002;stroke-linecap:butt;stroke-linejoin:round;stroke-miterlimit:10;stroke-dasharray:none;stroke-opacity:1"
                     d="m 114.88,28.991 10.98,-6.399" /></g><g
                   id="g208"><path
                     id="path210"
                     style="fill:none;stroke:#ffffff;stroke-width:0.63480002;stroke-linecap:butt;stroke-linejoin:round;stroke-miterlimit:10;stroke-dasharray:none;stroke-opacity:1"
                     d="M 114.88,28.991 V 41.79" /></g><g
                   id="g212"><path
                     id="path214"
                     style="fill:none;stroke:#ffffff;stroke-width:0.63480002;stroke-linecap:butt;stroke-linejoin:round;stroke-miterlimit:10;stroke-dasharray:none;stroke-opacity:1"
                     d="M 117.19,30.066 V 40.715" /></g><g
                   id="g216"><path
                     id="path218"
                     style="fill:none;stroke:#ffffff;stroke-width:0.63480002;stroke-linecap:butt;stroke-linejoin:round;stroke-miterlimit:10;stroke-dasharray:none;stroke-opacity:1"
                     d="m 125.86,48.189 3.59,14.068" /></g><g
                   id="g220"><path
                     id="path222"
                     style="fill:none;stroke:#ffffff;stroke-width:0.63480002;stroke-linecap:butt;stroke-linejoin:round;stroke-miterlimit:10;stroke-dasharray:none;stroke-opacity:1"
                     d="m 129.45,62.257 -14.57,5.104" /></g><g
                   id="g224"><path
                     id="path226"
                     style="fill:none;stroke:#ffffff;stroke-width:0.63480002;stroke-linecap:butt;stroke-linejoin:round;stroke-miterlimit:10;stroke-dasharray:none;stroke-opacity:1"
                     d="M 115.93,67.361 V 75.47" /></g><g
                   id="g228"><path
                     id="path230"
                     style="fill:none;stroke:#ffffff;stroke-width:0.63480002;stroke-linecap:butt;stroke-linejoin:round;stroke-miterlimit:10;stroke-dasharray:none;stroke-opacity:1"
                     d="M 113.61,67.361 V 75.47" /></g><g
                   id="g232"><path
                     id="path234"
                     style="fill:none;stroke:#ffffff;stroke-width:0.63480002;stroke-linecap:butt;stroke-linejoin:round;stroke-miterlimit:10;stroke-dasharray:none;stroke-opacity:1"
                     d="m 114.88,67.361 -6.57,-3.834" /></g><g
                   id="g236"><path
                     id="path238"
                     style="fill:none;stroke:#ffffff;stroke-width:0.63480002;stroke-linecap:butt;stroke-linejoin:round;stroke-miterlimit:10;stroke-dasharray:none;stroke-opacity:1"
                     d="m 99.64,63.527 -6.763,3.834" /></g><g
                   id="g240"><path
                     id="path242"
                     style="fill:none;stroke:#ffffff;stroke-width:0.63480002;stroke-linecap:butt;stroke-linejoin:round;stroke-miterlimit:10;stroke-dasharray:none;stroke-opacity:1"
                     d="M 92.877,67.361 81.865,60.987" /></g><g
                   id="g244"><path
                     id="path246"
                     style="fill:none;stroke:#ffffff;stroke-width:0.63480002;stroke-linecap:butt;stroke-linejoin:round;stroke-miterlimit:10;stroke-dasharray:none;stroke-opacity:1"
                     d="m 129.45,62.257 12.06,3.834" /></g><g
                   id="g248"><path
                     id="path250"
                     style="fill:none;stroke:#ffffff;stroke-width:0.63480002;stroke-linecap:butt;stroke-linejoin:round;stroke-miterlimit:10;stroke-dasharray:none;stroke-opacity:1"
                     d="m 141.51,66.091 17.56,-4.054" /></g><g
                   id="g252"><path
                     id="path254"
                     style="fill:none;stroke:#ffffff;stroke-width:0.63480002;stroke-linecap:butt;stroke-linejoin:round;stroke-miterlimit:10;stroke-dasharray:none;stroke-opacity:1"
                     d="M 159.07,62.037 156.33,48.189" /></g><g
                   id="g256"><path
                     id="path258"
                     style="fill:none;stroke:#ffffff;stroke-width:0.63480002;stroke-linecap:butt;stroke-linejoin:round;stroke-miterlimit:10;stroke-dasharray:none;stroke-opacity:1"
                     d="m 159.07,62.037 8.25,2.98" /></g><g
                   id="g260"><path
                     id="path262"
                     style="fill:none;stroke:#ffffff;stroke-width:0.63480002;stroke-linecap:butt;stroke-linejoin:round;stroke-miterlimit:10;stroke-dasharray:none;stroke-opacity:1"
                     d="m 156.33,48.189 -6.78,-3.835" /></g><g
                   id="g264"><path
                     id="path266"
                     style="fill:none;stroke:#ffffff;stroke-width:0.63480002;stroke-linecap:butt;stroke-linejoin:round;stroke-miterlimit:10;stroke-dasharray:none;stroke-opacity:1"
                     d="m 155.7,47.334 7.18,-4.274" /></g><g
                   id="g268"><path
                     id="path270"
                     style="fill:none;stroke:#ffffff;stroke-width:0.63480002;stroke-linecap:butt;stroke-linejoin:round;stroke-miterlimit:10;stroke-dasharray:none;stroke-opacity:1"
                     d="m 156.97,49.263 5.91,-3.419" /></g><g
                   id="g272"><path
                     id="path274"
                     style="fill:none;stroke:#ffffff;stroke-width:0.63480002;stroke-linecap:butt;stroke-linejoin:round;stroke-miterlimit:10;stroke-dasharray:none;stroke-opacity:1"
                     d="M 145.32,37.32 V 28.991" /></g><g
                   id="g276"><path
                     id="path278"
                     style="fill:none;stroke:#ffffff;stroke-width:0.63480002;stroke-linecap:butt;stroke-linejoin:round;stroke-miterlimit:10;stroke-dasharray:none;stroke-opacity:1"
                     d="m 159.07,62.037 -1.69,11.724" /></g><path
                   id="path280"
                   style="fill:#ffffff;fill-opacity:1;fill-rule:evenodd;stroke:none"
                   d="m 165,57.567 h -4.86 v 0.22 h 4.23 v 12.359 h -4.23 v 0.22 H 165 Z" /><path
                   id="path282"
                   style="fill:none;stroke:#ffffff;stroke-width:0.19532;stroke-linecap:butt;stroke-linejoin:round;stroke-miterlimit:10;stroke-dasharray:none;stroke-opacity:1"
                   d="m 165.33,57.238 h -4.86 v 0.22 h 4.23 v 12.358 h -4.23 v 0.22 h 4.86 V 57.238" /><text
                   id="text286"
                   style="font-style:italic;font-variant:normal;font-weight:normal;font-size:8.96049976px;font-family:Arial;-inkscape-font-specification:Arial-ItalicMT;writing-mode:lr-tb;fill:#ffffff;fill-opacity:1;fill-rule:nonzero;stroke:none"
                   transform="matrix(1,0,0,-1,166.27,52.243)"><tspan
                     id="tspan284"
                     y="0"
                     x="0">n</tspan></text>
<path
                   id="path288"
                   style="fill:#ffffff;fill-opacity:1;fill-rule:evenodd;stroke:none"
                   d="m 135.6,71.001 h 4.86 v -0.22 h -4.22 V 58.422 h 4.22 v -0.22 h -4.86 z" /><path
                   id="path290"
                   style="fill:none;stroke:#ffffff;stroke-width:0.19532;stroke-linecap:butt;stroke-linejoin:round;stroke-miterlimit:10;stroke-dasharray:none;stroke-opacity:1"
                   d="m 135.93,70.671 h 4.86 v -0.22 h -4.22 V 58.093 h 4.22 v -0.22 h -4.86 v 12.798" /><path
                   id="path292"
                   style="fill:#ffffff;fill-opacity:1;fill-rule:evenodd;stroke:none"
                   d="m 54.154,57.567 h -4.859 v 0.22 h 4.224 v 12.359 h -4.224 v 0.22 h 4.859 z" /><path
                   id="path294"
                   style="fill:none;stroke:#ffffff;stroke-width:0.19532;stroke-linecap:butt;stroke-linejoin:round;stroke-miterlimit:10;stroke-dasharray:none;stroke-opacity:1"
                   d="m 54.483,57.238 h -4.858 v 0.22 h 4.224 v 12.358 h -4.224 v 0.22 h 4.858 V 57.238" /><text
                   id="text298"
                   style="font-style:italic;font-variant:normal;font-weight:normal;font-size:8.96049976px;font-family:Arial;-inkscape-font-specification:Arial-ItalicMT;writing-mode:lr-tb;fill:#ffffff;fill-opacity:1;fill-rule:nonzero;stroke:none"
                   transform="matrix(1,0,0,-1,55.423,52.243)"><tspan
                     id="tspan296"
                     y="0"
                     x="0">n</tspan></text>
<path
                   id="path300"
                   style="fill:#ffffff;fill-opacity:1;fill-rule:evenodd;stroke:none"
                   d="m 24.757,69.926 h 4.859 v -0.22 H 25.392 V 57.348 h 4.224 v -0.22 h -4.859 z" /><path
                   id="path302"
                   style="fill:none;stroke:#ffffff;stroke-width:0.19532;stroke-linecap:butt;stroke-linejoin:round;stroke-miterlimit:10;stroke-dasharray:none;stroke-opacity:1"
                   d="m 25.087,69.596 h 4.859 v -0.22 H 25.722 V 57.018 h 4.224 v -0.22 h -4.859 v 12.798" /><text
                   id="text306"
                   style="font-variant:normal;font-weight:normal;font-size:8.96049976px;font-family:Arial;-inkscape-font-specification:ArialMT;writing-mode:lr-tb;fill:#ffffff;fill-opacity:1;fill-rule:nonzero;stroke:none"
                   transform="matrix(1,0,0,-1,209.85,72.075)"><tspan
                     id="tspan304"
                     y="0"
                     x="0">O</tspan></text>
<text
                   id="text310"
                   style="font-variant:normal;font-weight:normal;font-size:8.96049976px;font-family:Arial;-inkscape-font-specification:ArialMT;writing-mode:lr-tb;fill:#ffffff;fill-opacity:1;fill-rule:nonzero;stroke:none"
                   transform="matrix(1,0,0,-1,199.06,52.878)"><tspan
                     id="tspan308"
                     y="0"
                     x="0">O</tspan></text>
<text
                   id="text314"
                   style="font-variant:normal;font-weight:normal;font-size:8.96049976px;font-family:Arial;-inkscape-font-specification:ArialMT;writing-mode:lr-tb;fill:#ffffff;fill-opacity:1;fill-rule:nonzero;stroke:none"
                   transform="matrix(1,0,0,-1,266.74,58.422)"><tspan
                     id="tspan312"
                     y="0"
                     x="0">X</tspan></text>
<text
                   id="text318"
                   style="font-variant:normal;font-weight:normal;font-size:8.96049976px;font-family:Arial;-inkscape-font-specification:ArialMT;writing-mode:lr-tb;fill:#ffffff;fill-opacity:1;fill-rule:nonzero;stroke:none"
                   transform="matrix(1,0,0,-1,240.3,33.901)"><tspan
                     id="tspan316"
                     y="0"
                     x="0">O</tspan></text>
<text
                   id="text322"
                   style="font-variant:normal;font-weight:normal;font-size:8.96049976px;font-family:Arial;-inkscape-font-specification:ArialMT;writing-mode:lr-tb;fill:#ffffff;fill-opacity:1;fill-rule:nonzero;stroke:none"
                   transform="matrix(1,0,0,-1,262.3,33.901)"><tspan
                     id="tspan320"
                     y="0"
                     x="0">O</tspan></text>
<g
                   id="g324"><path
                     id="path326"
                     style="fill:none;stroke:#ffffff;stroke-width:0.63480002;stroke-linecap:butt;stroke-linejoin:round;stroke-miterlimit:10;stroke-dasharray:none;stroke-opacity:1"
                     d="m 224.45,43.279 3.59,14.069" /></g><g
                   id="g328"><path
                     id="path330"
                     style="fill:none;stroke:#ffffff;stroke-width:0.63480002;stroke-linecap:butt;stroke-linejoin:round;stroke-miterlimit:10;stroke-dasharray:none;stroke-opacity:1"
                     d="m 228.04,57.348 -14.6,5.129" /></g><g
                   id="g332"><path
                     id="path334"
                     style="fill:none;stroke:#ffffff;stroke-width:0.63480002;stroke-linecap:butt;stroke-linejoin:round;stroke-miterlimit:10;stroke-dasharray:none;stroke-opacity:1"
                     d="m 214.49,62.477 v 8.084" /></g><g
                   id="g336"><path
                     id="path338"
                     style="fill:none;stroke:#ffffff;stroke-width:0.63480002;stroke-linecap:butt;stroke-linejoin:round;stroke-miterlimit:10;stroke-dasharray:none;stroke-opacity:1"
                     d="m 212.17,62.477 v 8.084" /></g><g
                   id="g340"><path
                     id="path342"
                     style="fill:none;stroke:#ffffff;stroke-width:0.63480002;stroke-linecap:butt;stroke-linejoin:round;stroke-miterlimit:10;stroke-dasharray:none;stroke-opacity:1"
                     d="m 213.44,62.477 -6.57,-3.835" /></g><g
                   id="g344"><path
                     id="path346"
                     style="fill:none;stroke:#ffffff;stroke-width:0.63480002;stroke-linecap:butt;stroke-linejoin:round;stroke-miterlimit:10;stroke-dasharray:none;stroke-opacity:1"
                     d="m 198.21,58.642 -6.77,3.835" /></g><g
                   id="g348"><path
                     id="path350"
                     style="fill:none;stroke:#ffffff;stroke-width:0.63480002;stroke-linecap:butt;stroke-linejoin:round;stroke-miterlimit:10;stroke-dasharray:none;stroke-opacity:1"
                     d="m 228.04,57.348 12.06,3.834" /></g><g
                   id="g352"><path
                     id="path354"
                     style="fill:none;stroke:#ffffff;stroke-width:0.63480002;stroke-linecap:butt;stroke-linejoin:round;stroke-miterlimit:10;stroke-dasharray:none;stroke-opacity:1"
                     d="m 240.1,61.182 17.56,-4.054" /></g><g
                   id="g356"><path
                     id="path358"
                     style="fill:none;stroke:#ffffff;stroke-width:0.63480002;stroke-linecap:butt;stroke-linejoin:round;stroke-miterlimit:10;stroke-dasharray:none;stroke-opacity:1"
                     d="M 257.66,57.128 254.9,43.279" /></g><g
                   id="g360"><path
                     id="path362"
                     style="fill:none;stroke:#ffffff;stroke-width:0.63480002;stroke-linecap:butt;stroke-linejoin:round;stroke-miterlimit:10;stroke-dasharray:none;stroke-opacity:1"
                     d="m 257.66,57.128 8.25,3.004" /></g><g
                   id="g364"><path
                     id="path366"
                     style="fill:none;stroke:#ffffff;stroke-width:0.63480002;stroke-linecap:butt;stroke-linejoin:round;stroke-miterlimit:10;stroke-dasharray:none;stroke-opacity:1"
                     d="m 254.9,43.279 -6.76,-3.834" /></g><g
                   id="g368"><path
                     id="path370"
                     style="fill:none;stroke:#ffffff;stroke-width:0.63480002;stroke-linecap:butt;stroke-linejoin:round;stroke-miterlimit:10;stroke-dasharray:none;stroke-opacity:1"
                     d="m 254.26,42.425 7.21,-4.25" /></g><g
                   id="g372"><path
                     id="path374"
                     style="fill:none;stroke:#ffffff;stroke-width:0.63480002;stroke-linecap:butt;stroke-linejoin:round;stroke-miterlimit:10;stroke-dasharray:none;stroke-opacity:1"
                     d="m 255.53,44.354 5.94,-3.419" /></g><g
                   id="g376"><path
                     id="path378"
                     style="fill:none;stroke:#ffffff;stroke-width:0.63480002;stroke-linecap:butt;stroke-linejoin:round;stroke-miterlimit:10;stroke-dasharray:none;stroke-opacity:1"
                     d="M 243.91,32.411 V 24.107" /></g><path
                   id="path380"
                   style="fill:#ffffff;fill-opacity:1;fill-rule:evenodd;stroke:none"
                   d="m 263.57,53.293 h -4.86 v 0.22 h 4.22 v 12.359 h -4.22 v 0.219 h 4.86 z" /><path
                   id="path382"
                   style="fill:none;stroke:#ffffff;stroke-width:0.19532;stroke-linecap:butt;stroke-linejoin:round;stroke-miterlimit:10;stroke-dasharray:none;stroke-opacity:1"
                   d="m 263.9,52.964 h -4.86 v 0.219 h 4.22 v 12.359 h -4.22 v 0.22 h 4.86 V 52.964" /><text
                   id="text386"
                   style="font-style:italic;font-variant:normal;font-weight:normal;font-size:8.96049976px;font-family:Arial;-inkscape-font-specification:Arial-ItalicMT;writing-mode:lr-tb;fill:#ffffff;fill-opacity:1;fill-rule:nonzero;stroke:none"
                   transform="matrix(1,0,0,-1,264.84,47.969)"><tspan
                     id="tspan384"
                     y="0"
                     x="0">n</tspan></text>
<path
                   id="path388"
                   style="fill:#ffffff;fill-opacity:1;fill-rule:evenodd;stroke:none"
                   d="m 234.17,65.676 h 4.86 v -0.22 H 234.8 V 53.098 h 4.23 v -0.22 h -4.86 z" /><path
                   id="path390"
                   style="fill:none;stroke:#ffffff;stroke-width:0.19532;stroke-linecap:butt;stroke-linejoin:round;stroke-miterlimit:10;stroke-dasharray:none;stroke-opacity:1"
                   d="m 234.5,65.347 h 4.86 v -0.22 h -4.23 V 52.768 h 4.23 v -0.22 h -4.86 v 12.799" /><text
                   id="text394"
                   style="font-variant:normal;font-weight:normal;font-size:8.96049976px;font-family:Arial;-inkscape-font-specification:ArialMT;writing-mode:lr-tb;fill:#ffffff;fill-opacity:1;fill-rule:nonzero;stroke:none"
                   transform="matrix(1,0,0,-1,57.328,63.112)"><tspan
                     id="tspan392"
                     y="0"
                     x="0">X</tspan></text>
<g
                   id="g396"><path
                     id="path398"
                     style="fill:none;stroke:#ffffff;stroke-width:0.63480002;stroke-linecap:butt;stroke-linejoin:round;stroke-miterlimit:10;stroke-dasharray:none;stroke-opacity:1"
                     d="M 26.027,28.796 V 41.57" /></g><g
                   id="g400"><path
                     id="path402"
                     style="fill:none;stroke:#ffffff;stroke-width:0.63480002;stroke-linecap:butt;stroke-linejoin:round;stroke-miterlimit:10;stroke-dasharray:none;stroke-opacity:1"
                     d="M 15.016,47.969 26.027,41.57" /></g><g
                   id="g404"><path
                     id="path406"
                     style="fill:none;stroke:#ffffff;stroke-width:0.63480002;stroke-linecap:butt;stroke-linejoin:round;stroke-miterlimit:10;stroke-dasharray:none;stroke-opacity:1"
                     d="M 14.601,45.624 23.903,40.08" /></g><g
                   id="g408"><path
                     id="path410"
                     style="fill:none;stroke:#ffffff;stroke-width:0.63480002;stroke-linecap:butt;stroke-linejoin:round;stroke-miterlimit:10;stroke-dasharray:none;stroke-opacity:1"
                     d="m 15.016,22.397 11.011,6.399" /></g><g
                   id="g412"><path
                     id="path414"
                     style="fill:none;stroke:#ffffff;stroke-width:0.63480002;stroke-linecap:butt;stroke-linejoin:round;stroke-miterlimit:10;stroke-dasharray:none;stroke-opacity:1"
                     d="m 14.601,24.937 9.302,5.544" /></g><g
                   id="g416"><path
                     id="path418"
                     style="fill:none;stroke:#ffffff;stroke-width:0.63480002;stroke-linecap:butt;stroke-linejoin:round;stroke-miterlimit:10;stroke-dasharray:none;stroke-opacity:1"
                     d="M 4.0286,41.57 15.016,47.969" /></g><g
                   id="g420"><path
                     id="path422"
                     style="fill:none;stroke:#ffffff;stroke-width:0.63480002;stroke-linecap:butt;stroke-linejoin:round;stroke-miterlimit:10;stroke-dasharray:none;stroke-opacity:1"
                     d="M 4.0286,28.796 15.016,22.397" /></g><g
                   id="g424"><path
                     id="path426"
                     style="fill:none;stroke:#ffffff;stroke-width:0.63480002;stroke-linecap:butt;stroke-linejoin:round;stroke-miterlimit:10;stroke-dasharray:none;stroke-opacity:1"
                     d="M 4.0286,28.796 V 41.57" /></g><g
                   id="g428"><path
                     id="path430"
                     style="fill:none;stroke:#ffffff;stroke-width:0.63480002;stroke-linecap:butt;stroke-linejoin:round;stroke-miterlimit:10;stroke-dasharray:none;stroke-opacity:1"
                     d="M 6.348,29.846 V 40.715" /></g><g
                   id="g432"><path
                     id="path434"
                     style="fill:none;stroke:#ffffff;stroke-width:0.63480002;stroke-linecap:butt;stroke-linejoin:round;stroke-miterlimit:10;stroke-dasharray:none;stroke-opacity:1"
                     d="m 15.016,47.969 3.589,14.068" /></g><g
                   id="g436"><path
                     id="path438"
                     style="fill:none;stroke:#ffffff;stroke-width:0.63480002;stroke-linecap:butt;stroke-linejoin:round;stroke-miterlimit:10;stroke-dasharray:none;stroke-opacity:1"
                     d="M 18.605,62.037 4.0286,67.166" /></g><g
                   id="g440"><path
                     id="path442"
                     style="fill:none;stroke:#ffffff;stroke-width:0.63480002;stroke-linecap:butt;stroke-linejoin:round;stroke-miterlimit:10;stroke-dasharray:none;stroke-opacity:1"
                     d="m 18.605,62.037 12.061,4.054" /></g><g
                   id="g444"><path
                     id="path446"
                     style="fill:none;stroke:#ffffff;stroke-width:0.63480002;stroke-linecap:butt;stroke-linejoin:round;stroke-miterlimit:10;stroke-dasharray:none;stroke-opacity:1"
                     d="M 30.666,66.091 48.221,61.842" /></g><g
                   id="g448"><path
                     id="path450"
                     style="fill:none;stroke:#ffffff;stroke-width:0.63480002;stroke-linecap:butt;stroke-linejoin:round;stroke-miterlimit:10;stroke-dasharray:none;stroke-opacity:1"
                     d="M 48.221,61.842 45.486,48.189" /></g><g
                   id="g452"><path
                     id="path454"
                     style="fill:none;stroke:#ffffff;stroke-width:0.63480002;stroke-linecap:butt;stroke-linejoin:round;stroke-miterlimit:10;stroke-dasharray:none;stroke-opacity:1"
                     d="m 48.221,61.842 8.252,3.175" /></g><g
                   id="g456"><path
                     id="path458"
                     style="fill:none;stroke:#ffffff;stroke-width:0.63480002;stroke-linecap:butt;stroke-linejoin:round;stroke-miterlimit:10;stroke-dasharray:none;stroke-opacity:1"
                     d="M 56.473,28.991 V 41.79" /></g><g
                   id="g460"><path
                     id="path462"
                     style="fill:none;stroke:#ffffff;stroke-width:0.63480002;stroke-linecap:butt;stroke-linejoin:round;stroke-miterlimit:10;stroke-dasharray:none;stroke-opacity:1"
                     d="M 45.486,48.189 56.473,41.79" /></g><g
                   id="g464"><path
                     id="path466"
                     style="fill:none;stroke:#ffffff;stroke-width:0.63480002;stroke-linecap:butt;stroke-linejoin:round;stroke-miterlimit:10;stroke-dasharray:none;stroke-opacity:1"
                     d="M 45.047,45.624 54.373,40.08" /></g><g
                   id="g468"><path
                     id="path470"
                     style="fill:none;stroke:#ffffff;stroke-width:0.63480002;stroke-linecap:butt;stroke-linejoin:round;stroke-miterlimit:10;stroke-dasharray:none;stroke-opacity:1"
                     d="m 45.486,22.592 10.987,6.399" /></g><g
                   id="g472"><path
                     id="path474"
                     style="fill:none;stroke:#ffffff;stroke-width:0.63480002;stroke-linecap:butt;stroke-linejoin:round;stroke-miterlimit:10;stroke-dasharray:none;stroke-opacity:1"
                     d="m 45.047,24.937 9.326,5.544" /></g><g
                   id="g476"><path
                     id="path478"
                     style="fill:none;stroke:#ffffff;stroke-width:0.63480002;stroke-linecap:butt;stroke-linejoin:round;stroke-miterlimit:10;stroke-dasharray:none;stroke-opacity:1"
                     d="m 34.475,41.79 11.011,6.399" /></g><g
                   id="g480"><path
                     id="path482"
                     style="fill:none;stroke:#ffffff;stroke-width:0.63480002;stroke-linecap:butt;stroke-linejoin:round;stroke-miterlimit:10;stroke-dasharray:none;stroke-opacity:1"
                     d="M 34.475,28.991 45.486,22.592" /></g><g
                   id="g484"><path
                     id="path486"
                     style="fill:none;stroke:#ffffff;stroke-width:0.63480002;stroke-linecap:butt;stroke-linejoin:round;stroke-miterlimit:10;stroke-dasharray:none;stroke-opacity:1"
                     d="M 34.475,28.991 V 41.79" /></g><g
                   id="g488"><path
                     id="path490"
                     style="fill:none;stroke:#ffffff;stroke-width:0.63480002;stroke-linecap:butt;stroke-linejoin:round;stroke-miterlimit:10;stroke-dasharray:none;stroke-opacity:1"
                     d="M 36.819,29.846 V 40.715" /></g><text
                   id="text494"
                   style="font-variant:normal;font-weight:normal;font-size:10.67000008px;font-family:Arial;-inkscape-font-specification:ArialMT;writing-mode:lr-tb;fill:#ffffff;fill-opacity:1;fill-rule:nonzero;stroke:none"
                   transform="matrix(1,0,0,-1,19.239,6.1793)"><tspan
                     id="tspan492"
                     y="0"
                     x="0 6.95684 13.91368 16.87994 99.647133 106.58263 115.24667 123.91071 130.86755 207.73422 214.66972 223.33377">PSt PMMA PMA</tspan></text>
</g></g></g></g></g></g><g
       id="g496"><g
         clip-path="url(#clipPath502)"
         id="g498"><text
           id="text506"
           style="font-variant:normal;font-weight:bold;font-size:9.96000004px;font-family:Arial;-inkscape-font-specification:Arial-BoldMT;writing-mode:lr-tb;fill:#ffffff;fill-opacity:1;fill-rule:nonzero;stroke:none"
           transform="matrix(1,0,0,-1,101.95,96.744)"><tspan
             id="tspan504"
             y="0"
             x="0 6.1054802 8.8743601 17.7288 20.497681 23.8542 29.39196 35.47752 38.246399 47.120762 53.226238 55.995121 61.532879 64.142403 70.247879 75.785637 79.610283 85.148041 90.645958 96.751442 100.098 102.86688 108.95244 112.32888">Limited mole percent of </tspan></text>
</g></g><g
       id="g508"><g
         clip-path="url(#clipPath514)"
         id="g510"><text
           id="text518"
           style="font-variant:normal;font-weight:bold;font-size:9.98400021px;font-family:Arial;-inkscape-font-specification:Arial-BoldMT;writing-mode:lr-tb;fill:#ffffff;fill-opacity:1;fill-rule:nonzero;stroke:none"
           transform="matrix(1,0,0,-1,122.11,84.744)"><tspan
             id="tspan516"
             y="0"
             x="0 5.521152 11.621376">end</tspan></text>
</g></g><g
       id="g520"><g
         clip-path="url(#clipPath526)"
         id="g522"><text
           id="text530"
           style="font-variant:normal;font-weight:bold;font-size:9.98400021px;font-family:Arial;-inkscape-font-specification:Arial-BoldMT;writing-mode:lr-tb;fill:#ffffff;fill-opacity:1;fill-rule:nonzero;stroke:none"
           transform="matrix(1,0,0,-1,139.87,84.744)"><tspan
             id="tspan528"
             y="0"
             x="0">-</tspan></text>
</g></g><g
       id="g532"><g
         clip-path="url(#clipPath538)"
         id="g534"><text
           id="text542"
           style="font-variant:normal;font-weight:bold;font-size:9.98400021px;font-family:Arial;-inkscape-font-specification:Arial-BoldMT;writing-mode:lr-tb;fill:#ffffff;fill-opacity:1;fill-rule:nonzero;stroke:none"
           transform="matrix(1,0,0,-1,143.23,84.744)"><tspan
             id="tspan540"
             y="0"
             x="0 6.1301761 10.013952 16.114176 22.274303 28.40448 31.180033 33.955585 40.105728 45.656834">group loss</tspan></text>
</g></g><g
       id="g544"><g
         clip-path="url(#clipPath550)"
         id="g546"><text
           id="text554"
           style="font-variant:normal;font-weight:normal;font-size:12.02400017px;font-family:Calibri;-inkscape-font-specification:Calibri;writing-mode:lr-tb;fill:#ffffff;fill-opacity:1;fill-rule:nonzero;stroke:none"
           transform="matrix(1,0,0,-1,147.19,62.16)"><tspan
             id="tspan552"
             y="0"
             x="0">≤</tspan></text>
</g></g><g
       id="g556"><g
         clip-path="url(#clipPath562)"
         id="g558"><text
           id="text566"
           style="font-style:italic;font-variant:normal;font-weight:normal;font-size:14.06400013px;font-family:Arial;-inkscape-font-specification:Arial-ItalicMT;writing-mode:lr-tb;fill:#ffffff;fill-opacity:1;fill-rule:nonzero;stroke:none"
           transform="matrix(1,0,0,-1,118.08,62.28)"><tspan
             id="tspan564"
             y="0"
             x="0">T</tspan></text>
</g></g><g
       id="g568"><g
         clip-path="url(#clipPath574)"
         id="g570"><text
           id="text578"
           style="font-variant:normal;font-weight:normal;font-size:7.32000017px;font-family:Arial;-inkscape-font-specification:ArialMT;writing-mode:lr-tb;fill:#ffffff;fill-opacity:1;fill-rule:nonzero;stroke:none"
           transform="matrix(1,0,0,-1,126.62,59.64)"><tspan
             id="tspan576"
             y="0"
             x="0 6.1121998 10.18212">mol</tspan></text>
</g></g><g
       id="g580"><g
         clip-path="url(#clipPath586)"
         id="g582"><text
           id="text590"
           style="font-variant:normal;font-weight:normal;font-size:7.32000017px;font-family:Arial;-inkscape-font-specification:ArialMT;writing-mode:lr-tb;fill:#ffffff;fill-opacity:1;fill-rule:nonzero;stroke:none"
           transform="matrix(1,0,0,-1,138.5,59.64)"><tspan
             id="tspan588"
             y="0"
             x="0">%</tspan></text>
</g></g><path
       id="path592"
       style="fill:none;stroke:#ffffff;stroke-width:0.47999999;stroke-linecap:butt;stroke-linejoin:miter;stroke-miterlimit:10;stroke-dasharray:none;stroke-opacity:1"
       d="m 157.68,66.24 h 29.53" /><g
       id="g594"><g
         clip-path="url(#clipPath600)"
         id="g596"><text
           id="text604"
           style="font-variant:normal;font-weight:normal;font-size:11.03999996px;font-family:Arial;-inkscape-font-specification:ArialMT;writing-mode:lr-tb;fill:#ffffff;fill-opacity:1;fill-rule:nonzero;stroke:none"
           transform="matrix(1,0,0,-1,156.67,69.96)"><tspan
             id="tspan602"
             y="0"
             x="0 3.1132801 11.02896 17.1672 20.843519 23.97888 27.68832">[Cu(I)]</tspan></text>
</g></g><g
       id="g606"><g
         clip-path="url(#clipPath612)"
         id="g608"><text
           id="text616"
           style="font-variant:normal;font-weight:normal;font-size:11.03999996px;font-family:Arial;-inkscape-font-specification:ArialMT;writing-mode:lr-tb;fill:#ffffff;fill-opacity:1;fill-rule:nonzero;stroke:none"
           transform="matrix(1,0,0,-1,159.31,56.736)"><tspan
             id="tspan614"
             y="0"
             x="0 3.1200199">[R</tspan></text>
</g></g><g
       id="g618"><g
         clip-path="url(#clipPath624)"
         id="g620"><text
           id="text628"
           style="font-variant:normal;font-weight:normal;font-size:11.03999996px;font-family:Arial;-inkscape-font-specification:ArialMT;writing-mode:lr-tb;fill:#ffffff;fill-opacity:1;fill-rule:nonzero;stroke:none"
           transform="matrix(1,0,0,-1,170.35,56.736)"><tspan
             id="tspan626"
             y="0"
             x="0">-</tspan></text>
</g></g><g
       id="g630"><g
         clip-path="url(#clipPath636)"
         id="g632"><text
           id="text640"
           style="font-variant:normal;font-weight:normal;font-size:11.03999996px;font-family:Arial;-inkscape-font-specification:ArialMT;writing-mode:lr-tb;fill:#ffffff;fill-opacity:1;fill-rule:nonzero;stroke:none"
           transform="matrix(1,0,0,-1,174.07,56.736)"><tspan
             id="tspan638"
             y="0"
             x="0 7.43998">X]</tspan></text>
</g></g></g></svg>