<svg version="1.1" viewBox="0.0 0.0 311.8320209973753 168.16535433070865" fill="none" stroke="none" stroke-linecap="square" stroke-miterlimit="10" xmlns:xlink="http://www.w3.org/1999/xlink" xmlns="http://www.w3.org/2000/svg"><clipPath id="p1.0"><path d="m0 0l311.83203 0l0 168.16536l-311.83203 0l0 -168.16536z" clip-rule="nonzero"/></clipPath><g clip-path="url(#p1.0)"><path fill="#d8d8d8" d="m0 0l311.83203 0l0 168.16536l-311.83203 0z" fill-rule="evenodd"/><path fill="#ffffff" d="m38.142258 59.274834l0 0c0 -6.4085197 5.195133 -11.603649 11.603653 -11.603649l5.7793617 0l0 0c3.0774803 0 6.0289116 1.2225227 8.205021 3.3986282c2.1761093 2.1761093 3.3986282 5.1275406 3.3986282 8.205021l0 43.17212c0 6.408516 -5.1951294 11.603653 -11.603649 11.603653l-5.7793617 0c-6.4085197 0 -11.603653 -5.195137 -11.603653 -11.603653z" fill-rule="evenodd"/><path fill="#ffffff" d="m18.576378 129.84834l0 0c0 -18.81041 15.248875 -34.059258 34.05932 -34.059258l0 0c9.0330925 0 17.696213 3.5883713 24.083572 9.975723c6.3873596 6.387352 9.975746 15.050461 9.975746 24.083534l0 0c0 18.810425 -15.2488785 34.059265 -34.05932 34.059265l0 0c-18.810444 0 -34.05932 -15.24884 -34.05932 -34.059265z" fill-rule="evenodd"/><path fill="#ffffff" d="m43.576797 28.174593l2.1138039 18.133436l13.890186 0l2.1138039 -18.133436z" fill-rule="evenodd"/><path fill="#ffffff" d="m61.157024 73.29931l0 0c-0.41257858 -0.54631805 -0.3041649 -1.3236542 0.24214935 -1.7362366l32.95003 -24.884071c0.26234436 -0.19812775 0.592659 -0.2839241 0.9182663 -0.23851395c0.3256073 0.04541397 0.6198425 0.21831131 0.8179703 0.4806633l2.988083 3.9566498c0.4125824 0.54631424 0.3041687 1.3236542 -0.24214172 1.7362366l-32.950035 24.884071c-0.5463104 0.4125824 -1.3236542 0.3041687 -1.7362366 -0.24214935z" fill-rule="evenodd"/><path fill="#ffffff" d="m42.64021 19.9821l0 0c0 -5.5202675 4.4750633 -9.995328 9.995327 -9.995328l0 0c2.6509285 0 5.1932793 1.0530758 7.0677643 2.9275637c1.8744888 1.8744879 2.9275665 4.4168377 2.9275665 7.0677643l0 0c0 5.5202675 -4.4750633 9.995329 -9.995331 9.995329l0 0c-5.5202637 0 -9.995327 -4.4750614 -9.995327 -9.995329z" fill-rule="evenodd"/><path fill="#ffffff" d="m42.562836 30.783306l2.3335 20.00084l15.478725 0l2.333496 -20.00084z" fill-rule="evenodd"/><path fill="#000000" fill-opacity="0.0" d="m40.750237 128.50005c0.62498474 -11.562515 1.2499733 -23.125038 6.2499733 -32.999992c5.0 -9.874962 10.875065 -15.249977 23.750027 -26.249977c12.874962 -11.0 41.749916 -31.250076 53.499947 -39.750023c11.7500305 -8.5000515 11.916641 -8.87496 17.0 -11.249973c5.083359 -2.3750134 10.500046 -2.5000525 13.500046 -3.0c3.0 -0.49994755 3.7499237 -0.2499733 4.499954 0" fill-rule="evenodd"/><path stroke="#f2f2f2" stroke-width="1.3333333333333333" stroke-miterlimit="800.0" stroke-linecap="butt" d="m40.750237 128.50005c0.62498474 -11.562515 1.2499733 -23.125038 6.2499733 -32.999992c5.0 -9.874962 10.875065 -15.249977 23.750027 -26.249977c12.874962 -11.0 41.749916 -31.250076 53.499947 -39.750023c11.7500305 -8.5000515 11.916641 -8.87496 17.0 -11.249973c5.083359 -2.3750134 10.500046 -2.5000525 13.500046 -3.0c3.0 -0.49994755 3.7499237 -0.2499733 4.499954 0" fill-rule="evenodd"/><path fill="#ffffff" d="m169.82195 6.311601l66.75003 0l0 16.758844l-66.75003 0z" fill-rule="evenodd"/><path fill="#ffffff" d="m221.93166 8.415538l66.750015 0l0 12.550971l-66.750015 0z" fill-rule="evenodd"/><path stroke="#f2f2f2" stroke-width="1.0" stroke-miterlimit="800.0" stroke-linecap="butt" d="m221.93166 8.415538l66.750015 0l0 12.550971l-66.750015 0z" fill-rule="evenodd"/><path fill="#ffffff" d="m289.4539 3.3878214l3.2554932 0l0 0c0.42645264 0 0.7721863 5.0697584 0.7721863 11.323623c0 6.2538633 -0.34573364 11.323623 -0.7721863 11.323623l-3.2554932 0l0 0c-0.42648315 0 -0.7722168 -5.0697594 -0.7722168 -11.323623c0 -6.2538643 0.34573364 -11.323623 0.7722168 -11.323623z" fill-rule="evenodd"/><path fill="#ffffff" d="m161.57198 12.413123l8.2499695 0l0 4.7998953l-8.2499695 0z" fill-rule="evenodd"/><path fill="#ffffff" d="m156.77208 12.291023l6.2499695 0l0 4.7998943l-6.2499695 0z" fill-rule="evenodd"/><path stroke="#ffffff" stroke-width="1.3333333333333333" stroke-miterlimit="800.0" stroke-linecap="butt" d="m156.77208 12.291023l6.2499695 0l0 4.7998943l-6.2499695 0z" fill-rule="evenodd"/><path fill="#ffffff" d="m78.22141 58.308872l0 0c0 -3.6019974 2.9199982 -6.5219917 6.5219955 -6.5219917l0 0c1.729744 0 3.3886414 0.6871338 4.6117477 1.9102478c1.223114 1.2231102 1.9102478 2.8820038 1.9102478 4.611744l0 0c0 3.6020012 -2.9199982 6.5219994 -6.5219955 6.5219994l0 0c-3.6019974 0 -6.5219955 -2.9199982 -6.5219955 -6.5219994z" fill-rule="evenodd"/><path stroke="#f2f2f2" stroke-width="1.3333333333333333" stroke-miterlimit="800.0" stroke-linecap="butt" d="m78.22141 58.308872l0 0c0 -3.6019974 2.9199982 -6.5219917 6.5219955 -6.5219917l0 0c1.729744 0 3.3886414 0.6871338 4.6117477 1.9102478c1.223114 1.2231102 1.9102478 2.8820038 1.9102478 4.611744l0 0c0 3.6020012 -2.9199982 6.5219994 -6.5219955 6.5219994l0 0c-3.6019974 0 -6.5219955 -2.9199982 -6.5219955 -6.5219994z" fill-rule="evenodd"/><path fill="#ffffff" d="m81.48445 50.48069l10.574852 11.84359l0 0c1.3853302 1.5515404 1.6001892 3.620201 0.47990417 4.620476c-1.120285 1.0002823 -3.151497 0.5533905 -4.5368347 -0.99814606l-10.574844 -11.843594l0 0c-1.3853378 -1.5515404 -1.6001968 -3.620201 -0.4799118 -4.6204796c1.1202927 -1.0002785 3.151497 -0.5533905 4.5368347 0.9981537z" fill-rule="evenodd"/><path stroke="#d8d8d8" stroke-width="1.3333333333333333" stroke-miterlimit="800.0" stroke-linecap="butt" d="m81.48445 50.48069l10.574852 11.84359l0 0c1.3853302 1.5515404 1.6001892 3.620201 0.47990417 4.620476c-1.120285 1.0002823 -3.151497 0.5533905 -4.5368347 -0.99814606l-10.574844 -11.843594l0 0c-1.3853378 -1.5515404 -1.6001968 -3.620201 -0.4799118 -4.6204796c1.1202927 -1.0002785 3.151497 -0.5533905 4.5368347 0.9981537z" fill-rule="evenodd"/><path fill="#f2f2f2" d="m172.45312 8.415433l49.360626 0l0 12.550971l-49.360626 0z" fill-rule="evenodd"/><path fill="#ffffff" d="m236.61313 3.7231498l1.9199982 0l0 21.812073l-1.9199982 0z" fill-rule="evenodd"/><path stroke="#f2f2f2" stroke-width="1.0" stroke-miterlimit="800.0" stroke-linecap="butt" d="m236.61313 3.7231498l1.9199982 0l0 21.812073l-1.9199982 0z" fill-rule="evenodd"/><path fill="#5b9bd5" d="m85.107086 129.88803l0 0c0 17.783386 -14.416641 32.2173 -32.241653 32.280273c-17.825008 0.06297302 -32.343746 -14.268723 -32.46998 -32.05168l32.355408 -0.22859192z" fill-rule="evenodd"/><path fill="#000000" fill-opacity="0.0" d="m3.0070343 125.1326l99.2568 0l0 38.77501l-99.2568 0z" fill-rule="evenodd"/><path fill="#ffffff" d="m32.44598 134.70322l1.125 0.359375q-0.265625 0.9375 -0.875 1.390625q-0.59375 0.453125 -1.515625 0.453125q-1.140625 0 -1.875 -0.78125q-0.734375 -0.78125 -0.734375 -2.125q0 -1.4375 0.734375 -2.21875q0.75 -0.796875 1.953125 -0.796875q1.046875 0 1.703125 0.625q0.390625 0.359375 0.59375 1.046875l-1.15625 0.28125q-0.09375 -0.453125 -0.421875 -0.703125q-0.3125 -0.265625 -0.78125 -0.265625q-0.640625 0 -1.03125 0.46875q-0.390625 0.453125 -0.390625 1.46875q0 1.09375 0.390625 1.5625q0.390625 0.453125 1.015625 0.453125q0.453125 0 0.78125 -0.296875q0.34375 -0.296875 0.484375 -0.921875zm4.8398438 2.109375l0 -0.625q-0.234375 0.328125 -0.609375 0.53125q-0.359375 0.1875 -0.765625 0.1875q-0.421875 0 -0.765625 -0.1875q-0.328125 -0.1875 -0.484375 -0.515625q-0.140625 -0.328125 -0.140625 -0.921875l0 -2.625l1.109375 0l0 1.90625q0 0.875 0.046875 1.078125q0.0625 0.203125 0.21875 0.3125q0.171875 0.109375 0.421875 0.109375q0.28125 0 0.5 -0.140625q0.21875 -0.15625 0.296875 -0.390625q0.09375 -0.234375 0.09375 -1.125l0 -1.75l1.09375 0l0 4.15625l-1.015625 0zm3.9648438 1.6875l-0.75 0q-0.59375 -0.90625 -0.90625 -1.875q-0.3125 -0.984375 -0.3125 -1.890625q0 -1.125 0.390625 -2.140625q0.328125 -0.875 0.84375 -1.609375l0.75 0q-0.53125 1.1875 -0.734375 2.015625q-0.203125 0.828125 -0.203125 1.765625q0 0.640625 0.109375 1.3125q0.125 0.671875 0.34375 1.28125q0.125 0.390625 0.46875 1.140625zm0.8203125 -1.6875l0 -5.734375l1.15625 0l0 5.734375l-1.15625 0zm2.2226562 0l0 -5.734375l1.15625 0l0 5.734375l-1.15625 0zm1.9414062 1.6875q0.328125 -0.703125 0.453125 -1.078125q0.140625 -0.359375 0.25 -0.84375q0.125 -0.484375 0.171875 -0.921875q0.0625 -0.4375 0.0625 -0.890625q0 -0.9375 -0.203125 -1.765625q-0.203125 -0.828125 -0.734375 -2.015625l0.75 0q0.578125 0.84375 0.90625 1.78125q0.328125 0.9375 0.328125 1.90625q0 0.828125 -0.25 1.75q-0.296875 1.0625 -0.96875 2.078125l-0.765625 0zm2.3828125 -1.59375l1.421875 -5.921875l0.828125 0l-1.4375 5.921875l-0.8125 0zm2.8476562 -0.09375l0 -5.6875l1.15625 0l0 4.71875l2.875 0l0 0.96875l-4.03125 0zm4.8554688 -4.71875l0 -1.015625l1.09375 0l0 1.015625l-1.09375 0zm0 4.71875l0 -4.15625l1.09375 0l0 4.15625l-1.09375 0zm2.1132812 0.28125l1.265625 0.140625q0.03125 0.21875 0.140625 0.3125q0.15625 0.109375 0.484375 0.109375q0.4375 0 0.65625 -0.125q0.140625 -0.09375 0.21875 -0.28125q0.046875 -0.140625 0.046875 -0.5l0 -0.609375q-0.5 0.671875 -1.25 0.671875q-0.828125 0 -1.3125 -0.703125q-0.390625 -0.5625 -0.390625 -1.390625q0 -1.046875 0.5 -1.59375q0.5 -0.5625 1.25 -0.5625q0.765625 0 1.265625 0.6875l0 -0.59375l1.03125 0l0 3.734375q0 0.734375 -0.125 1.09375q-0.109375 0.359375 -0.328125 0.5625q-0.21875 0.21875 -0.59375 0.328125q-0.359375 0.125 -0.921875 0.125q-1.046875 0 -1.5 -0.359375q-0.4375 -0.359375 -0.4375 -0.921875q0 -0.046875 0 -0.125zm0.984375 -2.4375q0 0.65625 0.25 0.96875q0.265625 0.296875 0.640625 0.296875q0.40625 0 0.671875 -0.3125q0.28125 -0.3125 0.28125 -0.9375q0 -0.640625 -0.265625 -0.953125q-0.265625 -0.3125 -0.671875 -0.3125q-0.390625 0 -0.65625 0.3125q-0.25 0.296875 -0.25 0.9375zm4.824215 -0.734375l-0.9843712 -0.171875q0.15625 -0.609375 0.5625 -0.890625q0.4218712 -0.296875 1.2343712 -0.296875q0.734375 0 1.09375 0.1875q0.359375 0.171875 0.5 0.4375q0.140625 0.265625 0.140625 0.984375l0 1.28125q0 0.546875 0.046875 0.8125q0.046875 0.25 0.20313263 0.546875l-1.0937576 0q-0.046875 -0.109375 -0.109375 -0.328125q-0.015625 -0.09375 -0.03125 -0.125q-0.28125 0.265625 -0.609375 0.40625q-0.3125 0.140625 -0.671875 0.140625q-0.6406212 0 -1.0156212 -0.34375q-0.375 -0.359375 -0.375 -0.890625q0 -0.34375 0.171875 -0.609375q0.171875 -0.28125 0.46875 -0.421875q0.3124962 -0.15625 0.8749962 -0.265625q0.765625 -0.140625 1.0625 -0.265625l0 -0.109375q0 -0.328125 -0.15625 -0.453125q-0.15625 -0.140625 -0.578125 -0.140625q-0.296875 0 -0.46875 0.125q-0.15625 0.109375 -0.265625 0.390625zm1.46875 0.890625q-0.203125 0.078125 -0.671875 0.171875q-0.453125 0.09375 -0.59375 0.1875q-0.203125 0.15625 -0.203125 0.390625q0 0.234375 0.171875 0.40625q0.171875 0.15625 0.4375 0.15625q0.296875 0 0.5625 -0.1875q0.203125 -0.15625 0.265625 -0.359375q0.03125 -0.140625 0.03125 -0.546875l0 -0.21875zm5.9336014 2.0l-1.09375 0l0 -2.125q0 -0.671875 -0.078125 -0.859375q-0.0625 -0.203125 -0.21875 -0.3125q-0.15625 -0.109375 -0.375 -0.109375q-0.296875 0 -0.53125 0.15625q-0.21875 0.15625 -0.296875 0.421875q-0.078125 0.25 -0.078125 0.953125l0 1.875l-1.109375 0l0 -4.15625l1.03125 0l0 0.609375q0.53125 -0.703125 1.359375 -0.703125q0.359375 0 0.65625 0.140625q0.3125 0.125 0.46875 0.328125q0.15625 0.203125 0.203125 0.46875q0.0625 0.25 0.0625 0.734375l0 2.578125zm4.9179688 0l-1.015625 0l0 -0.609375q-0.25 0.359375 -0.59375 0.53125q-0.34375 0.171875 -0.703125 0.171875q-0.71875 0 -1.234375 -0.578125q-0.5 -0.578125 -0.5 -1.609375q0 -1.046875 0.5 -1.59375q0.5 -0.5625 1.25 -0.5625q0.703125 0 1.203125 0.578125l0 -2.0625l1.09375 0l0 5.734375zm-2.921875 -2.171875q0 0.671875 0.1875 0.96875q0.265625 0.421875 0.734375 0.421875q0.375 0 0.640625 -0.3125q0.265625 -0.328125 0.265625 -0.96875q0 -0.71875 -0.265625 -1.03125q-0.25 -0.3125 -0.640625 -0.3125q-0.390625 0 -0.65625 0.3125q-0.265625 0.3125 -0.265625 0.921875z" fill-rule="nonzero"/><path fill="#ffffff" d="m35.197933 146.81259l0 -5.734375l1.734375 0l1.046875 3.90625l1.015625 -3.90625l1.734375 0l0 5.734375l-1.0625 0l0 -4.515625l-1.140625 4.515625l-1.109375 0l-1.140625 -4.515625l0 4.515625l-1.078125 0zm6.4296875 -2.140625q0 -0.546875 0.265625 -1.046875q0.265625 -0.515625 0.75 -0.78125q0.5 -0.28125 1.109375 -0.28125q0.953125 0 1.546875 0.625q0.609375 0.609375 0.609375 1.53125q0 0.953125 -0.609375 1.578125q-0.609375 0.609375 -1.53125 0.609375q-0.578125 0 -1.09375 -0.25q-0.515625 -0.265625 -0.78125 -0.765625q-0.265625 -0.5 -0.265625 -1.21875zm1.125 0.0625q0 0.625 0.28125 0.953125q0.296875 0.328125 0.734375 0.328125q0.421875 0 0.703125 -0.328125q0.296875 -0.328125 0.296875 -0.953125q0 -0.609375 -0.296875 -0.9375q-0.28125 -0.328125 -0.703125 -0.328125q-0.4375 0 -0.734375 0.328125q-0.28125 0.328125 -0.28125 0.9375zm7.7773438 2.078125l-1.09375 0l0 -2.125q0 -0.671875 -0.078125 -0.859375q-0.0625 -0.203125 -0.21875 -0.3125q-0.15625 -0.109375 -0.375 -0.109375q-0.296875 0 -0.53125 0.15625q-0.21875 0.15625 -0.296875 0.421875q-0.078125 0.25 -0.078125 0.953125l0 1.875l-1.109375 0l0 -4.15625l1.03125 0l0 0.609375q0.53125 -0.703125 1.359375 -0.703125q0.359375 0 0.65625 0.140625q0.3125 0.125 0.46875 0.328125q0.15625 0.203125 0.203125 0.46875q0.0625 0.25 0.0625 0.734375l0 2.578125zm0.87109375 -2.140625q0 -0.546875 0.265625 -1.046875q0.265625 -0.515625 0.75 -0.78125q0.5 -0.28125 1.109375 -0.28125q0.953125 0 1.546875 0.625q0.609375 0.609375 0.609375 1.53125q0 0.953125 -0.609375 1.578125q-0.609375 0.609375 -1.53125 0.609375q-0.578125 0 -1.09375 -0.25q-0.515625 -0.265625 -0.78125 -0.765625q-0.265625 -0.5 -0.265625 -1.21875zm1.125 0.0625q0 0.625 0.28125 0.953125q0.296875 0.328125 0.734375 0.328125q0.421875 0 0.703125 -0.328125q0.296875 -0.328125 0.296875 -0.953125q0 -0.609375 -0.296875 -0.9375q-0.28125 -0.328125 -0.703125 -0.328125q-0.4375 0 -0.734375 0.328125q-0.28125 0.328125 -0.28125 0.9375zm3.9335938 -2.078125l1.0 0l0 0.578125q0.546875 -0.671875 1.296875 -0.671875q0.40625 0 0.6875 0.171875q0.296875 0.15625 0.484375 0.5q0.28125 -0.34375 0.59375 -0.5q0.3125 -0.171875 0.671875 -0.171875q0.453125 0 0.765625 0.1875q0.328125 0.1875 0.484375 0.546875q0.109375 0.265625 0.109375 0.859375l0 2.65625l-1.09375 0l0 -2.375q0 -0.609375 -0.109375 -0.796875q-0.15625 -0.234375 -0.46875 -0.234375q-0.234375 0 -0.4375 0.140625q-0.203125 0.140625 -0.296875 0.421875q-0.09375 0.265625 -0.09375 0.84375l0 2.0l-1.09375 0l0 -2.28125q0 -0.59375 -0.0625 -0.765625q-0.046875 -0.1875 -0.171875 -0.265625q-0.125 -0.09375 -0.34375 -0.09375q-0.25 0 -0.453125 0.140625q-0.203125 0.140625 -0.296875 0.40625q-0.078125 0.25 -0.078125 0.84375l0 2.015625l-1.09375 0l0 -4.15625zm9.597652 2.828125l1.0937576 0.1875q-0.21875763 0.609375 -0.6718826 0.921875q-0.453125 0.3125 -1.140625 0.3125q-1.078125 0 -1.5937462 -0.703125q-0.421875 -0.578125 -0.421875 -1.4375q0 -1.03125 0.53125 -1.609375q0.5468712 -0.59375 1.3749962 -0.59375q0.921875 0 1.453125 0.625q0.5468826 0.609375 0.5156326 1.859375l-2.7500076 0q0.015625 0.5 0.265625 0.765625q0.265625 0.265625 0.640625 0.265625q0.25 0 0.421875 -0.140625q0.1875 -0.140625 0.28125 -0.453125zm0.0625 -1.109375q-0.015625 -0.46875 -0.25 -0.71875q-0.234375 -0.25 -0.578125 -0.25q-0.359375 0 -0.59375 0.265625q-0.234375 0.265625 -0.21875 0.703125l1.640625 0zm3.0273514 2.4375l-1.09375 0l0 -4.15625l1.015625 0l0 0.59375q0.265625 -0.421875 0.46875 -0.546875q0.21875 -0.140625 0.484375 -0.140625q0.375 0 0.71875 0.21875l-0.34375 0.953125q-0.28125 -0.1875 -0.515625 -0.1875q-0.234375 0 -0.390625 0.140625q-0.15625 0.125 -0.25 0.453125q-0.09375 0.328125 -0.09375 1.390625l0 1.28125z" fill-rule="nonzero"/><path fill="#ffffff" d="m38.516293 156.81259l0 -5.734375l1.15625 0l0 5.734375l-1.15625 0zm6.0195312 0l-1.09375 0l0 -2.125q0 -0.671875 -0.078125 -0.859375q-0.0625 -0.203125 -0.21875 -0.3125q-0.15625 -0.109375 -0.375 -0.109375q-0.296875 0 -0.53125 0.15625q-0.21875 0.15625 -0.296875 0.421875q-0.078125 0.25 -0.078125 0.953125l0 1.875l-1.109375 0l0 -4.15625l1.03125 0l0 0.609375q0.53125 -0.703125 1.359375 -0.703125q0.359375 0 0.65625 0.140625q0.3125 0.125 0.46875 0.328125q0.15625 0.203125 0.203125 0.46875q0.0625 0.25 0.0625 0.734375l0 2.578125zm1.1210938 -4.71875l0 -1.015625l1.09375 0l0 1.015625l-1.09375 0zm0 4.71875l0 -4.15625l1.09375 0l0 4.15625l-1.09375 0zm4.1289062 -4.15625l0 0.875l-0.75 0l0 1.671875q0 0.515625 0.015625 0.609375q0.015625 0.078125 0.09375 0.140625q0.078125 0.046875 0.1875 0.046875q0.15625 0 0.4375 -0.109375l0.09375 0.84375q-0.375 0.171875 -0.859375 0.171875q-0.296875 0 -0.546875 -0.09375q-0.234375 -0.109375 -0.34375 -0.265625q-0.109375 -0.15625 -0.15625 -0.421875q-0.03125 -0.203125 -0.03125 -0.78125l0 -1.8125l-0.5 0l0 -0.875l0.5 0l0 -0.8125l1.109375 -0.640625l0 1.453125l0.75 0zm0.7578125 -0.5625l0 -1.015625l1.09375 0l0 1.015625l-1.09375 0zm0 4.71875l0 -4.15625l1.09375 0l0 4.15625l-1.09375 0zm3.0351562 -2.890625l-0.984375 -0.171875q0.15625 -0.609375 0.5625 -0.890625q0.421875 -0.296875 1.234375 -0.296875q0.734375 0 1.09375 0.1875q0.359375 0.171875 0.5 0.4375q0.140625 0.265625 0.140625 0.984375l0 1.28125q0 0.546875 0.046875 0.8125q0.046875 0.25 0.203125 0.546875l-1.09375 0q-0.046875 -0.109375 -0.109375 -0.328125q-0.015625 -0.09375 -0.03125 -0.125q-0.28125 0.265625 -0.609375 0.40625q-0.3125 0.140625 -0.671875 0.140625q-0.640625 0 -1.015625 -0.34375q-0.375 -0.359375 -0.375 -0.890625q0 -0.34375 0.171875 -0.609375q0.171875 -0.28125 0.46875 -0.421875q0.3125 -0.15625 0.875 -0.265625q0.765625 -0.140625 1.0625 -0.265625l0 -0.109375q0 -0.328125 -0.15625 -0.453125q-0.15625 -0.140625 -0.578125 -0.140625q-0.296875 0 -0.46875 0.125q-0.15625 0.109375 -0.265625 0.390625zm1.46875 0.890625q-0.203125 0.078125 -0.671875 0.171875q-0.453125 0.09375 -0.59375 0.1875q-0.203125 0.15625 -0.203125 0.390625q0 0.234375 0.171875 0.40625q0.171875 0.15625 0.4375 0.15625q0.296875 0 0.5625 -0.1875q0.203125 -0.15625 0.265625 -0.359375q0.03125 -0.140625 0.03125 -0.546875l0 -0.21875zm4.0742188 -2.15625l0 0.875l-0.75 0l0 1.671875q0 0.515625 0.015625 0.609375q0.015625 0.078125 0.09375 0.140625q0.078125 0.046875 0.1875 0.046875q0.15625 0 0.4375 -0.109375l0.09375 0.84375q-0.375 0.171875 -0.859375 0.171875q-0.296875 0 -0.546875 -0.09375q-0.234375 -0.109375 -0.34375 -0.265625q-0.109375 -0.15625 -0.15625 -0.421875q-0.03125 -0.203125 -0.03125 -0.78125l0 -1.8125l-0.5 0l0 -0.875l0.5 0l0 -0.8125l1.109375 -0.640625l0 1.453125l0.75 0zm0.5078125 2.015625q0 -0.546875 0.265625 -1.046875q0.265625 -0.515625 0.75 -0.78125q0.5 -0.28125 1.109375 -0.28125q0.953125 0 1.546875 0.625q0.609375 0.609375 0.609375 1.53125q0 0.953125 -0.609375 1.578125q-0.609375 0.609375 -1.53125 0.609375q-0.578125 0 -1.09375 -0.25q-0.515625 -0.265625 -0.78125 -0.765625q-0.265625 -0.5 -0.265625 -1.21875zm1.125 0.0625q0 0.625 0.28125 0.953125q0.296875 0.328125 0.734375 0.328125q0.421875 0 0.703125 -0.328125q0.296875 -0.328125 0.296875 -0.953125q0 -0.609375 -0.296875 -0.9375q-0.28125 -0.328125 -0.703125 -0.328125q-0.4375 0 -0.734375 0.328125q-0.28125 0.328125 -0.28125 0.9375zm5.05859 2.078125l-1.09375 0l0 -4.15625l1.015625 0l0 0.59375q0.265625 -0.421875 0.46875 -0.546875q0.21875 -0.140625 0.484375 -0.140625q0.37500763 0 0.7187576 0.21875l-0.34375 0.953125q-0.28125763 -0.1875 -0.5156326 -0.1875q-0.234375 0 -0.390625 0.140625q-0.15625 0.125 -0.25 0.453125q-0.09375 0.328125 -0.09375 1.390625l0 1.28125z" fill-rule="nonzero"/><path fill="#000000" fill-opacity="0.0" d="m163.91685 4.935433l99.25679 0l0 19.387506l-99.25679 0z" fill-rule="evenodd"/><path fill="#a5a5a5" d="m177.16685 14.506059l1.125 0.359375q-0.265625 0.9375 -0.875 1.390624q-0.59375 0.453125 -1.515625 0.453125q-1.140625 0 -1.875 -0.78124905q-0.734375 -0.78125 -0.734375 -2.125q0 -1.4375 0.734375 -2.21875q0.75 -0.796875 1.953125 -0.796875q1.046875 0 1.703125 0.625q0.390625 0.359375 0.59375 1.046875l-1.15625 0.28125q-0.09375 -0.453125 -0.421875 -0.703125q-0.3125 -0.265625 -0.78125 -0.265625q-0.640625 0 -1.03125 0.46875q-0.390625 0.453125 -0.390625 1.46875q0 1.09375 0.390625 1.5625q0.390625 0.453125 1.015625 0.453125q0.453125 0 0.78125 -0.296875q0.34375 -0.296875 0.484375 -0.921875zm4.8398438 2.109374l0 -0.62499905q-0.234375 0.32812405 -0.609375 0.53124905q-0.359375 0.1875 -0.765625 0.1875q-0.421875 0 -0.765625 -0.1875q-0.328125 -0.1875 -0.484375 -0.515625q-0.140625 -0.32812405 -0.140625 -0.92187405l0 -2.625l1.109375 0l0 1.90625q0 0.875 0.046875 1.078125q0.0625 0.203125 0.21875 0.3125q0.171875 0.109375 0.421875 0.109375q0.28125 0 0.5 -0.140625q0.21875 -0.15625 0.296875 -0.390625q0.09375 -0.234375 0.09375 -1.125l0 -1.75l1.09375 0l0 4.156249l-1.015625 0zm3.9648438 1.6875l-0.75 0q-0.59375 -0.90625 -0.90625 -1.875q-0.3125 -0.98437405 -0.3125 -1.890624q0 -1.125 0.390625 -2.140625q0.328125 -0.875 0.84375 -1.609375l0.75 0q-0.53125 1.1875 -0.734375 2.015625q-0.203125 0.828125 -0.203125 1.765625q0 0.640625 0.109375 1.3125q0.125 0.67187405 0.34375 1.281249q0.125 0.390625 0.46875 1.140625zm0.8203125 -1.6875l0 -5.734374l1.15625 0l0 5.734374l-1.15625 0zm1.9414062 1.6875q0.328125 -0.703125 0.453125 -1.078125q0.140625 -0.359375 0.25 -0.84375q0.125 -0.48437405 0.171875 -0.92187405q0.0625 -0.4375 0.0625 -0.890625q0 -0.9375 -0.203125 -1.765625q-0.203125 -0.828125 -0.734375 -2.015625l0.75 0q0.578125 0.84375 0.90625 1.78125q0.328125 0.9375 0.328125 1.90625q0 0.828125 -0.25 1.749999q-0.296875 1.0625 -0.96875 2.078125l-0.765625 0zm2.3828125 -1.59375l1.421875 -5.921874l0.828125 0l-1.4375 5.921874l-0.8125 0zm2.8476562 -0.09375l0 -5.687499l1.15625 0l0 4.71875l2.875 0l0 0.96874905l-4.03125 0zm4.8554688 -4.718749l0 -1.015625l1.09375 0l0 1.015625l-1.09375 0zm0 4.718749l0 -4.156249l1.09375 0l0 4.156249l-1.09375 0zm2.1132812 0.28125l1.265625 0.140625q0.03125 0.21875 0.140625 0.3125q0.15625 0.109375 0.484375 0.109375q0.4375 0 0.65625 -0.125q0.140625 -0.09375 0.21875 -0.28125q0.046875 -0.140625 0.046875 -0.5l0 -0.60937405q-0.5 0.67187405 -1.25 0.67187405q-0.828125 0 -1.3125 -0.70312405q-0.390625 -0.5625 -0.390625 -1.390625q0 -1.046875 0.5 -1.59375q0.5 -0.5625 1.25 -0.5625q0.765625 0 1.265625 0.6875l0 -0.59375l1.03125 0l0 3.734374q0 0.734375 -0.125 1.09375q-0.109375 0.359375 -0.328125 0.5625q-0.21875 0.21875 -0.59375 0.328125q-0.359375 0.125 -0.921875 0.125q-1.046875 0 -1.5 -0.359375q-0.4375 -0.359375 -0.4375 -0.921875q0 -0.046875 0 -0.125zm0.984375 -2.437499q0 0.65625 0.25 0.96875q0.265625 0.296875 0.640625 0.296875q0.40625 0 0.671875 -0.3125q0.28125 -0.3125 0.28125 -0.9375q0 -0.640625 -0.265625 -0.953125q-0.265625 -0.3125 -0.671875 -0.3125q-0.390625 0 -0.65625 0.3125q-0.25 0.296875 -0.25 0.9375zm4.8242188 -0.734375l-0.984375 -0.171875q0.15625 -0.609375 0.5625 -0.890625q0.421875 -0.296875 1.234375 -0.296875q0.734375 0 1.09375 0.1875q0.359375 0.171875 0.5 0.4375q0.140625 0.265625 0.140625 0.984375l0 1.28125q0 0.546875 0.046875 0.81249905q0.046875 0.25 0.203125 0.546875l-1.09375 0q-0.046875 -0.109375 -0.109375 -0.328125q-0.015625 -0.09375 -0.03125 -0.125q-0.28125 0.265625 -0.609375 0.40625q-0.3125 0.140625 -0.671875 0.140625q-0.640625 0 -1.015625 -0.34375q-0.375 -0.359375 -0.375 -0.89062405q0 -0.34375 0.171875 -0.609375q0.171875 -0.28125 0.46875 -0.421875q0.3125 -0.15625 0.875 -0.265625q0.765625 -0.140625 1.0625 -0.265625l0 -0.109375q0 -0.328125 -0.15625 -0.453125q-0.15625 -0.140625 -0.578125 -0.140625q-0.296875 0 -0.46875 0.125q-0.15625 0.109375 -0.265625 0.390625zm1.46875 0.890625q-0.203125 0.078125 -0.671875 0.171875q-0.453125 0.09375 -0.59375 0.1875q-0.203125 0.15625 -0.203125 0.390625q0 0.234375 0.171875 0.40625q0.171875 0.15625 0.4375 0.15625q0.296875 0 0.5625 -0.1875q0.203125 -0.15625 0.265625 -0.359375q0.03125 -0.140625 0.03125 -0.546875l0 -0.21875zm5.9335938 1.999999l-1.09375 0l0 -2.124999q0 -0.671875 -0.078125 -0.859375q-0.0625 -0.203125 -0.21875 -0.3125q-0.15625 -0.109375 -0.375 -0.109375q-0.296875 0 -0.53125 0.15625q-0.21875 0.15625 -0.296875 0.421875q-0.078125 0.25 -0.078125 0.953125l0 1.874999l-1.109375 0l0 -4.156249l1.03125 0l0 0.609375q0.53125 -0.703125 1.359375 -0.703125q0.359375 0 0.65625 0.140625q0.3125 0.125 0.46875 0.328125q0.15625 0.203125 0.203125 0.46875q0.0625 0.25 0.0625 0.734375l0 2.578124zm4.9179688 0l-1.015625 0l0 -0.609375q-0.25 0.359375 -0.59375 0.53125q-0.34375 0.171875 -0.703125 0.171875q-0.71875 0 -1.234375 -0.578125q-0.5 -0.57812405 -0.5 -1.609374q0 -1.046875 0.5 -1.59375q0.5 -0.5625 1.25 -0.5625q0.703125 0 1.203125 0.578125l0 -2.0625l1.09375 0l0 5.734374zm-2.921875 -2.171874q0 0.671875 0.1875 0.96875q0.265625 0.421875 0.734375 0.421875q0.375 0 0.640625 -0.3125q0.265625 -0.328125 0.265625 -0.96875q0 -0.71875 -0.265625 -1.03125q-0.25 -0.3125 -0.640625 -0.3125q-0.390625 0 -0.65625 0.3125q-0.265625 0.3125 -0.265625 0.921875z" fill-rule="nonzero"/><path fill="#000000" fill-opacity="0.0" d="m131.69543 30.783308l-22.127663 17.713282" fill-rule="evenodd"/><path stroke="#5b9bd5" stroke-width="1.0" stroke-miterlimit="800.0" stroke-linecap="butt" d="m131.69543 30.783308l-17.443596 13.963671" fill-rule="evenodd"/><path fill="#5b9bd5" stroke="#5b9bd5" stroke-width="1.0" stroke-linecap="butt" d="m113.219604 43.45751l-2.510559 4.1254845l4.575012 -1.5465469z" fill-rule="evenodd"/></g></svg>